<svg version="1.1" id="Layer_1" xmlns="http://www.w3.org/2000/svg" xmlns:xlink="http://www.w3.org/1999/xlink" x="0px" y="0px"
	 width="100%" viewBox="0 0 200 200" enable-background="new 0 0 200 200" xml:space="preserve">
<path fill="#000000" opacity="1.000000" stroke="none" 
	d="
M116.000000,201.000000 
	C78.523140,201.000000 41.546185,200.966858 4.569590,201.066589 
	C1.788211,201.074097 0.895549,200.757339 0.902009,197.573593 
	C1.032798,133.114182 1.025543,68.654411 0.916147,4.194927 
	C0.911251,1.310415 1.641535,0.927127 4.301246,0.930788 
	C68.760788,1.019503 133.220505,1.018445 197.680054,0.933613 
	C200.301025,0.930163 201.091263,1.251550 201.086166,4.176239 
	C200.973465,68.802269 200.979828,133.428574 201.072601,198.054672 
	C201.076370,200.683716 200.318817,201.061981 197.948807,201.054520 
	C170.799408,200.968872 143.649658,201.000000 116.000000,201.000000 
z"/>
<path fill="#FF4400" opacity="1.000000" stroke="none" 
	d="
M147.815002,78.313469 
	C154.084427,74.858658 160.078186,71.604111 166.114426,68.430359 
	C168.448242,67.203278 170.961731,65.672356 173.114746,68.679306 
	C175.004715,71.318878 173.739166,73.270981 171.969772,75.665146 
	C154.807480,98.887596 137.823395,122.241737 120.792610,145.561340 
	C115.500244,152.807968 110.695145,160.479218 104.808441,167.204636 
	C98.251877,174.695328 89.592148,179.738937 79.851097,181.827026 
	C65.021736,185.005875 50.819054,182.996796 38.144470,174.010178 
	C25.569427,165.094147 16.808479,153.330994 13.221280,138.253082 
	C8.612654,118.881859 17.490139,98.067299 34.184669,86.925560 
	C58.178150,70.912575 82.063728,54.736008 105.848969,38.415901 
	C108.172813,36.821407 109.969383,36.827778 111.451370,38.372341 
	C112.988396,39.974270 113.947433,42.142902 112.017746,44.567669 
	C110.420059,46.575245 109.322227,48.980621 107.959549,51.569336 
	C107.600510,52.175632 107.522980,52.331120 107.683289,52.396088 
	C107.727272,52.413918 107.867340,52.423950 108.389954,52.557747 
	C121.419220,43.306072 134.200897,33.971317 146.870621,24.487022 
	C149.076294,22.835888 150.929031,22.141569 152.859985,24.429972 
	C154.728439,26.644299 154.418564,28.774059 152.538498,31.038036 
	C144.718994,40.454273 137.017365,49.968388 129.585938,59.809162 
	C134.677078,58.183887 138.210983,54.307480 142.225769,51.214211 
	C153.887863,42.228924 165.431686,33.089951 177.006409,23.991543 
	C179.712082,21.864737 182.235260,19.481401 185.072830,17.555595 
	C186.877106,16.331045 189.119080,14.708858 191.309601,16.920025 
	C193.377213,19.007122 192.947128,21.178345 191.145340,23.374136 
	C183.869156,32.241459 176.658478,41.162594 169.431885,50.070568 
	C162.209686,58.973122 154.997360,67.883682 147.557312,77.044968 
	C147.563553,77.543777 147.671646,77.810112 147.660385,78.098297 
	C147.648743,78.396736 147.614746,78.545998 147.815002,78.313469 
z"/>
<path fill="#000000" opacity="1.000000" stroke="none" 
	d="
M161.824463,79.180237 
	C151.839249,92.955376 141.993973,106.196434 132.190598,119.468430 
	C121.132912,134.438507 111.107155,150.316696 98.819649,164.194778 
	C84.146660,180.767090 58.542866,181.290161 40.672428,168.110855 
	C30.387579,160.525833 23.140619,150.835739 19.585121,138.269409 
	C15.242757,122.922028 22.813986,101.651909 34.772423,93.657532 
	C55.781670,79.612579 76.591377,65.268967 97.457291,51.010403 
	C98.301346,50.433624 99.019302,49.833260 100.682198,50.087563 
	C99.640396,52.981083 98.397873,55.596687 96.561661,57.990627 
	C94.924049,60.125633 94.311676,62.539509 96.448814,64.620895 
	C98.570663,66.687393 100.937180,65.994583 103.084976,64.389900 
	C112.377037,57.447521 121.665329,50.500057 130.935715,43.528797 
	C131.966568,42.753605 132.739365,41.457481 134.808441,42.479237 
	C128.568680,50.135513 122.422516,57.706612 116.238968,65.247047 
	C114.257965,67.662743 112.163239,69.984810 110.146667,72.371788 
	C106.563278,76.613403 107.520615,79.327530 113.816025,81.182312 
	C115.232483,83.024994 114.648735,84.312698 113.308586,85.293434 
	C110.217590,87.555473 107.053772,89.720016 103.735100,91.632439 
	C102.223633,92.503433 100.501007,92.805725 99.081757,91.469757 
	C97.473808,89.956139 97.927109,88.252106 98.819366,86.457893 
	C99.931328,84.221878 102.960091,81.792534 100.359695,79.408272 
	C97.750389,77.015823 95.152748,79.905128 92.764458,81.172089 
	C91.147621,82.029800 89.581062,82.989464 87.885651,83.684883 
	C84.794464,84.952835 82.374893,84.762527 81.436867,80.865601 
	C80.565758,77.246651 78.518929,77.572014 76.561798,79.892036 
	C74.298531,82.574959 71.763756,84.973587 69.351547,87.500366 
	C65.886436,91.130058 62.618359,93.742622 56.630821,93.540092 
	C50.121677,93.319939 43.957081,96.488396 42.090965,104.115883 
	C41.156151,107.936806 38.937374,111.070679 36.534584,114.061493 
	C34.617752,116.447426 33.463863,119.154785 32.445652,121.999527 
	C31.087517,125.793961 31.505629,128.530182 35.430729,130.754379 
	C39.705956,133.176987 40.383648,137.224167 37.108910,141.320343 
	C34.219227,144.934891 34.848560,147.805161 37.192551,151.190506 
	C42.095058,158.270996 48.837334,162.454697 57.100868,164.351669 
	C60.008656,165.019150 62.608856,164.983475 64.278809,161.660355 
	C65.783882,158.665314 68.777451,158.696533 71.722786,158.943710 
	C75.438400,159.255569 79.197517,161.876724 82.857323,159.479065 
	C87.504448,156.434555 91.133034,152.294250 93.921265,147.460907 
	C94.841095,145.866394 95.774757,144.182251 95.997078,142.397598 
	C97.159088,133.069565 103.975182,127.775009 110.342178,122.255646 
	C114.255432,118.863380 117.872482,115.204971 121.468880,111.508896 
	C122.386269,110.566071 123.438080,109.430817 122.630478,107.994209 
	C121.823860,106.559357 120.350494,106.963158 119.032814,107.157288 
	C117.570107,107.372780 116.126160,108.201248 114.631920,107.596382 
	C111.565933,106.355293 111.314018,104.158073 112.831848,101.543388 
	C115.761803,96.496086 119.383194,91.913498 122.627960,87.077721 
	C126.740265,80.949013 126.626945,80.701843 119.453499,78.829712 
	C119.121025,78.354485 119.040657,78.132729 119.143677,77.608406 
	C126.174644,71.752991 132.975388,66.141113 139.881332,60.661831 
	C149.087341,53.357666 158.365982,46.144833 167.642578,38.930229 
	C168.525452,38.243591 169.615112,37.822815 171.167297,36.972736 
	C170.670547,41.352749 167.364212,43.447525 165.290359,46.034771 
	C155.563156,58.169971 145.453979,69.998253 135.569199,82.008560 
	C133.726776,84.247139 132.240723,86.737785 135.001770,89.552742 
	C137.747574,92.352142 139.975861,90.510582 142.421738,89.093010 
	C148.318832,85.675209 154.275360,82.359985 160.567078,78.961166 
	C161.278442,78.832550 161.630676,78.746185 161.824463,79.180237 
z"/>
<path fill="#000000" opacity="1.000000" stroke="none" 
	d="
M114.117920,81.107635 
	C114.729805,80.335236 115.536156,79.748734 116.869240,79.318512 
	C117.677528,81.054565 116.855003,81.703651 115.056366,81.747223 
	C114.571709,81.541367 114.442039,81.417450 114.117920,81.107635 
z"/>
<path fill="#000000" opacity="1.000000" stroke="none" 
	d="
M117.112717,79.112961 
	C117.187660,77.917542 118.219238,78.111557 119.089348,77.494759 
	C119.452324,77.434280 119.577583,77.562729 119.886452,77.887924 
	C120.238991,79.379494 119.382210,79.673637 118.026436,79.755646 
	C117.551842,79.561554 117.426369,79.433395 117.112717,79.112961 
z"/>
<path fill="#000000" opacity="1.000000" stroke="none" 
	d="
M161.110321,79.115158 
	C161.271393,78.117561 161.803253,77.779221 162.585144,78.343620 
	C162.634232,78.379051 162.273605,78.982056 161.884811,79.510834 
	C161.542160,79.570915 161.418289,79.441162 161.110321,79.115158 
z"/>
<path fill="#000000" opacity="1.000000" stroke="none" 
	d="
M147.889618,77.884697 
	C147.728485,78.882294 147.196625,79.220764 146.414688,78.656258 
	C146.365601,78.620819 146.726273,78.017776 147.115143,77.489014 
	C147.457794,77.428963 147.581650,77.558708 147.889618,77.884697 
z"/>
<path fill="#000000" opacity="1.000000" stroke="none" 
	d="
M128.161392,61.155239 
	C128.251465,61.726738 128.334488,62.737759 127.505363,62.293877 
	C126.666138,61.844589 127.349129,61.367867 128.161392,61.155239 
z"/>
<path fill="#000000" opacity="1.000000" stroke="none" 
	d="
M108.486649,52.499935 
	C108.223610,53.014317 108.041649,53.945587 107.266571,53.460358 
	C107.099075,53.355495 107.332222,52.610661 107.648499,52.044765 
	C108.043365,52.055389 108.170563,52.181854 108.486649,52.499935 
z"/>
<path fill="#000000" opacity="1.000000" stroke="none" 
	d="
M101.422508,49.823921 
	C100.202194,49.648632 100.456367,49.007072 101.005310,48.738369 
	C102.040329,48.231739 101.701355,49.153790 101.422508,49.823921 
z"/>
<path fill="#000000" opacity="1.000000" stroke="none" 
	d="
M135.599197,40.371914 
	C136.145676,39.565273 136.727814,39.207069 136.780365,40.203785 
	C136.826553,41.080166 136.106110,40.936348 135.599197,40.371914 
z"/>
<path fill="#000000" opacity="1.000000" stroke="none" 
	d="
M174.339752,34.489273 
	C174.077667,35.012688 173.666550,35.992142 173.197296,35.111645 
	C172.784500,34.337109 173.543610,34.185738 174.339752,34.489273 
z"/>
<path fill="#FF4500" opacity="1.000000" stroke="none" 
	d="
M117.474731,79.920746 
	C118.391617,79.339287 119.105919,78.988861 119.945145,78.361549 
	C120.809799,77.787460 121.694778,77.656876 122.262329,77.162140 
	C124.043495,75.609474 125.771187,75.412231 127.536476,77.056915 
	C129.537903,78.921593 129.644348,81.087036 128.166153,83.266029 
	C123.777008,89.735924 119.311806,96.154190 114.908234,102.614388 
	C114.269867,103.550880 113.806282,104.606514 113.191055,105.737045 
	C116.317123,106.416107 118.538147,103.797775 121.326378,104.021950 
	C123.206650,104.173111 125.655777,103.102509 126.682472,105.492378 
	C127.674889,107.802475 126.881096,109.823433 124.920845,111.648575 
	C117.525864,118.533821 110.283066,125.582298 102.959656,132.544815 
	C101.262138,134.158676 100.271095,135.795319 99.839127,138.365738 
	C98.177094,148.255768 91.912094,155.367294 84.628838,161.781326 
	C80.414459,165.492767 76.412041,162.264755 72.435982,161.616180 
	C69.062691,161.065933 66.279144,159.818405 65.821602,164.973495 
	C65.642044,166.996552 63.703503,168.361053 61.354198,167.955933 
	C48.264732,165.698776 37.776150,159.778946 32.000534,147.143799 
	C30.892076,144.718857 30.471376,143.046417 33.541775,141.661026 
	C35.657928,140.706192 37.140457,138.453964 36.845909,136.025040 
	C36.544834,133.542267 34.551891,132.456894 32.068832,131.885574 
	C29.167948,131.218094 28.087301,129.265671 28.868578,126.138786 
	C30.012775,121.559380 30.871063,117.014824 34.148205,113.215965 
	C36.887360,110.040741 39.400101,106.565063 40.043797,102.161674 
	C41.200272,94.250473 48.072563,93.261330 53.817585,91.070793 
	C55.818756,90.307770 58.120285,89.224838 60.253914,91.076035 
	C61.531467,92.184471 62.336658,91.252251 63.105984,90.378532 
	C66.708260,86.287460 71.149765,83.030060 74.328537,78.469208 
	C75.892693,76.224983 77.740021,72.769196 81.373810,74.271286 
	C85.112778,75.816864 84.109390,79.360878 83.575951,82.849182 
	C88.432831,81.560745 92.052849,78.215309 96.350632,76.265068 
	C98.621483,75.234612 100.788116,73.921509 103.013222,76.472130 
	C105.322144,79.118820 105.364189,81.593124 103.184235,84.354591 
	C101.686829,86.251442 100.498383,88.392197 98.479279,91.484634 
	C104.950401,88.938766 109.055832,84.597420 114.468292,81.924126 
	C115.558289,81.160774 116.415215,80.656273 117.474731,79.920746 
z"/>
<path fill="#000000" opacity="1.000000" stroke="none" 
	d="
M83.005417,120.799126 
	C83.412155,127.710686 89.357384,130.004547 93.711983,134.256882 
	C86.104759,133.563339 82.088501,137.437378 83.975220,142.610168 
	C84.592995,144.303925 85.518265,145.548309 87.239342,145.952682 
	C91.343712,146.917007 89.961380,148.647308 87.965858,150.527588 
	C87.602936,150.869553 87.175316,151.181381 86.922188,151.595505 
	C83.344093,157.449280 78.015396,157.370132 72.413033,155.667969 
	C69.392258,154.750168 66.271484,155.478653 63.794216,151.283447 
	C60.784454,146.186493 52.417175,148.920212 51.222488,155.238602 
	C50.547306,158.809464 49.113716,158.050507 47.618427,156.765915 
	C44.611298,154.182480 41.813942,151.318192 39.206146,148.328918 
	C38.421227,147.429153 37.843349,146.334396 39.493729,144.447586 
	C44.260868,138.997543 42.731895,131.559799 36.861908,126.952980 
	C32.757965,123.732170 35.842262,119.881294 37.715027,118.203804 
	C42.486603,113.929779 43.520882,108.083427 45.922504,102.823051 
	C47.874374,98.547783 54.921795,95.610428 59.075706,97.522758 
	C63.327354,99.480064 67.178246,102.528831 72.304794,102.284279 
	C72.934044,102.254257 75.341568,102.365936 74.599815,104.986649 
	C72.585251,112.104286 74.696571,114.773560 82.022850,115.018532 
	C82.506378,115.034698 82.986298,115.158554 83.707405,115.268997 
	C83.467331,117.007401 83.234489,118.693481 83.005417,120.799126 
z"/>
<path fill="#000000" opacity="1.000000" stroke="none" 
	d="
M112.824677,114.180344 
	C108.805573,118.606102 104.981941,122.549156 101.056702,126.388336 
	C100.145973,127.279091 98.888702,127.815552 97.790886,128.515030 
	C96.209480,125.828110 92.727615,126.136940 90.793556,124.169724 
	C88.279427,121.612465 88.409744,118.456047 91.226044,116.504761 
	C94.556000,114.197578 93.043030,111.826469 91.835693,109.767441 
	C87.336678,102.094604 80.675255,97.523155 71.613121,97.058197 
	C70.027878,96.976852 68.180870,96.638947 67.667000,95.645912 
	C67.085815,94.522797 69.021790,93.641785 69.858734,92.660339 
	C71.474831,90.765221 73.155083,88.924789 75.283905,86.526337 
	C76.072159,89.167450 76.690796,90.994301 78.550682,91.788132 
	C80.470268,92.607437 82.087456,91.504898 83.664497,90.688362 
	C86.546738,89.196030 89.361008,87.572441 92.564903,85.961266 
	C93.278419,85.832558 93.630653,85.746185 93.824440,86.180229 
	C92.733276,88.027206 91.779984,89.339851 90.872101,90.683189 
	C88.937653,93.545479 87.581436,96.692406 90.266914,99.612770 
	C92.866402,102.439644 96.111160,101.184715 98.830688,99.571983 
	C103.572510,96.759995 108.126686,93.632706 112.784668,90.677208 
	C113.658035,90.123055 114.649002,89.754234 116.913376,88.655876 
	C112.413742,95.132301 108.733376,100.389587 105.099297,105.678688 
	C103.516678,107.982071 101.884277,110.309853 104.059868,113.181793 
	C106.162811,115.957863 108.702232,114.484108 111.539001,113.954025 
	C112.278557,113.832619 112.630844,113.746223 112.824677,114.180344 
z"/>
<path fill="#000000" opacity="1.000000" stroke="none" 
	d="
M58.953842,156.075348 
	C60.216869,156.937943 60.288200,158.031845 59.484730,158.707611 
	C58.747070,159.328003 57.923695,158.550201 57.471653,157.863098 
	C56.637413,156.595032 57.300957,156.099060 58.953842,156.075348 
z"/>
<path fill="#000000" opacity="1.000000" stroke="none" 
	d="
M93.110275,86.115173 
	C93.271378,85.117607 93.803185,84.779045 94.585167,85.343559 
	C94.634247,85.379005 94.273590,85.982018 93.884773,86.510818 
	C93.542122,86.570908 93.418251,86.441162 93.110275,86.115173 
z"/>
<path fill="#000000" opacity="1.000000" stroke="none" 
	d="
M112.110382,114.115280 
	C112.271553,113.117584 112.803497,112.779015 113.585518,113.343651 
	C113.634682,113.379150 113.274002,113.982254 112.885086,114.511078 
	C112.542305,114.571091 112.418404,114.441330 112.110382,114.115280 
z"/>
<path fill="#FF4500" opacity="1.000000" stroke="none" 
	d="
M52.885460,137.405426 
	C50.280735,136.088547 48.147530,134.764648 48.039867,131.922241 
	C47.952915,129.626602 45.974934,129.800873 44.764324,128.929077 
	C41.529320,126.599442 38.905838,123.730484 40.323196,119.436584 
	C41.746922,115.123390 45.225189,113.567520 49.647526,114.000565 
	C49.976326,114.032761 50.312138,113.997498 50.639946,114.035027 
	C52.501587,114.248093 54.041229,115.802078 54.310284,117.013031 
	C55.638638,122.991646 65.660957,123.654953 63.099285,132.029236 
	C61.960659,135.751511 58.553604,138.177643 52.885460,137.405426 
z"/>
<path fill="#000000" opacity="1.000000" stroke="none" 
	d="
M47.577507,123.207840 
	C44.966038,122.103355 46.289848,121.093658 47.310928,120.359947 
	C48.111549,119.784653 49.447113,119.648598 49.810028,120.719292 
	C50.279072,122.103081 50.109276,123.617874 47.577507,123.207840 
z"/>
<path fill="#000000" opacity="1.000000" stroke="none" 
	d="
M56.854553,130.370834 
	C55.068630,132.692383 54.257587,130.849197 53.570656,129.811279 
	C53.010612,128.965073 53.976482,128.374222 54.685066,128.163986 
	C56.245396,127.701050 57.212898,128.175949 56.854553,130.370834 
z"/>
</svg>