<svg version="1.1" id="Layer_1" xmlns="http://www.w3.org/2000/svg" xmlns:xlink="http://www.w3.org/1999/xlink" x="0px" y="0px"
	 width="100%" viewBox="0 0 200 200" enable-background="new 0 0 200 200" xml:space="preserve">
<path fill="#000000" opacity="1.000000" stroke="none" 
	d="
	M22.000000,201.000000 
	C15.004107,201.000000 8.008215,201.000000 1.009241,201.000000 
	C1.006161,134.376556 1.006161,67.753113 1.006161,1.064836 
	C67.584274,1.064836 134.168625,1.064836 200.876495,1.064836 
	C200.876495,67.545006 200.876495,134.090317 200.876495,201.000000 
	C159.646484,201.000000 118.291901,201.000000 76.469795,200.545319 
	C76.336655,191.834641 76.513550,183.568481 77.046623,175.325348 
	C77.666611,165.738220 84.457306,156.649216 91.829262,153.927856 
	C95.670677,152.509796 100.056297,150.690247 102.478439,147.673111 
	C108.497612,140.175323 113.763321,132.032349 118.898232,123.875641 
	C124.699921,114.659805 129.975235,105.114197 135.576447,95.770134 
	C142.009201,85.038887 149.171234,74.687279 154.813614,63.560764 
	C158.344177,56.598671 159.799667,48.549553 161.830429,40.893803 
	C162.193604,39.524639 160.817947,37.694237 160.245163,36.076797 
	C159.069427,36.949959 157.841980,37.763569 156.739426,38.721001 
	C156.174545,39.211517 155.832993,39.959209 155.631119,40.247292 
	C154.776382,38.891426 153.879196,37.468254 152.982025,36.045078 
	C151.204773,37.615650 149.427521,39.186226 148.012329,40.436832 
	C146.806091,39.345970 145.523666,38.186203 144.241241,37.026436 
	C143.492661,38.616112 142.593124,40.154900 142.035461,41.808952 
	C141.405640,43.676929 141.083130,45.648514 140.791245,46.881268 
	C138.209457,46.112988 135.806061,45.397797 132.072144,44.286667 
	C133.812042,47.654831 134.760178,49.508873 135.724915,51.354233 
	C138.272568,56.227398 139.196930,61.284805 136.239304,66.206535 
	C133.153214,71.342056 129.666443,76.239105 126.299957,81.203178 
	C122.677635,86.544487 118.396263,91.544006 115.530373,97.258339 
	C113.414009,101.478195 113.365280,106.684822 111.943359,111.312943 
	C108.279266,123.239059 102.601807,133.661896 91.174843,138.214325 
	C86.393196,135.172653 82.254272,132.659622 78.257439,129.937927 
	C76.677483,128.862030 74.478775,127.483765 74.214180,125.956833 
	C73.760490,123.338699 72.976929,120.311371 76.823441,118.393829 
	C85.772789,113.932442 90.401672,106.029457 94.267815,96.922272 
	C99.472260,84.662590 103.297005,72.145546 104.848251,59.038586 
	C105.703964,51.808407 105.847107,44.257885 104.694809,37.112495 
	C103.976578,32.658764 100.382278,28.603247 97.830643,24.524178 
	C92.196518,15.517406 84.507118,9.736629 73.348808,11.127077 
	C68.941887,11.676228 64.683334,13.578303 60.413380,15.029570 
	C52.244354,17.806044 44.792469,21.636032 40.195518,29.458246 
	C35.653992,37.186146 33.686260,45.654457 33.016537,54.478374 
	C32.683647,58.864388 32.093994,63.299778 32.429890,67.650337 
	C32.853844,73.141464 33.968452,78.595192 35.025444,84.018219 
	C37.275307,95.561417 41.362389,106.628265 50.335659,114.336395 
	C54.964195,118.312332 56.718994,121.884865 56.000912,127.387230 
	C55.898750,128.170074 55.858288,128.960953 55.789261,129.748108 
	C55.564819,129.298584 55.340378,128.849060 55.115936,128.399536 
	C49.259098,130.589676 43.346996,132.647247 37.579304,135.051239 
	C35.862057,135.767014 34.103451,137.175339 33.123264,138.741608 
	C25.718096,150.574585 21.465704,163.331711 21.949680,177.509857 
	C22.216673,185.331360 21.999115,193.169403 22.000000,201.000000 
z"/>
<path fill="#000000" opacity="1.000000" stroke="none" 
	d="
	M33.000000,201.000000 
	C30.958334,201.000000 28.916666,201.000000 26.438803,200.533234 
	C27.341118,185.188110 28.023462,170.210602 30.251112,155.466583 
	C31.712097,145.796814 36.607773,137.500824 47.399521,134.816391 
	C51.582939,133.775772 55.725445,132.570694 59.829758,131.455948 
	C60.363613,120.300606 60.363613,120.300606 69.809502,121.390526 
	C70.256516,123.361595 70.711174,125.366386 71.182457,127.444466 
	C69.487556,127.906151 68.204338,128.255707 65.382736,129.024292 
	C67.748116,130.538300 68.831215,131.546310 70.110634,131.996872 
	C76.157051,134.126144 82.107544,136.225098 86.308868,141.618240 
	C87.135094,142.678848 89.973541,143.363815 91.150635,142.769547 
	C100.096802,138.252960 108.521385,132.935760 111.907166,122.709511 
	C114.196304,115.795486 115.220985,108.340309 118.324318,101.850739 
	C121.858124,94.460938 126.537888,87.442940 131.694077,81.049240 
	C138.310547,72.844765 142.620331,63.907833 144.002121,53.692028 
	C147.059814,54.736423 149.964554,55.728577 154.205048,57.176971 
	C149.637634,65.186745 145.383942,73.075127 140.728256,80.718643 
	C131.955872,95.120819 122.580330,109.167709 114.162468,123.769836 
	C107.517990,135.295731 101.275551,146.590912 88.043365,152.190460 
	C82.184204,154.669922 75.943253,158.262421 75.093735,165.717987 
	C73.757652,177.443924 73.001625,189.235947 72.000000,201.000000 
	C63.979099,201.000000 55.958202,201.000000 47.469246,200.561356 
	C46.668030,197.709564 46.193489,195.306168 46.026184,192.881577 
	C45.301529,182.380005 45.121273,171.814056 43.788292,161.393661 
	C43.207954,156.856979 44.004803,151.155319 37.795658,147.040756 
	C36.138680,165.684570 34.569340,183.342285 33.000000,201.000000 
z"/>
<path fill="#62FFB1" opacity="1.000000" stroke="none" 
	d="
	M72.399994,201.000000 
	C73.001625,189.235947 73.757652,177.443924 75.093735,165.717987 
	C75.943253,158.262421 82.184204,154.669922 88.043365,152.190460 
	C101.275551,146.590912 107.517990,135.295731 114.162468,123.769836 
	C122.580330,109.167709 131.955872,95.120819 140.728256,80.718643 
	C145.383942,73.075127 149.637634,65.186745 154.205048,57.176971 
	C149.964554,55.728577 147.059814,54.736423 144.002121,53.692028 
	C142.620331,63.907833 138.310547,72.844765 131.694077,81.049240 
	C126.537888,87.442940 121.858124,94.460938 118.324318,101.850739 
	C115.220985,108.340309 114.196304,115.795486 111.907166,122.709511 
	C108.521385,132.935760 100.096802,138.252960 91.150635,142.769547 
	C89.973541,143.363815 87.135094,142.678848 86.308868,141.618240 
	C82.107544,136.225098 76.157051,134.126144 70.110634,131.996872 
	C68.831215,131.546310 67.748116,130.538300 65.382736,129.024292 
	C68.204338,128.255707 69.487556,127.906151 71.182457,127.444466 
	C70.711174,125.366386 70.256516,123.361595 69.809502,121.390526 
	C60.363613,120.300606 60.363613,120.300606 59.829758,131.455948 
	C55.725445,132.570694 51.582939,133.775772 47.399521,134.816391 
	C36.607773,137.500824 31.712097,145.796814 30.251112,155.466583 
	C28.023462,170.210602 27.341118,185.188110 26.001303,200.533234 
	C24.933331,201.000000 23.866661,201.000000 22.399996,201.000000 
	C21.999115,193.169403 22.216673,185.331360 21.949680,177.509857 
	C21.465704,163.331711 25.718096,150.574585 33.123264,138.741608 
	C34.103451,137.175339 35.862057,135.767014 37.579304,135.051239 
	C43.346996,132.647247 49.259098,130.589676 55.115936,128.399536 
	C55.340378,128.849060 55.564819,129.298584 55.789261,129.748108 
	C55.858288,128.960953 55.898750,128.170074 56.000912,127.387230 
	C56.718994,121.884865 54.964195,118.312332 50.335659,114.336395 
	C41.362389,106.628265 37.275307,95.561417 35.025444,84.018219 
	C33.968452,78.595192 32.853844,73.141464 32.429890,67.650337 
	C32.093994,63.299778 32.683647,58.864388 33.016537,54.478374 
	C33.686260,45.654457 35.653992,37.186146 40.195518,29.458246 
	C44.792469,21.636032 52.244354,17.806044 60.413380,15.029570 
	C64.683334,13.578303 68.941887,11.676228 73.348808,11.127077 
	C84.507118,9.736629 92.196518,15.517406 97.830643,24.524178 
	C100.382278,28.603247 103.976578,32.658764 104.694809,37.112495 
	C105.847107,44.257885 105.703964,51.808407 104.848251,59.038586 
	C103.297005,72.145546 99.472260,84.662590 94.267815,96.922272 
	C90.401672,106.029457 85.772789,113.932442 76.823441,118.393829 
	C72.976929,120.311371 73.760490,123.338699 74.214180,125.956833 
	C74.478775,127.483765 76.677483,128.862030 78.257439,129.937927 
	C82.254272,132.659622 86.393196,135.172653 91.174843,138.214325 
	C102.601807,133.661896 108.279266,123.239059 111.943359,111.312943 
	C113.365280,106.684822 113.414009,101.478195 115.530373,97.258339 
	C118.396263,91.544006 122.677635,86.544487 126.299957,81.203178 
	C129.666443,76.239105 133.153214,71.342056 136.239304,66.206535 
	C139.196930,61.284805 138.272568,56.227398 135.724915,51.354233 
	C134.760178,49.508873 133.812042,47.654831 132.072144,44.286667 
	C135.806061,45.397797 138.209457,46.112988 140.791245,46.881268 
	C141.083130,45.648514 141.405640,43.676929 142.035461,41.808952 
	C142.593124,40.154900 143.492661,38.616112 144.241241,37.026436 
	C145.523666,38.186203 146.806091,39.345970 148.012329,40.436832 
	C149.427521,39.186226 151.204773,37.615650 152.982025,36.045078 
	C153.879196,37.468254 154.776382,38.891426 155.631119,40.247292 
	C155.832993,39.959209 156.174545,39.211517 156.739426,38.721001 
	C157.841980,37.763569 159.069427,36.949959 160.245163,36.076797 
	C160.817947,37.694237 162.193604,39.524639 161.830429,40.893803 
	C159.799667,48.549553 158.344177,56.598671 154.813614,63.560764 
	C149.171234,74.687279 142.009201,85.038887 135.576447,95.770134 
	C129.975235,105.114197 124.699921,114.659805 118.898232,123.875641 
	C113.763321,132.032349 108.497612,140.175323 102.478439,147.673111 
	C100.056297,150.690247 95.670677,152.509796 91.829262,153.927856 
	C84.457306,156.649216 77.666611,165.738220 77.046623,175.325348 
	C76.513550,183.568481 76.336655,191.834641 76.001137,200.545319 
	C74.933327,201.000000 73.866661,201.000000 72.399994,201.000000 
M99.095528,38.920780 
	C99.095528,38.920780 99.177994,38.940323 99.000595,38.156204 
	C98.605286,35.926823 98.983818,32.946140 97.677803,31.600924 
	C92.606895,26.377802 90.031258,18.196764 81.497086,16.925957 
	C77.619843,16.348600 73.313011,15.159369 69.819199,16.242191 
	C62.852821,18.401247 55.640041,20.975418 49.736679,25.104633 
	C37.090534,33.950211 36.696114,48.533108 36.444725,61.844673 
	C36.256451,71.814316 38.236103,82.008331 41.698444,91.874779 
	C45.305294,102.153008 50.794903,110.348869 59.823017,116.172050 
	C61.491421,117.248177 64.104805,118.371155 65.692184,117.808472 
	C74.145950,114.811836 82.763512,112.034523 87.107491,102.792870 
	C93.608261,88.962746 98.401985,74.665436 101.068344,59.601204 
	C102.341835,52.406315 103.026375,45.447937 99.095528,38.920780 
z"/>
<path fill="#64FFB1" opacity="1.000000" stroke="none" 
	d="
M33.399994,201.000000 
	C34.569340,183.342285 36.138680,165.684570 37.795658,147.040756 
	C44.004803,151.155319 43.207954,156.856979 43.788292,161.393661 
	C45.121273,171.814056 45.301529,182.380005 46.026184,192.881577 
	C46.193489,195.306168 46.668030,197.709564 47.000595,200.561356 
	C45.611111,201.000000 44.222221,201.000000 42.423908,200.531403 
	C41.699448,186.995316 41.384407,173.927826 41.069370,160.860352 
	C40.786377,160.861420 40.503384,160.862503 40.220390,160.863571 
	C39.146927,174.242386 38.073463,187.621185 37.000000,201.000000 
	C35.933331,201.000000 34.866661,201.000000 33.399994,201.000000 
z"/>
<path fill="#000000" opacity="1.000000" stroke="none" 
	d="
M37.416664,201.000000 
	C38.073463,187.621185 39.146927,174.242386 40.220390,160.863571 
	C40.503384,160.862503 40.786377,160.861420 41.069370,160.860352 
	C41.384407,173.927826 41.699448,186.995316 42.007240,200.531403 
	C40.611111,201.000000 39.222221,201.000000 37.416664,201.000000 
z"/>
<path fill="#000000" opacity="1.000000" stroke="none" 
	d="
M99.073250,38.839005 
	C103.026375,45.447937 102.341835,52.406315 101.068344,59.601204 
	C98.401985,74.665436 93.608261,88.962746 87.107491,102.792870 
	C82.763512,112.034523 74.145950,114.811836 65.692184,117.808472 
	C64.104805,118.371155 61.491421,117.248177 59.823017,116.172050 
	C50.794903,110.348869 45.305294,102.153008 41.698444,91.874779 
	C38.236103,82.008331 36.256451,71.814316 36.444725,61.844673 
	C36.696114,48.533108 37.090534,33.950211 49.736679,25.104633 
	C55.640041,20.975418 62.852821,18.401247 69.819199,16.242191 
	C73.313011,15.159369 77.619843,16.348600 81.497086,16.925957 
	C90.031258,18.196764 92.606895,26.377802 97.677803,31.600924 
	C98.983818,32.946140 98.605286,35.926823 98.791451,38.937263 
	C95.132133,36.463448 87.758316,37.603977 83.872864,41.664310 
	C73.494240,52.510040 72.629257,65.562874 75.918564,79.244484 
	C76.446930,81.442184 79.199860,84.564484 81.030556,84.638603 
	C83.607056,84.742943 87.540504,83.085274 88.691032,80.978287 
	C92.924431,73.225586 96.931465,65.197357 99.638847,56.824970 
	C101.073402,52.388710 99.677200,47.029419 99.509117,42.088520 
	C99.472153,41.001663 99.224098,39.921986 99.073250,38.839005 
M50.485901,79.990372 
	C51.044918,80.789436 51.629246,81.572121 52.158466,82.390457 
	C54.192833,85.536201 57.376881,87.214821 60.595039,85.743874 
	C62.594540,84.829933 64.524178,81.811630 64.837776,79.513084 
	C65.943260,71.410362 66.763725,63.213203 66.814079,55.046455 
	C66.837845,51.192268 65.505569,46.983765 63.660278,43.539906 
	C60.365265,37.390438 53.913349,35.855473 49.451046,38.991364 
	C45.438213,41.811394 40.064335,57.835205 42.291103,62.545292 
	C44.935699,68.139175 47.423889,73.807007 50.485901,79.990372 
M64.687515,99.066254 
	C64.344772,100.420944 63.525860,102.870300 63.733166,102.960480 
	C65.737946,103.832535 67.891937,104.498650 70.059410,104.762314 
	C70.595284,104.827499 71.334862,103.218117 71.980804,102.378510 
	C71.291779,101.904129 70.648758,101.334137 69.903915,100.975769 
	C68.459412,100.280769 66.957657,99.704765 64.687515,99.066254 
z"/>
<path fill="#65FFB1" opacity="1.000000" stroke="none" 
	d="
	M50.232880,79.716583 
	C47.423889,73.807007 44.935699,68.139175 42.291103,62.545292 
	C40.064335,57.835205 45.438213,41.811394 49.451046,38.991364 
	C53.913349,35.855473 60.365265,37.390438 63.660278,43.539906 
	C65.505569,46.983765 66.837845,51.192268 66.814079,55.046455 
	C66.763725,63.213203 65.943260,71.410362 64.837776,79.513084 
	C64.524178,81.811630 62.594540,84.829933 60.595039,85.743874 
	C57.376881,87.214821 54.192833,85.536201 52.158466,82.390457 
	C51.629246,81.572121 51.044918,80.789436 50.232880,79.716583 
z"/>
<path fill="#65FFB2" opacity="1.000000" stroke="none" 
	d="
	M99.084389,38.879890 
	C99.224098,39.921986 99.472153,41.001663 99.509117,42.088520 
	C99.677200,47.029419 101.073402,52.388710 99.638847,56.824970 
	C96.931465,65.197357 92.924431,73.225586 88.691032,80.978287 
	C87.540504,83.085274 83.607056,84.742943 81.030556,84.638603 
	C79.199860,84.564484 76.446930,81.442184 75.918564,79.244484 
	C72.629257,65.562874 73.494240,52.510040 83.872864,41.664310 
	C87.758316,37.603977 95.132133,36.463448 98.880150,39.329323 
	C99.177994,38.940323 99.095528,38.920780 99.084389,38.879890 
z"/>
<path fill="#62FFB1" opacity="1.000000" stroke="none" 
	d="
M65.083572,99.072861 
	C66.957657,99.704765 68.459412,100.280769 69.903915,100.975769 
	C70.648758,101.334137 71.291779,101.904129 71.980804,102.378510 
	C71.334862,103.218117 70.595284,104.827499 70.059410,104.762314 
	C67.891937,104.498650 65.737946,103.832535 63.733166,102.960480 
	C63.525860,102.870300 64.344772,100.420944 65.083572,99.072861 
z"/>
</svg>