	<svg version="1.1" id="Layer_1" xmlns="http://www.w3.org/2000/svg" xmlns:xlink="http://www.w3.org/1999/xlink" x="0px" y="0px"
	 width="100%" viewBox="0 0 400 400" enable-background="new 0 0 400 400" xml:space="preserve">
<path fill="#000000" opacity="1.000000" stroke="none" 
	d="
		M222.000000,401.000000 
	C148.022964,401.000000 74.545929,401.000000 1.034447,401.000000 
	C1.034447,267.731293 1.034447,134.462585 1.034447,1.096937 
	C134.226990,1.096937 267.454071,1.096937 400.840576,1.096937 
	C400.840576,134.333176 400.840576,267.666565 400.840576,401.000000 
	C341.462677,401.000000 281.981323,401.000000 222.000000,401.000000 
		M189.500000,398.000000 
	C255.916122,398.000000 322.332245,398.000000 388.688629,398.000000 
	C388.688629,393.343445 388.688629,389.276581 388.688629,384.778564 
	C383.643311,384.778564 378.903442,384.778564 374.000000,384.778564 
	C374.000000,382.521027 374.000000,380.701172 374.000000,378.881317 
	C374.000000,296.401062 374.000214,213.920776 373.999573,131.440506 
	C373.999512,124.307465 372.725250,123.000969 365.759857,123.000679 
	C330.434967,122.999214 295.110107,122.999748 259.785217,123.000191 
	C251.508728,123.000290 250.006195,124.470024 250.003159,132.672684 
	C249.994263,156.666946 250.000000,180.661194 250.000000,204.655457 
	C250.000000,206.402191 250.000000,208.148941 250.000000,209.793716 
	C240.655487,209.793716 232.040558,209.793716 223.000000,209.793716 
	C223.000000,207.819458 223.000000,206.026749 223.000000,204.234039 
	C223.000000,170.242172 222.995697,136.250290 223.007034,102.258423 
	C223.008102,99.045685 222.310333,96.761612 219.275269,94.483078 
	C211.686859,88.786217 204.623657,82.363708 197.612488,75.945328 
	C196.158249,74.614052 195.184525,72.063019 195.115280,70.035683 
	C194.836731,61.880486 195.214462,53.701008 194.865387,45.551250 
	C194.764542,43.196724 193.670578,40.189781 191.965820,38.710690 
	C180.111084,28.425205 167.944901,18.499680 155.949799,8.374359 
	C152.615921,5.560166 149.321396,5.065811 145.787827,7.745442 
	C133.223343,17.273491 120.857193,27.076897 108.040230,36.251148 
	C103.091331,39.793518 101.599197,43.807968 101.903008,49.540489 
	C102.299278,57.017693 102.210793,64.541435 101.867355,72.023880 
	C101.768509,74.177391 100.622597,76.922394 99.012367,78.255630 
	C92.256081,83.849686 85.315430,89.265373 78.078148,94.213806 
	C74.897758,96.388374 73.949562,98.791496 73.963890,102.314568 
	C74.040474,121.143089 74.000008,139.972092 74.000000,158.800919 
	C74.000000,161.081833 74.000000,163.362762 74.000000,166.000000 
	C61.233997,166.000000 48.941044,166.090271 36.650299,165.964676 
	C29.762945,165.894287 26.833296,168.922821 26.855671,175.425064 
	C27.089596,243.407990 27.000000,311.392029 27.000000,379.375763 
	C27.000000,381.149689 27.000000,382.923645 27.000000,385.127838 
	C21.404060,385.127838 16.324621,385.127838 11.303730,385.127838 
	C11.303730,389.639954 11.303730,393.706360 11.303730,398.000000 
	C70.571426,398.000000 129.535721,398.000000 189.500000,398.000000 
		z"/>
		<path fill="#00FFFF" opacity="1.000000" stroke="none" 
	d="
		M189.000000,398.000000 
	C129.535721,398.000000 70.571426,398.000000 11.303730,398.000000 
	C11.303730,393.706360 11.303730,389.639954 11.303730,385.127838 
	C16.324621,385.127838 21.404060,385.127838 27.000000,385.127838 
	C27.000000,382.923645 27.000000,381.149689 27.000000,379.375763 
	C27.000000,311.392029 27.089596,243.407990 26.855671,175.425064 
	C26.833296,168.922821 29.762945,165.894287 36.650299,165.964676 
	C48.941044,166.090271 61.233997,166.000000 74.000000,166.000000 
	C74.000000,163.362762 74.000000,161.081833 74.000000,158.800919 
	C74.000008,139.972092 74.040474,121.143089 73.963890,102.314568 
	C73.949562,98.791496 74.897758,96.388374 78.078148,94.213806 
	C85.315430,89.265373 92.256081,83.849686 99.012367,78.255630 
	C100.622597,76.922394 101.768509,74.177391 101.867355,72.023880 
	C102.210793,64.541435 102.299278,57.017693 101.903008,49.540489 
	C101.599197,43.807968 103.091331,39.793518 108.040230,36.251148 
	C120.857193,27.076897 133.223343,17.273491 145.787827,7.745442 
	C149.321396,5.065811 152.615921,5.560166 155.949799,8.374359 
	C167.944901,18.499680 180.111084,28.425205 191.965820,38.710690 
	C193.670578,40.189781 194.764542,43.196724 194.865387,45.551250 
	C195.214462,53.701008 194.836731,61.880486 195.115280,70.035683 
	C195.184525,72.063019 196.158249,74.614052 197.612488,75.945328 
	C204.623657,82.363708 211.686859,88.786217 219.275269,94.483078 
	C222.310333,96.761612 223.008102,99.045685 223.007034,102.258423 
	C222.995697,136.250290 223.000000,170.242172 223.000000,204.234039 
	C223.000000,206.026749 223.000000,207.819458 223.000000,209.793716 
	C232.040558,209.793716 240.655487,209.793716 250.000000,209.793716 
	C250.000000,208.148941 250.000000,206.402191 250.000000,204.655457 
	C250.000000,180.661194 249.994263,156.666946 250.003159,132.672684 
	C250.006195,124.470024 251.508728,123.000290 259.785217,123.000191 
	C295.110107,122.999748 330.434967,122.999214 365.759857,123.000679 
	C372.725250,123.000969 373.999512,124.307465 373.999573,131.440506 
	C374.000214,213.920776 374.000000,296.401062 374.000000,378.881317 
	C374.000000,380.701172 374.000000,382.521027 374.000000,384.778564 
	C378.903442,384.778564 383.643311,384.778564 388.688629,384.778564 
	C388.688629,389.276581 388.688629,393.343445 388.688629,398.000000 
	C322.332245,398.000000 255.916122,398.000000 189.000000,398.000000 
		M141.000000,265.500000 
			C141.000000,305.259125 141.000000,345.018280 141.000000,384.670959 
			C164.352112,384.670959 187.085693,384.670959 210.000000,384.670959 
			C210.000000,382.859009 210.000000,381.372345 210.000000,379.885712 
			C210.000000,289.554779 210.015793,199.223846 209.906876,108.893051 
			C209.904205,106.682564 209.173279,103.733505 207.661331,102.390892 
			C200.708817,96.217010 193.152588,90.717979 186.270752,84.472404 
			C184.112137,82.513367 182.411102,79.053001 182.189926,76.151077 
			C181.621643,68.694588 181.557343,61.130466 182.154709,53.678555 
			C182.556793,48.662807 179.806030,46.088741 176.742615,43.332684 
			C175.292664,42.028214 173.668350,40.919834 172.175079,39.660881 
			C165.537766,34.065022 158.998917,28.346533 152.202881,22.951509 
			C151.250732,22.195660 148.607559,22.361183 147.531189,23.158579 
			C137.335709,30.711502 127.259041,38.429062 117.301018,46.292786 
			C116.075630,47.260464 115.138603,49.346996 115.100685,50.939629 
			C114.890541,59.767723 115.320549,68.621925 114.812431,77.425705 
			C114.651581,80.212715 112.923424,83.624474 110.796387,85.449432 
			C104.270393,91.048630 97.201385,96.014641 90.347389,101.231949 
			C87.992546,103.024467 86.859932,105.108635 86.899162,108.368629 
			C87.111732,126.032265 87.000000,143.699799 87.000000,161.365997 
			C87.000000,162.807037 87.000000,164.248077 87.000000,166.000000 
			C102.323013,166.000000 117.123840,166.039307 131.924286,165.981308 
			C138.142487,165.956940 141.215347,169.035095 141.149826,175.004044 
			C140.822357,204.832977 141.000000,234.667465 141.000000,265.500000 
		M223.000000,251.500000 
			C223.000000,295.909851 223.000000,340.319672 223.000000,384.706360 
			C245.963196,384.706360 268.355164,384.706360 290.715088,384.706360 
			C290.715088,330.698822 290.715088,276.985413 290.715088,223.293549 
			C268.036957,223.293549 245.645004,223.293549 223.000000,223.293549 
			C223.000000,232.556808 223.000000,241.528397 223.000000,251.500000 
		M336.500000,210.000000 
			C344.591156,210.000000 352.682281,210.000000 360.687439,210.000000 
			C360.687439,199.332626 360.687439,189.271225 360.687439,179.301392 
			C327.995270,179.301392 295.616486,179.301392 263.312408,179.301392 
			C263.312408,189.667038 263.312408,199.728439 263.312408,210.000000 
			C287.582794,210.000000 311.541382,210.000000 336.500000,210.000000 
		M361.000000,141.608231 
			C361.000000,139.836929 361.000000,138.065628 361.000000,136.261688 
			C328.079224,136.261688 295.698792,136.261688 263.273987,136.261688 
			C263.273987,146.253540 263.273987,155.981400 263.273987,165.734039 
			C295.929230,165.734039 328.309753,165.734039 361.000000,165.734039 
			C361.000000,157.842529 361.000000,150.212967 361.000000,141.608231 
		M80.500000,385.000000 
			C96.249840,385.000000 111.999672,385.000000 127.697266,385.000000 
			C127.697266,374.351501 127.697266,364.290955 127.697266,354.292419 
			C98.347656,354.292419 69.301743,354.292419 40.302567,354.292419 
			C40.302567,364.648132 40.302567,374.708649 40.302567,385.000000 
			C53.569183,385.000000 66.534592,385.000000 80.500000,385.000000 
		M40.000000,322.511292 
			C40.000000,328.603821 40.000000,334.696320 40.000000,340.702271 
			C69.661926,340.702271 98.708496,340.702271 127.691803,340.702271 
			C127.691803,330.340759 127.691803,320.279846 127.691803,310.298767 
			C98.336060,310.298767 69.289482,310.298767 40.000000,310.298767 
			C40.000000,314.236206 40.000000,317.877075 40.000000,322.511292 
		M60.500202,254.000000 
			C82.911118,254.000000 105.322037,254.000000 127.704346,254.000000 
			C127.704346,243.366013 127.704346,233.305679 127.704346,223.285370 
			C98.361900,223.285370 69.316063,223.285370 40.295532,223.285370 
			C40.295532,233.633728 40.295532,243.694046 40.295532,254.000000 
			C46.892258,254.000000 53.196350,254.000000 60.500202,254.000000 
		M71.500000,179.000000 
			C61.078339,179.000000 50.656673,179.000000 40.308491,179.000000 
			C40.308491,189.660233 40.308491,199.720947 40.308491,209.701843 
			C69.663948,209.701843 98.709946,209.701843 127.691689,209.701843 
			C127.691689,199.340134 127.691689,189.279419 127.691689,179.000000 
			C109.089523,179.000000 90.794762,179.000000 71.500000,179.000000 
		M128.000000,292.366333 
			C128.000000,283.953033 128.000000,275.539734 128.000000,267.342590 
			C98.252007,267.342590 69.202751,267.342590 40.354454,267.342590 
			C40.354454,277.418396 40.354454,287.148895 40.354454,296.999725 
			C68.676460,296.999725 96.644417,296.950287 124.611633,297.070679 
			C127.648041,297.083710 128.387619,295.958710 128.000000,292.366333 
		M322.500641,385.000000 
			C335.249847,385.000000 347.999054,385.000000 360.702576,385.000000 
			C360.702576,374.357178 360.702576,364.299347 360.702576,354.291016 
			C341.688263,354.291016 322.972839,354.291016 304.297302,354.291016 
			C304.297302,364.642578 304.297302,374.700409 304.297302,385.000000 
			C310.228790,385.000000 315.865051,385.000000 322.500641,385.000000 
		M304.000000,335.391724 
			C304.000000,337.162537 304.000000,338.933319 304.000000,340.734619 
			C323.256165,340.734619 341.973053,340.734619 360.726868,340.734619 
			C360.726868,330.408722 360.726868,320.350586 360.726868,310.269531 
			C341.735443,310.269531 323.018463,310.269531 304.000000,310.269531 
			C304.000000,318.495941 304.000000,326.456268 304.000000,335.391724 
		M314.524994,254.000000 
			C329.936157,254.000000 345.347321,254.000000 360.696167,254.000000 
			C360.696167,243.344986 360.696167,233.286530 360.696167,223.298676 
			C341.674469,223.298676 322.958099,223.298676 304.305603,223.298676 
			C304.305603,233.658615 304.305603,243.717102 304.305603,254.000000 
			C307.584961,254.000000 310.560638,254.000000 314.524994,254.000000 
		M321.501282,297.000000 
			C334.583191,297.000000 347.665100,297.000000 360.702759,297.000000 
			C360.702759,286.691193 360.702759,276.966522 360.702759,267.290527 
			C341.688843,267.290527 322.973602,267.290527 304.297119,267.290527 
			C304.297119,277.308533 304.297119,287.033234 304.297119,297.000000 
			C309.895416,297.000000 315.198669,297.000000 321.501282,297.000000 
		z"/>
		<path fill="#000000" opacity="1.000000" stroke="none" 
			d="
		M141.000000,265.000000 
			C141.000000,234.667465 140.822357,204.832977 141.149826,175.004044 
			C141.215347,169.035095 138.142487,165.956940 131.924286,165.981308 
			C117.123840,166.039307 102.323013,166.000000 87.000000,166.000000 
			C87.000000,164.248077 87.000000,162.807037 87.000000,161.365997 
			C87.000000,143.699799 87.111732,126.032265 86.899162,108.368629 
			C86.859932,105.108635 87.992546,103.024467 90.347389,101.231949 
			C97.201385,96.014641 104.270393,91.048630 110.796387,85.449432 
			C112.923424,83.624474 114.651581,80.212715 114.812431,77.425705 
			C115.320549,68.621925 114.890541,59.767723 115.100685,50.939629 
			C115.138603,49.346996 116.075630,47.260464 117.301018,46.292786 
			C127.259041,38.429062 137.335709,30.711502 147.531189,23.158579 
			C148.607559,22.361183 151.250732,22.195660 152.202881,22.951509 
			C158.998917,28.346533 165.537766,34.065022 172.175079,39.660881 
			C173.668350,40.919834 175.292664,42.028214 176.742615,43.332684 
			C179.806030,46.088741 182.556793,48.662807 182.154709,53.678555 
			C181.557343,61.130466 181.621643,68.694588 182.189926,76.151077 
			C182.411102,79.053001 184.112137,82.513367 186.270752,84.472404 
			C193.152588,90.717979 200.708817,96.217010 207.661331,102.390892 
			C209.173279,103.733505 209.904205,106.682564 209.906876,108.893051 
			C210.015793,199.223846 210.000000,289.554779 210.000000,379.885712 
			C210.000000,381.372345 210.000000,382.859009 210.000000,384.670959 
			C187.085693,384.670959 164.352112,384.670959 141.000000,384.670959 
			C141.000000,345.018280 141.000000,305.259125 141.000000,265.000000 
		M194.992142,277.737762 
			C194.390091,277.161011 193.808914,276.113098 193.182526,276.085327 
			C189.578781,275.925659 185.964310,276.007568 182.230194,276.007568 
			C182.230194,289.855164 182.230194,303.238525 182.230194,316.758118 
			C186.524048,316.758118 190.584747,316.758118 194.999222,316.758118 
			C194.999222,303.912781 194.999222,291.306702 194.992142,277.737762 
		M128.000000,64.565720 
			C128.000000,75.640533 128.000000,86.715347 128.000000,97.679932 
			C132.682190,97.679932 136.743805,97.679932 140.689789,97.679932 
			C140.689789,83.974930 140.689789,70.591934 140.689789,57.323257 
			C136.309799,57.323257 132.248978,57.323257 128.000000,57.323257 
			C128.000000,59.624794 128.000000,61.604328 128.000000,64.565720 
		M162.457138,57.000000 
			C160.035706,57.000000 157.614273,57.000000 155.313263,57.000000 
			C155.313263,71.026794 155.313263,84.412140 155.313263,97.672852 
			C159.694702,97.672852 163.757126,97.672852 167.854080,97.672852 
			C167.854080,84.080589 167.854080,70.815956 167.854080,57.220829 
			C166.291214,57.143093 164.852783,57.071548 162.457138,57.000000 
		M182.742813,369.914673 
			C186.691071,369.914673 190.639328,369.914673 194.788254,369.914673 
			C194.788254,356.199707 194.788254,342.816193 194.788254,329.216248 
			C190.531235,329.216248 186.470657,329.216248 182.079575,329.216248 
			C182.079575,342.691406 182.079575,355.955597 182.742813,369.914673 
		M168.000000,333.631348 
			C168.000000,332.191803 168.000000,330.752289 168.000000,329.270844 
			C163.415237,329.270844 159.354172,329.270844 155.262665,329.270844 
			C155.262665,342.925659 155.262665,356.307953 155.262665,369.725494 
			C159.591934,369.725494 163.653229,369.725494 168.000000,369.725494 
			C168.000000,357.838257 168.000000,346.223633 168.000000,333.631348 
		M182.000000,186.500626 
			C182.000000,193.920486 182.000000,201.340347 182.000000,208.697327 
			C186.651138,208.697327 190.712906,208.697327 194.709167,208.697327 
			C194.709167,195.011856 194.709167,181.630936 194.709167,168.302399 
			C190.349365,168.302399 186.287476,168.302399 182.000000,168.302399 
			C182.000000,174.235703 182.000000,179.868500 182.000000,186.500626 
		M167.999939,279.666748 
			C168.384079,277.052917 167.679947,275.671539 164.616196,275.940704 
			C161.533691,276.211487 158.408829,276.000275 155.252777,276.000275 
			C155.252777,289.903290 155.252777,303.286346 155.252777,316.735229 
			C159.571518,316.735229 163.632828,316.735229 168.000000,316.735229 
			C168.000000,304.527039 168.000000,292.580933 167.999939,279.666748 
		M165.327072,168.000839 
			C161.918182,168.000839 158.509293,168.000839 155.356689,168.000839 
			C155.356689,182.117020 155.356689,195.503662 155.356689,208.628448 
			C159.782928,208.628448 163.846741,208.628448 167.999695,208.628448 
			C167.999695,195.949646 168.043686,183.641739 167.925171,171.335403 
			C167.914444,170.221237 166.857269,169.117172 165.327072,168.000839 
		M182.000000,232.536377 
			C182.000000,242.947769 182.000000,253.359161 182.000000,263.689972 
			C186.665253,263.689972 190.727097,263.689972 194.700500,263.689972 
			C194.700500,249.995926 194.700500,236.613800 194.700500,223.311798 
			C190.333817,223.311798 186.272522,223.311798 182.000000,223.311798 
			C182.000000,226.262161 182.000000,228.905045 182.000000,232.536377 
		M168.000000,234.518417 
			C168.000000,230.754135 168.000000,226.989838 168.000000,223.304993 
			C163.344559,223.304993 159.282654,223.304993 155.293884,223.304993 
			C155.293884,236.993393 155.293884,250.374908 155.293884,263.694214 
			C159.654968,263.694214 163.716171,263.694214 168.000000,263.694214 
			C168.000000,254.097214 168.000000,244.804550 168.000000,234.518417 
		M168.000000,122.523506 
			C168.000000,119.089668 168.000000,115.655823 168.000000,112.001518 
			C164.454636,112.001518 161.452713,111.754425 158.526535,112.117561 
			C157.275803,112.272774 155.183426,113.683121 155.168533,114.552216 
			C154.950150,127.285736 155.018387,140.024155 155.018387,152.694244 
			C159.655869,152.694244 163.716660,152.694244 168.000000,152.694244 
			C168.000000,142.766342 168.000000,133.142410 168.000000,122.523506 
		M128.000793,150.302689 
			C128.784180,151.200684 129.506378,152.798813 130.361710,152.873581 
			C133.776550,153.172058 137.232819,152.996689 140.761414,152.996689 
			C140.761414,139.119553 140.761414,125.736786 140.761414,112.000069 
			C137.908554,112.000069 135.262512,112.204247 132.660706,111.952095 
			C128.782150,111.576225 127.872917,113.327454 127.933640,116.900589 
			C128.117325,127.708618 128.000061,138.521759 128.000793,150.302689 
		M114.000000,128.501740 
			C114.000000,123.078445 114.000000,117.655151 114.000000,112.001549 
			C110.447128,112.001549 107.445396,111.753998 104.519722,112.117897 
			C103.270729,112.273254 101.182892,113.687622 101.167969,114.558868 
			C100.949829,127.291389 101.018089,140.028809 101.018089,152.692657 
			C105.659180,152.692657 109.719856,152.692657 114.000000,152.692657 
			C114.000000,144.758652 114.000000,137.129959 114.000000,128.501740 
		M193.285721,152.991653 
			C193.854782,152.381973 194.915894,151.775955 194.920441,151.162109 
			C195.016281,138.235794 194.992920,125.308601 194.992920,112.002792 
			C191.443176,112.002792 188.289383,111.746376 185.216766,112.133820 
			C184.049957,112.280945 182.158920,113.894554 182.142853,114.865341 
			C181.934586,127.453018 182.004837,140.045303 182.004837,152.999161 
			C185.751694,152.999161 189.039963,152.999161 193.285721,152.991653 
		z"/>
		<path fill="#000000" opacity="1.000000" stroke="none" 
			d="
		M223.000000,251.000000 
			C223.000000,241.528397 223.000000,232.556808 223.000000,223.293549 
			C245.645004,223.293549 268.036957,223.293549 290.715088,223.293549 
			C290.715088,276.985413 290.715088,330.698822 290.715088,384.706360 
			C268.355164,384.706360 245.963196,384.706360 223.000000,384.706360 
			C223.000000,340.319672 223.000000,295.909851 223.000000,251.000000 
		M265.463623,245.000000 
			C256.717102,245.000000 247.970551,245.000000 239.310699,245.000000 
			C239.310699,249.667938 239.310699,253.729233 239.310699,257.698914 
			C251.339905,257.698914 263.056152,257.698914 274.687592,257.698914 
			C274.687592,253.331345 274.687592,249.270660 274.687592,245.000000 
			C271.735321,245.000000 269.093719,245.000000 265.463623,245.000000 
		M274.914673,292.257141 
			C274.914673,288.309448 274.914673,284.361755 274.914673,280.212524 
			C262.867493,280.212524 251.150085,280.212524 239.216248,280.212524 
			C239.216248,284.468170 239.216248,288.528198 239.216248,292.920441 
			C251.023544,292.920441 262.621674,292.920441 274.914673,292.257141 
		M274.999939,324.371368 
			C274.999939,321.290466 274.999939,318.209564 274.999939,315.342285 
			C262.580231,315.342285 250.859802,315.342285 239.356018,315.342285 
			C239.356018,319.752716 239.356018,323.815430 239.356018,327.999725 
			C250.349564,327.999725 260.987549,327.982422 271.625366,328.015594 
			C273.548492,328.021606 275.451904,328.210815 274.999939,324.371368 
		M275.000000,356.457092 
			C275.000000,354.036011 275.000000,351.614899 275.000000,349.313568 
			C262.639679,349.313568 250.920349,349.313568 239.326614,349.313568 
			C239.326614,353.694733 239.326614,357.756653 239.326614,361.853790 
			C251.252289,361.853790 262.850800,361.853790 274.779816,361.853790 
			C274.857361,360.290802 274.928680,358.852570 275.000000,356.457092 
		z"/>
		<path fill="#000000" opacity="1.000000" stroke="none" 
			d="
		M336.000000,210.000000 
			C311.541382,210.000000 287.582794,210.000000 263.312408,210.000000 
			C263.312408,199.728439 263.312408,189.667038 263.312408,179.301392 
			C295.616486,179.301392 327.995270,179.301392 360.687439,179.301392 
			C360.687439,189.271225 360.687439,199.332626 360.687439,210.000000 
			C352.682281,210.000000 344.591156,210.000000 336.000000,210.000000 
		z"/>
		<path fill="#000000" opacity="1.000000" stroke="none" 
			d="
		M361.000000,142.095825 
			C361.000000,150.212967 361.000000,157.842529 361.000000,165.734039 
			C328.309753,165.734039 295.929230,165.734039 263.273987,165.734039 
			C263.273987,155.981400 263.273987,146.253540 263.273987,136.261688 
			C295.698792,136.261688 328.079224,136.261688 361.000000,136.261688 
			C361.000000,138.065628 361.000000,139.836929 361.000000,142.095825 
		z"/>
		<path fill="#000000" opacity="1.000000" stroke="none" 
			d="
		M80.000000,385.000000 
			C66.534592,385.000000 53.569183,385.000000 40.302567,385.000000 
			C40.302567,374.708649 40.302567,364.648132 40.302567,354.292419 
			C69.301743,354.292419 98.347656,354.292419 127.697266,354.292419 
			C127.697266,364.290955 127.697266,374.351501 127.697266,385.000000 
			C111.999672,385.000000 96.249840,385.000000 80.000000,385.000000 
		z"/>
		<path fill="#000000" opacity="1.000000" stroke="none" 
			d="
		M40.000000,322.014648 
			C40.000000,317.877075 40.000000,314.236206 40.000000,310.298767 
			C69.289482,310.298767 98.336060,310.298767 127.691803,310.298767 
			C127.691803,320.279846 127.691803,330.340759 127.691803,340.702271 
			C98.708496,340.702271 69.661926,340.702271 40.000000,340.702271 
			C40.000000,334.696320 40.000000,328.603821 40.000000,322.014648 
		z"/>
		<path fill="#000000" opacity="1.000000" stroke="none" 
			d="
		M60.000320,254.000000 
			C53.196350,254.000000 46.892258,254.000000 40.295532,254.000000 
			C40.295532,243.694046 40.295532,233.633728 40.295532,223.285370 
			C69.316063,223.285370 98.361900,223.285370 127.704346,223.285370 
			C127.704346,233.305679 127.704346,243.366013 127.704346,254.000000 
			C105.322037,254.000000 82.911118,254.000000 60.000320,254.000000 
		z"/>
		<path fill="#000000" opacity="1.000000" stroke="none" 
			d="
		M72.000000,179.000000 
			C90.794762,179.000000 109.089523,179.000000 127.691689,179.000000 
			C127.691689,189.279419 127.691689,199.340134 127.691689,209.701843 
			C98.709946,209.701843 69.663948,209.701843 40.308491,209.701843 
			C40.308491,199.720947 40.308491,189.660233 40.308491,179.000000 
			C50.656673,179.000000 61.078339,179.000000 72.000000,179.000000 
		z"/>
		<path fill="#000000" opacity="1.000000" stroke="none" 
			d="
		M127.999969,292.850525 
			C128.387619,295.958710 127.648041,297.083710 124.611633,297.070679 
			C96.644417,296.950287 68.676460,296.999725 40.354454,296.999725 
			C40.354454,287.148895 40.354454,277.418396 40.354454,267.342590 
			C69.202751,267.342590 98.252007,267.342590 128.000000,267.342590 
			C128.000000,275.539734 128.000000,283.953033 127.999969,292.850525 
		z"/>
		<path fill="#000000" opacity="1.000000" stroke="none" 
			d="
		M322.000977,385.000000 
			C315.865051,385.000000 310.228790,385.000000 304.297302,385.000000 
			C304.297302,374.700409 304.297302,364.642578 304.297302,354.291016 
			C322.972839,354.291016 341.688263,354.291016 360.702576,354.291016 
			C360.702576,364.299347 360.702576,374.357178 360.702576,385.000000 
			C347.999054,385.000000 335.249847,385.000000 322.000977,385.000000 
		z"/>
		<path fill="#000000" opacity="1.000000" stroke="none" 
			d="
		M304.000000,334.904144 
			C304.000000,326.456268 304.000000,318.495941 304.000000,310.269531 
			C323.018463,310.269531 341.735443,310.269531 360.726868,310.269531 
			C360.726868,320.350586 360.726868,330.408722 360.726868,340.734619 
			C341.973053,340.734619 323.256165,340.734619 304.000000,340.734619 
			C304.000000,338.933319 304.000000,337.162537 304.000000,334.904144 
		z"/>
		<path fill="#000000" opacity="1.000000" stroke="none" 
			d="
		M314.030670,254.000000 
			C310.560638,254.000000 307.584961,254.000000 304.305603,254.000000 
			C304.305603,243.717102 304.305603,233.658615 304.305603,223.298676 
			C322.958099,223.298676 341.674469,223.298676 360.696167,223.298676 
			C360.696167,233.286530 360.696167,243.344986 360.696167,254.000000 
			C345.347321,254.000000 329.936157,254.000000 314.030670,254.000000 
		z"/>
		<path fill="#000000" opacity="1.000000" stroke="none" 
			d="
		M321.001587,297.000000 
			C315.198669,297.000000 309.895416,297.000000 304.297119,297.000000 
			C304.297119,287.033234 304.297119,277.308533 304.297119,267.290527 
			C322.973602,267.290527 341.688843,267.290527 360.702759,267.290527 
			C360.702759,276.966522 360.702759,286.691193 360.702759,297.000000 
			C347.665100,297.000000 334.583191,297.000000 321.001587,297.000000 
		z"/>
		<path fill="#00FFFF" opacity="1.000000" stroke="none" 
			d="
		M194.995682,278.219177 
			C194.999222,291.306702 194.999222,303.912781 194.999222,316.758118 
			C190.584747,316.758118 186.524048,316.758118 182.230194,316.758118 
			C182.230194,303.238525 182.230194,289.855164 182.230194,276.007568 
			C185.964310,276.007568 189.578781,275.925659 193.182526,276.085327 
			C193.808914,276.113098 194.390091,277.161011 194.995682,278.219177 
		z"/>
		<path fill="#00FFFF" opacity="1.000000" stroke="none" 
			d="
		M128.000000,64.074791 
			C128.000000,61.604328 128.000000,59.624794 128.000000,57.323257 
			C132.248978,57.323257 136.309799,57.323257 140.689789,57.323257 
			C140.689789,70.591934 140.689789,83.974930 140.689789,97.679932 
			C136.743805,97.679932 132.682190,97.679932 128.000000,97.679932 
			C128.000000,86.715347 128.000000,75.640533 128.000000,64.074791 
		z"/>
		<path fill="#00FFFF" opacity="1.000000" stroke="none" 
			d="
		M162.935760,57.000004 
			C164.852783,57.071548 166.291214,57.143093 167.854080,57.220829 
			C167.854080,70.815956 167.854080,84.080589 167.854080,97.672852 
			C163.757126,97.672852 159.694702,97.672852 155.313263,97.672852 
			C155.313263,84.412140 155.313263,71.026794 155.313263,57.000000 
			C157.614273,57.000000 160.035706,57.000000 162.935760,57.000004 
		z"/>
		<path fill="#00FFFF" opacity="1.000000" stroke="none" 
			d="
		M182.411194,369.567230 
			C182.079575,355.955597 182.079575,342.691406 182.079575,329.216248 
			C186.470657,329.216248 190.531235,329.216248 194.788254,329.216248 
			C194.788254,342.816193 194.788254,356.199707 194.788254,369.914673 
			C190.639328,369.914673 186.691071,369.914673 182.411194,369.567230 
		z"/>
		<path fill="#00FFFF" opacity="1.000000" stroke="none" 
			d="
		M168.000000,334.120178 
			C168.000000,346.223633 168.000000,357.838257 168.000000,369.725494 
			C163.653229,369.725494 159.591934,369.725494 155.262665,369.725494 
			C155.262665,356.307953 155.262665,342.925659 155.262665,329.270844 
			C159.354172,329.270844 163.415237,329.270844 168.000000,329.270844 
			C168.000000,330.752289 168.000000,332.191803 168.000000,334.120178 
		z"/>
		<path fill="#00FFFF" opacity="1.000000" stroke="none" 
			d="
		M182.000000,186.000946 
			C182.000000,179.868500 182.000000,174.235703 182.000000,168.302399 
			C186.287476,168.302399 190.349365,168.302399 194.709167,168.302399 
			C194.709167,181.630936 194.709167,195.011856 194.709167,208.697327 
			C190.712906,208.697327 186.651138,208.697327 182.000000,208.697327 
			C182.000000,201.340347 182.000000,193.920486 182.000000,186.000946 
		z"/>
		<path fill="#00FFFF" opacity="1.000000" stroke="none" 
			d="
		M167.999969,280.150787 
			C168.000000,292.580933 168.000000,304.527039 168.000000,316.735229 
			C163.632828,316.735229 159.571518,316.735229 155.252777,316.735229 
			C155.252777,303.286346 155.252777,289.903290 155.252777,276.000275 
			C158.408829,276.000275 161.533691,276.211487 164.616196,275.940704 
			C167.679947,275.671539 168.384079,277.052917 167.999969,280.150787 
		z"/>
		<path fill="#00FFFF" opacity="1.000000" stroke="none" 
			d="
		M165.806564,168.004623 
			C166.857269,169.117172 167.914444,170.221237 167.925171,171.335403 
			C168.043686,183.641739 167.999695,195.949646 167.999695,208.628448 
			C163.846741,208.628448 159.782928,208.628448 155.356689,208.628448 
			C155.356689,195.503662 155.356689,182.117020 155.356689,168.000839 
			C158.509293,168.000839 161.918182,168.000839 165.806564,168.004623 
		z"/>
		<path fill="#00FFFF" opacity="1.000000" stroke="none" 
			d="
		M182.000000,232.042145 
			C182.000000,228.905045 182.000000,226.262161 182.000000,223.311798 
			C186.272522,223.311798 190.333817,223.311798 194.700500,223.311798 
			C194.700500,236.613800 194.700500,249.995926 194.700500,263.689972 
			C190.727097,263.689972 186.665253,263.689972 182.000000,263.689972 
			C182.000000,253.359161 182.000000,242.947769 182.000000,232.042145 
		z"/>
		<path fill="#00FFFF" opacity="1.000000" stroke="none" 
			d="
		M168.000000,235.015152 
			C168.000000,244.804550 168.000000,254.097214 168.000000,263.694214 
			C163.716171,263.694214 159.654968,263.694214 155.293884,263.694214 
			C155.293884,250.374908 155.293884,236.993393 155.293884,223.304993 
			C159.282654,223.304993 163.344559,223.304993 168.000000,223.304993 
			C168.000000,226.989838 168.000000,230.754135 168.000000,235.015152 
		z"/>
		<path fill="#00FFFF" opacity="1.000000" stroke="none" 
			d="
		M168.000000,123.020981 
			C168.000000,133.142410 168.000000,142.766342 168.000000,152.694244 
			C163.716660,152.694244 159.655869,152.694244 155.018387,152.694244 
			C155.018387,140.024155 154.950150,127.285736 155.168533,114.552216 
			C155.183426,113.683121 157.275803,112.272774 158.526535,112.117561 
			C161.452713,111.754425 164.454636,112.001518 168.000000,112.001518 
			C168.000000,115.655823 168.000000,119.089668 168.000000,123.020981 
		z"/>
		<path fill="#00FFFF" opacity="1.000000" stroke="none" 
			d="
		M128.000427,149.817795 
			C128.000061,138.521759 128.117325,127.708618 127.933640,116.900589 
			C127.872917,113.327454 128.782150,111.576225 132.660706,111.952095 
			C135.262512,112.204247 137.908554,112.000069 140.761414,112.000069 
			C140.761414,125.736786 140.761414,139.119553 140.761414,152.996689 
			C137.232819,152.996689 133.776550,153.172058 130.361710,152.873581 
			C129.506378,152.798813 128.784180,151.200684 128.000427,149.817795 
		z"/>
		<path fill="#00FFFF" opacity="1.000000" stroke="none" 
			d="
		M114.000000,129.001511 
			C114.000000,137.129959 114.000000,144.758652 114.000000,152.692657 
			C109.719856,152.692657 105.659180,152.692657 101.018089,152.692657 
			C101.018089,140.028809 100.949829,127.291389 101.167969,114.558868 
			C101.182892,113.687622 103.270729,112.273254 104.519722,112.117897 
			C107.445396,111.753998 110.447128,112.001549 114.000000,112.001549 
			C114.000000,117.655151 114.000000,123.078445 114.000000,129.001511 
		z"/>
		<path fill="#00FFFF" opacity="1.000000" stroke="none" 
			d="
		M192.806976,152.995407 
			C189.039963,152.999161 185.751694,152.999161 182.004837,152.999161 
			C182.004837,140.045303 181.934586,127.453018 182.142853,114.865341 
			C182.158920,113.894554 184.049957,112.280945 185.216766,112.133820 
			C188.289383,111.746376 191.443176,112.002792 194.992920,112.002792 
			C194.992920,125.308601 195.016281,138.235794 194.920441,151.162109 
			C194.915894,151.775955 193.854782,152.381973 192.806976,152.995407 
		z"/>
		<path fill="#00FFFF" opacity="1.000000" stroke="none" 
			d="
		M265.957855,245.000000 
			C269.093719,245.000000 271.735321,245.000000 274.687592,245.000000 
			C274.687592,249.270660 274.687592,253.331345 274.687592,257.698914 
			C263.056152,257.698914 251.339905,257.698914 239.310699,257.698914 
			C239.310699,253.729233 239.310699,249.667938 239.310699,245.000000 
			C247.970551,245.000000 256.717102,245.000000 265.957855,245.000000 
		z"/>
		<path fill="#00FFFF" opacity="1.000000" stroke="none" 
			d="
		M274.567230,292.588806 
			C262.621674,292.920441 251.023544,292.920441 239.216248,292.920441 
			C239.216248,288.528198 239.216248,284.468170 239.216248,280.212524 
			C251.150085,280.212524 262.867493,280.212524 274.914673,280.212524 
			C274.914673,284.361755 274.914673,288.309448 274.567230,292.588806 
		z"/>
		<path fill="#00FFFF" opacity="1.000000" stroke="none" 
			d="
		M274.999573,324.849854 
			C275.451904,328.210815 273.548492,328.021606 271.625366,328.015594 
			C260.987549,327.982422 250.349564,327.999725 239.356018,327.999725 
			C239.356018,323.815430 239.356018,319.752716 239.356018,315.342285 
			C250.859802,315.342285 262.580231,315.342285 274.999939,315.342285 
			C274.999939,318.209564 274.999939,321.290466 274.999573,324.849854 
		z"/>
		<path fill="#00FFFF" opacity="1.000000" stroke="none" 
			d="
		M275.000000,356.935730 
			C274.928680,358.852570 274.857361,360.290802 274.779816,361.853790 
			C262.850800,361.853790 251.252289,361.853790 239.326614,361.853790 
			C239.326614,357.756653 239.326614,353.694733 239.326614,349.313568 
			C250.920349,349.313568 262.639679,349.313568 275.000000,349.313568 
			C275.000000,351.614899 275.000000,354.036011 275.000000,356.935730 
		z"/>
		</svg>