<svg version="1.1" id="Layer_1" xmlns="http://www.w3.org/2000/svg" xmlns:xlink="http://www.w3.org/1999/xlink" x="0px" y="0px"
	 width="100%" viewBox="0 0 200 200" enable-background="new 0 0 200 200" xml:space="preserve">
<path fill="#000000" opacity="1.000000" stroke="none" 
	d="
M120.000000,201.000000 
	C80.024696,201.000000 40.549400,201.000000 1.037050,201.000000 
	C1.037050,134.399734 1.037050,67.799454 1.037050,1.099581 
	C67.558464,1.099581 134.117126,1.099581 200.837891,1.099581 
	C200.837891,67.666351 200.837891,134.333145 200.837891,201.000000 
	C174.133072,201.000000 147.316528,201.000000 120.000000,201.000000 
M28.000425,39.778133 
	C28.000425,42.399643 28.000425,45.021149 28.000425,48.000000 
	C25.597227,48.000000 23.636290,48.033253 21.676809,47.993935 
	C15.086034,47.861683 13.869326,49.552620 13.896193,55.561085 
	C14.089910,98.883522 13.999999,142.207245 13.999997,185.530548 
	C13.999997,187.301025 13.999999,189.071503 13.999999,190.795990 
	C11.304925,190.975998 9.220151,191.115250 7.345614,191.240448 
	C7.345614,193.715866 7.345614,195.775665 7.345614,197.669708 
	C70.092773,197.669708 132.494110,197.669708 194.645203,197.669708 
	C194.645203,195.257874 194.645203,193.182663 194.645203,190.871033 
	C192.004898,190.871033 189.719833,190.871033 187.000000,190.871033 
	C187.000000,188.840454 187.000000,187.051071 187.000000,185.261688 
	C187.000000,152.435944 187.002014,119.610214 186.998093,86.784477 
	C186.997406,80.970924 186.059601,80.018082 180.045837,80.009254 
	C162.383301,79.983337 144.720703,80.000008 127.058121,80.000000 
	C125.446114,80.000000 123.834099,80.000000 122.153320,80.000000 
	C122.080635,78.811996 122.015976,78.165138 122.005310,77.517403 
	C121.897987,71.002480 121.900475,71.001762 115.449280,71.000221 
	C110.691628,70.999084 105.933968,71.000000 101.000000,71.000000 
	C101.000000,65.531120 101.000038,60.713764 100.999992,55.896408 
	C100.999908,48.006424 100.999886,48.006161 93.326851,48.000202 
	C91.578934,47.998844 89.831009,48.000000 87.999550,48.000000 
	C87.999550,44.774605 87.895378,42.271305 88.027214,39.780495 
	C88.175598,36.977119 86.992935,35.953609 84.208168,35.964840 
	C66.712494,36.035389 49.215809,35.942558 31.721724,36.123417 
	C30.473345,36.136322 29.243069,37.900326 28.000425,39.778133 
z"/>
<path fill="#00FFFF" opacity="1.000000" stroke="none" 
	d="
M28.002399,39.314125 
	C29.243069,37.900326 30.473345,36.136322 31.721724,36.123417 
	C49.215809,35.942558 66.712494,36.035389 84.208168,35.964840 
	C86.992935,35.953609 88.175598,36.977119 88.027214,39.780495 
	C87.895378,42.271305 87.999550,44.774605 87.999550,48.000000 
	C89.831009,48.000000 91.578934,47.998844 93.326851,48.000202 
	C100.999886,48.006161 100.999908,48.006424 100.999992,55.896408 
	C101.000038,60.713764 101.000000,65.531120 101.000000,71.000000 
	C105.933968,71.000000 110.691628,70.999084 115.449280,71.000221 
	C121.900475,71.001762 121.897987,71.002480 122.005310,77.517403 
	C122.015976,78.165138 122.080635,78.811996 122.153320,80.000000 
	C123.834099,80.000000 125.446114,80.000000 127.058121,80.000000 
	C144.720703,80.000008 162.383301,79.983337 180.045837,80.009254 
	C186.059601,80.018082 186.997406,80.970924 186.998093,86.784477 
	C187.002014,119.610214 187.000000,152.435944 187.000000,185.261688 
	C187.000000,187.051071 187.000000,188.840454 187.000000,190.871033 
	C189.719833,190.871033 192.004898,190.871033 194.645203,190.871033 
	C194.645203,193.182663 194.645203,195.257874 194.645203,197.669708 
	C132.494110,197.669708 70.092773,197.669708 7.345614,197.669708 
	C7.345614,195.775665 7.345614,193.715866 7.345614,191.240448 
	C9.220151,191.115250 11.304925,190.975998 13.999999,190.795990 
	C13.999999,189.071503 13.999997,187.301025 13.999997,185.530548 
	C13.999999,142.207245 14.089910,98.883522 13.896193,55.561085 
	C13.869326,49.552620 15.086034,47.861683 21.676809,47.993935 
	C23.636290,48.033253 25.597227,48.000000 28.000425,48.000000 
	C28.000425,45.021149 28.000425,42.399643 28.002399,39.314125 
M46.502075,156.000000 
	C58.324917,156.000015 70.151459,156.169800 81.968697,155.912338 
	C86.391640,155.815979 87.844833,157.868332 87.987549,161.703522 
	C88.055618,163.532715 87.999939,165.366501 87.999962,167.198212 
	C88.000046,175.106964 88.000000,183.015717 88.000000,190.809326 
	C90.343430,190.809326 91.961929,190.809326 93.642403,190.809326 
	C93.642403,145.454742 93.642403,100.290451 93.642403,55.775482 
	C69.284912,55.775482 45.287502,55.775482 21.242844,55.775482 
	C21.242844,101.267296 21.242844,145.983200 21.242844,190.744141 
	C23.221003,190.744141 24.952793,190.744141 27.000223,190.744141 
	C27.000223,180.696335 27.044428,170.899643 26.976671,161.103729 
	C26.952372,157.590607 28.428858,155.906906 32.015797,155.978622 
	C36.509995,156.068481 41.007359,156.000076 46.502075,156.000000 
M106.608398,126.000000 
	C131.000778,126.000000 155.393158,126.000000 179.679398,126.000000 
	C179.679398,121.987373 179.679398,118.589882 179.679398,115.000000 
	C160.573013,115.000000 141.786499,115.000252 122.999969,114.999886 
	C115.000725,114.999733 115.000397,114.999146 115.000092,106.896164 
	C114.999725,97.318779 115.000000,87.741402 115.000000,78.343582 
	C109.939651,78.343582 105.542870,78.343582 101.161514,78.343582 
	C101.161514,94.285255 101.161514,109.882797 101.161514,126.000000 
	C102.738922,126.000000 104.186264,126.000000 106.608398,126.000000 
M126.630074,88.000000 
	C125.190903,88.000000 123.751732,88.000000 122.272675,88.000000 
	C122.272675,94.919662 122.272675,101.313019 122.272675,107.735046 
	C141.594147,107.735046 160.641754,107.735046 179.723724,107.735046 
	C179.723724,101.073318 179.723724,94.679710 179.723724,88.000000 
	C162.168777,88.000000 144.888565,88.000000 126.630074,88.000000 
M144.000000,174.506714 
	C144.000000,179.928314 144.000000,185.349899 144.000000,190.700348 
	C156.324356,190.700348 168.043442,190.700348 179.698227,190.700348 
	C179.698227,180.675919 179.698227,170.953979 179.698227,161.300018 
	C167.675003,161.300018 155.955872,161.300018 144.000000,161.300018 
	C144.000000,165.568771 144.000000,169.539673 144.000000,174.506714 
M136.916092,190.245316 
	C136.916092,180.527969 136.916092,170.810608 136.916092,161.349945 
	C124.887093,161.349945 113.509026,161.349945 101.620911,161.349945 
	C101.620911,171.359177 101.620911,181.018509 101.620911,190.918335 
	C113.009293,190.918335 124.618477,190.918335 136.916092,190.245316 
M50.336849,190.999924 
	C51.556873,190.205215 53.811203,189.442703 53.837097,188.610825 
	C54.099136,180.193207 53.996918,171.764236 53.996918,163.254639 
	C47.109936,163.254639 40.720139,163.254639 34.254269,163.254639 
	C34.254269,172.563705 34.254269,181.616333 34.254269,191.000000 
	C39.458107,191.000000 44.414021,191.000000 50.336849,190.999924 
M61.000000,170.565353 
	C61.000000,177.312668 61.000000,184.059967 61.000000,190.679688 
	C68.027328,190.679688 74.419434,190.679688 80.681709,190.679688 
	C80.681709,181.302963 80.681709,172.249557 80.681709,163.323395 
	C73.967278,163.323395 67.575363,163.323395 61.000000,163.323395 
	C61.000000,165.623016 61.000000,167.603165 61.000000,170.565353 
M152.548706,147.000000 
	C149.773514,147.000000 146.998322,147.000000 144.291504,147.000000 
	C144.291504,149.618362 144.291504,151.680023 144.291504,153.722900 
	C156.311920,153.722900 168.038940,153.722900 179.706863,153.722900 
	C179.706863,151.378815 179.706863,149.317139 179.706863,147.000000 
	C170.790268,147.000000 162.164215,147.000000 152.548706,147.000000 
M115.504616,147.000000 
	C110.739021,147.000000 105.973419,147.000000 101.302841,147.000000 
	C101.302841,149.638199 101.302841,151.699890 101.302841,153.714691 
	C113.333893,153.714691 125.060112,153.714691 136.697327,153.714691 
	C136.697327,151.362091 136.697327,149.300400 136.697327,147.000000 
	C129.766220,147.000000 123.134796,147.000000 115.504616,147.000000 
M179.999817,136.499878 
	C179.320663,135.334915 178.660385,133.167923 177.959503,133.154709 
	C166.705765,132.942627 155.446869,133.005020 144.314331,133.005020 
	C144.314331,135.655853 144.314331,137.718750 144.314331,139.999466 
	C155.426086,139.999466 166.226028,140.067047 177.021912,139.887970 
	C178.027573,139.871277 179.007294,138.292297 179.999817,136.499878 
M107.591293,140.000000 
	C117.344437,140.000000 127.097588,140.000000 136.668152,140.000000 
	C136.668152,137.313080 136.668152,135.250412 136.668152,133.313232 
	C124.604294,133.313232 112.874435,133.313232 101.337242,133.313232 
	C101.337242,135.695068 101.337242,137.757278 101.337242,140.000000 
	C103.321877,140.000000 104.970589,140.000000 107.591293,140.000000 
M52.501366,43.000000 
	C46.725292,43.000000 40.949223,43.000000 34.947197,43.000000 
	C35.055305,44.972008 35.132065,46.372192 35.206009,47.721024 
	C50.671631,47.721024 65.742851,47.721024 81.037216,47.721024 
	C80.944366,46.022961 80.867950,44.625359 80.779083,43.000000 
	C71.435936,43.000000 62.468319,43.000000 52.501366,43.000000 
z"/>
<path fill="#000000" opacity="1.000000" stroke="none" 
	d="
M46.002716,156.000000 
	C41.007359,156.000076 36.509995,156.068481 32.015797,155.978622 
	C28.428858,155.906906 26.952372,157.590607 26.976671,161.103729 
	C27.044428,170.899643 27.000223,180.696335 27.000223,190.744141 
	C24.952793,190.744141 23.221003,190.744141 21.242844,190.744141 
	C21.242844,145.983200 21.242844,101.267296 21.242844,55.775482 
	C45.287502,55.775482 69.284912,55.775482 93.642403,55.775482 
	C93.642403,100.290451 93.642403,145.454742 93.642403,190.809326 
	C91.961929,190.809326 90.343430,190.809326 88.000000,190.809326 
	C88.000000,183.015717 88.000046,175.106964 87.999962,167.198212 
	C87.999939,165.366501 88.055618,163.532715 87.987549,161.703522 
	C87.844833,157.868332 86.391640,155.815979 81.968697,155.912338 
	C70.151459,156.169800 58.324917,156.000015 46.002716,156.000000 
M75.000000,67.605988 
	C75.000000,65.830170 75.000000,64.054352 75.000000,62.266945 
	C72.417923,62.266945 70.356880,62.266945 68.262360,62.266945 
	C68.262360,68.268578 68.262360,73.999176 68.262360,79.727158 
	C70.592400,79.727158 72.653732,79.727158 75.000000,79.727158 
	C75.000000,75.831734 75.000000,72.201981 75.000000,67.605988 
M34.331455,62.092873 
	C32.376244,62.092873 30.421032,62.092873 28.347046,62.092873 
	C28.347046,68.201920 28.347046,74.058708 28.347046,79.820267 
	C30.647247,79.820267 32.598881,79.820267 34.930420,79.820267 
	C34.930420,74.043663 34.930420,68.436691 34.331455,62.092873 
M35.000000,117.510559 
	C35.000000,114.741188 35.000000,111.971809 35.000000,109.298706 
	C32.365364,109.298706 30.305218,109.298706 28.287758,109.298706 
	C28.287758,115.332916 28.287758,121.063248 28.287758,126.697365 
	C30.641245,126.697365 32.701412,126.697365 35.000000,126.697365 
	C35.000000,123.760551 35.000000,121.123810 35.000000,117.510559 
M68.071480,109.813217 
	C68.071480,115.421394 68.071480,121.029564 68.071480,126.774536 
	C70.506325,126.774536 72.566483,126.774536 74.770737,126.774536 
	C74.770737,120.814171 74.770737,115.080696 74.770737,109.091377 
	C72.591324,109.091377 70.637344,109.091377 68.071480,109.813217 
M60.993088,110.772583 
	C58.899231,109.984390 56.805374,109.196190 54.000000,108.140160 
	C54.000000,113.189346 53.998013,116.974754 54.000439,120.760162 
	C54.004673,127.378799 54.005810,127.378799 60.999332,126.544876 
	C60.999332,121.640732 60.999332,116.683769 60.993088,110.772583 
M84.500000,109.000183 
	C82.224945,108.729073 80.681870,109.051773 80.943413,112.034142 
	C81.203835,115.003670 80.997200,118.013885 81.000610,121.006264 
	C81.007912,127.425682 81.290932,127.649292 87.999474,126.336807 
	C87.999474,121.579155 88.146309,116.766754 87.883118,111.976891 
	C87.826332,110.943260 86.292259,109.990807 84.500000,109.000183 
M46.383144,62.009533 
	C44.643711,62.009533 42.904278,62.009533 41.000000,62.009533 
	C41.000000,66.496544 40.995811,70.307083 41.000954,74.117599 
	C41.009254,80.264755 41.011852,80.264755 48.257797,79.642776 
	C47.946815,73.819687 47.633652,67.955803 46.383144,62.009533 
M61.000000,74.377495 
	C61.000000,70.289322 61.000000,66.201149 61.000000,62.346664 
	C58.283672,62.346664 56.222076,62.346664 54.000000,62.346664 
	C54.000000,66.501251 53.995800,70.310532 54.000950,74.119797 
	C54.009254,80.259888 54.011864,80.259888 60.999996,79.669823 
	C60.999996,78.254173 60.999996,76.796959 61.000000,74.377495 
M82.034500,79.508408 
	C83.916443,79.687691 85.798386,79.866982 87.737640,80.051727 
	C87.737640,73.750633 87.737640,68.010429 87.737640,62.275204 
	C85.405998,62.275204 83.343185,62.275204 81.372993,62.275204 
	C81.372993,67.990524 81.372993,73.429710 82.034500,79.508408 
M46.383148,109.009529 
	C44.643715,109.009529 42.904282,109.009529 41.000000,109.009529 
	C41.000000,113.496536 40.995811,117.307076 41.000954,121.117592 
	C41.009254,127.264748 41.011852,127.264748 48.257793,126.642792 
	C47.946815,120.819702 47.633659,114.955818 46.383148,109.009529 
M34.999329,147.274643 
	C34.999329,142.535049 34.999329,137.795471 34.999329,133.193756 
	C32.319447,133.193756 30.372253,133.193756 28.215004,133.193756 
	C28.215004,138.785431 28.215004,144.184280 28.215004,150.779617 
	C30.770065,149.817398 32.881577,149.022232 34.999329,147.274643 
M35.000000,95.467728 
	C35.000000,92.369537 35.000000,89.271355 35.000000,86.314240 
	C32.338692,86.314240 30.278179,86.314240 28.302231,86.314240 
	C28.302231,92.032898 28.302231,97.431450 28.302231,102.679947 
	C30.670851,102.679947 32.731236,102.679947 35.000000,102.679947 
	C35.000000,100.386169 35.000000,98.410561 35.000000,95.467728 
M43.558456,86.000969 
	C42.707462,86.659134 41.149029,87.286652 41.118977,87.980370 
	C40.905766,92.902420 41.005470,97.838013 41.005470,102.709656 
	C43.618538,102.709656 45.679401,102.709656 47.999500,102.709656 
	C47.999500,97.957634 47.809895,93.482193 48.065990,89.032402 
	C48.237484,86.052643 46.774284,85.729530 43.558456,86.000969 
M54.669174,102.907349 
	C56.624153,102.907349 58.579132,102.907349 60.652699,102.907349 
	C60.652699,97.130791 60.652699,91.607002 60.652699,86.179695 
	C58.352417,86.179695 56.400955,86.179695 54.069622,86.179695 
	C54.069622,91.623055 54.069622,96.897018 54.669174,102.907349 
M75.000000,92.561928 
	C75.000000,90.456955 75.000000,88.351982 75.000000,86.281525 
	C72.391525,86.281525 70.330147,86.281525 68.274445,86.281525 
	C68.274445,91.964386 68.274445,97.361900 68.274445,102.713409 
	C70.613907,102.713409 72.673882,102.713409 75.000000,102.713409 
	C75.000000,99.464027 75.000000,96.498039 75.000000,92.561928 
M81.000000,97.400749 
	C81.000000,99.175827 81.000000,100.950905 81.000000,102.731064 
	C83.590080,102.731064 85.650360,102.731064 87.735611,102.731064 
	C87.735611,97.060837 87.735611,91.663116 87.735611,86.274849 
	C85.403503,86.274849 83.342216,86.274849 81.000000,86.274849 
	C81.000000,89.842331 81.000000,93.138649 81.000000,97.400749 
M88.000000,140.531540 
	C88.000000,138.096008 88.000000,135.660477 88.000000,133.292084 
	C85.376740,133.292084 83.316666,133.292084 81.283508,133.292084 
	C81.283508,138.986343 81.283508,144.384460 81.283508,149.702484 
	C83.632614,149.702484 85.692787,149.702484 88.000000,149.702484 
	C88.000000,146.771820 88.000000,144.135910 88.000000,140.531540 
M68.000061,136.679413 
	C68.000061,141.096985 68.000061,145.514557 68.000061,149.823029 
	C70.641624,149.823029 72.593651,149.823029 74.644730,149.823029 
	C74.644730,144.121628 74.644730,138.601486 74.644730,132.387680 
	C72.372803,134.398621 68.124321,130.136322 68.000061,136.679413 
M58.441547,149.999039 
	C59.292542,149.340881 60.850979,148.713364 60.881031,148.019638 
	C61.094242,143.097595 60.994526,138.161987 60.994526,133.290344 
	C58.381462,133.290344 56.320599,133.290344 54.000500,133.290344 
	C54.000500,138.041153 54.190102,142.517197 53.934010,146.967606 
	C53.762547,149.947357 55.225712,150.270493 58.441547,149.999039 
M47.330833,133.092651 
	C45.375854,133.092651 43.420872,133.092651 41.347290,133.092651 
	C41.347290,138.869217 41.347290,144.393005 41.347290,149.820312 
	C43.647568,149.820312 45.599033,149.820312 47.930378,149.820312 
	C47.930378,144.376785 47.930378,139.102905 47.330833,133.092651 
z"/>
<path fill="#000000" opacity="1.000000" stroke="none" 
	d="
M106.121002,126.000000 
	C104.186264,126.000000 102.738922,126.000000 101.161514,126.000000 
	C101.161514,109.882797 101.161514,94.285255 101.161514,78.343582 
	C105.542870,78.343582 109.939651,78.343582 115.000000,78.343582 
	C115.000000,87.741402 114.999725,97.318779 115.000092,106.896164 
	C115.000397,114.999146 115.000725,114.999733 122.999969,114.999886 
	C141.786499,115.000252 160.573013,115.000000 179.679398,115.000000 
	C179.679398,118.589882 179.679398,121.987373 179.679398,126.000000 
	C155.393158,126.000000 131.000778,126.000000 106.121002,126.000000 
z"/>
<path fill="#000000" opacity="1.000000" stroke="none" 
	d="
M127.119217,88.000000 
	C144.888565,88.000000 162.168777,88.000000 179.723724,88.000000 
	C179.723724,94.679710 179.723724,101.073318 179.723724,107.735046 
	C160.641754,107.735046 141.594147,107.735046 122.272675,107.735046 
	C122.272675,101.313019 122.272675,94.919662 122.272675,88.000000 
	C123.751732,88.000000 125.190903,88.000000 127.119217,88.000000 
z"/>
<path fill="#000000" opacity="1.000000" stroke="none" 
	d="
M144.000000,174.008636 
	C144.000000,169.539673 144.000000,165.568771 144.000000,161.300018 
	C155.955872,161.300018 167.675003,161.300018 179.698227,161.300018 
	C179.698227,170.953979 179.698227,180.675919 179.698227,190.700348 
	C168.043442,190.700348 156.324356,190.700348 144.000000,190.700348 
	C144.000000,185.349899 144.000000,179.928314 144.000000,174.008636 
M155.927460,181.197128 
	C155.927460,177.252502 155.927460,173.307877 155.927460,169.222382 
	C153.496780,169.222382 151.437027,169.222382 149.227875,169.222382 
	C149.227875,173.514099 149.227875,177.581680 149.227875,181.910675 
	C151.404251,181.910675 153.356735,181.910675 155.927460,181.197128 
z"/>
<path fill="#000000" opacity="1.000000" stroke="none" 
	d="
M136.571869,190.581818 
	C124.618477,190.918335 113.009293,190.918335 101.620911,190.918335 
	C101.620911,181.018509 101.620911,171.359177 101.620911,161.349945 
	C113.509026,161.349945 124.887093,161.349945 136.916092,161.349945 
	C136.916092,170.810608 136.916092,180.527969 136.571869,190.581818 
M132.999939,172.648132 
	C133.396454,166.046555 128.794067,170.042633 126.252678,168.957062 
	C126.252678,173.573318 126.252678,177.639893 126.252678,181.740021 
	C128.572021,181.740021 130.632996,181.740021 133.000000,181.740021 
	C133.000000,178.859756 133.000000,176.229538 132.999939,172.648132 
z"/>
<path fill="#000000" opacity="1.000000" stroke="none" 
	d="
M49.853394,190.999969 
	C44.414021,191.000000 39.458107,191.000000 34.254269,191.000000 
	C34.254269,181.616333 34.254269,172.563705 34.254269,163.254639 
	C40.720139,163.254639 47.109936,163.254639 53.996918,163.254639 
	C53.996918,171.764236 54.099136,180.193207 53.837097,188.610825 
	C53.811203,189.442703 51.556873,190.205215 49.853394,190.999969 
z"/>
<path fill="#000000" opacity="1.000000" stroke="none" 
	d="
M61.000000,170.074341 
	C61.000000,167.603165 61.000000,165.623016 61.000000,163.323395 
	C67.575363,163.323395 73.967278,163.323395 80.681709,163.323395 
	C80.681709,172.249557 80.681709,181.302963 80.681709,190.679688 
	C74.419434,190.679688 68.027328,190.679688 61.000000,190.679688 
	C61.000000,184.059967 61.000000,177.312668 61.000000,170.074341 
z"/>
<path fill="#000000" opacity="1.000000" stroke="none" 
	d="
M153.043427,147.000000 
	C162.164215,147.000000 170.790268,147.000000 179.706863,147.000000 
	C179.706863,149.317139 179.706863,151.378815 179.706863,153.722900 
	C168.038940,153.722900 156.311920,153.722900 144.291504,153.722900 
	C144.291504,151.680023 144.291504,149.618362 144.291504,147.000000 
	C146.998322,147.000000 149.773514,147.000000 153.043427,147.000000 
z"/>
<path fill="#000000" opacity="1.000000" stroke="none" 
	d="
M116.003998,147.000000 
	C123.134796,147.000000 129.766220,147.000000 136.697327,147.000000 
	C136.697327,149.300400 136.697327,151.362091 136.697327,153.714691 
	C125.060112,153.714691 113.333893,153.714691 101.302841,153.714691 
	C101.302841,151.699890 101.302841,149.638199 101.302841,147.000000 
	C105.973419,147.000000 110.739021,147.000000 116.003998,147.000000 
z"/>
<path fill="#000000" opacity="1.000000" stroke="none" 
	d="
M179.999435,136.969299 
	C179.007294,138.292297 178.027573,139.871277 177.021912,139.887970 
	C166.226028,140.067047 155.426086,139.999466 144.314331,139.999466 
	C144.314331,137.718750 144.314331,135.655853 144.314331,133.005020 
	C155.446869,133.005020 166.705765,132.942627 177.959503,133.154709 
	C178.660385,133.167923 179.320663,135.334915 179.999435,136.969299 
z"/>
<path fill="#000000" opacity="1.000000" stroke="none" 
	d="
M107.105293,140.000000 
	C104.970589,140.000000 103.321877,140.000000 101.337242,140.000000 
	C101.337242,137.757278 101.337242,135.695068 101.337242,133.313232 
	C112.874435,133.313232 124.604294,133.313232 136.668152,133.313232 
	C136.668152,135.250412 136.668152,137.313080 136.668152,140.000000 
	C127.097588,140.000000 117.344437,140.000000 107.105293,140.000000 
z"/>
<path fill="#000000" opacity="1.000000" stroke="none" 
	d="
M53.001034,43.000000 
	C62.468319,43.000000 71.435936,43.000000 80.779083,43.000000 
	C80.867950,44.625359 80.944366,46.022961 81.037216,47.721024 
	C65.742851,47.721024 50.671631,47.721024 35.206009,47.721024 
	C35.132065,46.372192 35.055305,44.972008 34.947197,43.000000 
	C40.949223,43.000000 46.725292,43.000000 53.001034,43.000000 
z"/>
<path fill="#00FFFF" opacity="1.000000" stroke="none" 
	d="
M75.000000,68.089111 
	C75.000000,72.201981 75.000000,75.831734 75.000000,79.727158 
	C72.653732,79.727158 70.592400,79.727158 68.262360,79.727158 
	C68.262360,73.999176 68.262360,68.268578 68.262360,62.266945 
	C70.356880,62.266945 72.417923,62.266945 75.000000,62.266945 
	C75.000000,64.054352 75.000000,65.830170 75.000000,68.089111 
z"/>
<path fill="#00FFFF" opacity="1.000000" stroke="none" 
	d="
M34.630936,62.461296 
	C34.930420,68.436691 34.930420,74.043663 34.930420,79.820267 
	C32.598881,79.820267 30.647247,79.820267 28.347046,79.820267 
	C28.347046,74.058708 28.347046,68.201920 28.347046,62.092873 
	C30.421032,62.092873 32.376244,62.092873 34.630936,62.461296 
z"/>
<path fill="#00FFFF" opacity="1.000000" stroke="none" 
	d="
M35.000000,117.998810 
	C35.000000,121.123810 35.000000,123.760551 35.000000,126.697365 
	C32.701412,126.697365 30.641245,126.697365 28.287758,126.697365 
	C28.287758,121.063248 28.287758,115.332916 28.287758,109.298706 
	C30.305218,109.298706 32.365364,109.298706 35.000000,109.298706 
	C35.000000,111.971809 35.000000,114.741188 35.000000,117.998810 
z"/>
<path fill="#00FFFF" opacity="1.000000" stroke="none" 
	d="
M68.377426,109.452301 
	C70.637344,109.091377 72.591324,109.091377 74.770737,109.091377 
	C74.770737,115.080696 74.770737,120.814171 74.770737,126.774536 
	C72.566483,126.774536 70.506325,126.774536 68.071480,126.774536 
	C68.071480,121.029564 68.071480,115.421394 68.377426,109.452301 
z"/>
<path fill="#00FFFF" opacity="1.000000" stroke="none" 
	d="
M60.996208,111.249695 
	C60.999332,116.683769 60.999332,121.640732 60.999332,126.544876 
	C54.005810,127.378799 54.004673,127.378799 54.000439,120.760162 
	C53.998013,116.974754 54.000000,113.189346 54.000000,108.140160 
	C56.805374,109.196190 58.899231,109.984390 60.996208,111.249695 
z"/>
<path fill="#00FFFF" opacity="1.000000" stroke="none" 
	d="
M84.969330,109.000572 
	C86.292259,109.990807 87.826332,110.943260 87.883118,111.976891 
	C88.146309,116.766754 87.999474,121.579155 87.999474,126.336807 
	C81.290932,127.649292 81.007912,127.425682 81.000610,121.006264 
	C80.997200,118.013885 81.203835,115.003670 80.943413,112.034142 
	C80.681870,109.051773 82.224945,108.729073 84.969330,109.000572 
z"/>
<path fill="#00FFFF" opacity="1.000000" stroke="none" 
	d="
M46.851818,62.050728 
	C47.633652,67.955803 47.946815,73.819687 48.257797,79.642776 
	C41.011852,80.264755 41.009254,80.264755 41.000954,74.117599 
	C40.995811,70.307083 41.000000,66.496544 41.000000,62.009533 
	C42.904278,62.009533 44.643711,62.009533 46.851818,62.050728 
z"/>
<path fill="#00FFFF" opacity="1.000000" stroke="none" 
	d="
M61.000000,74.858627 
	C60.999996,76.796959 60.999996,78.254173 60.999996,79.669823 
	C54.011864,80.259888 54.009254,80.259888 54.000950,74.119797 
	C53.995800,70.310532 54.000000,66.501251 54.000000,62.346664 
	C56.222076,62.346664 58.283672,62.346664 61.000000,62.346664 
	C61.000000,66.201149 61.000000,70.289322 61.000000,74.858627 
z"/>
<path fill="#00FFFF" opacity="1.000000" stroke="none" 
	d="
M81.703751,79.188644 
	C81.372993,73.429710 81.372993,67.990524 81.372993,62.275204 
	C83.343185,62.275204 85.405998,62.275204 87.737640,62.275204 
	C87.737640,68.010429 87.737640,73.750633 87.737640,80.051727 
	C85.798386,79.866982 83.916443,79.687691 81.703751,79.188644 
z"/>
<path fill="#00FFFF" opacity="1.000000" stroke="none" 
	d="
M46.851830,109.050728 
	C47.633659,114.955818 47.946815,120.819702 48.257793,126.642792 
	C41.011852,127.264748 41.009254,127.264748 41.000954,121.117592 
	C40.995811,117.307076 41.000000,113.496536 41.000000,109.009529 
	C42.904282,109.009529 44.643715,109.009529 46.851830,109.050728 
z"/>
<path fill="#00FFFF" opacity="1.000000" stroke="none" 
	d="
M34.996208,147.750854 
	C32.881577,149.022232 30.770065,149.817398 28.215004,150.779617 
	C28.215004,144.184280 28.215004,138.785431 28.215004,133.193756 
	C30.372253,133.193756 32.319447,133.193756 34.999329,133.193756 
	C34.999329,137.795471 34.999329,142.535049 34.996208,147.750854 
z"/>
<path fill="#00FFFF" opacity="1.000000" stroke="none" 
	d="
M35.000000,95.951340 
	C35.000000,98.410561 35.000000,100.386169 35.000000,102.679947 
	C32.731236,102.679947 30.670851,102.679947 28.302231,102.679947 
	C28.302231,97.431450 28.302231,92.032898 28.302231,86.314240 
	C30.278179,86.314240 32.338692,86.314240 35.000000,86.314240 
	C35.000000,89.271355 35.000000,92.369537 35.000000,95.951340 
z"/>
<path fill="#00FFFF" opacity="1.000000" stroke="none" 
	d="
M44.029228,86.000580 
	C46.774284,85.729530 48.237484,86.052643 48.065990,89.032402 
	C47.809895,93.482193 47.999500,97.957634 47.999500,102.709656 
	C45.679401,102.709656 43.618538,102.709656 41.005470,102.709656 
	C41.005470,97.838013 40.905766,92.902420 41.118977,87.980370 
	C41.149029,87.286652 42.707462,86.659134 44.029228,86.000580 
z"/>
<path fill="#00FFFF" opacity="1.000000" stroke="none" 
	d="
M54.369400,102.539169 
	C54.069622,96.897018 54.069622,91.623055 54.069622,86.179695 
	C56.400955,86.179695 58.352417,86.179695 60.652699,86.179695 
	C60.652699,91.607002 60.652699,97.130791 60.652699,102.907349 
	C58.579132,102.907349 56.624153,102.907349 54.369400,102.539169 
z"/>
<path fill="#00FFFF" opacity="1.000000" stroke="none" 
	d="
M75.000000,93.046982 
	C75.000000,96.498039 75.000000,99.464027 75.000000,102.713409 
	C72.673882,102.713409 70.613907,102.713409 68.274445,102.713409 
	C68.274445,97.361900 68.274445,91.964386 68.274445,86.281525 
	C70.330147,86.281525 72.391525,86.281525 75.000000,86.281525 
	C75.000000,88.351982 75.000000,90.456955 75.000000,93.046982 
z"/>
<path fill="#00FFFF" opacity="1.000000" stroke="none" 
	d="
M81.000000,96.917862 
	C81.000000,93.138649 81.000000,89.842331 81.000000,86.274849 
	C83.342216,86.274849 85.403503,86.274849 87.735611,86.274849 
	C87.735611,91.663116 87.735611,97.060837 87.735611,102.731064 
	C85.650360,102.731064 83.590080,102.731064 81.000000,102.731064 
	C81.000000,100.950905 81.000000,99.175827 81.000000,96.917862 
z"/>
<path fill="#00FFFF" opacity="1.000000" stroke="none" 
	d="
M88.000000,141.015778 
	C88.000000,144.135910 88.000000,146.771820 88.000000,149.702484 
	C85.692787,149.702484 83.632614,149.702484 81.283508,149.702484 
	C81.283508,144.384460 81.283508,138.986343 81.283508,133.292084 
	C83.316666,133.292084 85.376740,133.292084 88.000000,133.292084 
	C88.000000,135.660477 88.000000,138.096008 88.000000,141.015778 
z"/>
<path fill="#00FFFF" opacity="1.000000" stroke="none" 
	d="
M68.000366,136.202271 
	C68.124321,130.136322 72.372803,134.398621 74.644730,132.387680 
	C74.644730,138.601486 74.644730,144.121628 74.644730,149.823029 
	C72.593651,149.823029 70.641624,149.823029 68.000061,149.823029 
	C68.000061,145.514557 68.000061,141.096985 68.000366,136.202271 
z"/>
<path fill="#00FFFF" opacity="1.000000" stroke="none" 
	d="
M57.970772,149.999435 
	C55.225712,150.270493 53.762547,149.947357 53.934010,146.967606 
	C54.190102,142.517197 54.000500,138.041153 54.000500,133.290344 
	C56.320599,133.290344 58.381462,133.290344 60.994526,133.290344 
	C60.994526,138.161987 61.094242,143.097595 60.881031,148.019638 
	C60.850979,148.713364 59.292542,149.340881 57.970772,149.999435 
z"/>
<path fill="#00FFFF" opacity="1.000000" stroke="none" 
	d="
M47.630608,133.460846 
	C47.930378,139.102905 47.930378,144.376785 47.930378,149.820312 
	C45.599033,149.820312 43.647568,149.820312 41.347290,149.820312 
	C41.347290,144.393005 41.347290,138.869217 41.347290,133.092651 
	C43.420872,133.092651 45.375854,133.092651 47.630608,133.460846 
z"/>
<path fill="#00FFFF" opacity="1.000000" stroke="none" 
	d="
M155.618347,181.553894 
	C153.356735,181.910675 151.404251,181.910675 149.227875,181.910675 
	C149.227875,177.581680 149.227875,173.514099 149.227875,169.222382 
	C151.437027,169.222382 153.496780,169.222382 155.927460,169.222382 
	C155.927460,173.307877 155.927460,177.252502 155.618347,181.553894 
z"/>
<path fill="#00FFFF" opacity="1.000000" stroke="none" 
	d="
M132.999969,173.123718 
	C133.000000,176.229538 133.000000,178.859756 133.000000,181.740021 
	C130.632996,181.740021 128.572021,181.740021 126.252678,181.740021 
	C126.252678,177.639893 126.252678,173.573318 126.252678,168.957062 
	C128.794067,170.042633 133.396454,166.046555 132.999969,173.123718 
z"/>
</svg>