<svg version="1.1" id="Layer_1" xmlns="http://www.w3.org/2000/svg" xmlns:xlink="http://www.w3.org/1999/xlink" x="0px" y="0px"
	 width="100%" viewBox="0 0 200 200" enable-background="new 0 0 200 200" xml:space="preserve">
<path fill="#000000" opacity="1.000000" stroke="none" 
	d="
M201.000000,80.000000 
	C201.000000,120.641548 201.000000,160.783096 201.000000,200.962326 
	C134.400146,200.962326 67.800270,200.962326 1.100197,200.962326 
	C1.100197,134.441956 1.100197,67.883698 1.100197,1.162722 
	C67.666344,1.162722 134.333145,1.162722 201.000000,1.162722 
	C201.000000,27.199461 201.000000,53.349731 201.000000,80.000000 
M88.322327,42.831169 
	C87.940399,41.782368 87.860275,40.394585 87.126350,39.741138 
	C83.109848,36.165104 79.071129,32.573681 74.692612,29.479141 
	C73.832123,28.870993 71.445992,30.421528 68.815483,30.376701 
	C68.764206,27.971203 69.290855,25.327625 68.436241,23.253059 
	C67.954353,22.083300 64.949547,21.001459 63.528889,21.415604 
	C61.831673,21.910370 59.760052,23.874834 59.428764,25.520401 
	C59.102684,27.140110 60.303936,29.692286 61.671043,30.836021 
	C62.826645,31.802814 65.176620,31.435833 67.001549,31.470171 
	C67.951332,31.488039 68.908798,31.097502 69.203339,31.296797 
	C70.147720,32.705223 70.854271,34.383732 72.084755,35.467258 
	C74.861137,37.912071 78.262413,39.729782 80.719788,42.430214 
	C83.000832,44.936867 85.109444,45.268620 87.710068,44.806549 
	C87.957626,47.142345 87.345032,50.331501 88.635689,51.632442 
	C91.154305,54.171108 94.482765,53.387264 97.767441,51.368813 
	C95.468491,54.167587 96.921684,56.187702 99.325142,57.692776 
	C103.926643,60.574276 108.744949,63.116074 113.286171,66.085060 
	C116.475044,68.169907 117.598526,66.046944 119.670418,63.258560 
	C114.925179,60.211983 110.498444,57.099110 105.805206,54.460217 
	C103.073799,52.924423 99.915192,52.148418 96.999542,50.322380 
	C97.978355,44.338303 95.270454,41.926693 88.322327,42.831169 
M79.311623,104.522301 
	C79.025803,102.747948 78.739975,100.973587 78.454155,99.199234 
	C76.901390,99.482452 75.147041,99.429131 73.879417,100.188400 
	C73.228600,100.578217 73.062538,103.339439 73.334694,103.452934 
	C75.017868,104.154900 76.885399,104.420876 78.697708,104.803108 
	C79.186333,104.906166 79.695839,104.910172 80.019554,105.710426 
	C80.160011,107.418434 79.673958,109.654480 80.573959,110.722328 
	C82.338631,112.816086 84.636757,114.994270 87.145477,115.808586 
	C91.503036,117.223007 91.349442,112.340370 93.303780,110.328476 
	C93.608505,110.014771 94.362160,110.097816 94.607353,109.771400 
	C99.885399,102.744598 89.095497,104.248299 89.332726,99.870522 
	C87.724098,99.925323 86.104843,99.901352 84.517754,100.115654 
	C84.265350,100.149742 84.343628,101.448219 83.948242,101.829277 
	C82.743309,102.990509 81.381523,103.988998 79.311623,104.522301 
M135.709961,72.196526 
	C141.206238,73.337669 146.687088,74.560669 152.202454,75.600632 
	C160.342255,77.135445 168.483673,78.701927 176.679901,79.863205 
	C178.316315,80.095062 180.201920,78.568085 181.972610,77.852104 
	C180.362289,76.568909 178.917633,74.515923 177.114655,74.127899 
	C165.726685,71.677025 154.300934,69.323952 142.792648,67.557358 
	C139.349716,67.028847 134.686813,63.454239 131.790359,69.432007 
	C132.915680,70.350319 133.921341,71.170975 135.709961,72.196526 
M174.421936,116.005371 
	C175.499191,116.334991 176.661438,117.097366 177.636368,116.905922 
	C179.797104,116.481621 183.473907,115.867836 183.663010,114.815643 
	C184.202271,111.814919 181.472061,111.380333 178.798477,110.859421 
	C166.112106,108.387672 153.487289,105.599960 140.884857,102.934135 
	C138.085266,107.661522 138.517639,108.757790 144.058548,109.945427 
	C153.870361,112.048485 163.716568,113.991066 174.421936,116.005371 
M139.921051,44.396847 
	C141.911484,46.065281 144.005814,47.626396 145.867157,49.428181 
	C148.434845,51.913704 149.671188,50.934296 151.110504,48.161903 
	C152.157318,46.145515 154.092285,44.601479 155.555450,42.785755 
	C156.440491,41.687450 157.999466,40.285725 157.787216,39.355301 
	C157.495407,38.076172 155.882401,37.033569 154.711380,36.035133 
	C152.966187,34.547146 151.157318,33.123272 149.287521,31.796131 
	C148.260178,31.066938 146.972961,30.017569 145.948105,30.159660 
	C144.873032,30.308712 143.861267,31.614315 143.018372,32.585098 
	C141.496918,34.337345 140.279373,36.374161 138.648392,38.005692 
	C136.251373,40.403503 135.904083,42.332905 139.921051,44.396847 
M29.136484,26.981100 
	C36.030159,27.617155 42.928493,28.207066 49.816177,28.902458 
	C56.482784,29.575529 57.242668,28.990925 56.519062,23.003281 
	C48.103477,22.338758 39.628990,21.597897 31.141205,21.071505 
	C29.762560,20.986004 28.324987,21.850687 26.914652,22.276173 
	C27.382023,23.786491 27.849394,25.296808 29.136484,26.981100 
M183.948563,142.392654 
	C182.549271,143.907654 178.231522,144.158356 181.030457,147.538620 
	C183.133881,150.078903 185.830093,152.564270 188.793228,153.862930 
	C194.372650,156.308258 192.056259,147.358444 196.660233,147.768967 
	C196.600021,146.171875 197.187881,143.886215 196.358871,143.105957 
	C193.804688,140.701996 190.709091,138.873291 187.536911,136.616989 
	C186.261627,138.459305 185.158752,140.052536 183.948563,142.392654 
M62.364922,145.898605 
	C61.635712,141.164597 57.485989,141.071381 55.036308,142.373337 
	C53.064754,143.421173 52.580345,147.267151 51.695724,149.280655 
	C50.630741,152.352844 49.620956,154.634613 49.239899,157.016937 
	C49.179825,157.392487 53.025745,159.019669 53.257370,158.711044 
	C54.551239,156.986969 55.289036,154.845566 56.499176,152.238617 
	C59.572899,152.625717 62.125130,150.702820 62.364922,145.898605 
M132.591675,90.074982 
	C131.727112,86.007668 131.036224,81.890350 129.888824,77.904457 
	C129.557983,76.755173 127.913177,75.984138 126.870781,75.039680 
	C125.932350,76.450439 124.534531,77.758698 124.190186,79.302010 
	C123.872780,80.724602 124.647575,82.408791 125.009682,83.961800 
	C126.187851,89.014786 127.397339,94.060463 128.623108,99.228355 
	C134.776367,97.918472 132.519318,93.825294 132.591675,90.074982 
M185.997101,91.704155 
	C186.985596,96.094559 188.207443,100.449242 188.886902,104.886963 
	C189.406342,108.279678 191.234436,108.245018 194.926331,107.497704 
	C193.602219,101.189781 192.453735,95.033447 190.933502,88.970306 
	C190.565140,87.501114 188.536148,85.071587 188.013702,85.250694 
	C185.445343,86.131210 183.878510,87.996284 185.997101,91.704155 
M14.959960,23.812952 
	C14.431642,28.668440 17.848387,28.089792 20.805883,27.979443 
	C24.239250,27.851336 25.353680,25.658102 24.962166,22.622454 
	C24.463167,18.753380 21.749868,17.726044 18.303947,18.014366 
	C15.192641,18.274693 13.326715,19.553980 14.959960,23.812952 
M130.996704,68.433701 
	C130.534027,65.099670 128.858749,63.114784 125.272957,62.980515 
	C121.645439,62.844677 120.284714,65.519089 120.260147,68.101852 
	C120.244072,69.792252 122.052147,72.225372 123.688560,73.058983 
	C127.385361,74.942184 129.438995,72.265877 130.996704,68.433701 
M188.273102,110.231400 
	C184.880508,112.656654 184.009186,115.868332 187.322845,118.500786 
	C188.860977,119.722694 193.209396,119.957565 194.077530,118.873329 
	C195.372971,117.255424 195.339661,113.873474 194.617004,111.649780 
	C194.280563,110.614502 190.996857,110.537033 188.273102,110.231400 
M193.998062,79.162758 
	C194.635666,74.917595 192.391983,72.666786 188.538422,73.161644 
	C185.070404,73.606995 183.152374,76.582191 184.176193,80.038055 
	C184.634064,81.583549 187.118423,83.719704 188.414017,83.548714 
	C190.390961,83.287804 192.134415,81.257713 193.998062,79.162758 
M134.518509,101.011765 
	C131.613663,98.938011 128.872894,99.859230 127.976189,102.754280 
	C127.324089,104.859566 127.870728,108.272873 129.290268,109.755547 
	C130.245148,110.752892 134.524673,110.215027 135.760910,108.900620 
	C137.520996,107.029228 138.769501,103.708557 134.518509,101.011765 
M185.043961,53.613861 
	C184.713303,51.595238 184.881561,49.241226 183.844009,47.697803 
	C183.315842,46.912140 180.059067,46.917187 179.046860,47.767895 
	C177.816040,48.802319 176.969681,51.185333 177.166473,52.841202 
	C177.572632,56.258537 180.380234,56.703403 185.043961,53.613861 
M72.296265,61.002937 
	C68.922714,60.820961 66.484215,62.177155 67.197464,65.757675 
	C67.516945,67.361511 69.632355,69.492699 71.165443,69.705093 
	C72.527092,69.893730 75.329651,67.892532 75.479576,66.620285 
	C75.685234,64.875092 73.986870,62.905529 72.296265,61.002937 
M32.607956,104.946510 
	C34.512291,103.936615 36.416626,102.926712 39.808411,101.127998 
	C36.754097,98.852936 34.996662,97.001343 32.850018,96.222504 
	C32.036442,95.927330 29.180676,98.209938 29.265587,99.132622 
	C29.435534,100.979370 30.991280,102.698593 32.607956,104.946510 
M118.042030,140.705933 
	C119.304939,142.469238 120.338837,144.516037 121.964981,145.829697 
	C122.478287,146.244354 125.524780,144.921188 125.743401,143.998169 
	C126.141716,142.316467 125.292984,140.339417 124.964539,138.485580 
	C122.799179,138.999222 120.633812,139.512848 118.042030,140.705933 
M140.090805,33.363873 
	C139.950211,31.340542 139.809616,29.317209 139.669022,27.293879 
	C137.645523,27.549492 135.410965,27.389732 133.699463,28.259378 
	C132.986664,28.621572 132.834991,32.255913 133.384506,32.537746 
	C135.204468,33.471176 137.459869,33.555611 140.090805,33.363873 
M107.805908,24.961401 
	C109.529869,23.867973 111.401543,22.928930 112.847755,21.545206 
	C113.122719,21.282135 111.837677,18.344357 111.055931,18.238449 
	C109.427620,18.017853 106.671921,18.390554 106.186554,19.393742 
	C105.562431,20.683762 106.712196,22.832014 107.805908,24.961401 
M26.462801,51.000908 
	C23.415585,50.739597 22.554937,52.590401 23.105799,55.036846 
	C23.356918,56.152088 24.932468,57.949837 25.539862,57.812538 
	C27.100624,57.459732 29.293768,56.440662 29.644642,55.227978 
	C29.960194,54.137367 28.163843,52.435699 26.462801,51.000908 
M68.060684,76.451950 
	C69.895264,76.558655 71.729843,76.665352 73.564423,76.772057 
	C73.201073,74.797874 72.837715,72.823700 72.474365,70.849518 
	C71.673096,70.724884 70.871834,70.600250 70.070564,70.475616 
	C69.381378,72.210388 68.692184,73.945160 68.060684,76.451950 
M175.525177,139.997833 
	C177.241547,140.405075 178.957916,140.812317 180.758148,141.239441 
	C180.758148,138.661911 180.758148,136.930954 180.758148,135.198288 
	C177.317047,134.713608 174.419785,134.626694 175.525177,139.997833 
M163.024841,12.044580 
	C163.920502,14.504076 165.717621,15.082911 167.836121,13.899333 
	C168.671753,13.432476 169.662354,11.862623 169.434280,11.176814 
	C169.033554,9.971712 167.333206,8.038891 166.909958,8.211166 
	C165.437729,8.810427 164.279892,10.182038 163.024841,12.044580 
z"/>
<path fill="#FFFD6F" opacity="1.000000" stroke="none" 
	d="
M135.318481,72.094070 
	C133.921341,71.170975 132.915680,70.350319 131.790359,69.432007 
	C134.686813,63.454239 139.349716,67.028847 142.792648,67.557358 
	C154.300934,69.323952 165.726685,71.677025 177.114655,74.127899 
	C178.917633,74.515923 180.362289,76.568909 181.972610,77.852112 
	C180.201920,78.568085 178.316315,80.095062 176.679901,79.863205 
	C168.483673,78.701927 160.342255,77.135445 152.202454,75.600632 
	C146.687088,74.560669 141.206238,73.337669 135.318481,72.094070 
z"/>
<path fill="#FFFD6F" opacity="1.000000" stroke="none" 
	d="
M173.985168,116.003082 
	C163.716568,113.991066 153.870361,112.048485 144.058548,109.945427 
	C138.517639,108.757790 138.085266,107.661522 140.884857,102.934135 
	C153.487289,105.599960 166.112106,108.387672 178.798477,110.859421 
	C181.472061,111.380333 184.202271,111.814919 183.663010,114.815643 
	C183.473907,115.867836 179.797104,116.481621 177.636368,116.905922 
	C176.661438,117.097366 175.499191,116.334991 173.985168,116.003082 
z"/>
<path fill="#FFFD6F" opacity="1.000000" stroke="none" 
	d="
M139.585510,44.214195 
	C135.904083,42.332905 136.251373,40.403503 138.648392,38.005692 
	C140.279373,36.374161 141.496918,34.337345 143.018372,32.585098 
	C143.861267,31.614315 144.873032,30.308712 145.948105,30.159660 
	C146.972961,30.017569 148.260178,31.066938 149.287521,31.796131 
	C151.157318,33.123272 152.966187,34.547146 154.711380,36.035133 
	C155.882401,37.033569 157.495407,38.076172 157.787216,39.355301 
	C157.999466,40.285725 156.440491,41.687450 155.555450,42.785755 
	C154.092285,44.601479 152.157318,46.145515 151.110504,48.161903 
	C149.671188,50.934296 148.434845,51.913704 145.867157,49.428181 
	C144.005814,47.626396 141.911484,46.065281 139.585510,44.214195 
z"/>
<path fill="#FFFD6F" opacity="1.000000" stroke="none" 
	d="
M28.726624,26.894114 
	C27.849394,25.296808 27.382023,23.786491 26.914652,22.276173 
	C28.324987,21.850687 29.762560,20.986004 31.141205,21.071505 
	C39.628990,21.597897 48.103477,22.338758 56.519062,23.003281 
	C57.242668,28.990925 56.482784,29.575529 49.816177,28.902458 
	C42.928493,28.207066 36.030159,27.617155 28.726624,26.894114 
z"/>
<path fill="#FFFD6F" opacity="1.000000" stroke="none" 
	d="
M184.002228,142.019211 
	C185.158752,140.052536 186.261627,138.459305 187.536911,136.616989 
	C190.709091,138.873291 193.804688,140.701996 196.358871,143.105957 
	C197.187881,143.886215 196.600021,146.171875 196.660233,147.768967 
	C192.056259,147.358444 194.372650,156.308258 188.793228,153.862930 
	C185.830093,152.564270 183.133881,150.078903 181.030457,147.538620 
	C178.231522,144.158356 182.549271,143.907654 184.002228,142.019211 
z"/>
<path fill="#FFFD70" opacity="1.000000" stroke="none" 
	d="
M80.080795,105.050835 
	C81.381523,103.988998 82.743309,102.990509 83.948242,101.829277 
	C84.343628,101.448219 84.265350,100.149742 84.517754,100.115654 
	C86.104843,99.901352 87.724098,99.925323 89.332726,99.870522 
	C89.095497,104.248299 99.885399,102.744598 94.607353,109.771400 
	C94.362160,110.097816 93.608505,110.014771 93.303780,110.328476 
	C91.349442,112.340370 91.503036,117.223007 87.145477,115.808586 
	C84.636757,114.994270 82.338631,112.816086 80.573959,110.722328 
	C79.673958,109.654480 80.160011,107.418434 80.066360,105.341995 
	C80.113159,104.973572 80.080795,105.050835 80.080795,105.050835 
z"/>
<path fill="#FFFD6F" opacity="1.000000" stroke="none" 
	d="
M96.948799,51.030548 
	C99.915192,52.148418 103.073799,52.924423 105.805206,54.460217 
	C110.498444,57.099110 114.925179,60.211983 119.670418,63.258560 
	C117.598526,66.046944 116.475044,68.169907 113.286171,66.085060 
	C108.744949,63.116074 103.926643,60.574276 99.325142,57.692776 
	C96.921684,56.187702 95.468491,54.167587 97.402916,51.154465 
	C97.038391,50.940121 96.948799,51.030548 96.948799,51.030548 
z"/>
<path fill="#FFFD6F" opacity="1.000000" stroke="none" 
	d="
M62.636600,146.190948 
	C62.125130,150.702820 59.572899,152.625717 56.499176,152.238617 
	C55.289036,154.845566 54.551239,156.986969 53.257370,158.711044 
	C53.025745,159.019669 49.179825,157.392487 49.239899,157.016937 
	C49.620956,154.634613 50.630741,152.352844 51.695724,149.280655 
	C52.580345,147.267151 53.064754,143.421173 55.036308,142.373337 
	C57.485989,141.071381 61.635712,141.164597 62.636600,146.190948 
z"/>
<path fill="#FFFD6F" opacity="1.000000" stroke="none" 
	d="
M132.775925,90.475113 
	C132.519318,93.825294 134.776367,97.918472 128.623108,99.228355 
	C127.397339,94.060463 126.187851,89.014786 125.009682,83.961800 
	C124.647575,82.408791 123.872780,80.724602 124.190186,79.302010 
	C124.534531,77.758698 125.932350,76.450439 126.870789,75.039688 
	C127.913177,75.984138 129.557983,76.755173 129.888824,77.904457 
	C131.036224,81.890350 131.727112,86.007668 132.775925,90.475113 
z"/>
<path fill="#FFFD70" opacity="1.000000" stroke="none" 
	d="
M69.763481,30.976479 
	C71.445992,30.421528 73.832123,28.870993 74.692612,29.479141 
	C79.071129,32.573681 83.109848,36.165104 87.126350,39.741138 
	C87.860275,40.394585 87.940399,41.782368 88.503586,43.186638 
	C88.459213,43.764404 88.198219,43.931454 87.901863,44.043262 
	C85.109444,45.268620 83.000832,44.936867 80.719788,42.430214 
	C78.262413,39.729782 74.861137,37.912071 72.084755,35.467258 
	C70.854271,34.383732 70.147720,32.705223 69.504005,31.089931 
	C69.804672,30.883064 69.763481,30.976479 69.763481,30.976479 
z"/>
<path fill="#FFFD6F" opacity="1.000000" stroke="none" 
	d="
M185.981201,91.287170 
	C183.878510,87.996284 185.445343,86.131210 188.013702,85.250694 
	C188.536148,85.071587 190.565140,87.501114 190.933502,88.970306 
	C192.453735,95.033447 193.602219,101.189781 194.926331,107.497704 
	C191.234436,108.245018 189.406342,108.279678 188.886902,104.886963 
	C188.207443,100.449242 186.985596,96.094559 185.981201,91.287170 
z"/>
<path fill="#FFFD6F" opacity="1.000000" stroke="none" 
	d="
M69.289482,30.676590 
	C69.763481,30.976479 69.804672,30.883064 69.833733,30.887253 
	C68.908798,31.097502 67.951332,31.488039 67.001549,31.470171 
	C65.176620,31.435833 62.826645,31.802814 61.671043,30.836021 
	C60.303936,29.692286 59.102684,27.140110 59.428764,25.520401 
	C59.760052,23.874834 61.831673,21.910370 63.528889,21.415604 
	C64.949547,21.001459 67.954353,22.083300 68.436241,23.253059 
	C69.290855,25.327625 68.764206,27.971203 69.289482,30.676590 
z"/>
<path fill="#FFFD6F" opacity="1.000000" stroke="none" 
	d="
M14.774298,23.444124 
	C13.326715,19.553980 15.192641,18.274693 18.303947,18.014366 
	C21.749868,17.726044 24.463167,18.753380 24.962166,22.622454 
	C25.353680,25.658102 24.239250,27.851336 20.805883,27.979443 
	C17.848387,28.089792 14.431642,28.668440 14.774298,23.444124 
z"/>
<path fill="#FFFD6F" opacity="1.000000" stroke="none" 
	d="
M130.978790,68.830658 
	C129.438995,72.265877 127.385361,74.942184 123.688560,73.058983 
	C122.052147,72.225372 120.244072,69.792252 120.260147,68.101852 
	C120.284714,65.519089 121.645439,62.844677 125.272957,62.980515 
	C128.858749,63.114784 130.534027,65.099670 130.978790,68.830658 
z"/>
<path fill="#FFFD6F" opacity="1.000000" stroke="none" 
	d="
M87.805969,44.424904 
	C88.198219,43.931454 88.459213,43.764404 88.829514,43.358620 
	C95.270454,41.926693 97.978355,44.338303 96.974167,50.676464 
	C96.948799,51.030548 97.038391,50.940121 97.080750,50.889896 
	C94.482765,53.387264 91.154305,54.171108 88.635689,51.632442 
	C87.345032,50.331501 87.957626,47.142345 87.805969,44.424904 
z"/>
<path fill="#FFFD6F" opacity="1.000000" stroke="none" 
	d="
M188.661102,110.128403 
	C190.996857,110.537033 194.280563,110.614502 194.617004,111.649780 
	C195.339661,113.873474 195.372971,117.255424 194.077530,118.873329 
	C193.209396,119.957565 188.860977,119.722694 187.322845,118.500786 
	C184.009186,115.868332 184.880508,112.656654 188.661102,110.128403 
z"/>
<path fill="#FFFD6F" opacity="1.000000" stroke="none" 
	d="
M193.987534,79.570770 
	C192.134415,81.257713 190.390961,83.287804 188.414017,83.548714 
	C187.118423,83.719704 184.634064,81.583549 184.176193,80.038055 
	C183.152374,76.582191 185.070404,73.606995 188.538422,73.161644 
	C192.391983,72.666786 194.635666,74.917595 193.987534,79.570770 
z"/>
<path fill="#FFFD6F" opacity="1.000000" stroke="none" 
	d="
M134.807465,101.308693 
	C138.769501,103.708557 137.520996,107.029228 135.760910,108.900620 
	C134.524673,110.215027 130.245148,110.752892 129.290268,109.755547 
	C127.870728,108.272873 127.324089,104.859566 127.976189,102.754280 
	C128.872894,99.859230 131.613663,98.938011 134.807465,101.308693 
z"/>
<path fill="#FFFD6F" opacity="1.000000" stroke="none" 
	d="
M184.986526,54.008194 
	C180.380234,56.703403 177.572632,56.258537 177.166473,52.841202 
	C176.969681,51.185333 177.816040,48.802319 179.046860,47.767895 
	C180.059067,46.917187 183.315842,46.912140 183.844009,47.697803 
	C184.881561,49.241226 184.713303,51.595238 184.986526,54.008194 
z"/>
<path fill="#FFFD6F" opacity="1.000000" stroke="none" 
	d="
M72.700363,61.017525 
	C73.986870,62.905529 75.685234,64.875092 75.479576,66.620285 
	C75.329651,67.892532 72.527092,69.893730 71.165443,69.705093 
	C69.632355,69.492699 67.516945,67.361511 67.197464,65.757675 
	C66.484215,62.177155 68.922714,60.820961 72.700363,61.017525 
z"/>
<path fill="#FFFD6F" opacity="1.000000" stroke="none" 
	d="
M32.291416,104.708488 
	C30.991280,102.698593 29.435534,100.979370 29.265587,99.132622 
	C29.180676,98.209938 32.036442,95.927330 32.850018,96.222504 
	C34.996662,97.001343 36.754097,98.852936 39.808411,101.127998 
	C36.416626,102.926712 34.512291,103.936615 32.291416,104.708488 
z"/>
<path fill="#FFFD6F" opacity="1.000000" stroke="none" 
	d="
M118.255241,140.366211 
	C120.633812,139.512848 122.799179,138.999222 124.964539,138.485580 
	C125.292984,140.339417 126.141716,142.316467 125.743401,143.998169 
	C125.524780,144.921188 122.478287,146.244354 121.964981,145.829697 
	C120.338837,144.516037 119.304939,142.469238 118.255241,140.366211 
z"/>
<path fill="#FFFD70" opacity="1.000000" stroke="none" 
	d="
M139.819504,33.664825 
	C137.459869,33.555611 135.204468,33.471176 133.384506,32.537746 
	C132.834991,32.255913 132.986664,28.621572 133.699463,28.259378 
	C135.410965,27.389732 137.645523,27.549492 139.669022,27.293879 
	C139.809616,29.317209 139.950211,31.340542 139.819504,33.664825 
z"/>
<path fill="#FFFD6D" opacity="1.000000" stroke="none" 
	d="
M107.451874,24.785986 
	C106.712196,22.832014 105.562431,20.683762 106.186554,19.393742 
	C106.671921,18.390554 109.427620,18.017853 111.055931,18.238449 
	C111.837677,18.344357 113.122719,21.282135 112.847755,21.545206 
	C111.401543,22.928930 109.529869,23.867973 107.451874,24.785986 
z"/>
<path fill="#FFFD70" opacity="1.000000" stroke="none" 
	d="
M26.880920,51.002235 
	C28.163843,52.435699 29.960194,54.137367 29.644642,55.227978 
	C29.293768,56.440662 27.100624,57.459732 25.539862,57.812538 
	C24.932468,57.949837 23.356918,56.152088 23.105799,55.036846 
	C22.554937,52.590401 23.415585,50.739597 26.880920,51.002235 
z"/>
<path fill="#FFFD6D" opacity="1.000000" stroke="none" 
	d="
M80.154465,104.966606 
	C79.695839,104.910172 79.186333,104.906166 78.697708,104.803108 
	C76.885399,104.420876 75.017868,104.154900 73.334694,103.452934 
	C73.062538,103.339439 73.228600,100.578217 73.879417,100.188400 
	C75.147041,99.429131 76.901390,99.482452 78.454155,99.199234 
	C78.739975,100.973587 79.025803,102.747948 79.696213,104.786568 
	C80.080795,105.050835 80.113159,104.973572 80.154465,104.966606 
z"/>
<path fill="#FFFD6F" opacity="1.000000" stroke="none" 
	d="
M68.031845,76.065941 
	C68.692184,73.945160 69.381378,72.210388 70.070564,70.475616 
	C70.871834,70.600250 71.673096,70.724884 72.474365,70.849518 
	C72.837715,72.823700 73.201073,74.797874 73.564423,76.772057 
	C71.729843,76.665352 69.895264,76.558655 68.031845,76.065941 
z"/>
<path fill="#FFFD70" opacity="1.000000" stroke="none" 
	d="
M175.288544,139.637848 
	C174.419785,134.626694 177.317047,134.713608 180.758148,135.198288 
	C180.758148,136.930954 180.758148,138.661911 180.758148,141.239441 
	C178.957916,140.812317 177.241547,140.405075 175.288544,139.637848 
z"/>
<path fill="#FFFD6F" opacity="1.000000" stroke="none" 
	d="
M163.013672,11.652269 
	C164.279892,10.182038 165.437729,8.810427 166.909958,8.211166 
	C167.333206,8.038891 169.033554,9.971712 169.434280,11.176814 
	C169.662354,11.862623 168.671753,13.432476 167.836121,13.899333 
	C165.717621,15.082911 163.920502,14.504076 163.013672,11.652269 
z"/>
</svg>