<svg xmlns="http://www.w3.org/2000/svg" width="100%" viewBox="0 0 400 400">
<path fill="#000000" opacity="1.000000" stroke="none" 
	d="
M270.000000,401.000000 
	C180.027969,401.000000 90.555931,401.000000 1.041946,401.000000 
	C1.041946,267.736298 1.041946,134.472580 1.041946,1.104436 
	C134.221970,1.104436 267.444061,1.104436 400.833069,1.104436 
	C400.833069,134.333160 400.833069,267.666565 400.833069,401.000000 
	C357.472656,401.000000 313.986328,401.000000 270.000000,401.000000 
M230.001663,91.769943 
	C230.666046,95.293266 229.095825,97.473366 225.993713,99.014885 
	C222.265991,100.867302 218.721069,103.086555 214.999557,104.952667 
	C197.590027,113.682480 180.167252,122.386627 162.691360,130.982376 
	C160.391663,132.113510 157.804840,132.807114 155.272217,133.290405 
	C148.297760,134.621292 141.312973,135.984741 134.273544,136.866379 
	C125.810204,137.926361 117.449287,138.914948 109.921967,132.642838 
	C103.107445,126.964645 95.141632,132.870331 94.274185,138.943771 
	C92.942703,148.266083 86.397469,150.102341 79.315155,151.985931 
	C70.881569,154.228897 62.477303,156.373352 55.786522,162.623352 
	C51.491890,166.635056 46.815807,170.245621 42.233627,173.940414 
	C36.946732,178.203430 34.925026,183.706528 36.163948,190.264587 
	C36.725418,193.236633 37.829609,196.146561 39.003273,198.952637 
	C40.567223,202.691803 39.381981,205.018692 36.259418,207.414734 
	C28.742647,213.182556 21.203386,218.990417 14.251647,225.408661 
	C4.320891,234.577286 5.955263,246.504974 18.255226,251.403168 
	C23.739199,253.587051 25.190281,256.825348 26.004498,261.585876 
	C26.867260,266.630249 29.348751,269.901123 34.686581,271.435303 
	C39.538925,272.829926 42.395054,270.679352 45.065914,267.550201 
	C47.209366,265.038910 48.705891,261.909424 51.081577,259.687286 
	C52.490269,258.369598 55.047173,258.279419 57.087803,257.637329 
	C57.392330,259.201263 57.812973,260.754181 57.962154,262.332794 
	C58.068539,263.458557 57.836155,264.621674 57.710159,265.763184 
	C56.867970,273.392975 58.979057,279.740845 64.408432,281.465546 
	C71.752625,283.798431 79.429848,285.586639 87.086716,286.307983 
	C97.373962,287.277191 106.990395,283.590698 116.551941,280.050873 
	C133.596985,273.740570 149.471725,265.302795 164.541397,255.182632 
	C170.801620,250.978561 177.604874,248.693634 185.595657,249.649780 
	C192.291885,250.451019 199.200806,250.019592 205.972198,249.532120 
	C219.254288,248.575958 232.511353,247.253632 245.767487,245.966614 
	C249.726578,245.582214 252.364349,247.464081 254.024887,250.608963 
	C256.430511,255.165009 260.253174,257.459320 265.027802,258.527496 
	C276.137909,261.013062 286.342834,256.713135 288.135284,244.044357 
	C288.436157,241.917603 290.073822,239.149826 291.888641,238.204895 
	C302.102325,232.887009 312.761810,228.407867 322.864532,222.900269 
	C330.087219,218.962753 335.278442,210.334991 332.057831,201.443314 
	C330.258423,196.475388 328.570526,191.416245 326.198547,186.718216 
	C322.434143,179.262375 322.963257,175.499115 330.315552,171.130981 
	C332.921173,169.582932 336.476959,169.565491 339.628540,169.020187 
	C345.053711,168.081497 349.523346,165.642654 351.740601,160.465714 
	C353.969086,155.262527 353.520172,150.589569 348.983246,146.194305 
	C346.071350,143.373352 343.199005,141.541611 339.288452,140.912384 
	C337.819946,140.676071 336.371887,139.888901 335.073639,139.093277 
	C330.221161,136.119507 325.434601,133.038239 320.688721,130.038620 
	C321.694092,128.148407 322.551605,125.374870 324.318237,123.425018 
	C330.472778,116.632141 333.725861,108.556557 335.680359,99.810585 
	C337.494873,91.690796 333.697723,80.678459 326.309570,77.777573 
	C316.040070,73.745338 305.093353,71.763268 294.388489,72.581886 
	C285.767456,73.241142 277.117310,76.727058 269.035309,80.237305 
	C262.269623,83.175850 256.745544,83.624672 250.916977,78.757339 
	C247.447800,75.860275 240.082031,75.895821 237.835175,78.820129 
	C234.914474,82.621468 232.586914,86.878532 230.001663,91.769943 
z"/>
<path fill="#00FFD9" opacity="1.000000" stroke="none" 
	d="
M230.002869,91.354691 
	C232.586914,86.878532 234.914474,82.621468 237.835175,78.820129 
	C240.082031,75.895821 247.447800,75.860275 250.916977,78.757339 
	C256.745544,83.624672 262.269623,83.175850 269.035309,80.237305 
	C277.117310,76.727058 285.767456,73.241142 294.388489,72.581886 
	C305.093353,71.763268 316.040070,73.745338 326.309570,77.777573 
	C333.697723,80.678459 337.494873,91.690796 335.680359,99.810585 
	C333.725861,108.556557 330.472778,116.632141 324.318237,123.425018 
	C322.551605,125.374870 321.694092,128.148407 320.688721,130.038620 
	C325.434601,133.038239 330.221161,136.119507 335.073639,139.093277 
	C336.371887,139.888901 337.819946,140.676071 339.288452,140.912384 
	C343.199005,141.541611 346.071350,143.373352 348.983246,146.194305 
	C353.520172,150.589569 353.969086,155.262527 351.740601,160.465714 
	C349.523346,165.642654 345.053711,168.081497 339.628540,169.020187 
	C336.476959,169.565491 332.921173,169.582932 330.315552,171.130981 
	C322.963257,175.499115 322.434143,179.262375 326.198547,186.718216 
	C328.570526,191.416245 330.258423,196.475388 332.057831,201.443314 
	C335.278442,210.334991 330.087219,218.962753 322.864532,222.900269 
	C312.761810,228.407867 302.102325,232.887009 291.888641,238.204895 
	C290.073822,239.149826 288.436157,241.917603 288.135284,244.044357 
	C286.342834,256.713135 276.137909,261.013062 265.027802,258.527496 
	C260.253174,257.459320 256.430511,255.165009 254.024887,250.608963 
	C252.364349,247.464081 249.726578,245.582214 245.767487,245.966614 
	C232.511353,247.253632 219.254288,248.575958 205.972198,249.532120 
	C199.200806,250.019592 192.291885,250.451019 185.595657,249.649780 
	C177.604874,248.693634 170.801620,250.978561 164.541397,255.182632 
	C149.471725,265.302795 133.596985,273.740570 116.551941,280.050873 
	C106.990395,283.590698 97.373962,287.277191 87.086716,286.307983 
	C79.429848,285.586639 71.752625,283.798431 64.408432,281.465546 
	C58.979057,279.740845 56.867970,273.392975 57.710159,265.763184 
	C57.836155,264.621674 58.068539,263.458557 57.962154,262.332794 
	C57.812973,260.754181 57.392330,259.201263 57.087799,257.637329 
	C55.047173,258.279419 52.490269,258.369598 51.081577,259.687286 
	C48.705891,261.909424 47.209366,265.038910 45.065914,267.550201 
	C42.395054,270.679352 39.538925,272.829926 34.686581,271.435303 
	C29.348751,269.901123 26.867260,266.630249 26.004498,261.585876 
	C25.190281,256.825348 23.739199,253.587051 18.255226,251.403168 
	C5.955263,246.504974 4.320891,234.577286 14.251647,225.408661 
	C21.203386,218.990417 28.742647,213.182556 36.259418,207.414734 
	C39.381981,205.018692 40.567223,202.691803 39.003273,198.952637 
	C37.829609,196.146561 36.725418,193.236633 36.163948,190.264587 
	C34.925026,183.706528 36.946732,178.203430 42.233627,173.940414 
	C46.815807,170.245621 51.491890,166.635056 55.786522,162.623352 
	C62.477303,156.373352 70.881569,154.228897 79.315155,151.985931 
	C86.397469,150.102341 92.942703,148.266083 94.274185,138.943771 
	C95.141632,132.870331 103.107445,126.964645 109.921967,132.642838 
	C117.449287,138.914948 125.810204,137.926361 134.273544,136.866379 
	C141.312973,135.984741 148.297760,134.621292 155.272217,133.290405 
	C157.804840,132.807114 160.391663,132.113510 162.691360,130.982376 
	C180.167252,122.386627 197.590027,113.682480 214.999557,104.952667 
	C218.721069,103.086555 222.265991,100.867302 225.993713,99.014885 
	C229.095825,97.473366 230.666046,95.293266 230.002869,91.354691 
M100.028893,203.456543 
	C95.115120,210.254517 90.201347,217.052490 85.277122,223.864914 
	C89.117683,225.477478 91.930054,227.200485 94.969406,227.833298 
	C104.254745,229.766510 113.602844,231.436905 122.974045,232.906555 
	C130.191528,234.038452 137.460205,234.999176 144.743027,235.522171 
	C155.105255,236.266312 165.363647,234.823547 175.258499,231.881485 
	C183.052567,229.564072 191.295166,227.401215 198.016785,223.102829 
	C213.717224,213.062576 228.404694,201.452667 243.915039,191.096451 
	C257.527405,182.007477 269.713715,171.499771 280.084625,158.884323 
	C280.498138,158.381302 279.980988,156.180603 279.404419,155.936752 
	C271.293671,152.506516 263.294312,148.573364 254.861420,146.217194 
	C247.641174,144.199844 239.924728,143.575974 232.383698,143.184967 
	C222.726791,142.684235 212.827728,141.797653 203.390228,143.308578 
	C189.292038,145.565674 175.473648,149.644196 161.594742,153.177704 
	C145.791595,157.201096 131.856430,164.558731 121.259964,177.287933 
	C114.234520,185.727402 107.466187,194.380890 100.028893,203.456543 
M250.336685,104.950096 
	C247.065735,107.351929 243.620117,107.328590 239.719955,106.505371 
	C236.639679,105.855217 232.974777,105.579430 230.131821,106.641937 
	C220.978485,110.062866 211.989487,113.973190 203.118210,118.085457 
	C193.655579,122.471832 184.399048,127.302834 174.487961,132.219833 
	C175.792664,133.097336 176.173813,133.572235 176.582321,133.597061 
	C195.525070,134.747940 214.368591,135.105286 233.212585,131.467880 
	C249.983459,128.230606 266.948700,125.910263 283.898621,123.734238 
	C290.757050,122.853767 297.674835,123.433731 304.350037,126.497025 
	C306.558868,127.510666 311.579285,126.778740 312.659302,125.118172 
	C317.526611,117.634628 323.185730,110.513550 325.245392,101.391411 
	C326.949890,93.842430 326.341858,85.319504 316.402374,84.771950 
	C313.817413,84.629555 311.178772,84.501434 308.682098,83.888687 
	C299.214905,81.565193 289.729950,81.900154 280.400543,84.107414 
	C273.529053,85.733162 266.914520,88.001480 262.152100,94.147697 
	C259.086823,98.103683 254.759018,101.081406 250.336685,104.950096 
M323.329773,202.888641 
	C321.204376,197.853180 319.212677,192.755493 316.908264,187.803314 
	C315.271179,184.285263 312.488098,184.477173 309.490448,186.178986 
	C298.475586,192.432281 287.800446,199.428696 276.336823,204.712112 
	C260.181152,212.158066 243.530319,218.569733 226.913071,224.960419 
	C215.400055,229.388077 203.561432,232.964050 191.938721,237.117645 
	C190.440643,237.653015 189.366043,239.373398 187.664581,240.941879 
	C189.304626,241.619278 189.747879,241.975082 190.170532,241.952103 
	C208.053253,240.979492 225.942017,240.090164 243.809601,238.887161 
	C248.186005,238.592499 251.580719,235.904648 253.979965,232.151810 
	C260.908508,221.314407 273.139343,221.612411 281.831238,228.696472 
	C285.139984,231.393188 287.839569,232.119492 291.497040,230.186661 
	C293.189331,229.292358 295.044128,228.703262 296.831573,227.991745 
	C306.657776,224.080429 315.683807,219.047165 322.751831,210.863586 
	C324.917297,208.356323 325.205872,206.160995 323.329773,202.888641 
M132.305801,145.997833 
	C124.800209,145.879990 118.315086,147.537582 112.701180,153.404800 
	C109.979668,156.249130 104.659439,158.554993 100.952705,158.028442 
	C96.028465,157.328964 91.559990,156.435394 86.620010,157.944641 
	C73.653816,161.906021 61.154350,166.467453 51.587288,176.821655 
	C44.578957,184.406586 42.952747,189.151138 49.119213,199.672455 
	C53.309818,197.125763 57.389206,194.327881 61.742321,192.054001 
	C86.244743,179.254990 110.871490,166.692429 135.298172,153.751587 
	C139.129501,151.721802 142.154465,148.169907 145.552277,145.321823 
	C145.195160,144.742645 144.838043,144.163452 144.480927,143.584259 
	C140.723984,144.387756 136.967041,145.191254 132.305801,145.997833 
M81.226677,276.015167 
	C83.535713,276.450256 85.851173,277.286652 88.152657,277.249817 
	C97.363235,277.102509 105.915230,274.298187 114.615387,271.323395 
	C129.875626,266.105530 143.697906,258.356293 157.244797,249.912064 
	C158.034409,249.419891 158.501205,248.409866 159.118240,247.640839 
	C158.974258,247.113297 158.830276,246.585754 158.686295,246.058212 
	C152.105988,246.058212 145.363251,245.120850 138.974731,246.227814 
	C116.688339,250.089432 94.789520,256.212189 72.002434,257.186615 
	C70.283745,257.260101 67.583862,259.681732 67.203400,261.419739 
	C65.468697,269.344025 69.883163,274.911499 81.226677,276.015167 
M300.936646,169.409805 
	C298.996124,167.808594 297.119080,166.121613 295.099915,164.626633 
	C292.195648,162.476273 289.608398,160.730896 286.359131,164.844925 
	C282.818970,169.327240 278.769684,173.596085 274.272766,177.098114 
	C261.510834,187.036636 248.391541,196.515411 235.446350,206.219757 
	C230.451584,209.964081 225.546753,213.828354 220.600952,217.637985 
	C239.365677,215.164673 299.398499,187.391602 308.224792,176.967880 
	C305.985535,174.654678 303.710663,172.304718 300.936646,169.409805 
M17.012516,238.318237 
	C18.083725,239.788528 18.887453,241.609024 20.273220,242.667496 
	C25.778891,246.872772 31.323601,245.621078 36.980305,242.597794 
	C43.155807,239.297226 44.685818,239.776123 48.717163,245.197495 
	C53.105934,251.099533 60.901253,250.336090 64.012352,243.725784 
	C65.642487,240.262146 67.036575,236.627670 69.123650,233.456238 
	C71.057549,230.517548 70.855949,228.235153 67.308571,227.148804 
	C59.570568,224.779114 53.055416,220.685043 47.898109,214.430145 
	C46.293610,212.484161 44.325314,211.860413 42.140511,213.445114 
	C35.853924,218.004913 29.287537,222.257111 23.482899,227.370163 
	C20.595631,229.913437 19.135088,234.076416 17.012516,238.318237 
M77.659599,192.047577 
	C69.728783,196.849396 61.797970,201.651215 53.459908,206.699600 
	C59.721802,214.540985 67.549149,219.055008 75.840881,221.841934 
	C88.269356,205.951523 100.390930,190.453476 112.512505,174.955444 
	C112.130760,174.653732 111.749008,174.352020 111.367264,174.050308 
	C100.381317,180.014206 89.395370,185.978104 77.659599,192.047577 
M312.644653,139.005356 
	C307.535797,144.441467 302.426971,149.877563 297.117523,155.527161 
	C302.720795,160.410873 307.821777,164.317688 312.237823,168.886536 
	C315.426453,172.185501 317.958252,171.751007 320.518036,168.878342 
	C322.907440,166.196869 327.264740,164.297485 325.111847,159.325562 
	C323.634796,155.914444 323.056427,152.722534 325.846741,149.366913 
	C328.113312,146.641159 327.029480,144.233917 323.642273,142.969696 
	C320.225433,141.694443 316.841644,140.330795 312.644653,139.005356 
M284.663116,132.008011 
	C272.952301,131.646408 261.372467,132.394073 250.121246,135.598892 
	C263.285767,140.053024 276.292633,144.453796 290.730316,149.338684 
	C294.323334,145.956161 299.163635,141.399460 305.031281,135.875549 
	C297.525146,134.416214 291.512543,133.247238 284.663116,132.008011 
M80.815262,248.037506 
	C94.743538,247.861389 108.186417,244.856186 121.571922,241.283142 
	C111.257988,238.891403 100.957481,237.048355 90.705650,234.965683 
	C78.952820,232.578049 78.218964,232.873566 73.726463,243.690903 
	C73.604507,243.984543 73.298088,244.195877 73.128845,244.476440 
	C70.890984,248.186493 72.696205,249.203323 76.191391,248.983429 
	C77.473999,248.902756 78.743973,248.621262 80.815262,248.037506 
z"/>
<path fill="#000000" opacity="1.000000" stroke="none" 
	d="
M100.305817,203.197556 
	C107.466187,194.380890 114.234520,185.727402 121.259964,177.287933 
	C131.856430,164.558731 145.791595,157.201096 161.594742,153.177704 
	C175.473648,149.644196 189.292038,145.565674 203.390228,143.308578 
	C212.827728,141.797653 222.726791,142.684235 232.383698,143.184967 
	C239.924728,143.575974 247.641174,144.199844 254.861420,146.217194 
	C263.294312,148.573364 271.293671,152.506516 279.404419,155.936752 
	C279.980988,156.180603 280.498138,158.381302 280.084625,158.884323 
	C269.713715,171.499771 257.527405,182.007477 243.915039,191.096451 
	C228.404694,201.452667 213.717224,213.062576 198.016785,223.102829 
	C191.295166,227.401215 183.052567,229.564072 175.258499,231.881485 
	C165.363647,234.823547 155.105255,236.266312 144.743027,235.522171 
	C137.460205,234.999176 130.191528,234.038452 122.974045,232.906555 
	C113.602844,231.436905 104.254745,229.766510 94.969406,227.833298 
	C91.930054,227.200485 89.117683,225.477478 85.277122,223.864914 
	C90.201347,217.052490 95.115120,210.254517 100.305817,203.197556 
M187.410767,209.067688 
	C188.239609,208.249023 188.985474,207.319183 189.910156,206.628891 
	C199.116501,199.756271 204.063721,190.746918 202.935135,179.134262 
	C201.758041,167.022644 192.715622,158.015320 180.907883,154.940674 
	C170.020218,152.105637 160.848618,155.756439 153.140854,162.718338 
	C148.921494,166.529388 145.109833,171.746994 143.370987,177.067810 
	C141.781494,181.931671 142.345963,187.992844 143.539429,193.161987 
	C145.541183,201.831894 150.401886,208.759918 159.335022,212.112946 
	C168.993881,215.738327 178.104996,214.663696 187.410767,209.067688 
z"/>
<path fill="#000000" opacity="1.000000" stroke="none" 
	d="
M250.666885,104.723846 
	C254.759018,101.081406 259.086823,98.103683 262.152100,94.147697 
	C266.914520,88.001480 273.529053,85.733162 280.400543,84.107414 
	C289.729950,81.900154 299.214905,81.565193 308.682098,83.888687 
	C311.178772,84.501434 313.817413,84.629555 316.402374,84.771950 
	C326.341858,85.319504 326.949890,93.842430 325.245392,101.391411 
	C323.185730,110.513550 317.526611,117.634628 312.659302,125.118172 
	C311.579285,126.778740 306.558868,127.510666 304.350037,126.497025 
	C297.674835,123.433731 290.757050,122.853767 283.898621,123.734238 
	C266.948700,125.910263 249.983459,128.230606 233.212585,131.467880 
	C214.368591,135.105286 195.525070,134.747940 176.582321,133.597061 
	C176.173813,133.572235 175.792664,133.097336 174.487961,132.219833 
	C184.399048,127.302834 193.655579,122.471832 203.118210,118.085457 
	C211.989487,113.973190 220.978485,110.062866 230.131821,106.641937 
	C232.974777,105.579430 236.639679,105.855217 239.719955,106.505371 
	C243.620117,107.328590 247.065735,107.351929 250.666885,104.723846 
z"/>
<path fill="#000000" opacity="1.000000" stroke="none" 
	d="
M323.604797,203.154221 
	C325.205872,206.160995 324.917297,208.356323 322.751831,210.863586 
	C315.683807,219.047165 306.657776,224.080429 296.831573,227.991745 
	C295.044128,228.703262 293.189331,229.292358 291.497040,230.186661 
	C287.839569,232.119492 285.139984,231.393188 281.831238,228.696472 
	C273.139343,221.612411 260.908508,221.314407 253.979965,232.151810 
	C251.580719,235.904648 248.186005,238.592499 243.809601,238.887161 
	C225.942017,240.090164 208.053253,240.979492 190.170532,241.952103 
	C189.747879,241.975082 189.304626,241.619278 187.664581,240.941879 
	C189.366043,239.373398 190.440643,237.653015 191.938721,237.117645 
	C203.561432,232.964050 215.400055,229.388077 226.913071,224.960419 
	C243.530319,218.569733 260.181152,212.158066 276.336823,204.712112 
	C287.800446,199.428696 298.475586,192.432281 309.490448,186.178986 
	C312.488098,184.477173 315.271179,184.285263 316.908264,187.803314 
	C319.212677,192.755493 321.204376,197.853180 323.604797,203.154221 
z"/>
<path fill="#000000" opacity="1.000000" stroke="none" 
	d="
M132.757950,145.996277 
	C136.967041,145.191254 140.723984,144.387756 144.480927,143.584259 
	C144.838043,144.163452 145.195160,144.742645 145.552277,145.321823 
	C142.154465,148.169907 139.129501,151.721802 135.298172,153.751587 
	C110.871490,166.692429 86.244743,179.254990 61.742321,192.054001 
	C57.389206,194.327881 53.309818,197.125763 49.119213,199.672455 
	C42.952747,189.151138 44.578957,184.406586 51.587288,176.821655 
	C61.154350,166.467453 73.653816,161.906021 86.620010,157.944641 
	C91.559990,156.435394 96.028465,157.328964 100.952705,158.028442 
	C104.659439,158.554993 109.979668,156.249130 112.701180,153.404800 
	C118.315086,147.537582 124.800209,145.879990 132.757950,145.996277 
z"/>
<path fill="#000000" opacity="1.000000" stroke="none" 
	d="
M80.808380,275.995148 
	C69.883163,274.911499 65.468697,269.344025 67.203400,261.419739 
	C67.583862,259.681732 70.283745,257.260101 72.002434,257.186615 
	C94.789520,256.212189 116.688339,250.089432 138.974731,246.227814 
	C145.363251,245.120850 152.105988,246.058212 158.686295,246.058212 
	C158.830276,246.585754 158.974258,247.113297 159.118240,247.640839 
	C158.501205,248.409866 158.034409,249.419891 157.244797,249.912064 
	C143.697906,258.356293 129.875626,266.105530 114.615387,271.323395 
	C105.915230,274.298187 97.363235,277.102509 88.152657,277.249817 
	C85.851173,277.286652 83.535713,276.450256 80.808380,275.995148 
z"/>
<path fill="#000000" opacity="1.000000" stroke="none" 
	d="
M301.186218,169.682281 
	C303.710663,172.304718 305.985535,174.654678 308.224792,176.967880 
	C299.398499,187.391602 239.365677,215.164673 220.600952,217.637985 
	C225.546753,213.828354 230.451584,209.964081 235.446350,206.219757 
	C248.391541,196.515411 261.510834,187.036636 274.272766,177.098114 
	C278.769684,173.596085 282.818970,169.327240 286.359131,164.844925 
	C289.608398,160.730896 292.195648,162.476273 295.099915,164.626633 
	C297.119080,166.121613 298.996124,167.808594 301.186218,169.682281 
z"/>
<path fill="#000000" opacity="1.000000" stroke="none" 
	d="
M17.020826,237.912460 
	C19.135088,234.076416 20.595631,229.913437 23.482899,227.370163 
	C29.287537,222.257111 35.853924,218.004913 42.140511,213.445114 
	C44.325314,211.860413 46.293610,212.484161 47.898109,214.430145 
	C53.055416,220.685043 59.570568,224.779114 67.308571,227.148804 
	C70.855949,228.235153 71.057549,230.517548 69.123650,233.456238 
	C67.036575,236.627670 65.642487,240.262146 64.012352,243.725784 
	C60.901253,250.336090 53.105934,251.099533 48.717163,245.197495 
	C44.685818,239.776123 43.155807,239.297226 36.980305,242.597794 
	C31.323601,245.621078 25.778891,246.872772 20.273220,242.667496 
	C18.887453,241.609024 18.083725,239.788528 17.020826,237.912460 
z"/>
<path fill="#000000" opacity="1.000000" stroke="none" 
	d="
M78.034515,191.994781 
	C89.395370,185.978104 100.381317,180.014206 111.367264,174.050308 
	C111.749008,174.352020 112.130760,174.653732 112.512505,174.955444 
	C100.390930,190.453476 88.269356,205.951523 75.840881,221.841934 
	C67.549149,219.055008 59.721802,214.540985 53.459908,206.699600 
	C61.797970,201.651215 69.728783,196.849396 78.034515,191.994781 
z"/>
<path fill="#000000" opacity="1.000000" stroke="none" 
	d="
M313.044006,139.005615 
	C316.841644,140.330795 320.225433,141.694443 323.642273,142.969696 
	C327.029480,144.233917 328.113312,146.641159 325.846741,149.366913 
	C323.056427,152.722534 323.634796,155.914444 325.111847,159.325562 
	C327.264740,164.297485 322.907440,166.196869 320.518036,168.878342 
	C317.958252,171.751007 315.426453,172.185501 312.237823,168.886536 
	C307.821777,164.317688 302.720795,160.410873 297.117523,155.527161 
	C302.426971,149.877563 307.535797,144.441467 313.044006,139.005615 
z"/>
<path fill="#000000" opacity="1.000000" stroke="none" 
	d="
M285.081512,132.043152 
	C291.512543,133.247238 297.525146,134.416214 305.031281,135.875549 
	C299.163635,141.399460 294.323334,145.956161 290.730316,149.338684 
	C276.292633,144.453796 263.285767,140.053024 250.121246,135.598892 
	C261.372467,132.394073 272.952301,131.646408 285.081512,132.043152 
z"/>
<path fill="#000000" opacity="1.000000" stroke="none" 
	d="
M80.417488,248.234436 
	C78.743973,248.621262 77.473999,248.902756 76.191391,248.983429 
	C72.696205,249.203323 70.890984,248.186493 73.128845,244.476440 
	C73.298088,244.195877 73.604507,243.984543 73.726463,243.690903 
	C78.218964,232.873566 78.952820,232.578049 90.705650,234.965683 
	C100.957481,237.048355 111.257988,238.891403 121.571922,241.283142 
	C108.186417,244.856186 94.743538,247.861389 80.417488,248.234436 
z"/>
<path fill="#00FFD9" opacity="1.000000" stroke="none" 
	d="
M187.166290,209.348969 
	C178.104996,214.663696 168.993881,215.738327 159.335022,212.112946 
	C150.401886,208.759918 145.541183,201.831894 143.539429,193.161987 
	C142.345963,187.992844 141.781494,181.931671 143.370987,177.067810 
	C145.109833,171.746994 148.921494,166.529388 153.140854,162.718338 
	C160.848618,155.756439 170.020218,152.105637 180.907883,154.940674 
	C192.715622,158.015320 201.758041,167.022644 202.935135,179.134262 
	C204.063721,190.746918 199.116501,199.756271 189.910156,206.628891 
	C188.985474,207.319183 188.239609,208.249023 187.166290,209.348969 
z"/>
</svg>