<svg version="1.1" id="Layer_1" xmlns="http://www.w3.org/2000/svg" xmlns:xlink="http://www.w3.org/1999/xlink" x="0px" y="0px"
	 width="100%" viewBox="0 0 200 200" enable-background="new 0 0 200 200" xml:space="preserve">
		<path fill="#000000" opacity="1.000000" stroke="none" 
	d="
M64.775482,1.347591 
	C108.792671,1.000000 152.585464,1.043279 196.377792,0.918111 
	C199.893799,0.908061 201.124466,1.342025 201.114197,5.369959 
	C200.951767,69.143669 200.969208,132.917969 201.084747,196.691879 
	C201.090958,200.127396 200.591751,201.129166 196.815399,201.113754 
	C153.189941,200.935532 109.563499,201.000000 65.468658,201.000000 
	C63.741322,199.797562 63.046879,198.368622 63.027336,196.586426 
	C62.879681,183.121552 63.247150,169.670609 65.604607,156.390976 
	C66.562759,150.993698 69.040726,146.275360 75.655807,145.093231 
	C78.599327,146.232498 78.772453,148.449631 78.366295,150.622849 
	C76.128487,162.596436 75.757034,174.681534 75.968552,184.340347 
	C76.747871,174.920944 76.582024,162.991287 78.220940,151.128189 
	C79.307167,143.265747 84.484985,139.039886 90.674370,136.219833 
	C97.465424,133.125671 102.472412,128.590118 106.633194,122.616875 
	C113.396523,112.907387 118.481033,102.252052 124.302582,92.012520 
	C129.807724,82.329544 136.859650,73.683571 142.835709,64.309982 
	C148.679962,55.143154 151.243576,44.921925 153.716385,33.775120 
	C150.707962,34.905514 147.762680,36.326534 147.040131,31.664402 
	C144.762604,28.587677 144.325928,32.644169 142.463882,32.415909 
	C141.664612,32.377300 141.235214,32.226528 140.566818,31.792377 
	C139.594711,30.399935 138.511078,29.817513 136.887939,29.477787 
	C134.853241,26.698124 133.154724,28.286139 131.117249,29.454304 
	C130.554535,29.514116 130.324890,29.495888 129.771606,29.358467 
	C124.061760,28.021736 121.351410,28.910265 119.636917,33.103710 
	C118.472679,35.951309 116.196007,35.688782 113.342827,35.668087 
	C121.502213,49.613235 112.238190,58.510509 104.995834,67.941490 
	C103.940712,69.315460 102.491829,70.186333 100.428543,68.706390 
	C98.721878,63.156368 101.185219,58.323032 101.956345,53.331036 
	C102.709602,48.454838 104.532555,43.713219 102.736336,38.321983 
	C102.586639,36.661045 102.963058,35.418781 102.835312,33.793312 
	C100.314629,21.082682 88.526489,9.499204 76.994331,8.381437 
	C73.669510,6.777995 70.445099,6.079671 66.868462,5.175889 
	C65.373138,4.185071 64.283859,3.340819 64.775482,1.347591 
z"/>
<path fill="#000000" opacity="1.000000" stroke="none" 
	d="
	M12.275965,200.691071 
	C8.339536,201.000000 3.274725,202.425919 1.416598,200.595901 
	C-0.413474,198.793518 1.000862,193.691483 1.000796,190.037216 
	C0.999683,128.474854 1.026429,66.912453 0.927028,5.350263 
	C0.921693,2.046211 1.219330,0.779704 5.138472,0.869893 
	C19.439966,1.199005 33.753616,1.000000 48.531342,1.000000 
	C50.336033,3.586206 48.273380,4.200938 46.626183,4.840851 
	C43.686565,5.982849 40.878933,7.438285 37.925896,8.522302 
	C28.451910,12.000061 23.447807,19.248096 21.002480,28.573463 
	C15.199477,50.703484 18.442120,71.616974 29.713991,91.393097 
	C31.226667,94.047035 33.373081,96.101227 36.327446,97.888695 
	C37.495159,99.187149 38.032131,100.455215 39.107800,101.833389 
	C39.520580,103.513359 39.676064,104.841515 39.841038,106.157196 
	C40.546844,111.786041 39.755444,112.832085 34.112747,113.503975 
	C23.760479,114.736633 17.172014,120.893135 13.589458,130.112671 
	C9.463193,140.731415 7.428839,151.765869 8.716805,163.334793 
	C9.601813,171.284195 7.016338,179.232315 7.922165,185.249237 
	C9.342043,170.333023 8.203532,153.246979 11.891645,136.482620 
	C14.553072,124.385071 21.877113,114.073601 36.061306,113.439713 
	C38.679718,113.322701 40.470287,112.117371 40.207577,109.030281 
	C40.123203,108.038864 40.666149,107.101959 41.607147,106.008057 
	C45.504826,105.318352 46.547482,107.680595 46.901615,110.505257 
	C47.167633,112.627098 47.097454,114.794334 46.858704,117.385864 
	C46.430084,118.701157 45.818748,119.342720 44.663986,120.044830 
	C29.800957,121.826523 21.907791,128.675186 17.917542,143.338516 
	C15.196123,153.339157 13.726496,163.336624 14.746622,173.854034 
	C15.493939,181.558807 13.650860,189.408066 13.898232,197.238876 
	C13.935199,198.409134 13.410757,199.509247 12.275965,200.691071 
	z"/>
<path fill="#000000" opacity="1.000000" stroke="none" 
	d="
	M61.272106,200.694885 
	C52.979099,201.000000 44.958202,201.000000 36.468651,201.000000 
	C34.403229,199.643799 34.524071,197.794647 34.483887,195.952225 
	C34.234585,184.522034 34.091183,173.089600 33.541359,161.666122 
	C33.412624,158.991440 33.177425,156.368744 32.422661,153.355453 
	C32.729553,142.171295 34.148197,131.672440 41.681824,123.223587 
	C45.120831,119.366791 49.923626,117.855034 55.307091,117.053070 
	C58.821529,119.415291 62.655327,120.031044 66.064178,121.617958 
	C69.781281,123.348358 73.809685,124.839653 74.459961,130.107941 
	C73.219749,132.821777 70.781685,133.391342 68.746010,134.355606 
	C58.969318,138.986633 56.821140,147.593018 55.918491,157.294907 
	C55.060257,166.519440 55.005249,175.727264 54.997272,184.281067 
	C54.698769,174.309570 55.993752,163.737396 56.529263,153.129684 
	C57.054142,142.732681 63.245911,136.586319 72.256218,132.669693 
	C73.317085,132.208557 74.515434,132.099518 75.836151,131.255280 
	C80.011879,129.585571 83.423164,127.196190 87.651871,125.636284 
	C89.128418,125.468201 90.196205,125.478416 91.553253,126.176064 
	C93.794868,128.598251 93.030609,130.602646 91.289078,132.375031 
	C90.046204,133.639923 88.726028,134.832443 87.256607,136.446198 
	C86.765930,136.904480 86.545074,137.060791 85.961151,137.397980 
	C83.814926,138.812668 81.946548,139.923965 79.947823,140.741806 
	C68.673546,145.355026 64.625343,154.249985 63.848370,165.861420 
	C63.225613,175.168152 63.060314,184.449921 62.980682,193.754135 
	C62.961014,196.052109 63.343079,198.465012 61.272106,200.694885 
z"/>
<path fill="#F6FC0D" opacity="1.000000" stroke="none" 
	d="
M35.979412,98.655670 
	C28.533550,95.721046 26.288021,88.662476 23.020544,82.450432 
	C18.404289,73.674141 16.663353,63.787312 16.391388,54.337120 
	C16.017300,41.338509 16.675903,28.006056 24.793592,16.414598 
	C29.777025,9.298620 37.348232,7.161713 44.525028,3.975727 
	C46.245514,3.211954 48.433636,3.431354 49.327377,1.297628 
	C54.022091,1.000000 59.044186,1.000000 64.533142,1.000000 
	C63.914768,2.987379 65.744598,2.749534 66.853600,3.533006 
	C64.215340,7.323462 59.891304,5.598664 56.046173,7.000402 
	C51.712357,6.448083 48.202980,7.779763 44.521343,8.933211 
	C26.211411,14.669675 22.910185,29.760218 21.625179,45.790665 
	C20.865980,55.261658 22.728539,64.584030 26.255795,73.882149 
	C28.472176,81.087357 31.544086,87.501335 34.953281,93.757225 
	C35.759056,95.235825 36.678448,96.592239 35.979412,98.655670 
z"/>
<path fill="#FE0FED" opacity="1.000000" stroke="none" 
	d="
M12.399996,201.000000 
	C12.400011,193.609909 11.282914,186.194412 12.875638,178.794968 
	C13.547110,175.675461 12.236482,172.249207 12.188178,169.088501 
	C11.954223,153.780304 14.673379,138.911179 24.337540,126.604485 
	C28.681170,121.073135 35.959995,119.393227 43.524460,119.102402 
	C44.056713,121.901085 41.615356,122.648712 39.769657,124.268837 
	C33.687756,125.926819 29.549696,129.633163 25.748219,134.428772 
	C20.669621,140.681412 21.514435,148.094009 20.606806,155.044556 
	C20.286806,157.495102 20.109486,159.995667 19.798077,162.869202 
	C19.187283,165.319962 18.414886,167.348587 19.060284,169.953369 
	C19.363483,176.970047 17.493635,183.479477 18.449814,190.521606 
	C19.200195,194.339325 19.736305,197.721771 16.339453,200.685303 
	C14.933331,201.000000 13.866661,201.000000 12.399996,201.000000 
z"/>
<path fill="#FE0CEE" opacity="1.000000" stroke="none" 
	d="
M61.399994,201.000000 
	C60.999599,192.208176 60.590981,183.391632 61.121136,174.631912 
	C61.589924,166.886139 62.513790,159.057739 64.369919,151.545792 
	C65.558304,146.736282 70.297882,144.058640 74.678856,141.737015 
	C78.222504,139.859100 81.729080,137.911240 85.619827,135.964081 
	C87.361076,137.718994 86.404579,139.004700 84.934944,139.939423 
	C83.116249,141.096161 81.956474,142.896255 80.081192,144.451126 
	C79.453934,144.922150 79.073471,145.151810 78.368301,145.459137 
	C77.856285,145.626465 77.648613,145.681946 77.119827,145.766586 
	C71.777603,146.597916 69.814880,150.684097 68.118660,154.571259 
	C66.861847,157.451431 66.079453,160.800583 66.105652,163.932281 
	C66.206581,175.996811 64.251877,187.989609 65.000183,200.531403 
	C63.933331,201.000000 62.866661,201.000000 61.399994,201.000000 
z"/>
<path fill="#000000" opacity="1.000000" stroke="none" 
	d="
M16.428463,201.000000 
	C17.358482,198.070587 16.917027,194.940048 17.092831,191.437241 
	C19.496361,176.402740 19.557465,161.579361 21.470827,146.936935 
	C21.535269,146.443787 21.485191,145.938812 21.522366,145.441544 
	C21.635099,143.933441 21.762211,142.061508 23.615696,142.082382 
	C25.081438,142.098892 25.318918,143.811127 25.493448,145.190887 
	C25.970867,148.965210 26.840511,152.698700 26.505295,156.548080 
	C26.373947,158.056381 26.751421,159.523697 27.031300,161.459381 
	C26.388548,164.615936 26.488674,167.367722 26.469460,170.567902 
	C25.333960,177.949387 24.950714,184.945450 24.541361,191.934372 
	C24.369669,194.865677 24.720758,197.866043 22.313280,200.669556 
	C20.285643,201.000000 18.571283,201.000000 16.428463,201.000000 
z"/>
<path fill="#FE11E6" opacity="1.000000" stroke="none" 
	d="
M33.359776,152.094803 
	C35.253025,159.544495 36.062218,167.124802 36.007092,174.786469 
	C35.946404,183.221664 37.189312,191.656830 36.003822,200.545975 
	C35.250000,201.000000 34.500000,201.000000 33.375000,201.000000 
	C30.814068,199.250839 31.104618,196.640762 30.610054,193.822449 
	C30.670578,181.426941 30.023785,169.485336 30.979031,157.559280 
	C31.139462,155.556320 31.042963,153.539490 33.359776,152.094803 
z"/>
<path fill="#FE11E6" opacity="1.000000" stroke="none" 
	d="
M22.399996,201.000000 
	C23.376402,191.310165 23.118013,181.452789 25.076284,171.392166 
	C26.251080,169.653915 24.089220,166.412567 28.101147,166.858429 
	C29.093895,173.103882 28.638479,179.104263 28.016127,185.050735 
	C27.741226,187.677368 27.297548,190.199310 28.064140,193.218658 
	C28.092941,195.987701 28.351948,198.403290 26.294447,200.672775 
	C24.933331,201.000000 23.866661,201.000000 22.399996,201.000000 
z"/>
<path fill="#000000" opacity="1.000000" stroke="none" 
	d="
M26.437500,201.000000 
	C26.044275,198.818558 26.088551,196.637100 26.486082,194.230499 
	C27.421041,193.741104 27.914980,193.304581 28.865421,193.085022 
	C30.103012,192.957703 30.826267,193.467728 31.910435,193.896606 
	C33.837608,195.861404 32.586246,198.118195 32.996227,200.584900 
	C30.958334,201.000000 28.916666,201.000000 26.437500,201.000000 
z"/>
<path fill="#FF4503" opacity="1.000000" stroke="none" 
	d="
M93.016747,127.171249 
	C91.250214,127.102028 90.192986,127.035561 88.743469,126.900528 
	C87.400902,126.494049 86.495415,126.070023 85.464661,125.249336 
	C84.542252,124.309967 83.787186,123.654503 82.534012,123.161926 
	C80.992729,122.232018 79.694405,121.495872 78.365334,120.247482 
	C76.995117,118.564461 75.357887,119.246902 73.601212,118.985184 
	C69.403618,118.086227 67.775375,115.968468 69.665047,112.157822 
	C71.005318,109.455078 69.409164,109.032600 67.024689,108.750359 
	C65.819191,108.628288 64.946747,108.517273 64.254303,109.765800 
	C62.741570,111.606186 64.588715,116.533157 59.412579,113.971375 
	C59.054344,113.467575 58.936256,113.250671 58.707245,112.684410 
	C58.602100,110.674286 57.987808,109.096115 57.828552,107.117737 
	C57.459164,105.336563 56.377178,104.448166 55.243004,103.151962 
	C54.860653,102.369331 54.739845,101.883263 54.697601,100.988441 
	C54.789318,100.069962 54.965733,99.575836 55.491310,98.806976 
	C56.638569,97.811394 57.662796,97.619232 59.136497,97.741241 
	C61.559422,98.672470 63.183140,100.196831 65.332977,101.555199 
	C66.710732,103.134758 67.886078,103.375473 69.454147,102.378098 
	C71.257660,101.230980 73.305885,100.515648 75.530396,99.384888 
	C81.092049,96.894829 84.491409,92.983559 87.000275,87.769455 
	C93.159790,74.968330 96.788597,61.360466 100.587013,47.787170 
	C101.365387,45.005692 100.944511,42.187405 100.886703,40.019009 
	C100.680130,38.720936 99.794380,39.595684 100.412895,39.346924 
	C100.619514,39.263828 100.774193,39.365711 100.769753,39.650902 
	C100.579697,51.850315 97.942131,63.230099 89.349106,72.925644 
	C86.889832,73.484535 85.589836,75.491890 83.086502,75.960419 
	C79.812317,75.786682 78.250885,73.886665 76.787796,71.231567 
	C73.901909,62.015522 75.027748,53.246170 77.370239,44.584934 
	C78.638969,39.893826 81.252869,35.882965 85.396210,32.501106 
	C86.424355,31.841061 87.192360,31.572412 88.249252,31.003733 
	C89.975754,30.044561 91.564224,30.217384 93.393890,29.783936 
	C94.377388,29.022352 97.242477,31.468681 95.985756,28.479383 
	C93.575806,22.746979 90.185883,17.614853 84.158310,14.426750 
	C81.198799,13.859604 79.154152,11.439716 75.820610,12.077299 
	C74.146851,11.950102 72.964455,11.516697 71.733673,10.309424 
	C71.311241,9.466204 71.265984,8.935560 71.528091,8.019618 
	C72.962868,6.193716 74.660271,6.535853 76.653008,6.709630 
	C84.980118,7.148582 91.231140,10.158473 95.772743,17.087122 
	C99.029099,22.055008 103.469955,26.256466 104.892921,32.664169 
	C104.231979,34.141621 104.649651,35.363274 104.230927,36.807640 
	C106.831779,44.877075 103.272865,52.251816 102.577538,59.799702 
	C102.310547,62.697838 101.556969,65.551140 101.154022,69.177719 
	C101.391983,70.593109 101.333771,71.248978 101.125214,72.236115 
	C96.650269,79.313766 95.055222,87.205841 91.895554,94.838776 
	C91.331924,96.001663 90.670479,96.694847 90.129852,97.873322 
	C89.810051,98.366859 89.663063,98.551186 89.247406,98.962463 
	C86.674767,100.736023 84.617088,102.618286 82.242889,104.073753 
	C79.154976,105.966759 78.172508,108.605362 79.771950,112.286194 
	C80.507401,113.775497 81.566216,114.335739 83.060020,114.827881 
	C84.244576,115.479294 84.977730,116.247765 86.178589,116.881943 
	C87.076820,117.571411 87.645546,118.166389 88.521637,118.876709 
	C89.066521,119.344139 89.372398,119.618652 89.916809,120.088898 
	C91.827255,121.817268 92.692886,120.075035 94.069305,119.184814 
	C94.832024,118.608406 95.363541,118.256866 96.088028,117.622360 
	C96.510490,117.280266 96.688255,117.152702 97.156708,116.870804 
	C98.547546,116.452812 99.473442,115.893501 100.532135,114.885857 
	C103.300354,113.850441 103.938881,111.505211 105.070610,109.534164 
	C106.352287,107.301987 106.833336,104.496002 109.839828,103.129105 
	C110.712646,103.031509 111.202408,103.123581 111.983398,103.547058 
	C113.937271,107.125595 111.256927,109.409561 110.117157,111.995911 
	C108.852333,114.865967 107.083725,117.502922 104.473724,119.921539 
	C101.078842,121.818405 98.218819,123.830650 95.332748,126.421143 
	C94.626106,126.864128 94.187439,127.046371 93.016747,127.171249 
z"/>
<path fill="#FF4302" opacity="1.000000" stroke="none" 
	d="
M77.726486,144.279663 
	C80.778816,141.514633 83.681915,138.995422 86.286278,136.204971 
	C85.987549,135.933731 85.998627,135.996902 85.966965,135.990601 
	C89.463676,134.129730 92.434959,131.487350 95.900291,128.934692 
	C102.980034,124.325104 107.051422,117.581741 110.513542,110.688736 
	C117.150063,97.475578 124.343056,84.693275 133.219818,72.810104 
	C137.857178,66.602142 142.220703,60.047161 144.682449,52.529652 
	C145.095856,51.267235 146.421356,49.759567 143.999512,48.503010 
	C143.452759,47.920494 143.259506,47.509716 143.157990,46.713936 
	C143.416351,45.339745 144.216995,44.543858 144.452820,43.282387 
	C144.484299,43.078529 144.433395,42.683002 144.461456,42.902954 
	C144.298904,44.359894 143.580032,45.286087 142.449066,46.274155 
	C141.992401,46.446468 141.807205,46.474163 141.380432,46.459538 
	C140.998642,46.521107 140.786942,45.610596 140.831116,46.709202 
	C140.996918,52.282795 139.184082,57.078243 136.487595,61.501049 
	C132.507431,68.029350 128.355118,74.486176 123.562469,80.434563 
	C119.345322,85.668686 117.468262,92.108673 113.458344,97.727531 
	C112.577438,97.941132 112.067497,97.907951 111.226807,97.577194 
	C109.553505,90.153664 111.814812,83.780464 116.016197,78.096802 
	C120.525436,71.996674 125.295555,66.087967 129.306366,59.633644 
	C131.532104,56.051937 132.942535,52.233353 132.004395,47.566399 
	C131.132019,45.301723 130.579437,43.307114 129.871277,41.002769 
	C129.814407,38.806362 130.576263,36.990818 132.508316,37.382011 
	C135.719360,38.032162 136.358643,36.449100 136.969543,33.931046 
	C137.361618,32.314949 137.902771,30.276829 140.696960,30.669918 
	C141.313080,31.053436 141.629059,31.269999 142.065765,31.753073 
	C144.830124,33.169827 145.011368,28.943113 147.739441,29.752487 
	C149.926193,31.007704 148.400299,33.031303 149.304123,34.465916 
	C149.905258,33.768028 150.442474,32.987213 151.132050,32.379181 
	C152.278168,31.368595 152.378448,28.340683 154.293320,29.363314 
	C155.989227,30.269011 156.026245,32.624165 155.582947,35.029736 
	C152.591141,51.264881 145.459854,65.412064 135.352509,78.351402 
	C124.176964,92.658264 117.945053,110.034584 107.155479,124.643501 
	C103.020264,130.242523 98.824699,135.104080 91.731239,137.244125 
	C84.117546,139.541107 79.266022,147.551682 78.999435,156.360718 
	C78.673904,167.117783 78.329613,177.874283 78.004013,188.631348 
	C77.954788,190.257706 78.308357,192.656113 76.289703,192.660110 
	C74.354668,192.663940 74.013351,190.335617 74.002075,188.485962 
	C73.923676,175.631943 73.672447,162.768539 76.884705,150.155304 
	C77.164040,149.058502 76.950935,147.836258 76.882637,146.234009 
	C76.798706,145.795731 76.891579,145.871231 76.851074,145.915283 
	C77.408020,145.664200 77.481201,145.088715 77.726486,144.279663 
z"/>
<path fill="#FE0FEC" opacity="1.000000" stroke="none" 
	d="
M76.859612,6.534777 
	C75.587540,7.276660 74.147118,7.680443 72.356697,8.217028 
	C71.010193,9.134959 70.112968,10.100957 68.337997,10.159579 
	C67.855591,10.141625 67.692970,10.109822 67.472298,10.067522 
	C56.512638,7.966726 38.166935,17.296597 33.540737,27.631397 
	C29.092546,35.859154 27.000795,44.134415 28.853729,53.521034 
	C28.169458,66.028999 32.051689,77.136581 36.434666,88.124550 
	C37.173588,89.976997 38.203117,91.704956 39.362579,93.784744 
	C39.654026,94.349174 39.762234,94.577248 40.010227,95.149788 
	C40.225525,95.724815 40.301044,95.955376 40.452995,96.534248 
	C40.672840,101.609978 44.814335,101.297501 48.013100,102.707184 
	C49.524525,103.918205 50.886173,104.766510 52.458496,105.921585 
	C53.007282,106.542526 53.243534,106.951668 53.516739,107.735199 
	C53.637440,108.803993 53.436363,109.470604 52.947639,110.402840 
	C52.023682,111.695702 50.812035,112.492813 51.307968,114.390518 
	C51.280464,115.229515 51.183277,115.706207 50.876900,116.526276 
	C49.660801,118.286110 48.355530,119.016258 46.274849,118.132805 
	C44.211742,115.558189 45.079624,112.889565 45.064823,110.401245 
	C45.053513,108.500938 44.820862,107.040428 42.506935,106.180405 
	C39.968998,106.125870 39.272118,104.484940 38.300804,102.617317 
	C37.109264,101.630096 36.036663,101.015259 35.855705,99.270248 
	C31.977343,91.294685 26.856390,84.293945 24.913229,75.402260 
	C22.640680,66.290833 21.319595,57.455227 21.495714,48.426880 
	C21.609409,42.598534 22.509888,36.881275 23.911829,31.240782 
	C27.844421,15.418607 39.459320,8.592446 54.590851,5.301064 
	C58.706467,4.767065 62.434052,4.386940 66.595947,3.938016 
	C70.591179,3.231330 73.399132,5.718874 76.859612,6.534777 
z"/>
<path fill="#F6FC0D" opacity="1.000000" stroke="none" 
	d="
M83.269760,116.407120 
	C81.512550,116.246681 80.253700,115.827057 79.141235,114.466805 
	C81.955528,108.810074 85.006302,103.521278 88.800987,98.287704 
	C89.061943,98.048347 88.996239,98.009247 89.024460,98.035782 
	C89.665474,97.330040 89.433998,96.425415 89.703575,95.305931 
	C93.628258,87.425858 94.812119,78.702080 100.077278,71.372223 
	C100.485077,70.529274 100.482216,69.917648 100.957703,69.212936 
	C101.179558,69.026985 101.045670,69.149841 101.099342,69.222488 
	C106.987595,63.008022 112.787323,56.646618 114.897835,48.018093 
	C115.743675,44.559994 114.133316,41.335419 112.628548,38.265087 
	C112.142731,37.273804 110.797791,36.747658 111.004280,35.354057 
	C111.165771,34.264141 110.432808,32.816959 111.625542,32.165874 
	C112.726479,31.564901 113.785110,32.287994 114.691177,33.174881 
	C115.459686,33.927128 116.054688,35.140873 117.534698,34.859406 
	C118.602348,33.139542 117.618050,31.053286 118.810555,29.222744 
	C119.572891,28.052513 118.629631,25.522987 120.698036,25.213087 
	C122.740524,24.907070 123.403702,27.177477 124.479561,28.591192 
	C125.841637,27.320099 125.657974,24.335970 128.708099,24.992876 
	C130.864258,25.457247 129.654099,27.087849 130.085495,28.575922 
	C132.461700,32.731655 130.803864,36.301712 129.468491,39.762802 
	C128.145035,43.193058 124.986336,39.507042 122.918365,41.415443 
	C120.839844,53.617538 114.276497,63.117317 106.833244,72.087532 
	C101.750938,78.212463 98.344345,84.941902 96.677345,92.801674 
	C95.125824,100.116943 91.774094,106.834602 87.648613,113.116493 
	C86.640038,114.652275 85.804741,116.317352 83.269760,116.407120 
z"/>
<path fill="#FE19E1" opacity="1.000000" stroke="none" 
	d="
M121.701775,41.313210 
	C122.285011,39.709759 120.071869,37.752712 122.193634,37.182178 
	C124.799629,36.481438 125.670807,39.663544 127.805351,40.738831 
	C129.618561,37.238384 129.118805,33.366013 130.070511,29.386440 
	C130.151993,28.984278 130.574554,28.959660 130.781891,28.917202 
	C131.819595,28.584446 132.842285,28.636524 133.184418,29.325199 
	C134.509232,31.991951 135.476425,30.487684 136.846481,29.085938 
	C138.745010,28.328800 140.785568,26.065006 140.997833,30.471470 
	C138.235809,31.310299 138.752533,33.786793 138.236954,35.542183 
	C137.691238,37.400204 137.806564,39.457508 136.538605,41.106987 
	C131.839523,38.190857 131.839523,38.190857 131.037964,40.921677 
	C130.933960,43.383469 131.079865,45.422592 131.794373,47.747284 
	C131.761765,48.320278 131.714691,48.545845 131.513916,49.078827 
	C129.793167,50.464500 128.783295,51.711689 130.155640,53.997601 
	C130.336243,55.003529 130.478714,55.725929 130.220245,56.318714 
	C126.073685,65.829094 120.563606,74.318352 111.572372,80.469498 
	C110.684944,80.356323 110.243919,80.114540 109.645233,79.447899 
	C108.787071,74.640480 111.932098,71.916443 114.516388,68.566284 
	C116.263847,67.075943 117.880730,65.932701 118.628723,63.644989 
	C118.815674,63.136772 118.909149,62.940514 119.179459,62.471581 
	C119.759346,61.706867 120.230896,61.266766 120.625534,60.380722 
	C120.843178,59.892159 120.943657,59.702393 121.220497,59.244965 
	C122.058578,58.347748 122.191528,57.519146 122.298714,56.334496 
	C123.896965,51.130085 122.143593,46.422436 121.701775,41.313210 
z"/>
<path fill="#F7F017" opacity="1.000000" stroke="none" 
	d="
M137.099182,28.609207 
	C136.357681,31.080431 135.547958,33.165321 134.563431,35.700356 
	C133.616211,33.095383 133.833481,30.565735 131.308472,29.028431 
	C131.345352,28.157309 131.618622,27.381229 132.075745,26.735258 
	C132.898010,25.573299 133.661163,23.834463 135.276489,24.171196 
	C137.323334,24.597887 137.033005,26.599073 137.099182,28.609207 
z"/>
<path fill="#FE19E1" opacity="1.000000" stroke="none" 
	d="
M148.024612,29.531532 
	C145.151703,31.010946 144.898071,34.219627 143.252518,36.400169 
	C141.638443,35.347824 142.233780,33.929363 142.125519,32.376301 
	C142.795258,30.921619 143.357269,29.794428 144.022034,28.731495 
	C145.627258,26.164753 146.960571,26.480263 148.024612,29.531532 
z"/>
<path fill="#FF4505" opacity="1.000000" stroke="none" 
	d="
M104.365448,36.916992 
	C104.169022,35.942398 104.295151,34.777710 104.625320,33.326553 
	C104.782242,34.269024 104.735123,35.497959 104.365448,36.916992 
z"/>
<path fill="#F6FE0C" opacity="1.000000" stroke="none" 
	d="
M38.058380,102.743286 
	C39.855759,102.743324 40.903164,104.058357 42.036469,105.713089 
	C41.767868,114.009911 41.733734,113.801727 33.887135,115.088295 
	C29.614279,115.788887 24.407064,116.619987 22.175461,120.180641 
	C19.106697,125.077026 14.751672,129.305283 13.863019,135.716049 
	C12.237923,147.439529 10.994431,159.112534 10.761714,170.981354 
	C10.629807,177.708679 10.038273,184.479416 10.020034,191.245880 
	C10.016333,192.618988 9.992749,194.578247 8.691358,194.563126 
	C6.900859,194.542328 6.176632,192.267624 6.126047,190.839798 
	C5.902298,184.524384 5.490720,178.129181 6.250534,171.897385 
	C6.715126,168.086914 6.285969,164.534561 6.247071,160.847336 
	C6.118053,148.617554 7.720166,136.700012 13.772611,125.538086 
	C19.238012,115.458778 27.977779,112.493790 38.458504,111.754761 
	C37.684658,108.917374 38.078415,106.035919 38.058380,102.743286 
z"/>
<path fill="#FF4306" opacity="1.000000" stroke="none" 
	d="
M45.707684,117.971321 
	C47.504421,118.154457 48.654808,117.334915 49.999161,116.303665 
	C51.077297,114.952812 52.203045,114.207092 53.864677,113.520660 
	C55.976326,113.022125 57.642197,113.074432 59.549870,114.242218 
	C60.069824,114.716461 60.238739,114.947090 60.494884,115.599350 
	C60.122692,118.100647 58.772026,118.833771 56.369812,118.352646 
	C44.331764,119.778435 37.317554,128.945633 35.966820,139.637024 
	C35.477779,143.507889 34.647640,147.335648 33.902710,151.603149 
	C31.629118,159.756409 32.317268,167.714371 32.087109,175.589493 
	C31.917370,181.397308 32.119102,187.215973 32.189476,193.494568 
	C31.451189,195.424301 30.560120,195.090088 29.329720,193.983398 
	C26.690434,191.694794 27.327780,188.857391 27.649591,186.341370 
	C28.430874,180.233078 27.454145,174.070648 28.452911,167.987122 
	C28.591841,167.140915 28.014221,166.412201 27.606647,165.193726 
	C26.922518,156.122101 28.184505,147.641830 29.674391,138.782257 
	C31.361887,132.700912 33.419865,127.309547 38.621994,123.314171 
	C40.524708,121.993340 42.081089,120.859932 43.789070,119.447632 
	C44.435139,118.811279 44.929611,118.453835 45.707684,117.971321 
z"/>
<path fill="#FF4500" opacity="1.000000" stroke="none" 
	d="
M51.245476,182.671860 
	C51.029282,186.079239 51.066547,189.074448 50.971798,192.065475 
	C50.934799,193.233337 51.565201,195.035675 49.327946,194.901169 
	C47.518555,194.792389 47.985798,193.242981 48.034550,192.233673 
	C48.498859,182.621033 46.306213,173.108597 46.995850,163.490906 
	C47.446011,157.212967 46.435860,151.040024 45.466522,143.789490 
	C44.579777,153.357712 43.436417,161.867233 43.125534,170.407043 
	C42.921288,176.017715 41.455784,181.506516 41.919403,187.169754 
	C42.063461,188.929459 41.063744,191.603531 39.459564,191.444504 
	C37.214764,191.221954 37.836960,188.472305 38.071060,186.829971 
	C39.646896,175.774841 39.919621,164.601303 41.171070,153.536880 
	C41.889259,147.187164 41.660954,140.756790 42.957466,134.465836 
	C43.191772,133.328934 42.986267,131.650406 44.210430,131.563110 
	C45.737774,131.454208 46.694599,132.829636 46.981041,134.440460 
	C47.977142,140.042068 49.188148,145.613953 49.948669,151.246918 
	C51.010929,159.114792 51.217133,167.049744 51.026001,175.451721 
	C51.940796,177.980530 51.343918,180.141403 51.245476,182.671860 
z"/>
<path fill="#F6FE0C" opacity="1.000000" stroke="none" 
	d="
M77.279541,131.513641 
	C76.645622,132.899033 75.965141,133.736664 74.673683,133.990707 
	C65.345329,135.825745 57.759529,144.863159 58.031700,155.750793 
	C58.301022,166.524551 56.293690,177.212616 56.987743,187.994263 
	C57.094013,189.645050 57.179817,191.804901 54.986336,191.795837 
	C52.779224,191.786728 53.061134,189.611969 52.988846,187.967117 
	C52.343307,173.278488 53.375443,158.682175 56.136166,144.271301 
	C57.126266,139.103012 61.921280,136.598633 66.088539,134.019058 
	C68.410973,132.581436 70.909142,131.427704 73.658089,129.993866 
	C75.593773,128.927765 76.550064,129.703506 77.279541,131.513641 
z"/>
<path fill="#FE11E6" opacity="1.000000" stroke="none" 
	d="
M77.655624,131.948334 
	C76.625626,130.988770 75.865707,130.181808 74.315895,129.928680 
	C71.063957,125.298698 66.373543,123.626549 61.587608,121.939163 
	C59.633308,121.250145 56.858612,121.719109 55.997185,118.523666 
	C57.254433,117.651993 58.521446,117.154556 59.965668,116.365791 
	C60.607754,115.420120 61.335045,115.449455 62.359230,115.340256 
	C64.638008,116.301910 65.928879,118.424629 68.695297,118.548264 
	C69.235153,118.653320 69.445953,118.717621 69.954903,118.921646 
	C71.149574,119.621384 71.885582,120.453430 73.280884,120.796432 
	C75.503464,121.920830 77.039375,123.421936 78.894745,125.026733 
	C81.636627,126.340042 83.035370,123.177864 85.684700,123.716583 
	C87.199669,124.170845 87.800766,125.074913 88.264519,126.506363 
	C84.907181,128.545090 81.463181,130.258209 77.655624,131.948334 
z"/>
<path fill="#FE0CEE" opacity="1.000000" stroke="none" 
	d="
M97.324158,129.682404 
	C94.139130,133.074875 90.535110,135.227722 86.204224,136.313049 
	C87.659836,132.916748 91.319099,131.416809 92.397278,127.533401 
	C92.307434,127.168495 92.168205,127.056221 92.107811,127.122177 
	C92.365639,126.661232 92.898567,126.517593 93.635475,126.197357 
	C95.937897,122.970375 99.081306,121.318016 102.531799,119.600945 
	C104.791382,122.322105 101.639992,123.414673 100.901733,125.308449 
	C100.225548,127.043007 98.598427,127.992493 97.324158,129.682404 
z"/>
<path fill="#FF4302" opacity="1.000000" stroke="none" 
	d="
M51.376297,182.869629 
	C51.034893,180.993774 51.024975,178.901855 51.029892,176.362030 
	C52.826653,178.007050 51.768570,180.379379 51.376297,182.869629 
z"/>
<path fill="#000000" opacity="1.000000" stroke="none" 
	d="
M54.561943,5.082692 
	C48.197979,8.916372 39.834446,9.741063 34.438332,16.073277 
	C28.425268,23.129467 24.530594,31.127752 24.011440,40.528484 
	C23.831285,43.790699 22.995834,46.937435 22.878588,50.250221 
	C22.592243,58.340954 23.702772,66.243813 24.914665,74.589134 
	C18.289291,57.278088 17.987122,39.414646 25.255634,21.962746 
	C27.391979,16.833324 31.356525,12.323851 37.752102,10.424373 
	C43.233406,8.796434 47.991428,4.823124 54.561943,5.082692 
z"/>
<path fill="#F7FA10" opacity="1.000000" stroke="none" 
	d="
M25.617352,162.019836 
	C24.896509,155.587570 25.279062,149.017990 23.220297,142.641296 
	C23.418142,153.211899 21.694868,163.646118 20.717484,174.106506 
	C20.206980,179.570145 21.908621,185.746445 17.503372,190.846802 
	C15.761111,189.296539 15.747741,187.195480 16.205410,185.323486 
	C17.372988,180.547806 16.841600,175.730194 17.077271,170.470673 
	C17.896938,167.957489 17.286877,165.817703 17.692192,163.364838 
	C19.425070,155.192108 18.947439,147.130432 20.825708,139.353073 
	C21.419825,136.893021 22.143562,134.622696 24.650898,133.114105 
	C27.948620,133.973297 27.325363,136.926437 28.590378,139.266022 
	C29.027338,145.980530 27.862238,152.193863 27.668961,158.464523 
	C27.628889,159.764587 27.337885,161.123245 25.617352,162.019836 
z"/>
<path fill="#000000" opacity="1.000000" stroke="none" 
	d="
M27.268101,139.299500 
	C24.797644,137.898727 27.070070,135.240601 25.159439,133.495728 
	C27.547699,127.344620 32.537415,124.734520 38.593010,123.075699 
	C36.725716,127.881302 33.280491,132.042084 31.907932,137.639557 
	C30.330662,138.246994 29.186430,139.548523 27.268101,139.299500 
z"/>
<path fill="#000000" opacity="1.000000" stroke="none" 
	d="
M17.492100,163.208099 
	C17.841621,165.195740 17.843906,167.394867 17.496304,169.802429 
	C17.145899,167.813782 17.145382,165.616669 17.492100,163.208099 
z"/>
<path fill="#000000" opacity="1.000000" stroke="none" 
	d="
M77.536499,144.161270 
	C77.743736,144.651962 77.611755,145.270081 77.145172,145.923767 
	C75.813927,145.141922 77.006851,144.831345 77.536499,144.161270 
z"/>
<path fill="#FE19E1" opacity="1.000000" stroke="none" 
	d="
M26.970657,139.633392 
	C28.253942,138.343323 28.812878,135.403763 31.508362,137.864685 
	C29.997526,146.514954 28.676779,155.076279 28.812857,164.324951 
	C28.426279,165.370834 28.515192,166.019180 28.151731,166.810425 
	C25.836815,167.277313 26.231724,169.229050 25.360176,170.712097 
	C25.121813,168.305634 25.082003,165.640778 25.103649,162.536682 
	C27.907965,157.137695 26.632095,151.691910 27.016678,146.452759 
	C27.171442,144.344406 26.998697,142.212006 26.970657,139.633392 
z"/>
<path fill="#F7F017" opacity="1.000000" stroke="none" 
	d="
M27.943733,167.422745 
	C28.107285,166.392853 28.307232,165.781509 28.668642,165.006592 
	C28.897820,174.202225 28.965536,183.561417 29.032440,193.378448 
	C28.276150,193.792603 28.044043,195.179443 26.957199,194.278717 
	C25.223427,187.390350 27.398844,180.868790 27.351900,174.288437 
	C27.336580,172.140976 27.758297,169.990417 27.943733,167.422745 
z"/>
<path fill="#000000" opacity="1.000000" stroke="none" 
	d="
M117.419312,67.016502 
	C114.780815,70.885216 112.389656,74.541054 109.966187,78.563065 
	C109.110344,82.621483 105.525032,84.711281 104.363678,88.616798 
	C100.461937,94.969078 97.707458,101.535126 94.148636,107.669182 
	C91.939873,111.476242 90.507309,115.861641 85.889526,118.132530 
	C84.765274,117.688118 84.011810,117.240173 83.076508,116.591370 
	C89.487633,110.257912 92.944046,102.081352 94.339348,93.763535 
	C96.348053,81.789009 103.563164,73.273140 110.288536,64.185814 
	C112.705208,60.920422 114.988472,57.553112 117.236183,54.168274 
	C117.749405,53.395405 118.188988,52.326588 118.105110,51.447128 
	C117.745392,47.675224 119.671432,44.659332 121.440521,41.220459 
	C124.709511,45.702374 126.272354,50.635689 123.951439,56.543350 
	C123.344666,57.821152 123.086365,58.843018 122.189125,59.851128 
	C121.979851,60.075378 122.002563,60.001381 122.037796,59.985374 
	C121.306282,60.718323 121.122894,61.834641 120.192429,62.845581 
	C119.978165,63.075733 120.018158,63.017666 120.045181,62.995018 
	C119.034859,64.101601 118.919357,65.809624 117.419312,67.016502 
z"/>
<path fill="#FE11E6" opacity="1.000000" stroke="none" 
	d="
M87.446640,32.735901 
	C77.384216,42.200451 76.059868,53.816502 77.620056,66.275833 
	C77.783791,67.583435 77.861343,68.901833 78.030365,70.654755 
	C78.193047,71.583054 78.128395,72.051132 77.711281,72.810135 
	C75.616264,74.791946 73.799965,76.581429 70.792084,77.163300 
	C68.299355,77.047577 66.683022,76.063721 65.268356,74.008995 
	C64.082031,69.773392 65.655800,66.115868 66.186211,62.434834 
	C67.182083,55.523537 66.976700,48.665813 66.611237,41.353691 
	C68.197617,35.030628 72.044144,31.274981 78.054169,29.064503 
	C78.661964,28.827875 78.910423,28.749979 79.542023,28.609230 
	C81.191757,28.319456 82.455490,28.026329 84.124969,28.439529 
	C85.012131,28.547178 85.515617,28.631868 86.364700,28.907469 
	C86.915016,29.224968 87.113884,29.386360 87.519844,29.870337 
	C87.996048,30.943975 87.949318,31.680969 87.446640,32.735901 
z"/>
<path fill="#FF4505" opacity="1.000000" stroke="none" 
	d="
M67.711357,8.619375 
	C69.177200,8.463527 70.260361,8.318655 71.675110,8.261806 
	C72.007820,8.782911 72.008942,9.215994 72.012535,9.973883 
	C72.104195,11.045626 71.909500,11.722645 71.269646,12.614876 
	C68.259064,14.684048 65.173218,15.954617 62.161057,17.143368 
	C55.874237,19.624466 51.541115,24.138882 47.528152,29.661362 
	C45.885807,33.793995 44.821838,37.741253 43.621342,42.033825 
	C43.444355,43.911583 42.341782,45.218266 42.658833,47.200439 
	C43.370022,54.762527 43.943443,61.947010 45.098175,69.065094 
	C45.441509,71.181526 46.181217,73.182838 47.205948,75.493988 
	C47.363750,78.185959 48.951408,80.012566 49.426239,82.561295 
	C49.513092,84.241417 49.487740,85.590332 50.870232,86.805984 
	C51.395950,87.615799 51.719658,88.170792 52.207867,88.997459 
	C53.048195,90.590797 53.948822,91.768707 54.941673,93.276840 
	C55.560772,94.568710 56.149960,95.510071 56.713799,96.836365 
	C56.783913,97.636490 56.670830,98.073555 56.230736,98.741592 
	C55.992081,99.465614 55.983105,99.934647 55.962490,100.755341 
	C54.266582,101.829147 52.921684,100.979980 51.272446,99.906631 
	C44.028282,91.793488 40.147137,82.601517 39.016571,71.807976 
	C38.818165,70.341827 38.483894,69.302940 38.394539,67.800262 
	C38.852612,64.477936 37.464432,61.835758 37.215412,59.052090 
	C36.407539,50.021107 37.250015,41.154430 40.467445,32.169464 
	C40.625401,30.650259 40.847885,29.574396 41.412338,28.177406 
	C46.375572,16.338259 55.110172,10.146805 67.711357,8.619375 
z"/>
<path fill="#000000" opacity="1.000000" stroke="none" 
	d="
M130.601028,49.193054 
	C130.834869,48.913086 130.973953,48.505497 131.022629,48.295742 
	C131.047821,47.374992 131.175293,46.712280 131.990295,46.010242 
	C135.398193,49.759403 134.722702,54.076538 132.535919,57.775906 
	C129.159317,63.488041 125.492035,69.152954 121.138611,74.129868 
	C116.267593,79.698502 113.652542,86.024048 112.038040,92.999809 
	C111.784714,94.094360 111.380920,95.154083 111.106873,96.614975 
	C111.615349,97.944534 111.616135,98.919441 111.243851,100.262802 
	C106.834984,104.980927 105.275772,111.098724 101.288757,116.078369 
	C99.902679,117.178558 98.643852,117.940598 97.162819,118.379837 
	C95.639320,115.598724 97.188934,113.611351 98.029854,111.511841 
	C100.666634,104.928635 103.367134,98.366714 104.590698,90.951073 
	C105.972092,86.857361 107.306442,83.121307 110.707626,80.249512 
	C118.138962,73.486755 123.784721,65.734871 128.353806,57.179100 
	C128.718689,56.495842 128.785156,55.653214 128.993835,54.506935 
	C128.962662,52.432610 128.697189,50.668114 130.601028,49.193054 
z"/>
<path fill="#000000" opacity="1.000000" stroke="none" 
	d="
M87.717606,72.452042 
	C96.435913,61.593731 100.567726,49.552479 100.089500,35.793011 
	C102.463394,41.283401 102.581734,42.830952 101.060028,49.019588 
	C99.010315,57.355568 98.228783,66.006401 95.023636,74.051094 
	C92.634171,80.048508 90.208466,86.041428 87.503830,91.900131 
	C85.402794,96.451309 80.945770,98.466934 76.495064,100.864754 
	C75.012833,100.165733 75.023224,98.901680 75.562424,97.880341 
	C79.599274,90.233864 82.122833,81.908089 86.223984,74.297607 
	C86.533478,73.723274 87.015045,73.229706 87.717606,72.452042 
z"/>
<path fill="#000000" opacity="1.000000" stroke="none" 
	d="
M97.482353,129.864624 
	C97.840096,125.995392 101.244720,123.586678 102.881821,119.850540 
	C107.373390,115.523293 109.544151,110.057884 111.886871,104.370758 
	C111.085770,102.195244 111.647850,100.588661 112.820862,98.745071 
	C120.859726,82.013428 134.822128,69.258293 140.963974,51.816704 
	C141.460403,50.406956 142.114609,49.054974 143.810272,48.103485 
	C145.377777,47.892227 146.591904,47.781891 148.058243,47.648636 
	C145.901855,58.294868 139.514633,66.609726 133.431320,74.913399 
	C125.324898,85.978584 119.077110,98.067970 112.438530,109.975533 
	C108.435509,117.155693 104.717072,124.662209 97.482353,129.864624 
z"/>
<path fill="#000000" opacity="1.000000" stroke="none" 
	d="
M76.784592,72.451416 
	C77.299850,71.966446 77.589119,71.773964 77.980110,71.337891 
	C79.139450,72.781631 80.578766,74.034401 82.692123,75.015945 
	C84.324821,76.378609 84.176170,77.885384 83.493042,79.239845 
	C80.750740,84.677071 79.132408,90.614738 76.095299,95.907181 
	C73.802490,99.902611 70.648331,102.835823 65.407372,103.249527 
	C62.695072,103.083580 61.797016,100.992783 60.134563,99.479088 
	C60.641285,95.175858 65.142349,94.867714 67.206375,91.745712 
	C68.789169,90.715103 71.285751,90.911980 70.293732,87.825943 
	C70.891487,81.940765 73.256317,77.141029 76.784592,72.451416 
z"/>
<path fill="#FE0CEE" opacity="1.000000" stroke="none" 
	d="
M65.190872,103.457115 
	C71.366684,100.164429 75.243561,95.299179 77.285759,88.510826 
	C78.602982,84.132317 81.054947,80.095184 82.999939,75.532471 
	C84.443504,74.156540 85.885490,73.153214 87.658539,72.166260 
	C85.164574,82.045090 81.303741,91.467094 76.112457,100.654503 
	C72.565529,101.881599 69.874596,106.440941 65.190872,103.457115 
z"/>
<path fill="#FE0FED" opacity="1.000000" stroke="none" 
	d="
M105.925652,89.740189 
	C104.889610,99.663719 101.915092,108.805687 97.046196,117.705414 
	C96.940605,118.057053 97.024132,118.020042 97.007599,117.977463 
	C96.594055,118.362297 96.513443,118.914276 96.194969,119.642975 
	C93.694267,120.584587 92.676346,125.602562 88.999817,121.546371 
	C88.968674,120.966339 88.981400,120.765472 89.114662,119.974556 
	C89.611191,118.680511 90.211288,118.122971 90.657013,117.110435 
	C90.875778,116.658234 90.977402,116.483597 91.263184,116.068527 
	C91.856506,115.377815 92.218468,114.894646 92.581131,114.044731 
	C92.761856,113.549332 92.843307,113.352005 93.078613,112.869682 
	C94.899979,109.732307 96.733200,106.953491 97.291824,103.227142 
	C99.219833,98.470093 100.854652,93.959732 103.733292,89.664856 
	C104.583916,89.317657 105.100143,89.332565 105.925652,89.740189 
z"/>
<path fill="#FE0CEE" opacity="1.000000" stroke="none" 
	d="
M94.208115,30.547485 
	C92.648033,31.384222 91.265175,31.891430 89.516281,32.471596 
	C87.848740,32.494476 87.565918,31.567795 87.204422,30.219296 
	C86.994041,29.910803 87.002029,29.988096 87.038971,30.000149 
	C85.039108,28.843815 84.974434,26.698576 84.246567,24.542992 
	C83.865082,24.167866 83.714951,24.016991 83.372757,23.614918 
	C82.845352,22.851303 82.636475,22.270641 82.130829,21.516357 
	C81.830200,21.119974 81.710114,20.959929 81.417130,20.554523 
	C80.844986,19.827368 80.348137,19.455515 79.594627,18.866121 
	C77.548103,16.526258 74.974159,14.844526 75.487389,11.220371 
	C78.880486,9.005395 81.170326,10.703185 83.661026,13.022540 
	C89.089333,17.860773 94.856033,22.133307 94.208115,30.547485 
z"/>
<path fill="#F7FA10" opacity="1.000000" stroke="none" 
	d="
M104.215027,89.696983 
	C102.971558,94.648331 100.745964,98.843536 98.931351,103.589119 
	C97.301010,107.110718 95.307899,110.061203 94.127716,113.761139 
	C93.877228,114.010841 93.995575,114.000145 93.990051,113.940987 
	C93.241180,114.656570 92.817696,115.629021 92.099892,116.779434 
	C91.871223,116.997978 91.987793,116.991142 91.983604,116.932907 
	C91.245201,117.656570 90.816978,118.626305 90.104691,119.781830 
	C89.878632,120.003227 89.999290,119.999229 89.997238,119.938904 
	C89.666367,120.323784 89.226341,120.521645 88.300865,120.386467 
	C87.212250,119.788589 86.497833,119.276306 85.651085,118.450043 
	C91.284775,110.330147 95.188812,101.448418 99.981781,93.080414 
	C100.863419,91.541191 101.317741,89.731407 103.034714,88.327652 
	C104.128426,87.971512 104.410522,88.563881 104.215027,89.696983 
z"/>
<path fill="#F6FC0D" opacity="1.000000" stroke="none" 
	d="
M75.367500,10.891428 
	C76.082962,14.012812 79.751595,14.915241 80.673553,18.032200 
	C81.539635,18.687382 81.902390,19.382904 82.800621,19.921824 
	C82.995422,20.123989 83.005554,19.993698 82.940445,19.988199 
	C83.765770,20.642225 83.367294,21.682320 83.872498,22.772030 
	C84.118088,23.015957 84.000946,23.001966 84.007912,22.943390 
	C85.643898,24.720186 85.396820,26.990513 85.227753,29.521788 
	C83.590012,29.910162 82.200104,29.962044 80.401123,29.925669 
	C79.361931,29.319771 78.366928,29.020403 78.137779,28.276672 
	C76.401619,22.641821 72.754204,17.955647 70.540741,12.235053 
	C70.951363,11.465160 71.287506,11.062411 71.819321,10.479176 
	C73.029175,10.487665 74.043343,10.676642 75.367500,10.891428 
z"/>
<path fill="#000000" opacity="1.000000" stroke="none" 
	d="
M88.825607,97.703423 
	C87.413391,104.226608 84.995316,109.954170 79.360100,114.082733 
	C76.146355,111.887169 76.096893,106.061913 78.967834,104.022598 
	C82.148178,101.763504 85.379913,99.576752 88.825607,97.703423 
z"/>
<path fill="#000000" opacity="1.000000" stroke="none" 
	d="
M70.001343,120.347046 
	C69.594627,120.167038 69.463257,120.106148 69.391121,120.100052 
	C66.833679,118.773666 64.358284,117.442268 63.128933,114.258690 
	C62.999722,112.599991 62.944412,111.318535 63.299866,109.682716 
	C63.864220,108.359909 64.354561,107.456383 65.833473,107.034042 
	C68.605736,107.982285 73.557594,104.376205 72.994675,110.723930 
	C72.924782,111.512138 73.136223,112.719643 72.216080,112.805649 
	C70.157997,112.998024 69.716202,114.107285 70.077873,115.797432 
	C70.546494,117.987305 72.691345,116.419029 73.960396,117.684486 
	C73.939133,120.412331 72.456886,120.896751 70.001343,120.347046 
z"/>
<path fill="#000000" opacity="1.000000" stroke="none" 
	d="
M94.377396,30.935352 
	C92.638641,24.060781 87.711746,19.331102 83.988510,13.536196 
	C85.113144,12.997959 86.226631,12.747091 87.204758,13.722673 
	C92.797806,19.301180 98.900009,24.573650 98.753212,33.668213 
	C97.359535,32.743137 96.041718,31.868416 94.377396,30.935352 
z"/>
<path fill="#F7F017" opacity="1.000000" stroke="none" 
	d="
M51.676502,98.735138 
	C53.390488,99.019096 54.415234,99.845062 55.667171,100.937851 
	C55.996254,101.517136 56.041660,101.927269 56.155716,102.639412 
	C56.944740,103.980644 57.389614,105.095238 57.024757,106.831497 
	C56.170574,108.485001 55.129700,108.945007 53.364235,108.392929 
	C52.729980,107.882912 52.485485,107.620461 52.067429,107.152283 
	C51.215706,105.543556 50.383656,104.336243 48.282169,104.264465 
	C44.097729,103.011497 40.048023,102.095314 38.727551,97.275932 
	C43.207268,96.692825 46.987740,99.787048 51.676502,98.735138 
z"/>
<path fill="#F6FC0D" opacity="1.000000" stroke="none" 
	d="
M68.657364,91.506676 
	C67.217751,95.654472 63.466347,96.733192 60.320663,99.028511 
	C58.925171,99.201988 57.856396,99.222115 56.394341,99.119400 
	C55.993401,98.589241 55.985752,98.181908 55.990761,97.468826 
	C56.003635,95.891014 56.807087,95.081039 57.911457,94.068604 
	C58.715481,93.413635 59.309570,93.061996 60.236374,92.591911 
	C62.505421,91.586678 63.673664,89.452461 66.328575,89.124039 
	C67.812813,89.346886 68.510872,89.981918 68.657364,91.506676 
z"/>
<path fill="#F8F614" opacity="1.000000" stroke="none" 
	d="
M60.260883,115.396950 
	C58.439781,114.903435 56.636131,115.047363 54.426201,114.917572 
	C52.886509,114.521194 51.674652,115.286758 50.348217,114.296829 
	C48.386292,112.108383 48.347210,110.665710 51.666512,110.072342 
	C54.802944,108.790817 57.434219,108.548485 59.710945,111.690636 
	C59.953606,112.241661 60.002747,112.418114 60.161377,112.846565 
	C60.442364,113.710167 60.503029,114.332573 60.260883,115.396950 
z"/>
<path fill="#FE11E6" opacity="1.000000" stroke="none" 
	d="
M101.483536,116.280708 
	C101.975655,110.096230 106.746521,105.754402 109.551208,100.122185 
	C110.985046,100.932999 111.002586,102.061745 110.020935,103.581566 
	C106.790062,107.800972 105.907654,113.003960 101.483536,116.280708 
z"/>
<path fill="#000000" opacity="1.000000" stroke="none" 
	d="
M78.317856,127.217850 
	C76.330765,125.849747 76.098450,123.084335 73.143570,122.743813 
	C73.587769,119.661423 75.668510,118.816605 78.793633,118.952179 
	C80.445274,119.568901 81.063057,121.145302 82.892700,121.383377 
	C83.455154,124.881042 81.120117,126.107216 78.317856,127.217850 
z"/>
<path fill="#FE11E6" opacity="1.000000" stroke="none" 
	d="
M59.983124,111.652954 
	C57.685047,110.839546 55.249790,110.378441 52.390675,110.000473 
	C52.248753,109.498268 52.492447,109.048378 52.855309,108.371925 
	C53.929768,108.221863 54.897827,108.350464 55.863190,107.227615 
	C56.571827,106.041504 57.135876,105.266998 58.679405,105.657066 
	C60.873970,107.335068 59.709232,109.435547 59.983124,111.652954 
z"/>
<path fill="#F7F017" opacity="1.000000" stroke="none" 
	d="
M79.023987,118.701187 
	C77.604546,120.585182 75.491783,121.254738 73.166824,122.327866 
	C71.669884,122.333496 70.639038,121.817558 69.751114,120.483978 
	C70.992073,119.673912 72.389519,119.180779 73.976189,118.361115 
	C75.814850,117.117500 77.388832,117.085220 79.023987,118.701187 
z"/>
<path fill="#F8F614" opacity="1.000000" stroke="none" 
	d="
M78.046806,127.517609 
	C79.949638,125.885597 81.544983,124.228020 82.823318,121.802299 
	C84.263115,121.691078 85.199646,122.142921 85.903442,123.483353 
	C83.344551,125.037376 81.946587,128.748169 78.046806,127.517609 
z"/>
<path fill="#FF4306" opacity="1.000000" stroke="none" 
	d="
M110.024117,103.907501 
	C109.793373,102.830414 109.922134,101.786957 109.959335,100.358368 
	C110.206482,99.183853 110.545197,98.394478 111.025475,97.302582 
	C111.585999,97.002655 112.004974,97.005257 112.738152,97.011665 
	C113.534760,97.431816 113.871300,97.933029 113.970818,98.887360 
	C113.934464,100.848633 112.981705,102.097778 111.973236,103.696526 
	C111.344978,103.983955 110.864296,103.962540 110.024117,103.907501 
z"/>
<path fill="#FF4505" opacity="1.000000" stroke="none" 
	d="
M60.082005,115.891327 
	C60.105862,115.220390 60.142834,114.612671 60.225334,113.551758 
	C60.955341,113.600357 61.762291,114.903915 61.998741,112.782867 
	C62.120975,111.686394 62.354664,110.602348 62.758858,109.259209 
	C63.172569,108.890793 63.365417,108.775848 63.770500,108.922371 
	C63.979378,110.587196 63.976025,111.990547 63.892273,113.807465 
	C63.690922,114.835861 63.755779,115.505714 62.960972,116.041267 
	C62.015820,116.051735 61.390045,116.036484 60.453575,116.047844 
	C60.142876,116.074463 60.095116,115.954529 60.082005,115.891327 
z"/>
<path fill="#000000" opacity="1.000000" stroke="none" 
	d="
M58.997414,105.494865 
	C58.210560,106.057709 57.237843,105.869583 56.411629,106.868256 
	C56.074478,105.881836 56.047703,104.804565 56.122643,103.334351 
	C57.700859,102.992455 58.686821,103.652931 58.997414,105.494865 
z"/>
<path fill="#FE11E6" opacity="1.000000" stroke="none" 
	d="
M64.282890,109.062737 
	C63.818996,109.134834 63.655262,109.085838 63.235626,109.021286 
	C62.651360,106.847282 63.567081,106.089935 65.930016,106.802742 
	C65.671806,107.624084 65.127434,108.282860 64.282890,109.062737 
z"/>
<path fill="#000000" opacity="1.000000" stroke="none" 
	d="
M86.628265,30.204819 
	C88.246109,30.084436 87.756317,31.576851 88.881790,32.297070 
	C88.687447,32.699322 88.224648,32.854088 87.513351,33.037449 
	C86.930748,32.210308 86.596626,31.354572 86.628265,30.204819 
z"/>
<path fill="#000000" opacity="1.000000" stroke="none" 
	d="
M89.514862,95.224899 
	C89.801086,95.942375 89.751785,96.865997 89.377579,97.925964 
	C87.469803,97.106995 89.501961,96.325684 89.514862,95.224899 
z"/>
<path fill="#000000" opacity="1.000000" stroke="none" 
	d="
M93.502365,126.002571 
	C93.415581,126.564537 93.008263,127.137848 92.324181,127.449646 
	C92.020874,126.405777 92.434746,126.048897 93.502365,126.002571 
z"/>
<path fill="#000000" opacity="1.000000" stroke="none" 
	d="
M88.051521,120.494484 
	C88.400497,119.959862 88.874329,119.618851 89.671677,119.578209 
	C89.839935,120.233711 89.684677,120.588837 89.242691,121.055588 
	C88.656639,121.071693 88.396782,120.911987 88.051521,120.494484 
z"/>
<path fill="#000000" opacity="1.000000" stroke="none" 
	d="
M96.377960,119.754128 
	C96.132217,119.260841 96.268684,118.686768 96.698112,118.023788 
	C98.238472,118.690269 97.004539,119.116089 96.377960,119.754128 
z"/>
<path fill="#000000" opacity="1.000000" stroke="none" 
	d="
M100.841156,69.073578 
	C102.194954,69.837303 100.995514,70.164436 100.480614,70.865753 
	C100.267265,70.385643 100.385010,69.752907 100.841156,69.073578 
z"/>
<path fill="#FE0CEE" opacity="1.000000" stroke="none" 
	d="
M114.305336,99.028992 
	C113.663582,98.686836 113.346886,98.176620 113.041275,97.340927 
	C115.710518,92.618988 115.859215,87.240906 119.310593,82.999962 
	C124.045578,77.181778 127.733665,70.521248 132.336777,64.583244 
	C136.483078,59.234535 138.105759,53.005489 139.936295,46.388515 
	C140.098923,45.863041 140.285690,45.731533 140.768951,45.771675 
	C141.065475,45.943333 141.512161,45.985100 141.736267,45.974945 
	C142.397507,45.620720 142.892700,45.477749 143.770264,45.768494 
	C144.078247,46.448097 144.061905,46.895100 144.104614,47.672333 
	C140.459930,62.505798 130.875168,73.676735 122.791649,85.695854 
	C119.907448,89.984261 116.860207,94.168236 114.305336,99.028992 
z"/>
<path fill="#F7F017" opacity="1.000000" stroke="none" 
	d="
M132.274643,45.650036 
	C132.070374,46.530972 131.843918,47.212925 131.344391,47.990433 
	C130.361603,46.059502 130.395309,44.010471 130.992584,41.628571 
	C132.558487,42.391071 131.694839,44.118813 132.274643,45.650036 
z"/>
<path fill="#FE24A2" opacity="1.000000" stroke="none" 
	d="
M140.949753,45.573860 
	C140.874115,45.970108 140.682739,45.996880 140.201782,46.009102 
	C138.218613,44.355614 138.877350,42.694977 139.728516,40.754311 
	C141.578903,42.100029 140.315323,43.858845 140.949753,45.573860 
z"/>
<path fill="#FE24A2" opacity="1.000000" stroke="none" 
	d="
M144.346237,45.710182 
	C143.620041,46.008121 143.145523,46.015148 142.315674,45.993484 
	C143.157455,44.772606 143.965164,43.398651 143.978241,41.298531 
	C144.196075,40.825439 144.409485,40.705490 144.968750,40.709034 
	C145.075684,42.361443 144.836792,43.890362 144.346237,45.710182 
z"/>
<path fill="#FF4306" opacity="1.000000" stroke="none" 
	d="
M145.468597,40.636696 
	C145.090561,40.827442 144.866562,40.822361 144.312607,40.881332 
	C144.172501,40.075699 144.160599,38.873009 145.348770,38.933147 
	C146.095444,38.970947 145.882507,39.854809 145.468597,40.636696 
z"/>
<path fill="#000000" opacity="1.000000" stroke="none" 
	d="
M51.857327,98.511444 
	C46.433125,102.026443 44.463783,101.760559 39.312988,97.053696 
	C38.966507,96.958748 39.055206,96.989777 39.042789,97.035088 
	C38.847439,96.820694 38.637745,96.584785 38.271347,96.174301 
	C33.771160,88.246780 30.585283,80.069954 28.751280,71.368614 
	C27.605968,65.934746 26.707422,60.483238 27.079243,54.445850 
	C29.966373,53.975872 30.323355,56.423199 31.251207,58.214577 
	C33.607910,62.764580 36.246288,67.092010 40.439240,70.714806 
	C41.524399,81.168198 45.793186,90.019325 51.857327,98.511444 
z"/>
<path fill="#F8F614" opacity="1.000000" stroke="none" 
	d="
M40.643929,70.631683 
	C33.658150,69.443970 31.997940,63.082546 29.047068,57.920082 
	C28.425913,56.833393 28.198141,55.521854 27.464983,54.152779 
	C25.170486,44.575474 26.214025,35.698509 32.013298,27.320778 
	C36.124393,22.939018 39.185532,23.014961 42.921539,27.714334 
	C42.867912,29.010460 42.721851,29.854239 42.330864,30.910799 
	C39.489975,34.334126 37.569889,37.877480 35.974228,41.718929 
	C33.163380,48.485855 35.425251,54.643005 37.643188,60.832214 
	C38.422733,63.007565 38.907291,65.234810 39.694145,67.756088 
	C40.082474,68.834053 40.324314,69.588020 40.643929,70.631683 
z"/>
<path fill="#000000" opacity="1.000000" stroke="none" 
	d="
M43.325287,27.987938 
	C39.997559,25.255726 36.502563,25.512049 32.524345,26.816250 
	C34.418144,20.742712 38.624943,16.439941 44.811462,13.949860 
	C47.498096,12.868484 50.024017,11.391168 52.636852,10.122355 
	C57.362946,7.827330 62.424202,7.858716 67.797668,8.316420 
	C65.762115,9.719820 63.523476,11.133174 61.081299,11.887810 
	C52.717594,14.472212 47.014214,19.831823 43.325287,27.987938 
z"/>
<path fill="#000000" opacity="1.000000" stroke="none" 
	d="
M48.097130,104.470184 
	C50.662376,102.187935 51.903374,103.049225 51.934715,106.579315 
	C50.669758,106.218071 49.445648,105.489578 48.097130,104.470184 
z"/>
<path fill="#000000" opacity="1.000000" stroke="none" 
	d="
M50.043869,114.403580 
	C51.274517,114.125114 52.473877,114.167351 53.829208,114.533104 
	C53.010372,115.426765 52.135391,116.270836 50.508072,115.997742 
	C50.112717,115.573174 50.062649,115.148727 50.043869,114.403580 
z"/>
<path fill="#F7F017" opacity="1.000000" stroke="none" 
	d="
M38.079700,96.320770 
	C38.419033,96.168854 38.696659,96.361755 39.002327,96.817528 
	C38.542881,97.308296 38.197407,97.189583 38.079700,96.320770 
z"/>
<path fill="#FD29D4" opacity="1.000000" stroke="none" 
	d="
M104.372955,89.988998 
	C103.862114,89.456680 103.723503,88.913254 103.375221,88.181702 
	C103.304405,83.736633 107.023972,81.902290 109.578705,78.984406 
	C110.202576,79.177513 110.471275,79.425789 110.889084,79.905472 
	C110.640297,83.767776 107.422119,86.156052 106.532074,89.840714 
	C105.741135,89.980797 105.243164,89.979347 104.372955,89.988998 
z"/>
<path fill="#F7F017" opacity="1.000000" stroke="none" 
	d="
M130.505829,48.928722 
	C131.355515,50.756516 129.650299,52.061584 129.327438,53.955025 
	C127.873924,52.055943 126.079201,49.829964 130.505829,48.928722 
z"/>
<path fill="#F7F017" opacity="1.000000" stroke="none" 
	d="
M117.320084,67.274002 
	C117.554451,65.644493 118.133385,64.166550 119.751503,63.026043 
	C120.702034,65.318535 118.818192,66.158661 117.320084,67.274002 
z"/>
<path fill="#F7F017" opacity="1.000000" stroke="none" 
	d="
M122.334656,60.247711 
	C121.755051,58.826939 122.386787,57.958012 123.568024,57.073517 
	C124.400429,58.423340 123.587296,59.436230 122.334656,60.247711 
z"/>
<path fill="#F7F017" opacity="1.000000" stroke="none" 
	d="
M120.368683,63.209618 
	C119.752571,61.754810 120.481102,60.887581 121.731613,60.037788 
	C123.035400,61.639336 121.437096,62.312222 120.368683,63.209618 
z"/>
<path fill="#F7F017" opacity="1.000000" stroke="none" 
	d="
M62.707230,116.449615 
	C62.888607,115.569427 63.135624,115.071854 63.597252,114.397659 
	C65.531891,115.978035 67.251923,117.735039 69.145470,119.792999 
	C66.802879,119.677170 63.980953,119.874168 62.707230,116.449615 
z"/>
<path fill="#FF4503" opacity="1.000000" stroke="none" 
	d="
M67.997391,39.491325 
	C70.515610,51.123589 69.199295,62.146900 66.043671,73.447617 
	C63.616989,77.307640 61.292805,77.881866 58.056683,75.887581 
	C56.481365,74.916786 55.620434,73.320107 54.149395,71.717232 
	C52.377102,68.833565 51.462212,65.960938 49.947933,63.411514 
	C44.011841,53.417595 44.826107,43.615944 50.811184,33.554951 
	C53.512299,29.954372 56.675938,28.536627 61.144722,29.654217 
	C64.679375,32.204529 67.690010,34.715244 67.997391,39.491325 
z"/>
<path fill="#000000" opacity="1.000000" stroke="none" 
	d="
M62.301003,31.287905 
	C58.646320,30.935717 55.148571,30.124607 52.548599,33.865459 
	C49.332375,33.843544 47.463673,32.228359 46.221302,29.288311 
	C49.554901,23.583738 53.114357,18.587608 59.789448,16.458557 
	C63.220020,15.364362 66.086052,12.531996 70.257370,11.928650 
	C76.113396,16.309999 78.072678,22.677721 79.985069,29.456085 
	C79.992043,29.837412 79.559494,29.956831 79.335144,29.954010 
	C73.245888,26.288687 67.989128,29.498661 62.301003,31.287905 
z"/>
<path fill="#000000" opacity="1.000000" stroke="none" 
	d="
M54.686638,70.761322 
	C58.165565,72.884941 60.239784,78.235069 65.672928,73.990204 
	C67.945953,73.559082 68.539734,75.942101 70.661285,76.090073 
	C73.641235,80.552780 70.471191,83.727943 68.513504,87.524673 
	C67.944717,88.520821 67.343651,88.947899 66.373764,89.510544 
	C64.798195,91.279770 63.889343,93.228203 61.346535,93.819214 
	C58.147655,92.006866 54.728470,91.722748 51.423042,90.211868 
	C50.840397,89.570930 50.517967,89.137970 50.089188,88.452538 
	C50.582588,86.516975 49.577644,85.465538 48.307602,84.197906 
	C48.051418,81.672577 45.740906,80.145805 46.096642,77.374275 
	C48.673676,74.615234 51.626419,72.803261 54.686638,70.761322 
z"/>
<path fill="#F8F614" opacity="1.000000" stroke="none" 
	d="
M62.021000,31.503262 
	C64.394714,28.724224 67.255432,26.937689 70.579384,26.217339 
	C73.833267,25.512173 77.042236,25.619396 78.957275,29.608360 
	C74.954826,32.428505 70.617455,34.703316 68.252151,39.667854 
	C66.021782,37.199894 64.039642,34.520645 62.021000,31.503262 
z"/>
<path fill="#F6FC0D" opacity="1.000000" stroke="none" 
	d="
M67.398499,87.944313 
	C68.000061,83.839745 70.645462,80.796745 71.010559,76.541855 
	C72.791000,74.817513 74.566032,73.477615 76.675827,72.148323 
	C75.925720,77.481537 73.449181,82.272049 71.137299,87.508202 
	C70.029366,88.987663 68.880859,88.996742 67.398499,87.944313 
z"/>
<path fill="#000000" opacity="1.000000" stroke="none" 
	d="
M85.380630,30.044298 
	C84.651062,27.804642 84.322212,25.751001 84.004120,23.291088 
	C86.141129,22.739672 87.427109,24.050499 86.483017,25.733263 
	C85.534874,27.423237 87.127769,28.090546 87.038239,29.642458 
	C86.748909,30.705265 86.318100,30.782188 85.380630,30.044298 
z"/>
<path fill="#FE0EEA" opacity="1.000000" stroke="none" 
	d="
M55.017052,70.471268 
	C53.393642,74.284241 51.499023,77.392883 46.551723,77.003281 
	C42.803226,73.465591 42.808670,68.797432 42.219231,64.441582 
	C41.486530,59.027081 40.880074,53.558372 41.454491,47.621536 
	C42.178780,45.674839 43.379311,44.278545 42.320969,42.193676 
	C43.039658,37.732464 43.215912,33.321598 45.915268,29.270168 
	C48.473763,29.895897 50.254654,31.601515 52.092117,33.749302 
	C51.491650,35.860718 50.795719,37.692253 49.962448,39.459015 
	C46.550381,46.693539 47.084839,53.678204 50.880692,60.647686 
	C52.519329,63.656353 53.645115,66.944336 55.017052,70.471268 
z"/>
<path fill="#FE19E1" opacity="1.000000" stroke="none" 
	d="
M39.890007,67.637680 
	C34.444439,58.949707 29.715412,49.719990 34.961227,38.800949 
	C36.467381,35.665924 37.863998,32.487431 41.726051,31.069593 
	C39.646561,43.044891 37.919044,55.008568 39.890007,67.637680 
z"/>
<path fill="#FE0CEE" opacity="1.000000" stroke="none" 
	d="
M51.196732,90.329506 
	C54.850307,89.706070 58.860466,88.370239 60.997814,93.450180 
	C60.523621,94.210701 60.048767,94.582077 59.290535,95.070282 
	C57.458599,95.585640 55.884003,96.287575 54.235168,94.491745 
	C52.335480,93.569611 52.249836,91.749573 51.196732,90.329506 
z"/>
<path fill="#F6FC0D" opacity="1.000000" stroke="none" 
	d="
M48.038719,84.306297 
	C49.470295,83.849785 50.699818,84.178123 51.816986,84.979065 
	C53.666920,86.305328 53.590183,86.540565 50.374268,88.111717 
	C48.513138,87.473534 48.103085,86.143471 48.038719,84.306297 
z"/>
<path fill="#FE24A2" opacity="1.000000" stroke="none" 
	d="
M42.032219,42.301052 
	C45.228722,43.584541 45.185825,45.283493 41.872459,47.105648 
	C41.658932,45.678955 41.791409,44.173790 42.032219,42.301052 
z"/>
<path fill="#000000" opacity="1.000000" stroke="none" 
	d="
M53.988068,94.507660 
	C55.311413,94.927834 56.756035,95.134277 58.634552,95.108688 
	C58.200600,95.762024 57.394043,96.336937 56.295456,97.037468 
	C55.059925,96.623451 54.158463,96.047752 53.988068,94.507660 
z"/>
<path fill="#FF4500" opacity="1.000000" stroke="none" 
	d="
M66.897049,87.739616 
	C68.188057,87.680603 69.212341,87.823563 70.621124,87.903526 
	C72.521622,88.104858 74.414612,88.616371 73.700714,90.428909 
	C73.015816,92.167801 71.262871,93.456467 68.792740,92.149216 
	C67.980705,91.243034 67.348183,90.596756 66.391479,89.833862 
	C66.254967,89.125359 66.442642,88.533478 66.897049,87.739616 
z"/>
<path fill="#000000" opacity="1.000000" stroke="none" 
	d="
M94.238495,113.931274 
	C94.204063,110.255287 96.356819,107.311249 98.543732,104.099106 
	C98.530197,107.725220 95.767197,110.444321 94.238495,113.931274 
z"/>
<path fill="#000000" opacity="1.000000" stroke="none" 
	d="
M90.228363,119.946823 
	C88.929489,118.273888 90.388420,117.442741 91.604523,116.627930 
	C92.239197,118.217690 91.540237,119.115196 90.228363,119.946823 
z"/>
<path fill="#000000" opacity="1.000000" stroke="none" 
	d="
M92.220612,116.941452 
	C91.250206,115.382507 92.177742,114.353294 93.613495,113.628922 
	C94.251808,115.230843 93.534401,116.116051 92.220612,116.941452 
z"/>
<path fill="#000000" opacity="1.000000" stroke="none" 
	d="
M82.969833,19.810505 
	C81.634247,20.930912 81.342003,19.924480 81.007812,18.574371 
	C82.006737,18.080814 82.340424,18.990213 82.969833,19.810505 
z"/>
<path fill="#000000" opacity="1.000000" stroke="none" 
	d="
M84.425385,22.726727 
	C82.628197,22.853012 83.141006,21.170029 82.562149,20.268013 
	C84.366966,20.140802 83.815315,21.844894 84.425385,22.726727 
z"/>
</svg>