<svg version="1.1" id="Layer_1" xmlns="http://www.w3.org/2000/svg" xmlns:xlink="http://www.w3.org/1999/xlink" x="0px" y="0px"
	 width="100%" viewBox="0 0 1080 1080" enable-background="new 0 0 1080 1080" xml:space="preserve">
<path fill="#000000" opacity="1.000000" stroke="none" 
	d="
M494.000000,1081.000000 
	C329.352264,1081.000000 165.204559,1081.000000 1.028416,1081.000000 
	C1.028416,721.060486 1.028416,361.120972 1.028416,1.090729 
	C360.897980,1.090729 720.795959,1.090729 1080.846924,1.090729 
	C1080.846924,360.999939 1080.846924,720.999939 1080.846924,1081.000000 
	C885.453857,1081.000000 689.976929,1081.000000 494.000000,1081.000000 
M475.280304,329.951111 
	C468.325470,332.924255 461.370819,335.897736 454.415802,338.870392 
	C435.895905,346.786041 417.385010,354.722778 398.853058,362.610138 
	C383.560822,369.118591 368.231140,375.539215 352.941406,382.053528 
	C340.488586,387.359100 328.010345,392.612549 315.668457,398.166962 
	C311.206909,400.174866 307.940796,403.326691 307.947021,409.035919 
	C308.027191,482.358276 308.020905,555.680725 307.944672,629.003113 
	C307.940399,633.114380 309.624664,635.927063 312.887726,637.965454 
	C321.111023,643.102356 329.417328,648.106628 337.633148,653.255371 
	C369.010376,672.919312 400.396057,692.570068 431.719482,712.319397 
	C464.553741,733.021301 497.322571,753.827026 530.113892,774.596985 
	C535.931335,778.281738 541.857666,780.993713 548.578003,776.779968 
	C573.793091,760.969727 599.028503,745.191833 624.195740,729.305786 
	C643.761963,716.955200 663.186951,704.380615 682.766602,692.051453 
	C711.494751,673.961609 740.305237,656.002319 769.080200,637.986755 
	C772.520569,635.832764 774.120789,633.099792 774.111328,628.668396 
	C773.954773,555.512939 773.960571,482.356964 774.079163,409.201355 
	C774.088074,403.710632 771.568115,400.915863 766.895203,398.924164 
	C749.090576,391.335480 731.333130,383.635345 713.590881,375.901337 
	C697.765198,369.002747 682.031494,361.891296 666.169189,355.078766 
	C646.328552,346.557617 626.358887,338.336884 606.517639,329.817078 
	C588.444763,322.056580 570.453186,314.105621 552.459473,306.162170 
	C546.511047,303.536194 539.885864,302.348694 534.228333,304.599854 
	C514.602905,312.408905 495.351654,321.158295 475.280304,329.951111 
z"/>
<path fill="#DC66FF" opacity="1.000000" stroke="none" 
	d="
M475.619171,329.750549 
	C495.351654,321.158295 514.602905,312.408905 534.228333,304.599854 
	C539.885864,302.348694 546.511047,303.536194 552.459473,306.162170 
	C570.453186,314.105621 588.444763,322.056580 606.517639,329.817078 
	C626.358887,338.336884 646.328552,346.557617 666.169189,355.078766 
	C682.031494,361.891296 697.765198,369.002747 713.590881,375.901337 
	C731.333130,383.635345 749.090576,391.335480 766.895203,398.924164 
	C771.568115,400.915863 774.088074,403.710632 774.079163,409.201355 
	C773.960571,482.356964 773.954773,555.512939 774.111328,628.668396 
	C774.120789,633.099792 772.520569,635.832764 769.080200,637.986755 
	C740.305237,656.002319 711.494751,673.961609 682.766602,692.051453 
	C663.186951,704.380615 643.761963,716.955200 624.195740,729.305786 
	C599.028503,745.191833 573.793091,760.969727 548.578003,776.779968 
	C541.857666,780.993713 535.931335,778.281738 530.113892,774.596985 
	C497.322571,753.827026 464.553741,733.021301 431.719482,712.319397 
	C400.396057,692.570068 369.010376,672.919312 337.633148,653.255371 
	C329.417328,648.106628 321.111023,643.102356 312.887726,637.965454 
	C309.624664,635.927063 307.940399,633.114380 307.944672,629.003113 
	C308.020905,555.680725 308.027191,482.358276 307.947021,409.035919 
	C307.940796,403.326691 311.206909,400.174866 315.668457,398.166962 
	C328.010345,392.612549 340.488586,387.359100 352.941406,382.053528 
	C368.231140,375.539215 383.560822,369.118591 398.853058,362.610138 
	C417.385010,354.722778 435.895905,346.786041 454.415802,338.870392 
	C461.370819,335.897736 468.325470,332.924255 475.619171,329.750549 
M354.133545,639.642822 
	C354.833466,639.952942 355.533386,640.263123 356.690796,641.118652 
	C414.585114,677.416260 472.479462,713.713867 530.425476,750.043884 
	C530.819214,749.273987 530.936401,749.151794 530.936462,749.029663 
	C530.962891,676.698120 531.002136,604.366577 530.864258,532.035339 
	C530.861206,530.454468 529.192322,528.176514 527.692627,527.404480 
	C507.099762,516.803101 486.380249,506.448334 465.732849,495.952240 
	C450.428253,488.172119 435.202301,480.237335 419.906799,472.439209 
	C401.869720,463.243286 383.769928,454.170166 365.745972,444.948669 
	C353.386383,438.625244 341.109772,432.139526 327.999817,425.311646 
	C327.999817,427.968445 327.999817,429.729370 327.999817,431.490295 
	C327.999817,455.323303 327.999817,479.156311 327.999817,502.989319 
	C327.999817,541.488770 327.966553,579.988403 328.092377,618.487427 
	C328.099091,620.536499 328.833221,623.457886 330.280945,624.473938 
	C336.091309,628.551880 342.316315,632.039001 348.826324,636.247009 
	C350.524384,637.194031 352.222443,638.141052 354.133545,639.642822 
M480.019470,480.522614 
	C498.936218,490.128601 517.896912,499.649872 536.726624,509.423523 
	C539.879395,511.059998 542.256958,511.089233 545.310669,509.359467 
	C552.202576,505.455414 559.279785,501.874146 566.326721,498.249298 
	C579.861450,491.287231 593.421326,484.374023 606.981873,477.462341 
	C636.113159,462.614441 665.253479,447.784241 694.386108,432.939026 
	C709.526917,425.223663 724.659241,417.491638 740.229797,409.545441 
	C737.761047,408.545258 735.819092,407.812286 733.920410,406.980713 
	C718.106750,400.054901 702.337891,393.025452 686.484436,386.192108 
	C661.471802,375.410797 636.385559,364.800323 611.365295,354.036621 
	C590.771362,345.177124 570.253906,336.139343 549.635742,327.337097 
	C546.326782,325.924408 542.084167,323.669861 539.275330,324.656769 
	C528.966064,328.279022 519.072327,333.087708 509.035461,337.480133 
	C495.735352,343.300690 482.487335,349.242004 469.145020,354.963745 
	C451.519501,362.522247 433.815887,369.898621 416.161682,377.390472 
	C402.365234,383.245178 388.568390,389.100159 374.817657,395.060944 
	C363.992798,399.753357 353.238007,404.607422 342.395264,409.414886 
	C346.125732,411.563080 349.535522,413.724579 353.114197,415.556091 
	C381.508514,430.087646 409.937805,444.550751 438.350189,459.046997 
	C452.047211,466.035309 465.730957,473.049713 480.019470,480.522614 
M571.381287,518.950317 
	C564.641174,522.443176 557.901001,525.936096 551.439575,529.284546 
	C551.439575,602.958374 551.439575,676.426758 551.439575,750.416321 
	C559.165466,745.404968 566.274414,740.637451 573.534058,736.111694 
	C605.754272,716.024902 638.030518,696.027954 670.261658,675.958679 
	C697.013245,659.301392 723.720398,642.572876 750.475464,625.921265 
	C753.586304,623.985168 755.139587,621.848145 755.127441,617.732178 
	C754.943481,555.590942 754.999878,493.448975 754.999878,431.307190 
	C754.999878,429.386871 754.999817,427.466553 754.999817,424.711060 
	C746.403137,429.332581 738.506470,433.741516 730.466125,437.870605 
	C701.949219,452.515381 673.402100,467.101746 644.830078,481.638702 
	C620.579651,493.976929 596.278931,506.216431 571.381287,518.950317 
z"/>
<path fill="#000000" opacity="1.000000" stroke="none" 
	d="
M479.720093,480.287445 
	C465.730957,473.049713 452.047211,466.035309 438.350189,459.046997 
	C409.937805,444.550751 381.508514,430.087646 353.114197,415.556091 
	C349.535522,413.724579 346.125732,411.563080 342.395264,409.414886 
	C353.238007,404.607422 363.992798,399.753357 374.817657,395.060944 
	C388.568390,389.100159 402.365234,383.245178 416.161682,377.390472 
	C433.815887,369.898621 451.519501,362.522247 469.145020,354.963745 
	C482.487335,349.242004 495.735352,343.300690 509.035461,337.480133 
	C519.072327,333.087708 528.966064,328.279022 539.275330,324.656769 
	C542.084167,323.669861 546.326782,325.924408 549.635742,327.337097 
	C570.253906,336.139343 590.771362,345.177124 611.365295,354.036621 
	C636.385559,364.800323 661.471802,375.410797 686.484436,386.192108 
	C702.337891,393.025452 718.106750,400.054901 733.920410,406.980713 
	C735.819092,407.812286 737.761047,408.545258 740.229797,409.545441 
	C724.659241,417.491638 709.526917,425.223663 694.386108,432.939026 
	C665.253479,447.784241 636.113159,462.614441 606.981873,477.462341 
	C593.421326,484.374023 579.861450,491.287231 566.326721,498.249298 
	C559.279785,501.874146 552.202576,505.455414 545.310669,509.359467 
	C542.256958,511.089233 539.879395,511.059998 536.726624,509.423523 
	C517.896912,499.649872 498.936218,490.128601 479.720093,480.287445 
z"/>
<path fill="#000000" opacity="1.000000" stroke="none" 
	d="
M571.690918,518.724976 
	C596.278931,506.216431 620.579651,493.976929 644.830078,481.638702 
	C673.402100,467.101746 701.949219,452.515381 730.466125,437.870605 
	C738.506470,433.741516 746.403137,429.332581 754.999817,424.711060 
	C754.999817,427.466553 754.999878,429.386871 754.999878,431.307190 
	C754.999878,493.448975 754.943481,555.590942 755.127441,617.732178 
	C755.139587,621.848145 753.586304,623.985168 750.475464,625.921265 
	C723.720398,642.572876 697.013245,659.301392 670.261658,675.958679 
	C638.030518,696.027954 605.754272,716.024902 573.534058,736.111694 
	C566.274414,740.637451 559.165466,745.404968 551.439575,750.416321 
	C551.439575,676.426758 551.439575,602.958374 551.439575,529.284546 
	C557.901001,525.936096 564.641174,522.443176 571.690918,518.724976 
M629.956177,627.538513 
	C623.679871,630.317810 617.475952,633.281250 611.093262,635.789978 
	C608.370422,636.860107 607.244019,638.419922 608.048218,640.974426 
	C609.592285,645.879089 611.292969,650.749146 613.232971,655.509583 
	C614.654480,658.997803 616.814453,661.764954 620.640686,659.387634 
	C621.301025,661.670227 621.411682,665.027832 622.606567,665.472534 
	C624.318542,666.109802 627.127014,665.100952 628.934937,663.955017 
	C636.542419,659.133179 644.191711,654.313232 651.341492,648.857971 
	C655.430969,645.737671 658.589844,641.397583 662.167664,637.606628 
	C662.662354,636.885254 664.528137,637.357422 665.537415,636.634338 
	C671.630981,632.268066 676.016418,626.193604 682.635254,621.927002 
	C689.493042,617.506470 693.834412,609.068176 698.993958,602.175720 
	C701.547546,598.764526 702.639221,593.424194 705.883789,591.578430 
	C709.858582,589.317322 710.735718,586.491760 711.499695,582.928528 
	C714.114197,570.734802 712.197632,559.156433 705.965942,548.476807 
	C704.293335,545.610474 701.466309,542.543152 698.488770,541.487793 
	C691.441956,538.989868 683.986694,537.644226 676.922180,535.888794 
	C676.190735,529.342529 675.411011,522.138489 674.557312,514.943176 
	C674.412476,513.722046 674.336792,512.120178 673.567993,511.409454 
	C670.053528,508.160431 666.367798,505.083710 662.588684,502.144165 
	C661.747681,501.490021 660.165283,501.210236 659.118896,501.488953 
	C649.374878,504.084259 639.503540,506.352966 630.002869,509.671844 
	C618.281494,513.766541 607.216064,519.288208 599.194275,529.371643 
	C595.624268,533.859131 592.076843,539.048279 594.539490,544.553284 
	C597.699402,551.617004 602.556702,557.921387 607.447144,565.781372 
	C619.245117,553.034912 630.346436,541.716980 645.522461,533.124695 
	C641.662903,544.252380 637.965210,553.655945 630.398438,560.976257 
	C626.535217,564.713562 625.947510,570.988464 629.010193,575.474487 
	C634.402771,583.373230 647.891785,585.115540 654.807678,578.815796 
	C655.042175,578.602234 655.357544,578.448669 655.661743,578.344604 
	C661.559143,576.326416 667.393433,574.080200 673.386047,572.399475 
	C677.048035,571.372437 680.954773,571.217896 686.013489,570.489929 
	C684.413635,575.044189 683.996887,578.598511 682.138855,581.068726 
	C676.899902,588.033936 671.301392,594.768250 665.392212,601.176453 
	C661.215149,605.706360 656.922180,611.273804 651.539062,613.220215 
	C646.315735,615.108887 642.852051,618.189697 638.962524,621.414368 
	C636.376099,623.558655 633.389343,625.220093 629.956177,627.538513 
z"/>
<path fill="#000000" opacity="1.000000" stroke="none" 
	d="
M348.388092,635.744507 
	C342.316315,632.039001 336.091309,628.551880 330.280945,624.473938 
	C328.833221,623.457886 328.099091,620.536499 328.092377,618.487427 
	C327.966553,579.988403 327.999817,541.488770 327.999817,502.989319 
	C327.999817,479.156311 327.999817,455.323303 327.999817,431.490295 
	C327.999817,429.729370 327.999817,427.968445 327.999817,425.311646 
	C341.109772,432.139526 353.386383,438.625244 365.745972,444.948669 
	C383.769928,454.170166 401.869720,463.243286 419.906799,472.439209 
	C435.202301,480.237335 450.428253,488.172119 465.732849,495.952240 
	C486.380249,506.448334 507.099762,516.803101 527.692627,527.404480 
	C529.192322,528.176514 530.861206,530.454468 530.864258,532.035339 
	C531.002136,604.366577 530.962891,676.698120 530.936462,749.029663 
	C530.936401,749.151794 530.819214,749.273987 530.425476,750.043884 
	C472.479462,713.713867 414.585114,677.416260 356.680115,640.689697 
	C356.804901,640.143921 356.940369,640.027100 357.473267,639.946960 
	C364.906494,642.087219 371.694641,642.281372 379.278473,641.419067 
	C398.850586,639.193665 418.646393,638.757385 438.369537,638.140137 
	C444.850128,637.937378 451.422241,640.196960 457.881744,639.881409 
	C470.355103,639.272400 482.781799,637.667542 495.214294,636.347717 
	C496.129150,636.250610 496.934998,635.126343 497.791534,634.479614 
	C496.816956,633.372925 495.842346,632.266296 495.013977,631.325623 
	C498.138763,629.885254 501.537842,628.318481 505.509369,626.487793 
	C502.017853,624.267822 505.588928,618.657227 500.498779,618.137268 
	C497.149170,617.795105 493.694611,618.480591 489.418579,618.763367 
	C487.976746,616.392273 485.989532,613.606262 480.940948,613.833191 
	C472.319580,614.220703 463.635406,613.437500 454.991364,612.917419 
	C453.121460,612.804993 450.999237,612.131409 449.533447,611.010132 
	C446.089996,608.375854 442.422333,608.797180 438.526642,609.054626 
	C436.219086,609.207092 433.008911,609.174683 431.650269,607.798340 
	C426.682037,602.765381 420.929443,601.195496 414.088226,601.266174 
	C407.877838,601.330322 401.657959,600.479309 395.442261,600.031738 
	C395.259308,599.617065 395.076355,599.202332 394.893372,598.787659 
	C396.825195,597.429993 398.741089,596.048950 400.693420,594.721497 
	C402.570557,593.445129 404.909088,592.580627 406.309174,590.916199 
	C411.885834,584.286743 418.017609,578.451965 425.832855,574.474548 
	C428.498566,573.117981 431.195587,571.480286 433.276001,569.375732 
	C442.091431,560.457886 450.636169,551.273376 459.367096,542.270935 
	C465.376648,536.074524 467.576599,522.674683 461.949188,515.388916 
	C459.308929,511.970520 455.075287,509.660004 451.230377,507.419464 
	C450.611542,507.058868 448.246460,509.704468 446.677032,510.945740 
	C446.563416,511.035553 446.317352,510.952087 446.195221,511.037872 
	C438.632812,516.351501 430.875214,521.413696 423.573914,527.065491 
	C415.310699,533.461792 407.252472,540.159424 399.476013,547.139282 
	C388.862427,556.665527 378.439819,566.419495 368.253967,576.401001 
	C363.235779,581.318481 358.702545,586.785522 354.362091,592.326782 
	C348.167267,600.235291 342.250946,608.381531 338.609406,618.181702 
	C346.083893,621.590942 345.775116,629.330383 348.856689,635.170654 
	C348.696014,635.358276 348.388092,635.744507 348.388092,635.744507 
z"/>
<path fill="#000000" opacity="1.000000" stroke="none" 
	d="
M353.920532,639.088074 
	C352.222443,638.141052 350.524384,637.194031 348.607208,635.995728 
	C348.388092,635.744507 348.696014,635.358276 349.220062,635.215332 
	C351.375641,636.157715 353.007172,637.242981 354.459015,638.518005 
	C354.159760,638.834595 354.040161,638.961304 353.920532,639.088074 
z"/>
<path fill="#000000" opacity="1.000000" stroke="none" 
	d="
M356.451355,640.416992 
	C355.533386,640.263123 354.833466,639.952942 354.027039,639.365479 
	C354.040161,638.961304 354.159760,638.834595 354.700867,638.702148 
	C355.773560,639.101135 356.424683,639.505737 357.075806,639.910400 
	C356.940369,640.027100 356.804901,640.143921 356.451355,640.416992 
z"/>
<path fill="#1BD14B" opacity="1.000000" stroke="none" 
	d="
M630.268982,627.318115 
	C633.389343,625.220093 636.376099,623.558655 638.962524,621.414368 
	C642.852051,618.189697 646.315735,615.108887 651.539062,613.220215 
	C656.922180,611.273804 661.215149,605.706360 665.392212,601.176453 
	C671.301392,594.768250 676.899902,588.033936 682.138855,581.068726 
	C683.996887,578.598511 684.413635,575.044189 686.013489,570.489929 
	C680.954773,571.217896 677.048035,571.372437 673.386047,572.399475 
	C667.393433,574.080200 661.559143,576.326416 655.661743,578.344604 
	C655.357544,578.448669 655.042175,578.602234 654.807678,578.815796 
	C647.891785,585.115540 634.402771,583.373230 629.010193,575.474487 
	C625.947510,570.988464 626.535217,564.713562 630.398438,560.976257 
	C637.965210,553.655945 641.662903,544.252380 645.522461,533.124695 
	C630.346436,541.716980 619.245117,553.034912 607.447144,565.781372 
	C602.556702,557.921387 597.699402,551.617004 594.539490,544.553284 
	C592.076843,539.048279 595.624268,533.859131 599.194275,529.371643 
	C607.216064,519.288208 618.281494,513.766541 630.002869,509.671844 
	C639.503540,506.352966 649.374878,504.084259 659.118896,501.488953 
	C660.165283,501.210236 661.747681,501.490021 662.588684,502.144165 
	C666.367798,505.083710 670.053528,508.160431 673.567993,511.409454 
	C674.336792,512.120178 674.412476,513.722046 674.557312,514.943176 
	C675.411011,522.138489 676.190735,529.342529 676.922180,535.888794 
	C683.986694,537.644226 691.441956,538.989868 698.488770,541.487793 
	C701.466309,542.543152 704.293335,545.610474 705.965942,548.476807 
	C712.197632,559.156433 714.114197,570.734802 711.499695,582.928528 
	C710.735718,586.491760 709.858582,589.317322 705.883789,591.578430 
	C702.639221,593.424194 701.547546,598.764526 698.993958,602.175720 
	C693.834412,609.068176 689.493042,617.506470 682.635254,621.927002 
	C676.016418,626.193604 671.630981,632.268066 665.537415,636.634338 
	C664.528137,637.357422 662.662354,636.885254 662.167664,637.606628 
	C658.589844,641.397583 655.430969,645.737671 651.341492,648.857971 
	C644.191711,654.313232 636.542419,659.133179 628.934937,663.955017 
	C627.127014,665.100952 624.318542,666.109802 622.606567,665.472534 
	C621.411682,665.027832 621.301025,661.670227 620.640686,659.387634 
	C616.814453,661.764954 614.654480,658.997803 613.232971,655.509583 
	C611.292969,650.749146 609.592285,645.879089 608.048218,640.974426 
	C607.244019,638.419922 608.370422,636.860107 611.093262,635.789978 
	C617.475952,633.281250 623.679871,630.317810 630.268982,627.318115 
z"/>
<path fill="#1BD14B" opacity="1.000000" stroke="none" 
	d="
M357.473236,639.947021 
	C356.424683,639.505737 355.773560,639.101135 354.880554,638.512329 
	C353.007172,637.242981 351.375641,636.157715 349.380737,635.027710 
	C345.775116,629.330383 346.083893,621.590942 338.609406,618.181702 
	C342.250946,608.381531 348.167267,600.235291 354.362091,592.326782 
	C358.702545,586.785522 363.235779,581.318481 368.253967,576.401001 
	C378.439819,566.419495 388.862427,556.665527 399.476013,547.139282 
	C407.252472,540.159424 415.310699,533.461792 423.573914,527.065491 
	C430.875214,521.413696 438.632812,516.351501 446.195221,511.037872 
	C446.317352,510.952087 446.563416,511.035553 446.677032,510.945740 
	C448.246460,509.704468 450.611542,507.058868 451.230377,507.419464 
	C455.075287,509.660004 459.308929,511.970520 461.949188,515.388916 
	C467.576599,522.674683 465.376648,536.074524 459.367096,542.270935 
	C450.636169,551.273376 442.091431,560.457886 433.276001,569.375732 
	C431.195587,571.480286 428.498566,573.117981 425.832855,574.474548 
	C418.017609,578.451965 411.885834,584.286743 406.309174,590.916199 
	C404.909088,592.580627 402.570557,593.445129 400.693420,594.721497 
	C398.741089,596.048950 396.825195,597.429993 394.893372,598.787659 
	C395.076355,599.202332 395.259308,599.617065 395.442261,600.031738 
	C401.657959,600.479309 407.877838,601.330322 414.088226,601.266174 
	C420.929443,601.195496 426.682037,602.765381 431.650269,607.798340 
	C433.008911,609.174683 436.219086,609.207092 438.526642,609.054626 
	C442.422333,608.797180 446.089996,608.375854 449.533447,611.010132 
	C450.999237,612.131409 453.121460,612.804993 454.991364,612.917419 
	C463.635406,613.437500 472.319580,614.220703 480.940948,613.833191 
	C485.989532,613.606262 487.976746,616.392273 489.418579,618.763367 
	C493.694611,618.480591 497.149170,617.795105 500.498779,618.137268 
	C505.588928,618.657227 502.017853,624.267822 505.509369,626.487793 
	C501.537842,628.318481 498.138763,629.885254 495.013977,631.325623 
	C495.842346,632.266296 496.816956,633.372925 497.791534,634.479614 
	C496.934998,635.126343 496.129150,636.250610 495.214294,636.347717 
	C482.781799,637.667542 470.355103,639.272400 457.881744,639.881409 
	C451.422241,640.196960 444.850128,637.937378 438.369537,638.140137 
	C418.646393,638.757385 398.850586,639.193665 379.278473,641.419067 
	C371.694641,642.281372 364.906494,642.087219 357.473236,639.947021 
z"/>
</svg>