<svg version="1.1" id="Layer_1" xmlns="http://www.w3.org/2000/svg" xmlns:xlink="http://www.w3.org/1999/xlink" x="0px" y="0px"
	 width="100%" viewBox="0 0 1080 1080" enable-background="new 0 0 1080 1080" xml:space="preserve">
<path fill="#000000" opacity="1.000000" stroke="none" 
	d="
		M709.000000,1081.000000 
	C472.693878,1081.000000 236.887756,1081.000000 1.040821,1081.000000 
	C1.040821,721.068787 1.040821,361.137512 1.040821,1.103134 
	C360.889648,1.103134 720.779358,1.103134 1080.834473,1.103134 
	C1080.834473,360.999939 1080.834473,720.999939 1080.834473,1081.000000 
	C957.137024,1081.000000 833.318542,1081.000000 709.000000,1081.000000 
	M944.000610,501.503479 
	C888.618774,474.517487 829.396667,460.207336 769.461609,448.597076 
	C762.945496,422.547821 753.382141,397.809143 738.118958,375.595520 
	C730.955627,365.170135 723.824524,354.567596 715.378113,345.220795 
	C706.328186,335.206177 696.108643,326.145905 685.755676,317.434448 
	C668.534546,302.943878 648.658081,292.659821 627.998840,284.116486 
	C606.351074,275.164459 583.539917,269.737518 560.251709,268.292328 
	C538.601685,266.948853 516.832031,267.405212 495.284668,271.858032 
	C475.608978,275.924072 456.828552,282.294525 438.694611,290.743744 
	C419.916168,299.493256 403.104706,311.144043 387.517548,324.806274 
	C375.214355,335.590088 363.931091,347.257538 354.035950,360.209625 
	C343.032410,374.612579 333.342224,389.896362 326.669312,406.847290 
	C322.198730,418.203552 317.489410,429.555237 314.321655,441.296112 
	C312.802216,446.927673 310.672028,449.024170 305.295319,450.109406 
	C284.917877,454.222290 264.453094,458.108887 244.364548,463.387512 
	C225.283829,468.401306 206.617981,475.003693 187.796448,480.991699 
	C164.991959,488.246887 143.205566,497.829926 122.502075,509.850037 
	C107.760872,518.408508 94.470932,528.630859 83.478119,541.869446 
	C73.052086,554.425354 73.920021,568.803467 75.901337,583.320984 
	C77.193336,592.787720 83.474480,599.969238 89.462227,606.869690 
	C100.702744,619.823486 115.039520,628.939453 129.967590,636.912476 
	C151.300079,648.305969 173.668839,657.359497 196.953156,664.014099 
	C212.425629,668.436096 227.854187,673.065674 243.474380,676.902161 
	C260.243164,681.020813 277.181549,684.475952 294.107574,687.917236 
	C303.946442,689.917725 313.875031,691.546814 323.819733,692.939819 
	C337.347473,694.834656 350.921936,696.405945 364.489716,698.002258 
	C379.224884,699.735840 393.956757,701.534607 408.724731,702.941040 
	C422.123322,704.217041 435.557770,705.193848 448.996033,705.956299 
	C464.480438,706.834961 479.986237,707.883423 495.483032,707.887695 
	C532.059875,707.897705 568.637207,707.364075 605.213379,706.960938 
	C610.133728,706.906677 615.046448,706.303711 619.966064,706.010803 
	C637.053711,704.993530 654.146790,704.062073 671.229736,702.972473 
	C679.404785,702.451050 687.585449,701.854614 695.721680,700.924988 
	C708.674622,699.444824 721.591309,697.648621 734.525574,696.003113 
	C745.043213,694.664856 755.631653,693.741882 766.067505,691.934937 
	C781.365540,689.286011 796.622498,686.312500 811.774963,682.930908 
	C831.925537,678.433838 852.276306,674.441711 871.968872,668.375244 
	C902.127502,659.084717 932.060669,648.923706 959.334839,632.353943 
	C975.558044,622.497742 990.437805,611.365295 1000.572998,594.921753 
	C1012.380737,575.764648 1010.311584,556.379883 996.378601,540.037354 
	C982.176697,523.379272 964.332214,511.309418 944.000610,501.503479 
	M416.843750,706.941284 
	C407.407867,705.961243 397.966064,705.034241 388.537903,703.984863 
	C380.432526,703.082825 372.349518,701.979370 364.243896,701.079773 
	C357.242859,700.302856 350.227570,699.646484 343.211395,699.016663 
	C339.360840,698.671021 337.075104,700.858765 338.167267,704.337585 
	C339.522583,708.654602 341.691193,712.865356 344.237396,716.628906 
	C349.780151,724.821716 355.784912,732.701965 361.466034,740.524353 
	C355.338104,742.978027 349.130341,745.558105 342.854309,747.959656 
	C320.664246,756.450745 298.606506,765.330322 276.166199,773.102966 
	C267.700409,776.035339 263.153107,779.944458 262.137054,789.194763 
	C260.922852,800.249512 258.078339,811.121948 256.014984,822.087463 
	C253.441177,835.765686 250.979340,849.464966 248.401154,863.142334 
	C246.664368,872.356018 244.542358,881.508850 243.202667,890.777039 
	C242.881805,892.996887 244.404083,896.956482 246.107452,897.674133 
	C249.192062,898.973694 252.834122,898.401062 254.505554,894.080933 
	C262.592896,873.176941 270.811157,852.323486 279.006348,831.461304 
	C282.753204,821.922913 286.553864,812.405640 290.070190,803.534668 
	C298.405212,802.007996 305.907166,800.610718 313.418030,799.263367 
	C326.998047,796.827209 340.582672,794.416626 354.166748,792.003174 
	C369.010101,789.365967 383.812286,786.441284 398.726105,784.291687 
	C403.017365,783.673157 407.358398,781.570435 412.261780,784.873474 
	C432.192169,798.299194 453.933868,808.065308 477.083069,814.544922 
	C496.940582,820.103149 517.137024,823.488037 537.854614,823.005188 
	C539.809998,822.959656 541.767273,822.999146 543.750061,822.999146 
	C545.199890,833.631287 546.402832,843.814697 548.011230,853.933777 
	C550.530151,869.780579 553.519287,885.554749 555.870544,901.424683 
	C556.507202,905.721802 558.934937,908.295349 562.242798,907.620667 
	C564.529114,907.154297 567.551331,903.351379 567.758301,900.834961 
	C568.666199,889.796936 568.706970,878.685303 568.989868,867.598572 
	C569.375000,852.507629 569.689880,837.414856 570.065796,822.323669 
	C570.076416,821.896057 570.437134,821.477234 570.634644,821.054260 
	C570.767761,821.479309 570.900879,821.904358 571.033997,822.329407 
	C584.851746,818.941162 598.793823,815.986206 612.458557,812.064697 
	C633.738098,805.958008 653.097595,795.599670 671.739136,783.811707 
	C673.077637,782.965332 675.157410,782.744995 676.780212,782.986816 
	C684.808411,784.183716 692.796021,785.651062 700.803284,786.991333 
	C716.943298,789.692932 733.097046,792.313782 749.225403,795.082886 
	C762.148438,797.301575 775.096863,799.436279 787.907715,802.194885 
	C790.834229,802.825134 795.126648,801.095764 796.796631,805.429871 
	C803.556458,822.972900 810.243713,840.543945 817.038208,858.073486 
	C821.626404,869.911011 826.432190,881.664673 830.968018,893.521851 
	C832.624084,897.850830 835.976807,898.843445 839.667358,897.834839 
	C843.043945,896.912048 843.122986,894.193665 842.168640,890.796204 
	C840.639526,885.352661 839.993408,879.659180 839.007019,874.065552 
	C836.274536,858.570068 833.680115,843.049072 830.802307,827.580750 
	C828.016479,812.606934 824.795166,797.713013 822.106018,782.722839 
	C821.431580,778.963257 819.921265,776.961243 816.312073,775.920715 
	C812.762695,774.897522 809.379089,773.304443 805.911865,771.990173 
	C786.488464,764.627869 767.050659,757.303650 747.641357,749.904480 
	C738.704590,746.497620 729.821594,742.949707 720.995850,739.497742 
	C727.959778,729.835083 734.816956,720.600586 741.316467,711.120789 
	C743.120361,708.489685 745.637512,705.381104 743.203613,701.765381 
	C740.571533,697.855408 736.724121,698.932861 732.924988,699.448486 
	C723.398682,700.741394 713.858948,701.967712 704.297424,702.958923 
	C695.991333,703.819885 687.639221,704.228210 679.323181,705.004272 
	C665.823425,706.264160 652.357910,707.965698 638.838379,708.917908 
	C624.209534,709.948364 609.540161,710.485596 594.879456,710.959412 
	C578.961792,711.473877 563.034790,711.753967 547.109558,711.943359 
	C542.857056,711.993958 538.600830,711.143250 534.338379,711.042358 
	C516.750122,710.626038 499.150696,710.568787 481.570801,709.945312 
	C460.300507,709.190918 439.045776,707.997620 416.843750,706.941284 
	z"/>
<path fill="#C582F2" opacity="1.000000" stroke="none" 
	d="
	M944.312012,501.726318 
	C964.332214,511.309418 982.176697,523.379272 996.378601,540.037354 
	C1010.311584,556.379883 1012.380737,575.764648 1000.572998,594.921753 
	C990.437805,611.365295 975.558044,622.497742 959.334839,632.353943 
	C932.060669,648.923706 902.127502,659.084717 871.968872,668.375244 
	C852.276306,674.441711 831.925537,678.433838 811.774963,682.930908 
	C796.622498,686.312500 781.365540,689.286011 766.067505,691.934937 
	C755.631653,693.741882 745.043213,694.664856 734.525574,696.003113 
	C721.591309,697.648621 708.674622,699.444824 695.721680,700.924988 
	C687.585449,701.854614 679.404785,702.451050 671.229736,702.972473 
	C654.146790,704.062073 637.053711,704.993530 619.966064,706.010803 
	C615.046448,706.303711 610.133728,706.906677 605.213379,706.960938 
	C568.637207,707.364075 532.059875,707.897705 495.483032,707.887695 
	C479.986237,707.883423 464.480438,706.834961 448.996033,705.956299 
	C435.557770,705.193848 422.123322,704.217041 408.724731,702.941040 
	C393.956757,701.534607 379.224884,699.735840 364.489716,698.002258 
	C350.921936,696.405945 337.347473,694.834656 323.819733,692.939819 
	C313.875031,691.546814 303.946442,689.917725 294.107574,687.917236 
	C277.181549,684.475952 260.243164,681.020813 243.474380,676.902161 
	C227.854187,673.065674 212.425629,668.436096 196.953156,664.014099 
	C173.668839,657.359497 151.300079,648.305969 129.967590,636.912476 
	C115.039520,628.939453 100.702744,619.823486 89.462227,606.869690 
	C83.474480,599.969238 77.193336,592.787720 75.901337,583.320984 
	C73.920021,568.803467 73.052086,554.425354 83.478119,541.869446 
	C94.470932,528.630859 107.760872,518.408508 122.502075,509.850037 
	C143.205566,497.829926 164.991959,488.246887 187.796448,480.991699 
	C206.617981,475.003693 225.283829,468.401306 244.364548,463.387512 
	C264.453094,458.108887 284.917877,454.222290 305.295319,450.109406 
	C310.672028,449.024170 312.802216,446.927673 314.321655,441.296112 
	C317.489410,429.555237 322.198730,418.203552 326.669312,406.847290 
	C333.342224,389.896362 343.032410,374.612579 354.035950,360.209625 
	C363.931091,347.257538 375.214355,335.590088 387.517548,324.806274 
	C403.104706,311.144043 419.916168,299.493256 438.694611,290.743744 
	C456.828552,282.294525 475.608978,275.924072 495.284668,271.858032 
	C516.832031,267.405212 538.601685,266.948853 560.251709,268.292328 
	C583.539917,269.737518 606.351074,275.164459 627.998840,284.116486 
	C648.658081,292.659821 668.534546,302.943878 685.755676,317.434448 
	C696.108643,326.145905 706.328186,335.206177 715.378113,345.220795 
	C723.824524,354.567596 730.955627,365.170135 738.118958,375.595520 
	C753.382141,397.809143 762.945496,422.547821 769.461609,448.597076 
	C829.396667,460.207336 888.618774,474.517487 944.312012,501.726318 
	M446.147644,541.011536 
	C435.080536,540.042847 424.013458,539.074158 412.061951,538.004944 
	C408.162048,537.669556 404.254211,537.406616 400.364044,536.981934 
	C394.373444,536.327881 388.360077,535.774170 382.419525,534.794922 
	C373.813171,533.376282 365.267181,531.594482 356.688293,530.006104 
	C342.559418,527.390015 328.509796,524.253662 316.045868,516.846008 
	C310.608582,513.614502 305.873505,509.122986 306.876984,501.285400 
	C307.533783,496.155365 307.000977,490.873047 307.000977,484.315521 
	C302.276978,492.094025 297.773010,498.544128 300.090393,506.804993 
	C301.945129,513.416687 306.135254,518.459534 312.063141,522.018494 
	C328.906128,532.130432 347.867859,535.504639 366.749634,538.908386 
	C377.160522,540.785156 387.724701,541.864197 398.248505,543.047058 
	C408.147369,544.159851 418.083923,544.936646 428.807678,545.997009 
	C433.649811,546.987610 438.469818,548.692017 443.338013,548.843140 
	C462.551361,549.439514 481.779816,549.548340 501.929749,549.982849 
	C515.147339,550.232056 528.369507,550.825928 541.581360,550.649109 
	C561.085083,550.388184 580.589355,549.765076 600.078735,548.948486 
	C617.831299,548.204712 635.580505,547.216553 653.300964,545.922607 
	C666.492920,544.959351 679.696533,543.757202 692.786377,541.897400 
	C708.307190,539.692322 723.835327,537.225220 739.129333,533.831055 
	C752.651062,530.830200 766.116577,526.975342 776.181152,516.286987 
	C784.883240,507.045410 783.572388,496.009308 774.999268,486.388184 
	C774.999268,491.745697 774.792786,496.892792 775.056274,502.015717 
	C775.329773,507.332916 773.132019,511.636688 769.027222,514.232422 
	C763.213684,517.908630 757.072144,521.464539 750.586853,523.607544 
	C728.643555,530.858398 705.748962,533.825439 682.960754,536.850952 
	C667.236206,538.938538 651.344543,539.861755 635.502991,540.945862 
	C621.684937,541.891479 607.838318,542.523010 593.993713,542.951355 
	C576.771240,543.484314 559.538879,543.808411 542.308716,543.936462 
	C534.233093,543.996521 526.152405,543.385986 517.131836,542.991333 
	C506.330048,543.021912 495.528290,543.052490 484.009094,542.674683 
	C471.667084,542.165527 459.325104,541.656433 446.147644,541.011536 
	M522.276489,532.652039 
	C528.261719,535.352539 534.079529,534.083130 540.232788,532.594116 
	C542.187134,532.390503 544.137878,532.058350 546.096436,532.002869 
	C572.050781,531.268799 598.006165,530.573547 624.831604,530.001709 
	C634.087524,531.688904 643.141785,530.801453 652.950317,527.985657 
	C661.779358,527.318604 670.664551,527.069031 679.424866,525.890991 
	C694.202454,523.903687 709.042664,521.975281 723.587341,518.792053 
	C734.975830,516.299561 746.066528,512.248901 757.066956,508.274323 
	C761.660034,506.614777 764.890320,502.997711 764.053772,497.174744 
	C763.448669,492.962219 763.147156,488.683807 763.037598,484.426361 
	C762.624146,468.356781 758.901062,452.930725 754.249207,437.666229 
	C749.399780,421.753601 742.830322,406.625366 734.667908,392.098328 
	C726.503174,377.567352 716.751404,364.249481 705.460693,352.099213 
	C699.060669,345.212097 692.358582,338.418549 684.916077,332.729523 
	C672.618225,323.328979 660.048340,314.125732 646.784668,306.190613 
	C632.562561,297.682190 617.167175,291.219513 600.863098,287.618317 
	C586.353027,284.413422 571.806641,280.808228 557.080322,279.321442 
	C544.816650,278.083344 532.259460,279.468536 519.848572,280.043365 
	C503.685364,280.791992 488.149658,284.902832 472.784363,289.657684 
	C456.996277,294.543274 442.158356,301.631927 428.014771,310.070709 
	C407.425415,322.355377 388.765289,336.969208 373.024750,355.311768 
	C357.876526,372.964111 345.354309,392.133484 336.136505,413.470581 
	C324.457947,440.503693 317.624756,468.547485 317.866364,498.194489 
	C317.907654,503.262726 319.658569,505.935883 324.024231,508.096161 
	C335.299469,513.675476 347.205719,517.008484 359.541626,518.996765 
	C370.295532,520.730042 381.068604,522.344299 392.308105,524.614746 
	C393.690338,525.054932 395.049622,525.768066 396.458893,525.886597 
	C401.628998,526.321350 406.815735,526.558472 412.877502,526.988159 
	C423.801178,527.639282 434.724823,528.290405 446.273071,529.568115 
	C459.127930,530.042969 471.982788,530.517761 485.300690,531.753845 
	C497.473999,531.830017 509.647308,531.906128 522.276489,532.652039 
	M448.424683,558.999268 
	C444.172791,558.665833 439.923584,558.292175 435.668457,558.006836 
	C425.327667,557.313232 414.929138,557.118774 404.654327,555.885986 
	C388.541809,553.952881 372.469818,551.584534 356.458923,548.928711 
	C339.718750,546.151978 323.224365,542.243713 308.313690,533.676453 
	C299.320129,528.508972 291.987732,521.529907 289.089172,511.236664 
	C285.698730,499.196747 289.995483,488.687866 296.616425,478.781555 
	C300.284790,473.292969 303.647644,467.600159 307.683838,461.142365 
	C302.562012,462.265228 298.667328,463.226257 294.730896,463.964966 
	C265.492065,469.451843 236.646454,476.599945 208.458405,486.046356 
	C190.915909,491.925293 173.656570,498.761902 156.600754,505.952850 
	C133.283844,515.783569 110.841698,527.242004 94.252205,547.294373 
	C86.255348,556.960510 82.426361,567.611450 86.618027,580.311462 
	C89.463951,588.934021 94.769615,595.869019 100.826103,602.175293 
	C111.176849,612.952881 123.791397,620.979614 137.103271,627.310608 
	C155.296036,635.962891 173.880829,643.984497 192.823700,650.817871 
	C217.581543,659.748779 243.100677,666.320374 269.042542,671.035034 
	C292.983368,675.386108 316.877594,680.037903 340.901733,683.871704 
	C357.481079,686.517395 374.223572,688.221436 390.935669,689.930603 
	C406.931580,691.566528 422.974426,692.773743 439.011871,693.964111 
	C450.511749,694.817627 462.031555,695.448547 473.552032,695.965576 
	C484.462280,696.455139 495.386658,696.991455 506.301910,696.935791 
	C531.890808,696.805420 557.481384,696.495544 583.064392,695.940125 
	C599.238525,695.588928 615.404724,694.756226 631.565796,693.963013 
	C641.396240,693.480469 651.221130,692.791260 661.028992,691.963745 
	C675.374084,690.753357 689.715210,689.464844 704.033020,687.969971 
	C718.458618,686.463806 732.920227,685.096191 747.245483,682.886597 
	C765.967102,679.998779 784.701904,676.941345 803.191650,672.869629 
	C827.396301,667.539429 851.540405,661.763062 875.392395,655.048340 
	C902.343201,647.461304 928.174805,636.825256 952.551086,622.839722 
	C966.132141,615.047729 978.807983,606.106079 988.028137,593.291809 
	C995.533875,582.860413 999.781189,571.490051 994.111328,558.447449 
	C990.067200,549.144714 983.578430,541.630798 975.859009,535.647949 
	C962.870972,525.581604 949.346863,516.151001 933.847717,510.029694 
	C913.871460,502.140106 894.220825,493.344940 873.967041,486.263885 
	C857.468140,480.495514 840.365417,476.369781 823.388489,472.077240 
	C807.192871,467.982208 790.813721,464.613159 773.575928,460.712402 
	C778.464661,468.586914 782.956238,475.623291 787.247986,482.779449 
	C794.257996,494.468262 795.838928,506.480560 789.018433,518.892822 
	C784.554077,527.017273 777.191833,532.015747 769.266296,535.811218 
	C756.249268,542.044922 742.428284,546.016602 728.077820,548.058716 
	C707.646729,550.966064 687.279175,554.371216 666.799866,556.870056 
	C653.126770,558.538513 639.315308,559.149963 625.549683,559.961182 
	C611.065063,560.814819 596.562012,561.880005 582.065674,561.900513 
	C552.823486,561.942017 523.577393,561.498108 494.338989,560.934265 
	C479.344849,560.645142 464.363983,559.666321 448.424683,558.999268 
z"/>
<path fill="#C582F2" opacity="1.000000" stroke="none" 
	d="
M417.314026,706.967773 
	C439.045776,707.997620 460.300507,709.190918 481.570801,709.945312 
	C499.150696,710.568787 516.750122,710.626038 534.338379,711.042358 
	C538.600830,711.143250 542.857056,711.993958 547.109558,711.943359 
	C563.034790,711.753967 578.961792,711.473877 594.879456,710.959412 
	C609.540161,710.485596 624.209534,709.948364 638.838379,708.917908 
	C652.357910,707.965698 665.823425,706.264160 679.323181,705.004272 
	C687.639221,704.228210 695.991333,703.819885 704.297424,702.958923 
	C713.858948,701.967712 723.398682,700.741394 732.924988,699.448486 
	C736.724121,698.932861 740.571533,697.855408 743.203613,701.765381 
	C745.637512,705.381104 743.120361,708.489685 741.316467,711.120789 
	C734.816956,720.600586 727.959778,729.835083 720.995850,739.497742 
	C729.821594,742.949707 738.704590,746.497620 747.641357,749.904480 
	C767.050659,757.303650 786.488464,764.627869 805.911865,771.990173 
	C809.379089,773.304443 812.762695,774.897522 816.312073,775.920715 
	C819.921265,776.961243 821.431580,778.963257 822.106018,782.722839 
	C824.795166,797.713013 828.016479,812.606934 830.802307,827.580750 
	C833.680115,843.049072 836.274536,858.570068 839.007019,874.065552 
	C839.993408,879.659180 840.639526,885.352661 842.168640,890.796204 
	C843.122986,894.193665 843.043945,896.912048 839.667358,897.834839 
	C835.976807,898.843445 832.624084,897.850830 830.968018,893.521851 
	C826.432190,881.664673 821.626404,869.911011 817.038208,858.073486 
	C810.243713,840.543945 803.556458,822.972900 796.796631,805.429871 
	C795.126648,801.095764 790.834229,802.825134 787.907715,802.194885 
	C775.096863,799.436279 762.148438,797.301575 749.225403,795.082886 
	C733.097046,792.313782 716.943298,789.692932 700.803284,786.991333 
	C692.796021,785.651062 684.808411,784.183716 676.780212,782.986816 
	C675.157410,782.744995 673.077637,782.965332 671.739136,783.811707 
	C653.097595,795.599670 633.738098,805.958008 612.458557,812.064697 
	C598.793823,815.986206 584.851746,818.941162 571.033997,822.329407 
	C570.900879,821.904358 570.767761,821.479309 570.634644,821.054260 
	C570.437134,821.477234 570.076416,821.896057 570.065796,822.323669 
	C569.689880,837.414856 569.375000,852.507629 568.989868,867.598572 
	C568.706970,878.685303 568.666199,889.796936 567.758301,900.834961 
	C567.551331,903.351379 564.529114,907.154297 562.242798,907.620667 
	C558.934937,908.295349 556.507202,905.721802 555.870544,901.424683 
	C553.519287,885.554749 550.530151,869.780579 548.011230,853.933777 
	C546.402832,843.814697 545.199890,833.631287 543.750061,822.999146 
	C541.767273,822.999146 539.809998,822.959656 537.854614,823.005188 
	C517.137024,823.488037 496.940582,820.103149 477.083069,814.544922 
	C453.933868,808.065308 432.192169,798.299194 412.261780,784.873474 
	C407.358398,781.570435 403.017365,783.673157 398.726105,784.291687 
	C383.812286,786.441284 369.010101,789.365967 354.166748,792.003174 
	C340.582672,794.416626 326.998047,796.827209 313.418030,799.263367 
	C305.907166,800.610718 298.405212,802.007996 290.070190,803.534668 
	C286.553864,812.405640 282.753204,821.922913 279.006348,831.461304 
	C270.811157,852.323486 262.592896,873.176941 254.505554,894.080933 
	C252.834122,898.401062 249.192062,898.973694 246.107452,897.674133 
	C244.404083,896.956482 242.881805,892.996887 243.202667,890.777039 
	C244.542358,881.508850 246.664368,872.356018 248.401154,863.142334 
	C250.979340,849.464966 253.441177,835.765686 256.014984,822.087463 
	C258.078339,811.121948 260.922852,800.249512 262.137054,789.194763 
	C263.153107,779.944458 267.700409,776.035339 276.166199,773.102966 
	C298.606506,765.330322 320.664246,756.450745 342.854309,747.959656 
	C349.130341,745.558105 355.338104,742.978027 361.466034,740.524353 
	C355.784912,732.701965 349.780151,724.821716 344.237396,716.628906 
	C341.691193,712.865356 339.522583,708.654602 338.167267,704.337585 
	C337.075104,700.858765 339.360840,698.671021 343.211395,699.016663 
	C350.227570,699.646484 357.242859,700.302856 364.243896,701.079773 
	C372.349518,701.979370 380.432526,703.082825 388.537903,703.984863 
	C397.966064,705.034241 407.407867,705.961243 417.314026,706.967773 
M554.007568,818.536743 
	C555.285645,825.902344 556.563660,833.267883 557.841675,840.633484 
	C559.000671,833.274292 559.000000,826.050049 559.000854,818.825745 
	C559.001648,811.882751 560.214722,811.092102 566.907654,809.893250 
	C579.459839,807.644836 592.064453,805.389343 604.359802,802.071594 
	C627.319397,795.876038 648.201355,785.035767 667.833435,771.710327 
	C670.625977,769.814941 673.450806,768.636902 677.198242,769.933472 
	C682.348938,771.715515 687.726318,772.999878 693.104126,773.937927 
	C709.422546,776.784180 725.804321,779.266052 742.130737,782.068237 
	C760.843567,785.280090 779.524048,788.680969 798.217590,792.005005 
	C801.532959,792.594543 804.493042,793.690857 805.709534,797.285217 
	C806.795715,800.494751 807.862854,803.712463 809.036377,806.890381 
	C812.081604,815.137634 815.180908,823.364807 818.258606,831.600037 
	C818.990051,830.078735 819.195251,828.719666 818.957520,827.443054 
	C817.003845,816.950195 814.681763,806.516724 813.056458,795.975098 
	C811.959839,788.862549 809.119019,783.820129 801.674927,782.277039 
	C801.519165,782.244751 801.388245,782.107483 801.234253,782.050110 
	C770.666809,770.650024 740.095215,759.260742 709.532898,747.846924 
	C704.886108,746.111572 703.549072,742.190552 706.516113,738.083618 
	C709.379639,734.119812 712.807251,730.568176 715.774658,726.673706 
	C719.281189,722.071533 722.559875,717.295837 726.622131,711.642151 
	C713.465454,713.211487 701.822144,714.828613 690.130676,715.939636 
	C673.808960,717.490723 657.463135,718.840332 641.105286,719.944153 
	C627.302917,720.875488 613.474304,721.502441 599.647156,721.957397 
	C583.730713,722.481262 567.802979,722.933777 551.880371,722.928223 
	C535.289490,722.922363 518.697388,722.385559 502.108368,721.978027 
	C493.528442,721.767334 484.949951,721.414001 476.377869,720.984436 
	C457.467712,720.036804 438.558624,719.059631 419.656036,717.973450 
	C410.653473,717.456177 401.660400,716.736206 392.675690,715.961365 
	C388.295929,715.583679 383.954559,714.778259 379.579224,714.327454 
	C371.569916,713.502380 363.548279,712.796753 354.929871,711.984619 
	C355.918701,713.584473 356.496735,714.742126 357.275208,715.744019 
	C363.270599,723.460205 369.330444,731.126404 375.317169,738.849304 
	C378.724945,743.245300 376.413788,747.290283 372.663147,748.712341 
	C353.400940,756.015076 334.135223,763.308594 314.862976,770.584717 
	C302.652130,775.194946 290.418152,779.744080 278.217529,784.381042 
	C275.819061,785.292603 274.059509,786.466980 273.589905,789.662720 
	C272.413605,797.666931 270.576385,805.574341 268.998138,813.519287 
	C267.618103,820.466370 266.229706,827.411804 264.845001,834.358032 
	C269.407684,824.524902 273.392914,814.556824 276.935028,804.433716 
	C279.315521,797.630310 281.747101,792.085571 290.602081,791.488525 
	C300.247955,790.838196 309.793182,788.559021 319.355682,786.841736 
	C331.620453,784.639221 343.848602,782.233093 356.110992,780.017029 
	C370.927002,777.339478 385.716980,774.445068 400.617798,772.354431 
	C404.950134,771.746582 409.231995,769.493408 414.311188,772.460388 
	C428.084381,780.505798 442.149109,788.148804 456.555603,794.988037 
	C473.122620,802.852783 490.982300,807.174194 509.030579,809.773621 
	C521.692749,811.597229 534.652161,811.413696 547.486206,811.952332 
	C551.424744,812.117615 553.715454,813.624573 554.007568,818.536743 
z"/>
<path fill="#000000" opacity="1.000000" stroke="none" 
	d="
M448.900909,558.999207 
	C464.363983,559.666321 479.344849,560.645142 494.338989,560.934265 
	C523.577393,561.498108 552.823486,561.942017 582.065674,561.900513 
	C596.562012,561.880005 611.065063,560.814819 625.549683,559.961182 
	C639.315308,559.149963 653.126770,558.538513 666.799866,556.870056 
	C687.279175,554.371216 707.646729,550.966064 728.077820,548.058716 
	C742.428284,546.016602 756.249268,542.044922 769.266296,535.811218 
	C777.191833,532.015747 784.554077,527.017273 789.018433,518.892822 
	C795.838928,506.480560 794.257996,494.468262 787.247986,482.779449 
	C782.956238,475.623291 778.464661,468.586914 773.575928,460.712402 
	C790.813721,464.613159 807.192871,467.982208 823.388489,472.077240 
	C840.365417,476.369781 857.468140,480.495514 873.967041,486.263885 
	C894.220825,493.344940 913.871460,502.140106 933.847717,510.029694 
	C949.346863,516.151001 962.870972,525.581604 975.859009,535.647949 
	C983.578430,541.630798 990.067200,549.144714 994.111328,558.447449 
	C999.781189,571.490051 995.533875,582.860413 988.028137,593.291809 
	C978.807983,606.106079 966.132141,615.047729 952.551086,622.839722 
	C928.174805,636.825256 902.343201,647.461304 875.392395,655.048340 
	C851.540405,661.763062 827.396301,667.539429 803.191650,672.869629 
	C784.701904,676.941345 765.967102,679.998779 747.245483,682.886597 
	C732.920227,685.096191 718.458618,686.463806 704.033020,687.969971 
	C689.715210,689.464844 675.374084,690.753357 661.028992,691.963745 
	C651.221130,692.791260 641.396240,693.480469 631.565796,693.963013 
	C615.404724,694.756226 599.238525,695.588928 583.064392,695.940125 
	C557.481384,696.495544 531.890808,696.805420 506.301910,696.935791 
	C495.386658,696.991455 484.462280,696.455139 473.552032,695.965576 
	C462.031555,695.448547 450.511749,694.817627 439.011871,693.964111 
	C422.974426,692.773743 406.931580,691.566528 390.935669,689.930603 
	C374.223572,688.221436 357.481079,686.517395 340.901733,683.871704 
	C316.877594,680.037903 292.983368,675.386108 269.042542,671.035034 
	C243.100677,666.320374 217.581543,659.748779 192.823700,650.817871 
	C173.880829,643.984497 155.296036,635.962891 137.103271,627.310608 
	C123.791397,620.979614 111.176849,612.952881 100.826103,602.175293 
	C94.769615,595.869019 89.463951,588.934021 86.618027,580.311462 
	C82.426361,567.611450 86.255348,556.960510 94.252205,547.294373 
	C110.841698,527.242004 133.283844,515.783569 156.600754,505.952850 
	C173.656570,498.761902 190.915909,491.925293 208.458405,486.046356 
	C236.646454,476.599945 265.492065,469.451843 294.730896,463.964966 
	C298.667328,463.226257 302.562012,462.265228 307.683838,461.142365 
	C303.647644,467.600159 300.284790,473.292969 296.616425,478.781555 
	C289.995483,488.687866 285.698730,499.196747 289.089172,511.236664 
	C291.987732,521.529907 299.320129,528.508972 308.313690,533.676453 
	C323.224365,542.243713 339.718750,546.151978 356.458923,548.928711 
	C372.469818,551.584534 388.541809,553.952881 404.654327,555.885986 
	C414.929138,557.118774 425.327667,557.313232 435.668457,558.006836 
	C439.923584,558.292175 444.172791,558.665833 448.900909,558.999207 
M574.428833,638.941162 
	C585.909668,653.217957 601.893738,658.989685 619.145630,660.786926 
	C636.899597,662.636658 654.291382,660.099182 669.987366,650.514526 
	C684.741150,641.505188 693.304565,628.513977 688.783936,610.894653 
	C685.400696,597.708069 674.607239,590.426025 663.174011,585.291870 
	C650.397034,579.554443 636.690125,577.790344 622.380981,578.732727 
	C610.261414,579.531067 599.114685,582.432861 588.643372,588.118286 
	C580.325684,592.634338 573.513062,599.070496 570.064331,608.036194 
	C565.978638,618.657654 566.726868,629.035889 574.428833,638.941162 
M160.835510,563.632202 
	C157.768677,570.399597 158.583588,577.435669 160.639572,584.038025 
	C163.205002,592.276245 169.402695,598.193665 176.338623,602.987976 
	C189.957031,612.401428 205.325272,615.135498 221.690674,615.158020 
	C238.565063,615.181213 253.860504,610.966736 267.268066,600.903259 
	C278.818665,592.233582 284.156250,578.717957 279.522247,563.975708 
	C275.792511,552.110046 266.640320,545.272644 256.312958,540.229126 
	C238.624344,531.590576 219.760925,531.083862 200.752777,534.687927 
	C183.316589,537.993896 169.347214,546.521729 160.835510,563.632202 
M863.307922,520.006775 
	C853.335083,520.004883 843.239014,519.011963 833.418274,520.233154 
	C818.654968,522.069031 805.418762,527.966797 795.078064,539.363464 
	C786.632690,548.671265 784.504089,562.803589 789.951904,573.682983 
	C797.121033,587.999756 810.313660,594.741272 824.680176,598.756775 
	C834.431702,601.482361 844.667786,601.935364 855.100220,601.287292 
	C869.737732,600.378052 882.937866,596.304443 894.461914,587.664490 
	C902.575256,581.581665 908.378296,573.599060 909.061340,562.683289 
	C910.113953,545.860779 900.253784,535.747681 887.309448,528.342468 
	C880.312317,524.339478 871.941223,522.738159 863.307922,520.006775 
M362.742523,590.027344 
	C359.526947,593.155884 356.314941,596.288086 353.095093,599.412231 
	C341.714478,610.454346 343.215088,629.774170 353.101929,640.672607 
	C364.936554,653.718079 380.372009,659.150330 397.042267,660.787292 
	C413.962921,662.448975 430.744385,660.393860 445.786041,651.532104 
	C454.762054,646.243835 463.106415,639.520081 465.842712,628.988281 
	C470.807251,609.880310 461.923706,597.426880 446.830322,588.584961 
	C432.393066,580.127441 416.443817,577.452698 399.568268,578.828308 
	C386.562408,579.888428 374.416260,582.664612 362.742523,590.027344 
z"/>
<path fill="#000000" opacity="1.000000" stroke="none" 
	d="
M391.833252,524.011169 
	C381.068604,522.344299 370.295532,520.730042 359.541626,518.996765 
	C347.205719,517.008484 335.299469,513.675476 324.024231,508.096161 
	C319.658569,505.935883 317.907654,503.262726 317.866364,498.194489 
	C317.624756,468.547485 324.457947,440.503693 336.136505,413.470581 
	C345.354309,392.133484 357.876526,372.964111 373.024750,355.311768 
	C388.765289,336.969208 407.425415,322.355377 428.014771,310.070709 
	C442.158356,301.631927 456.996277,294.543274 472.784363,289.657684 
	C488.149658,284.902832 503.685364,280.791992 519.848572,280.043365 
	C532.259460,279.468536 544.816650,278.083344 557.080322,279.321442 
	C571.806641,280.808228 586.353027,284.413422 600.863098,287.618317 
	C617.167175,291.219513 632.562561,297.682190 646.784668,306.190613 
	C660.048340,314.125732 672.618225,323.328979 684.916077,332.729523 
	C692.358582,338.418549 699.060669,345.212097 705.460693,352.099213 
	C716.751404,364.249481 726.503174,377.567352 734.667908,392.098328 
	C742.830322,406.625366 749.399780,421.753601 754.249207,437.666229 
	C758.901062,452.930725 762.624146,468.356781 763.037598,484.426361 
	C763.147156,488.683807 763.448669,492.962219 764.053772,497.174744 
	C764.890320,502.997711 761.660034,506.614777 757.066956,508.274323 
	C746.066528,512.248901 734.975830,516.299561 723.587341,518.792053 
	C709.042664,521.975281 694.202454,523.903687 679.424866,525.890991 
	C670.664551,527.069031 661.779358,527.318604 652.600037,527.606567 
	C653.905579,525.919800 655.719238,524.768433 657.192627,523.280151 
	C670.975891,509.357330 678.875000,492.169983 682.786316,473.385681 
	C685.942139,458.230194 685.483093,443.037964 674.999084,430.006042 
	C666.732605,419.730408 656.455872,412.546112 643.128540,411.089691 
	C628.815735,409.525513 615.368347,412.165192 604.384521,422.286407 
	C595.016602,430.918732 588.490784,441.118439 587.973022,454.401123 
	C587.481262,467.015747 590.140076,478.883148 594.770996,490.612732 
	C601.013550,506.424408 609.573914,520.242004 623.961304,529.868530 
	C598.006165,530.573547 572.050781,531.268799 546.096436,532.002869 
	C544.137878,532.058350 542.187134,532.390503 540.206238,531.944702 
	C545.969238,526.188599 552.002197,521.327820 557.479370,515.905579 
	C562.864258,510.574707 562.440491,500.771240 557.008667,495.580017 
	C554.964966,493.626862 552.570435,492.040741 550.757263,490.617981 
	C554.211487,483.731293 558.053101,477.119934 560.933838,470.113556 
	C567.141174,455.016205 567.907898,438.971191 567.980591,422.907532 
	C568.076294,401.748016 568.051880,380.587494 567.951843,359.428009 
	C567.937073,356.303741 568.338440,353.805939 570.830322,351.482635 
	C573.706116,348.801331 573.907410,340.823090 571.764526,338.181427 
	C568.897278,334.646851 564.926025,332.538269 560.901001,334.366058 
	C557.782471,335.782227 554.568115,338.928925 553.335693,342.067810 
	C551.778503,346.033813 552.992920,350.419037 557.253906,353.129456 
	C558.069458,353.648193 558.909668,354.887726 558.917603,355.801880 
	C559.026489,368.305786 558.990967,380.810913 558.990967,394.553284 
	C529.803894,336.031342 464.196655,325.260345 419.974030,352.629456 
	C371.459198,382.654907 358.989349,447.604828 393.671783,493.479553 
	C386.155426,496.684448 380.286469,505.517273 384.137085,513.509766 
	C385.989075,517.353882 389.224365,520.531616 391.833252,524.011169 
z"/>
<path fill="#65FFB3" opacity="1.000000" stroke="none" 
	d="
M392.070679,524.312988 
	C389.224365,520.531616 385.989075,517.353882 384.137085,513.509766 
	C380.286469,505.517273 386.155426,496.684448 393.671783,493.479553 
	C358.989349,447.604828 371.459198,382.654907 419.974030,352.629456 
	C464.196655,325.260345 529.803894,336.031342 558.990967,394.553284 
	C558.990967,380.810913 559.026489,368.305786 558.917603,355.801880 
	C558.909668,354.887726 558.069458,353.648193 557.253906,353.129456 
	C552.992920,350.419037 551.778503,346.033813 553.335693,342.067810 
	C554.568115,338.928925 557.782471,335.782227 560.901001,334.366058 
	C564.926025,332.538269 568.897278,334.646851 571.764526,338.181427 
	C573.907410,340.823090 573.706116,348.801331 570.830322,351.482635 
	C568.338440,353.805939 567.937073,356.303741 567.951843,359.428009 
	C568.051880,380.587494 568.076294,401.748016 567.980591,422.907532 
	C567.907898,438.971191 567.141174,455.016205 560.933838,470.113556 
	C558.053101,477.119934 554.211487,483.731293 550.757263,490.617981 
	C552.570435,492.040741 554.964966,493.626862 557.008667,495.580017 
	C562.440491,500.771240 562.864258,510.574707 557.479370,515.905579 
	C552.002197,521.327820 545.969238,526.188599 540.019531,531.603027 
	C534.079529,534.083130 528.261719,535.352539 522.214233,531.993774 
	C532.522522,525.717896 541.914673,518.788574 550.147217,510.329254 
	C552.969971,507.428772 552.714478,504.180908 549.885803,501.354340 
	C546.267639,497.738800 543.325684,499.025604 540.299561,502.174500 
	C530.684998,512.179199 519.517822,520.004944 506.465210,524.754700 
	C499.430878,527.314514 492.057861,528.943604 484.837646,530.992615 
	C471.982788,530.517761 459.127930,530.042969 445.933228,528.883667 
	C429.720001,523.615845 415.238373,516.567688 403.812500,504.261597 
	C400.832520,501.052002 397.993500,500.537231 394.769287,503.722168 
	C391.178711,507.268951 390.910004,509.733429 394.857330,513.208679 
	C400.334229,518.030579 406.261658,522.340698 411.996185,526.869995 
	C406.815735,526.558472 401.628998,526.321350 396.458893,525.886597 
	C395.049622,525.768066 393.690338,525.054932 392.070679,524.312988 
M552.472961,466.003693 
	C559.785156,448.225586 560.172424,429.925354 555.119019,411.725952 
	C549.983582,393.231384 539.806641,377.631500 524.364990,365.891876 
	C504.809540,351.024567 482.587006,344.562042 458.363953,348.247894 
	C437.700867,351.392120 419.563019,360.372681 405.627289,376.785858 
	C393.651428,390.890717 386.344025,406.700226 383.781403,425.211945 
	C381.488586,441.774414 384.896271,457.155426 391.537811,471.702728 
	C400.574066,491.495331 415.605225,506.103271 435.574310,515.023926 
	C454.452423,523.457153 474.229645,524.647705 494.061554,519.311340 
	C512.817627,514.264465 528.582275,503.946838 540.101990,488.170441 
	C544.899109,481.600708 548.112061,473.874268 552.472961,466.003693 
z"/>
<path fill="#63FFB4" opacity="1.000000" stroke="none" 
	d="
M624.396484,529.935120 
	C609.573914,520.242004 601.013550,506.424408 594.770996,490.612732 
	C590.140076,478.883148 587.481262,467.015747 587.973022,454.401123 
	C588.490784,441.118439 595.016602,430.918732 604.384521,422.286407 
	C615.368347,412.165192 628.815735,409.525513 643.128540,411.089691 
	C656.455872,412.546112 666.732605,419.730408 674.999084,430.006042 
	C685.483093,443.037964 685.942139,458.230194 682.786316,473.385681 
	C678.875000,492.169983 670.975891,509.357330 657.192627,523.280151 
	C655.719238,524.768433 653.905579,525.919800 652.142822,527.548950 
	C643.141785,530.801453 634.087524,531.688904 624.396484,529.935120 
M677.000854,470.388458 
	C677.333984,465.974823 677.922974,461.563049 677.955078,457.147217 
	C678.080872,439.857941 666.067566,425.678528 652.695862,420.198578 
	C635.911133,413.320038 619.892151,416.322083 606.715698,428.951172 
	C594.333923,440.818604 591.663574,455.803284 595.605652,472.192078 
	C599.446106,488.157959 605.638916,502.963501 616.759521,515.358643 
	C623.986206,523.413513 634.537964,530.540039 646.538025,522.586609 
	C651.570435,519.251160 656.266113,514.843628 659.841125,509.986023 
	C668.350952,498.423309 673.701904,485.250671 677.000854,470.388458 
z"/>
<path fill="#000000" opacity="1.000000" stroke="none" 
	d="
M518.074036,543.079346 
	C526.152405,543.385986 534.233093,543.996521 542.308716,543.936462 
	C559.538879,543.808411 576.771240,543.484314 593.993713,542.951355 
	C607.838318,542.523010 621.684937,541.891479 635.502991,540.945862 
	C651.344543,539.861755 667.236206,538.938538 682.960754,536.850952 
	C705.748962,533.825439 728.643555,530.858398 750.586853,523.607544 
	C757.072144,521.464539 763.213684,517.908630 769.027222,514.232422 
	C773.132019,511.636688 775.329773,507.332916 775.056274,502.015717 
	C774.792786,496.892792 774.999268,491.745697 774.999268,486.388184 
	C783.572388,496.009308 784.883240,507.045410 776.181152,516.286987 
	C766.116577,526.975342 752.651062,530.830200 739.129333,533.831055 
	C723.835327,537.225220 708.307190,539.692322 692.786377,541.897400 
	C679.696533,543.757202 666.492920,544.959351 653.300964,545.922607 
	C635.580505,547.216553 617.831299,548.204712 600.078735,548.948486 
	C580.589355,549.765076 561.085083,550.388184 541.581360,550.649109 
	C528.369507,550.825928 515.147339,550.232056 501.648193,549.583740 
	C506.935760,547.149597 512.504883,545.114441 518.074036,543.079346 
z"/>
<path fill="#000000" opacity="1.000000" stroke="none" 
	d="
M428.003906,545.861328 
	C418.083923,544.936646 408.147369,544.159851 398.248505,543.047058 
	C387.724701,541.864197 377.160522,540.785156 366.749634,538.908386 
	C347.867859,535.504639 328.906128,532.130432 312.063141,522.018494 
	C306.135254,518.459534 301.945129,513.416687 300.090393,506.804993 
	C297.773010,498.544128 302.276978,492.094025 307.000977,484.315521 
	C307.000977,490.873047 307.533783,496.155365 306.876984,501.285400 
	C305.873505,509.122986 310.608582,513.614502 316.045868,516.846008 
	C328.509796,524.253662 342.559418,527.390015 356.688293,530.006104 
	C365.267181,531.594482 373.813171,533.376282 382.419525,534.794922 
	C388.360077,535.774170 394.373444,536.327881 400.364044,536.981934 
	C404.254211,537.406616 408.162048,537.669556 412.661591,538.374756 
	C418.175446,541.116760 423.089691,543.489075 428.003906,545.861328 
z"/>
<path fill="#000000" opacity="1.000000" stroke="none" 
	d="
M485.069153,531.373291 
	C492.057861,528.943604 499.430878,527.314514 506.465210,524.754700 
	C519.517822,520.004944 530.684998,512.179199 540.299561,502.174500 
	C543.325684,499.025604 546.267639,497.738800 549.885803,501.354340 
	C552.714478,504.180908 552.969971,507.428772 550.147217,510.329254 
	C541.914673,518.788574 532.522522,525.717896 521.986267,531.658936 
	C509.647308,531.906128 497.473999,531.830017 485.069153,531.373291 
z"/>
<path fill="#67FEB2" opacity="1.000000" stroke="none" 
	d="
M428.405792,545.929199 
	C423.089691,543.489075 418.175446,541.116760 413.103790,538.424988 
	C424.013458,539.074158 435.080536,540.042847 446.771057,541.422424 
	C458.364990,542.555359 469.333038,543.321716 480.309082,543.946228 
	C481.760498,544.028870 483.253021,543.388611 484.726501,543.083130 
	C495.528290,543.052490 506.330048,543.021912 517.602905,543.035339 
	C512.504883,545.114441 506.935760,547.149597 501.184631,549.511353 
	C481.779816,549.548340 462.551361,549.439514 443.338013,548.843140 
	C438.469818,548.692017 433.649811,546.987610 428.405792,545.929199 
z"/>
<path fill="#000000" opacity="1.000000" stroke="none" 
	d="
M412.436829,526.929077 
	C406.261658,522.340698 400.334229,518.030579 394.857330,513.208679 
	C390.910004,509.733429 391.178711,507.268951 394.769287,503.722168 
	C397.993500,500.537231 400.832520,501.052002 403.812500,504.261597 
	C415.238373,516.567688 429.720001,523.615845 445.620972,528.570435 
	C434.724823,528.290405 423.801178,527.639282 412.436829,526.929077 
z"/>
<path fill="#000000" opacity="1.000000" stroke="none" 
	d="
M484.367798,542.878906 
	C483.253021,543.388611 481.760498,544.028870 480.309082,543.946228 
	C469.333038,543.321716 458.364990,542.555359 447.188782,541.490295 
	C459.325104,541.656433 471.667084,542.165527 484.367798,542.878906 
z"/>
<path fill="#000000" opacity="1.000000" stroke="none" 
	d="
M554.003540,818.109924 
	C553.715454,813.624573 551.424744,812.117615 547.486206,811.952332 
	C534.652161,811.413696 521.692749,811.597229 509.030579,809.773621 
	C490.982300,807.174194 473.122620,802.852783 456.555603,794.988037 
	C442.149109,788.148804 428.084381,780.505798 414.311188,772.460388 
	C409.231995,769.493408 404.950134,771.746582 400.617798,772.354431 
	C385.716980,774.445068 370.927002,777.339478 356.110992,780.017029 
	C343.848602,782.233093 331.620453,784.639221 319.355682,786.841736 
	C309.793182,788.559021 300.247955,790.838196 290.602081,791.488525 
	C281.747101,792.085571 279.315521,797.630310 276.935028,804.433716 
	C273.392914,814.556824 269.407684,824.524902 264.845001,834.358032 
	C266.229706,827.411804 267.618103,820.466370 268.998138,813.519287 
	C270.576385,805.574341 272.413605,797.666931 273.589905,789.662720 
	C274.059509,786.466980 275.819061,785.292603 278.217529,784.381042 
	C290.418152,779.744080 302.652130,775.194946 314.862976,770.584717 
	C334.135223,763.308594 353.400940,756.015076 372.663147,748.712341 
	C376.413788,747.290283 378.724945,743.245300 375.317169,738.849304 
	C369.330444,731.126404 363.270599,723.460205 357.275208,715.744019 
	C356.496735,714.742126 355.918701,713.584473 354.929871,711.984619 
	C363.548279,712.796753 371.569916,713.502380 379.579224,714.327454 
	C383.954559,714.778259 388.295929,715.583679 392.675690,715.961365 
	C401.660400,716.736206 410.653473,717.456177 419.656036,717.973450 
	C438.558624,719.059631 457.467712,720.036804 476.377869,720.984436 
	C484.949951,721.414001 493.528442,721.767334 502.108368,721.978027 
	C518.697388,722.385559 535.289490,722.922363 551.880371,722.928223 
	C567.802979,722.933777 583.730713,722.481262 599.647156,721.957397 
	C613.474304,721.502441 627.302917,720.875488 641.105286,719.944153 
	C657.463135,718.840332 673.808960,717.490723 690.130676,715.939636 
	C701.822144,714.828613 713.465454,713.211487 726.622131,711.642151 
	C722.559875,717.295837 719.281189,722.071533 715.774658,726.673706 
	C712.807251,730.568176 709.379639,734.119812 706.516113,738.083618 
	C703.549072,742.190552 704.886108,746.111572 709.532898,747.846924 
	C740.095215,759.260742 770.666809,770.650024 801.234253,782.050110 
	C801.388245,782.107483 801.519165,782.244751 801.674927,782.277039 
	C809.119019,783.820129 811.959839,788.862549 813.056458,795.975098 
	C814.681763,806.516724 817.003845,816.950195 818.957520,827.443054 
	C819.195251,828.719666 818.990051,830.078735 818.258606,831.600037 
	C815.180908,823.364807 812.081604,815.137634 809.036377,806.890381 
	C807.862854,803.712463 806.795715,800.494751 805.709534,797.285217 
	C804.493042,793.690857 801.532959,792.594543 798.217590,792.005005 
	C779.524048,788.680969 760.843567,785.280090 742.130737,782.068237 
	C725.804321,779.266052 709.422546,776.784180 693.104126,773.937927 
	C687.726318,772.999878 682.348938,771.715515 677.198242,769.933472 
	C673.450806,768.636902 670.625977,769.814941 667.833435,771.710327 
	C648.201355,785.035767 627.319397,795.876038 604.359802,802.071594 
	C592.064453,805.389343 579.459839,807.644836 566.907654,809.893250 
	C560.214722,811.092102 559.001648,811.882751 559.000854,818.825745 
	C559.000000,826.050049 559.000671,833.274292 557.841675,840.633484 
	C556.563660,833.267883 555.285645,825.902344 554.003540,818.109924 
z"/>
<path fill="#C582F2" opacity="1.000000" stroke="none" 
	d="
M574.182373,638.671509 
	C566.726868,629.035889 565.978638,618.657654 570.064331,608.036194 
	C573.513062,599.070496 580.325684,592.634338 588.643372,588.118286 
	C599.114685,582.432861 610.261414,579.531067 622.380981,578.732727 
	C636.690125,577.790344 650.397034,579.554443 663.174011,585.291870 
	C674.607239,590.426025 685.400696,597.708069 688.783936,610.894653 
	C693.304565,628.513977 684.741150,641.505188 669.987366,650.514526 
	C654.291382,660.099182 636.899597,662.636658 619.145630,660.786926 
	C601.893738,658.989685 585.909668,653.217957 574.182373,638.671509 
M585.977234,604.535828 
	C585.241089,605.599304 584.565796,606.711548 583.759155,607.718506 
	C576.980835,616.180542 577.870911,625.601196 585.096680,633.527161 
	C595.931580,645.411987 610.495178,649.007996 625.599182,649.804993 
	C639.490784,650.538086 652.930908,647.711365 665.032837,640.024231 
	C680.789307,630.015625 683.680420,612.111389 666.244385,600.657410 
	C653.466919,592.263672 639.553772,589.263855 624.532471,589.977722 
	C610.347168,590.651978 597.515381,594.851624 585.977234,604.535828 
z"/>
<path fill="#C582F2" opacity="1.000000" stroke="none" 
	d="
M160.926239,563.236816 
	C169.347214,546.521729 183.316589,537.993896 200.752777,534.687927 
	C219.760925,531.083862 238.624344,531.590576 256.312958,540.229126 
	C266.640320,545.272644 275.792511,552.110046 279.522247,563.975708 
	C284.156250,578.717957 278.818665,592.233582 267.268066,600.903259 
	C253.860504,610.966736 238.565063,615.181213 221.690674,615.158020 
	C205.325272,615.135498 189.957031,612.401428 176.338623,602.987976 
	C169.402695,598.193665 163.205002,592.276245 160.639572,584.038025 
	C158.583588,577.435669 157.768677,570.399597 160.926239,563.236816 
M261.384216,557.057007 
	C252.128693,550.974670 242.429688,546.421204 231.175964,544.820496 
	C212.545151,542.170532 195.382080,545.328186 180.267578,556.480774 
	C170.324112,563.817871 167.636703,574.747803 173.558533,583.634033 
	C176.844849,588.565430 181.977936,592.770569 187.145142,595.848145 
	C201.799210,604.576172 218.026154,605.990723 234.419998,602.825745 
	C245.826660,600.623535 256.965424,596.837891 264.482452,586.951660 
	C269.546844,580.291077 271.959106,573.093811 267.010406,565.180664 
	C265.388092,562.586487 263.662018,560.057129 261.384216,557.057007 
z"/>
<path fill="#C582F2" opacity="1.000000" stroke="none" 
	d="
M863.748901,520.030029 
	C871.941223,522.738159 880.312317,524.339478 887.309448,528.342468 
	C900.253784,535.747681 910.113953,545.860779 909.061340,562.683289 
	C908.378296,573.599060 902.575256,581.581665 894.461914,587.664490 
	C882.937866,596.304443 869.737732,600.378052 855.100220,601.287292 
	C844.667786,601.935364 834.431702,601.482361 824.680176,598.756775 
	C810.313660,594.741272 797.121033,587.999756 789.951904,573.682983 
	C784.504089,562.803589 786.632690,548.671265 795.078064,539.363464 
	C805.418762,527.966797 818.654968,522.069031 833.418274,520.233154 
	C843.239014,519.011963 853.335083,520.004883 863.748901,520.030029 
M867.520752,532.979614 
	C867.112549,532.698914 866.739258,532.259033 866.291077,532.160767 
	C854.505005,529.577698 842.628296,529.144714 830.912964,532.093689 
	C821.310120,534.511047 811.986145,537.952637 805.007996,545.538635 
	C796.935547,554.314270 796.092957,564.200439 802.150146,571.274719 
	C806.432739,576.276306 811.862976,581.193726 817.812256,583.711792 
	C841.501465,593.737854 864.968323,593.549011 886.878235,578.512939 
	C900.238647,569.344116 900.804871,555.966064 890.305420,544.840576 
	C884.321838,538.500061 876.382751,535.644897 867.520752,532.979614 
z"/>
<path fill="#C582F2" opacity="1.000000" stroke="none" 
	d="
M363.111328,589.980713 
	C374.416260,582.664612 386.562408,579.888428 399.568268,578.828308 
	C416.443817,577.452698 432.393066,580.127441 446.830322,588.584961 
	C461.923706,597.426880 470.807251,609.880310 465.842712,628.988281 
	C463.106415,639.520081 454.762054,646.243835 445.786041,651.532104 
	C430.744385,660.393860 413.962921,662.448975 397.042267,660.787292 
	C380.372009,659.150330 364.936554,653.718079 353.101929,640.672607 
	C343.215088,629.774170 341.714478,610.454346 353.095093,599.412231 
	C356.314941,596.288086 359.526947,593.155884 363.111328,589.980713 
M356.999084,622.139221 
	C359.503448,634.617126 368.873596,640.708862 379.450836,644.842285 
	C390.884705,649.310486 402.809753,651.060791 415.320129,649.153809 
	C428.092285,647.206970 439.959412,643.797546 449.151886,634.243591 
	C460.177002,622.784912 456.894348,610.645752 446.075409,602.136963 
	C437.875336,595.687744 428.277252,592.398071 417.729645,590.831299 
	C400.726776,588.305542 384.843475,590.663757 370.264374,599.491882 
	C362.419708,604.242065 356.002594,610.713806 356.999084,622.139221 
z"/>
<path fill="#000000" opacity="1.000000" stroke="none" 
	d="
M552.259155,466.338745 
	C548.112061,473.874268 544.899109,481.600708 540.101990,488.170441 
	C528.582275,503.946838 512.817627,514.264465 494.061554,519.311340 
	C474.229645,524.647705 454.452423,523.457153 435.574310,515.023926 
	C415.605225,506.103271 400.574066,491.495331 391.537811,471.702728 
	C384.896271,457.155426 381.488586,441.774414 383.781403,425.211945 
	C386.344025,406.700226 393.651428,390.890717 405.627289,376.785858 
	C419.563019,360.372681 437.700867,351.392120 458.363953,348.247894 
	C482.587006,344.562042 504.809540,351.024567 524.364990,365.891876 
	C539.806641,377.631500 549.983582,393.231384 555.119019,411.725952 
	C560.172424,429.925354 559.785156,448.225586 552.259155,466.338745 
M411.416870,440.904602 
	C411.624268,442.517273 411.697693,444.160645 412.059174,445.738007 
	C417.626373,470.031860 426.548950,492.438110 445.369781,510.041931 
	C461.107788,524.762268 480.970612,524.388306 496.483856,510.111877 
	C508.828461,498.751495 516.933655,484.689209 522.717224,469.349152 
	C528.459961,454.117462 532.581360,438.583862 530.199036,421.722198 
	C527.719238,404.171570 518.945801,390.876404 504.992218,381.164764 
	C486.953522,368.609924 467.172668,367.457611 446.923370,375.616852 
	C430.189026,382.359772 419.653015,395.085541 413.761780,411.775757 
	C410.540741,420.901276 410.691895,430.503632 411.416870,440.904602 
M534.532166,412.001434 
	C536.035400,412.148895 537.538696,412.296356 539.041931,412.443817 
	C539.040894,410.970856 539.414429,409.376587 538.982605,408.043152 
	C532.595093,388.318420 518.903748,374.914642 501.211212,365.181091 
	C499.724792,364.363342 497.232025,365.374725 495.206818,365.536346 
	C496.250305,367.275970 496.909241,369.517700 498.406677,370.664551 
	C503.677521,374.701416 509.385071,378.168335 514.653625,382.207947 
	C524.402832,389.683228 529.729370,400.218140 534.532166,412.001434 
z"/>
<path fill="#000000" opacity="1.000000" stroke="none" 
	d="
M676.997803,470.828125 
	C673.701904,485.250671 668.350952,498.423309 659.841125,509.986023 
	C656.266113,514.843628 651.570435,519.251160 646.538025,522.586609 
	C634.537964,530.540039 623.986206,523.413513 616.759521,515.358643 
	C605.638916,502.963501 599.446106,488.157959 595.605652,472.192078 
	C591.663574,455.803284 594.333923,440.818604 606.715698,428.951172 
	C619.892151,416.322083 635.911133,413.320038 652.695862,420.198578 
	C666.067566,425.678528 678.080872,439.857941 677.955078,457.147217 
	C677.922974,461.563049 677.333984,465.974823 676.997803,470.828125 
M623.888855,495.637665 
	C625.935852,494.757294 628.103516,494.081696 630.008362,492.959961 
	C637.093384,488.787750 637.016785,481.860199 629.974365,478.113312 
	C626.791809,476.420074 623.034790,475.748901 619.485107,474.816833 
	C613.856018,473.338684 606.884644,476.958679 606.109558,482.056488 
	C605.118652,488.574463 607.184509,494.371216 614.208008,495.906158 
	C617.049133,496.527069 620.146057,495.977539 623.888855,495.637665 
M649.314331,476.868103 
	C647.705017,476.931366 646.095764,476.994659 644.486450,477.057953 
	C645.402649,479.788239 646.318787,482.518524 647.573242,486.257080 
	C646.949890,487.856628 641.039124,489.676392 645.271790,493.437897 
	C649.093689,496.834442 650.903137,491.740906 653.426086,490.247070 
	C656.118774,491.604523 658.002686,496.989471 661.611328,493.420349 
	C665.496399,489.577850 659.083618,488.260101 658.982971,485.558319 
	C660.359619,482.757446 662.741150,478.243347 661.632751,477.093658 
	C657.985840,473.310791 655.795410,478.646484 652.477600,480.442017 
	C651.582825,479.373749 650.738770,478.366089 649.314331,476.868103 
M626.184692,505.024719 
	C625.146301,506.485840 624.107849,507.946960 623.069397,509.408051 
	C624.671387,509.940552 626.255920,510.858978 627.878601,510.932190 
	C632.508057,511.141113 637.154602,511.075867 641.791260,510.975342 
	C643.916748,510.929291 647.199036,511.826385 646.749451,508.206207 
	C646.594727,506.959900 643.717773,505.294006 641.972656,505.147034 
	C637.037537,504.731354 632.044434,505.002899 626.184692,505.024719 
z"/>
<path fill="#000000" opacity="1.000000" stroke="none" 
	d="
M586.231140,604.272583 
	C597.515381,594.851624 610.347168,590.651978 624.532471,589.977722 
	C639.553772,589.263855 653.466919,592.263672 666.244385,600.657410 
	C683.680420,612.111389 680.789307,630.015625 665.032837,640.024231 
	C652.930908,647.711365 639.490784,650.538086 625.599182,649.804993 
	C610.495178,649.007996 595.931580,645.411987 585.096680,633.527161 
	C577.870911,625.601196 576.980835,616.180542 583.759155,607.718506 
	C584.565796,606.711548 585.241089,605.599304 586.231140,604.272583 
z"/>
<path fill="#000000" opacity="1.000000" stroke="none" 
	d="
M261.683777,557.277588 
	C263.662018,560.057129 265.388092,562.586487 267.010406,565.180664 
	C271.959106,573.093811 269.546844,580.291077 264.482452,586.951660 
	C256.965424,596.837891 245.826660,600.623535 234.419998,602.825745 
	C218.026154,605.990723 201.799210,604.576172 187.145142,595.848145 
	C181.977936,592.770569 176.844849,588.565430 173.558533,583.634033 
	C167.636703,574.747803 170.324112,563.817871 180.267578,556.480774 
	C195.382080,545.328186 212.545151,542.170532 231.175964,544.820496 
	C242.429688,546.421204 252.128693,550.974670 261.683777,557.277588 
z"/>
<path fill="#000000" opacity="1.000000" stroke="none" 
	d="
M867.941162,532.994507 
	C876.382751,535.644897 884.321838,538.500061 890.305420,544.840576 
	C900.804871,555.966064 900.238647,569.344116 886.878235,578.512939 
	C864.968323,593.549011 841.501465,593.737854 817.812256,583.711792 
	C811.862976,581.193726 806.432739,576.276306 802.150146,571.274719 
	C796.092957,564.200439 796.935547,554.314270 805.007996,545.538635 
	C811.986145,537.952637 821.310120,534.511047 830.912964,532.093689 
	C842.628296,529.144714 854.505005,529.577698 866.291077,532.160767 
	C866.739258,532.259033 867.112549,532.698914 867.941162,532.994507 
z"/>
<path fill="#000000" opacity="1.000000" stroke="none" 
	d="
M356.998962,621.699585 
	C356.002594,610.713806 362.419708,604.242065 370.264374,599.491882 
	C384.843475,590.663757 400.726776,588.305542 417.729645,590.831299 
	C428.277252,592.398071 437.875336,595.687744 446.075409,602.136963 
	C456.894348,610.645752 460.177002,622.784912 449.151886,634.243591 
	C439.959412,643.797546 428.092285,647.206970 415.320129,649.153809 
	C402.809753,651.060791 390.884705,649.310486 379.450836,644.842285 
	C368.873596,640.708862 359.503448,634.617126 356.998962,621.699585 
z"/>
<path fill="#64FFB3" opacity="1.000000" stroke="none" 
	d="
M411.236359,440.478760 
	C410.691895,430.503632 410.540741,420.901276 413.761780,411.775757 
	C419.653015,395.085541 430.189026,382.359772 446.923370,375.616852 
	C467.172668,367.457611 486.953522,368.609924 504.992218,381.164764 
	C518.945801,390.876404 527.719238,404.171570 530.199036,421.722198 
	C532.581360,438.583862 528.459961,454.117462 522.717224,469.349152 
	C516.933655,484.689209 508.828461,498.751495 496.483856,510.111877 
	C480.970612,524.388306 461.107788,524.762268 445.369781,510.041931 
	C426.548950,492.438110 417.626373,470.031860 412.059174,445.738007 
	C411.697693,444.160645 411.624268,442.517273 411.236359,440.478760 
M423.935150,411.427032 
	C423.288208,413.069336 422.567474,414.686829 422.006287,416.357910 
	C418.540527,426.678345 419.580444,437.056396 422.045898,447.325989 
	C427.137146,468.532867 435.327393,488.255280 451.872223,503.275421 
	C464.955902,515.153381 477.171234,515.020691 490.375641,503.104065 
	C500.020721,494.399597 506.622711,483.509521 511.504913,471.743286 
	C517.704956,456.800934 523.406067,441.817719 521.281799,424.759644 
	C519.761658,412.552490 514.602539,402.518707 506.476898,394.358429 
	C496.833344,384.673767 484.759399,379.989532 470.453705,379.746246 
	C451.131897,379.417633 430.843048,393.405457 423.935150,411.427032 
z"/>
<path fill="#64FFB3" opacity="1.000000" stroke="none" 
	d="
M534.299072,411.680115 
	C529.729370,400.218140 524.402832,389.683228 514.653625,382.207947 
	C509.385071,378.168335 503.677521,374.701416 498.406677,370.664551 
	C496.909241,369.517700 496.250305,367.275970 495.206818,365.536316 
	C497.232025,365.374725 499.724792,364.363342 501.211212,365.181091 
	C518.903748,374.914642 532.595093,388.318420 538.982605,408.043152 
	C539.414429,409.376587 539.040894,410.970856 539.041931,412.443817 
	C537.538696,412.296356 536.035400,412.148895 534.299072,411.680115 
z"/>
<path fill="#65FFB3" opacity="1.000000" stroke="none" 
	d="
M623.507690,495.799164 
	C620.146057,495.977539 617.049133,496.527069 614.208008,495.906158 
	C607.184509,494.371216 605.118652,488.574463 606.109558,482.056488 
	C606.884644,476.958679 613.856018,473.338684 619.485107,474.816833 
	C623.034790,475.748901 626.791809,476.420074 629.974365,478.113312 
	C637.016785,481.860199 637.093384,488.787750 630.008362,492.959961 
	C628.103516,494.081696 625.935852,494.757294 623.507690,495.799164 
z"/>
<path fill="#5DFFB7" opacity="1.000000" stroke="none" 
	d="
M649.604492,477.113281 
	C650.738770,478.366089 651.582825,479.373749 652.477600,480.442017 
	C655.795410,478.646484 657.985840,473.310791 661.632751,477.093658 
	C662.741150,478.243347 660.359619,482.757446 658.982971,485.558319 
	C659.083618,488.260101 665.496399,489.577850 661.611328,493.420349 
	C658.002686,496.989471 656.118774,491.604523 653.426086,490.247070 
	C650.903137,491.740906 649.093689,496.834442 645.271790,493.437897 
	C641.039124,489.676392 646.949890,487.856628 647.573242,486.257080 
	C646.318787,482.518524 645.402649,479.788239 644.486450,477.057953 
	C646.095764,476.994659 647.705017,476.931366 649.604492,477.113281 
z"/>
<path fill="#63FFB5" opacity="1.000000" stroke="none" 
	d="
M626.629456,505.014221 
	C632.044434,505.002899 637.037537,504.731354 641.972656,505.147034 
	C643.717773,505.294006 646.594727,506.959900 646.749451,508.206207 
	C647.199036,511.826385 643.916748,510.929291 641.791260,510.975342 
	C637.154602,511.075867 632.508057,511.141113 627.878601,510.932190 
	C626.255920,510.858978 624.671387,509.940552 623.069397,509.408051 
	C624.107849,507.946960 625.146301,506.485840 626.629456,505.014221 
z"/>
<path fill="#000000" opacity="1.000000" stroke="none" 
	d="
M423.994476,411.036255 
	C430.843048,393.405457 451.131897,379.417633 470.453705,379.746246 
	C484.759399,379.989532 496.833344,384.673767 506.476898,394.358429 
	C514.602539,402.518707 519.761658,412.552490 521.281799,424.759644 
	C523.406067,441.817719 517.704956,456.800934 511.504913,471.743286 
	C506.622711,483.509521 500.020721,494.399597 490.375641,503.104065 
	C477.171234,515.020691 464.955902,515.153381 451.872223,503.275421 
	C435.327393,488.255280 427.137146,468.532867 422.045898,447.325989 
	C419.580444,437.056396 418.540527,426.678345 422.006287,416.357910 
	C422.567474,414.686829 423.288208,413.069336 423.994476,411.036255 
M469.126068,457.667938 
	C465.514038,453.409912 460.735138,451.147919 455.446747,449.893646 
	C448.192780,448.173218 441.366089,447.666901 435.872345,454.523987 
	C432.597046,458.612030 431.729645,463.541107 433.488831,467.330597 
	C435.297028,471.225647 439.429321,475.420013 443.404205,476.608490 
	C449.388763,478.397827 456.021729,477.098877 461.897278,474.024170 
	C469.818787,469.878845 471.761078,465.957642 469.126068,457.667938 
M474.979034,470.446564 
	C481.236450,474.874634 488.068665,476.911316 495.856659,477.189240 
	C502.750427,477.435242 507.005341,472.525269 508.790680,467.264221 
	C510.929901,460.960388 507.837738,453.818390 502.307617,450.784851 
	C495.021362,446.787964 482.253571,449.316925 475.377502,456.118988 
	C470.850830,460.596954 470.579865,464.450287 474.979034,470.446564 
z"/>
<path fill="#65FFB2" opacity="1.000000" stroke="none" 
	d="
M469.402130,457.941406 
	C471.761078,465.957642 469.818787,469.878845 461.897278,474.024170 
	C456.021729,477.098877 449.388763,478.397827 443.404205,476.608490 
	C439.429321,475.420013 435.297028,471.225647 433.488831,467.330597 
	C431.729645,463.541107 432.597046,458.612030 435.872345,454.523987 
	C441.366089,447.666901 448.192780,448.173218 455.446747,449.893646 
	C460.735138,451.147919 465.514038,453.409912 469.402130,457.941406 
z"/>
<path fill="#65FFB2" opacity="1.000000" stroke="none" 
	d="
M474.693024,470.181732 
	C470.579865,464.450287 470.850830,460.596954 475.377502,456.118988 
	C482.253571,449.316925 495.021362,446.787964 502.307617,450.784851 
	C507.837738,453.818390 510.929901,460.960388 508.790680,467.264221 
	C507.005341,472.525269 502.750427,477.435242 495.856659,477.189240 
	C488.068665,476.911316 481.236450,474.874634 474.693024,470.181732 
z"/>
</svg>