<svg version="1.1" id="Layer_1" xmlns="http://www.w3.org/2000/svg" xmlns:xlink="http://www.w3.org/1999/xlink" x="0px" y="0px"
	 width="100%" viewBox="0 0 400 400" enable-background="new 0 0 400 400" xml:space="preserve">
<path fill="#000000" opacity="1.000000" stroke="none" 
	d="
M401.000000,147.000000 
	C401.000000,232.000000 401.000000,316.500000 401.000000,401.000000 
	C267.666656,401.000000 134.333328,401.000000 1.000000,401.000000 
	C1.000000,267.666656 1.000000,134.333328 1.000000,1.000000 
	C134.333328,1.000000 267.666656,1.000000 401.000000,1.000000 
	C401.000000,49.500000 401.000000,98.000000 401.000000,147.000000 
M255.687134,9.999292 
	C248.739304,11.304133 243.595688,15.451604 238.990723,20.503574 
	C229.255539,31.183729 226.117828,43.733971 227.874496,57.886852 
	C228.559326,63.404179 229.063629,69.070953 228.578094,74.575089 
	C227.937729,81.834610 226.580383,89.080460 224.911896,96.186768 
	C222.963379,104.485794 221.663666,113.334740 217.721695,120.677757 
	C211.326126,132.591278 208.221542,144.431946 210.933960,157.752518 
	C211.648941,161.263763 212.278778,164.997009 211.850677,168.493988 
	C210.944443,175.896454 209.533386,183.261765 207.823029,190.523056 
	C207.415970,192.251175 205.026733,194.649841 203.530304,194.663483 
	C202.039001,194.677078 199.809174,192.342789 199.164978,190.577454 
	C197.734253,186.656738 196.794724,182.490891 196.197922,178.346802 
	C195.243362,171.718765 193.477661,164.869720 194.291824,158.395432 
	C195.961258,145.120102 195.158798,132.733658 187.724930,121.228783 
	C185.895081,118.396858 183.913086,115.413193 183.099548,112.219467 
	C180.146622,100.626945 177.329926,88.977226 175.136322,77.223206 
	C174.028381,71.286514 173.341293,64.922516 174.246017,59.025127 
	C176.840683,42.112114 172.308929,27.654270 159.761444,16.491564 
	C144.211823,2.658074 118.788811,6.834616 110.888748,29.353189 
	C105.669960,44.228970 107.350342,58.098537 115.696739,71.359848 
	C117.405197,74.074379 119.177612,76.960846 119.951324,80.013702 
	C122.851761,91.457932 125.514450,102.969910 127.915047,114.529442 
	C128.811523,118.846230 129.410538,123.427040 128.991745,127.776405 
	C127.787415,140.283981 127.168633,152.697403 134.063171,163.873795 
	C140.242859,173.891403 143.741959,184.674179 145.001373,196.246292 
	C145.217896,198.235794 144.944260,201.732483 143.984467,202.091217 
	C142.032120,202.820892 139.046936,202.582443 137.213211,201.506226 
	C131.072021,197.902039 125.090881,193.971756 119.337738,189.770203 
	C104.507675,178.939651 79.134964,186.616486 74.088493,205.661713 
	C70.865761,217.824219 73.128464,229.866928 78.649940,240.815063 
	C81.968575,247.395340 88.186935,252.471268 91.827843,258.940460 
	C97.768318,269.495544 102.935013,280.516937 107.888725,291.583099 
	C110.235474,296.825500 112.395569,302.552765 112.785675,308.188751 
	C113.681610,321.132721 118.012688,332.213837 126.973495,341.575317 
	C127.994858,342.642365 128.697388,344.295593 128.945282,345.777771 
	C131.028122,358.231628 135.650558,369.521515 144.380295,378.787323 
	C156.683563,391.846222 172.168259,397.749084 189.890656,397.959442 
	C204.554871,398.133484 219.226547,398.187714 233.887329,397.903534 
	C240.073242,397.783600 246.461090,397.464691 252.373886,395.840759 
	C270.897461,390.753265 285.261719,380.165161 292.019073,361.547241 
	C298.076111,344.858826 303.046844,327.776886 309.063538,311.072693 
	C312.613495,301.216888 315.967010,291.187775 323.897430,283.434814 
	C332.560913,274.965240 333.692810,264.015839 331.247314,252.847122 
	C328.008270,238.054398 311.739990,224.872070 293.986908,228.843964 
	C291.745087,229.345535 288.455383,228.491455 286.658783,227.028275 
	C281.375610,222.725540 275.763947,218.413818 271.786896,212.999405 
	C261.197571,198.582947 259.577728,187.099747 268.990112,170.101593 
	C274.391510,160.347061 278.558502,149.936020 276.718170,138.856064 
	C275.100342,129.115463 275.053772,119.837982 276.918518,110.232864 
	C279.697174,95.920235 282.249420,81.790596 288.854248,68.373016 
	C297.244324,51.328697 297.234192,34.116577 284.216797,18.521177 
	C277.935394,10.995796 264.866608,7.044024 255.687134,9.999292 
z"/>
<path fill="#66FFB2" opacity="1.000000" stroke="none" 
	d="
M256.117889,9.994781 
	C264.866608,7.044024 277.935394,10.995796 284.216797,18.521177 
	C297.234192,34.116577 297.244324,51.328697 288.854248,68.373016 
	C282.249420,81.790596 279.697174,95.920235 276.918518,110.232864 
	C275.053772,119.837982 275.100342,129.115463 276.718170,138.856064 
	C278.558502,149.936020 274.391510,160.347061 268.990112,170.101593 
	C259.577728,187.099747 261.197571,198.582947 271.786896,212.999405 
	C275.763947,218.413818 281.375610,222.725540 286.658783,227.028275 
	C288.455383,228.491455 291.745087,229.345535 293.986908,228.843964 
	C311.739990,224.872070 328.008270,238.054398 331.247314,252.847122 
	C333.692810,264.015839 332.560913,274.965240 323.897430,283.434814 
	C315.967010,291.187775 312.613495,301.216888 309.063538,311.072693 
	C303.046844,327.776886 298.076111,344.858826 292.019073,361.547241 
	C285.261719,380.165161 270.897461,390.753265 252.373886,395.840759 
	C246.461090,397.464691 240.073242,397.783600 233.887329,397.903534 
	C219.226547,398.187714 204.554871,398.133484 189.890656,397.959442 
	C172.168259,397.749084 156.683563,391.846222 144.380295,378.787323 
	C135.650558,369.521515 131.028122,358.231628 128.945282,345.777771 
	C128.697388,344.295593 127.994858,342.642365 126.973495,341.575317 
	C118.012688,332.213837 113.681610,321.132721 112.785675,308.188751 
	C112.395569,302.552765 110.235474,296.825500 107.888725,291.583099 
	C102.935013,280.516937 97.768318,269.495544 91.827843,258.940460 
	C88.186935,252.471268 81.968575,247.395340 78.649940,240.815063 
	C73.128464,229.866928 70.865761,217.824219 74.088493,205.661713 
	C79.134964,186.616486 104.507675,178.939651 119.337738,189.770203 
	C125.090881,193.971756 131.072021,197.902039 137.213211,201.506226 
	C139.046936,202.582443 142.032120,202.820892 143.984467,202.091217 
	C144.944260,201.732483 145.217896,198.235794 145.001373,196.246292 
	C143.741959,184.674179 140.242859,173.891403 134.063171,163.873795 
	C127.168633,152.697403 127.787415,140.283981 128.991745,127.776405 
	C129.410538,123.427040 128.811523,118.846230 127.915047,114.529442 
	C125.514450,102.969910 122.851761,91.457932 119.951324,80.013702 
	C119.177612,76.960846 117.405197,74.074379 115.696739,71.359848 
	C107.350342,58.098537 105.669960,44.228970 110.888748,29.353189 
	C118.788811,6.834616 144.211823,2.658074 159.761444,16.491564 
	C172.308929,27.654270 176.840683,42.112114 174.246017,59.025127 
	C173.341293,64.922516 174.028381,71.286514 175.136322,77.223206 
	C177.329926,88.977226 180.146622,100.626945 183.099548,112.219467 
	C183.913086,115.413193 185.895081,118.396858 187.724930,121.228783 
	C195.158798,132.733658 195.961258,145.120102 194.291824,158.395432 
	C193.477661,164.869720 195.243362,171.718765 196.197922,178.346802 
	C196.794724,182.490891 197.734253,186.656738 199.164978,190.577454 
	C199.809174,192.342789 202.039001,194.677078 203.530304,194.663483 
	C205.026733,194.649841 207.415970,192.251175 207.823029,190.523056 
	C209.533386,183.261765 210.944443,175.896454 211.850677,168.493988 
	C212.278778,164.997009 211.648941,161.263763 210.933960,157.752518 
	C208.221542,144.431946 211.326126,132.591278 217.721695,120.677757 
	C221.663666,113.334740 222.963379,104.485794 224.911896,96.186768 
	C226.580383,89.080460 227.937729,81.834610 228.578094,74.575089 
	C229.063629,69.070953 228.559326,63.404179 227.874496,57.886852 
	C226.117828,43.733971 229.255539,31.183729 238.990723,20.503574 
	C243.595688,15.451604 248.739304,11.304133 256.117889,9.994781 
M160.999817,51.545948 
	C160.191208,44.051395 158.446823,36.780991 153.874908,30.673273 
	C147.462738,22.107162 135.161972,18.956614 126.939217,29.545475 
	C121.322746,36.778095 121.069023,45.057262 123.764679,53.054699 
	C126.373276,60.793850 131.409622,67.742996 133.784714,75.525856 
	C137.268005,86.940269 139.661865,98.725792 141.873596,110.474861 
	C143.165817,117.339302 144.178741,124.526962 143.569992,131.414780 
	C142.670898,141.587509 142.221970,151.257843 148.483902,160.078674 
	C149.956787,162.153458 151.238678,164.518539 151.962585,166.942932 
	C154.772934,176.354813 157.848206,185.738022 159.793762,195.340790 
	C161.200027,202.281693 159.738129,209.276260 152.988434,213.363754 
	C149.104095,215.716019 144.624771,217.085754 140.602066,218.816528 
	C141.437149,225.053741 142.293793,231.451950 143.217545,238.351410 
	C150.239731,237.182007 156.843582,236.325485 163.335983,234.944885 
	C173.420486,232.800385 183.897888,232.334702 193.244202,227.036011 
	C205.029343,220.354691 217.912994,219.438446 230.005020,224.837173 
	C242.150696,230.259842 254.499496,231.748138 268.072754,232.026215 
	C264.880798,227.923706 261.957855,224.478104 259.379944,220.791260 
	C253.339828,212.152832 249.111252,203.065201 248.793457,192.011658 
	C248.433426,179.489609 252.636780,168.697311 258.419525,158.182602 
	C261.013580,153.465958 262.549164,148.626373 262.026184,143.192001 
	C261.601288,138.777176 260.907837,134.328735 261.095398,129.927689 
	C261.415985,122.406044 261.995270,114.861069 263.070007,107.413086 
	C265.292664,92.010902 267.890656,76.776253 275.499573,62.712582 
	C280.486603,53.494919 281.838806,43.516663 277.085846,33.221252 
	C272.853302,24.053137 260.414978,20.732748 253.294724,26.968678 
	C245.911560,33.434875 242.533539,41.379490 242.103561,50.720928 
	C241.862732,55.952980 242.591751,61.239193 243.015335,66.490395 
	C244.007034,78.783569 240.542404,90.545631 238.744690,102.496590 
	C237.121399,113.288124 233.930283,123.501709 228.160461,133.010391 
	C224.443039,139.136688 222.785904,146.110016 224.873947,153.606812 
	C225.869049,157.179520 226.277222,161.152802 225.883148,164.830170 
	C224.772552,175.193954 223.880386,185.681427 221.484741,195.784058 
	C217.741852,211.568085 197.514938,212.234512 190.044632,203.833237 
	C185.515945,198.740173 185.094238,192.739090 183.419952,186.902451 
	C180.354355,176.215515 178.575363,165.182205 180.286316,154.285797 
	C181.814636,144.552521 179.763809,136.335266 174.846817,128.276566 
	C172.995728,125.242699 171.094681,122.069580 170.128143,118.698532 
	C167.548264,109.700706 165.376114,100.581795 163.202087,91.472786 
	C160.131943,78.609024 157.999237,65.666550 160.999817,51.545948 
M241.275482,382.999847 
	C257.084900,381.678589 269.270416,374.067444 276.672211,360.293732 
	C280.577515,353.026489 282.145386,344.507050 284.802307,336.564240 
	C289.545746,322.383881 294.314728,308.212067 298.759338,294.971283 
	C293.709442,293.517639 288.283966,292.054077 282.923645,290.381653 
	C278.664185,289.052704 274.579803,286.989990 270.243744,286.125427 
	C265.452759,285.170166 260.455322,285.291351 255.562637,284.796692 
	C246.561325,283.886658 237.740555,282.508331 228.626801,285.463135 
	C222.701843,287.384125 216.093338,287.659943 209.775955,287.765106 
	C204.447556,287.853790 199.104752,286.194092 193.755005,286.104584 
	C186.839386,285.988892 179.910156,286.657684 172.987686,287.006775 
	C171.784195,287.067444 170.585205,287.217438 169.070282,287.354584 
	C179.259293,297.711975 183.141739,309.868835 181.912292,323.527740 
	C180.796844,335.920074 174.980499,345.790771 162.963181,350.262939 
	C157.619095,352.251740 151.422028,351.948456 145.669678,352.678223 
	C149.641815,368.114471 167.173660,382.487122 184.369415,382.898682 
	C203.010803,383.344849 221.671143,382.999817 241.275482,382.999847 
M146.774948,267.962402 
	C158.049942,273.587555 170.031326,273.367615 182.168121,272.477936 
	C188.791504,271.992432 195.461639,271.923584 202.106125,272.011627 
	C208.362808,272.094574 215.055862,274.221741 220.774002,272.632538 
	C232.388077,269.404785 243.710022,268.373962 255.654922,269.850189 
	C268.249023,271.406647 280.605469,272.221619 292.378906,278.420441 
	C304.366486,284.732025 319.256317,273.827637 317.892426,260.508820 
	C316.756622,249.417679 306.581207,239.822708 293.220490,243.814529 
	C287.354889,245.567001 281.116821,246.545105 274.997040,246.848114 
	C268.270142,247.181213 261.452972,246.633850 254.732666,245.924667 
	C245.883087,244.990784 236.873215,244.487137 228.807648,239.977478 
	C217.558304,233.687698 206.752960,235.489685 195.942566,241.438354 
	C192.204041,243.495544 188.001343,245.080307 183.818802,245.891235 
	C170.261154,248.519760 156.591492,250.567154 143.019669,253.128326 
	C139.927551,253.711838 137.222046,255.613815 139.927719,259.459015 
	C141.889374,262.246826 144.042007,264.900238 146.774948,267.962402 
M114.049339,270.322235 
	C116.931061,276.306427 120.314056,282.110382 122.549423,288.326996 
	C124.661118,294.199707 125.996284,300.443115 126.905571,306.636139 
	C128.415054,316.917114 131.470444,326.164062 139.665710,333.251923 
	C146.003174,338.733002 154.221909,339.564087 161.173096,335.006561 
	C166.033173,331.820099 170.343185,322.948944 166.393814,311.914917 
	C161.745987,298.929504 153.860123,288.289642 141.364822,281.836090 
	C133.249969,277.644928 128.205750,270.776703 125.570526,262.697876 
	C123.632812,256.757385 123.867073,249.954956 128.846024,244.631104 
	C129.216431,244.235062 129.504547,243.500351 129.425400,242.985382 
	C128.442001,236.586472 127.712135,230.123413 126.261871,223.827774 
	C124.400993,215.749619 118.840164,209.810837 113.406891,203.929596 
	C109.736320,199.956375 105.376434,198.183334 99.800858,199.593369 
	C92.968086,201.321320 87.788933,205.508926 87.289894,212.206711 
	C86.520950,222.526962 88.347664,233.136383 95.718788,240.897522 
	C103.775223,249.380249 109.496735,258.965454 114.049339,270.322235 
z"/>
<path fill="#000000" opacity="1.000000" stroke="none" 
	d="
M160.999420,51.997147 
	C157.999237,65.666550 160.131943,78.609024 163.202087,91.472786 
	C165.376114,100.581795 167.548264,109.700706 170.128143,118.698532 
	C171.094681,122.069580 172.995728,125.242699 174.846817,128.276566 
	C179.763809,136.335266 181.814636,144.552521 180.286316,154.285797 
	C178.575363,165.182205 180.354355,176.215515 183.419952,186.902451 
	C185.094238,192.739090 185.515945,198.740173 190.044632,203.833237 
	C197.514938,212.234512 217.741852,211.568085 221.484741,195.784058 
	C223.880386,185.681427 224.772552,175.193954 225.883148,164.830170 
	C226.277222,161.152802 225.869049,157.179520 224.873947,153.606812 
	C222.785904,146.110016 224.443039,139.136688 228.160461,133.010391 
	C233.930283,123.501709 237.121399,113.288124 238.744690,102.496590 
	C240.542404,90.545631 244.007034,78.783569 243.015335,66.490395 
	C242.591751,61.239193 241.862732,55.952980 242.103561,50.720928 
	C242.533539,41.379490 245.911560,33.434875 253.294724,26.968678 
	C260.414978,20.732748 272.853302,24.053137 277.085846,33.221252 
	C281.838806,43.516663 280.486603,53.494919 275.499573,62.712582 
	C267.890656,76.776253 265.292664,92.010902 263.070007,107.413086 
	C261.995270,114.861069 261.415985,122.406044 261.095398,129.927689 
	C260.907837,134.328735 261.601288,138.777176 262.026184,143.192001 
	C262.549164,148.626373 261.013580,153.465958 258.419525,158.182602 
	C252.636780,168.697311 248.433426,179.489609 248.793457,192.011658 
	C249.111252,203.065201 253.339828,212.152832 259.379944,220.791260 
	C261.957855,224.478104 264.880798,227.923706 268.072754,232.026215 
	C254.499496,231.748138 242.150696,230.259842 230.005020,224.837173 
	C217.912994,219.438446 205.029343,220.354691 193.244202,227.036011 
	C183.897888,232.334702 173.420486,232.800385 163.335983,234.944885 
	C156.843582,236.325485 150.239731,237.182007 143.217545,238.351410 
	C142.293793,231.451950 141.437149,225.053741 140.602066,218.816528 
	C144.624771,217.085754 149.104095,215.716019 152.988434,213.363754 
	C159.738129,209.276260 161.200027,202.281693 159.793762,195.340790 
	C157.848206,185.738022 154.772934,176.354813 151.962585,166.942932 
	C151.238678,164.518539 149.956787,162.153458 148.483902,160.078674 
	C142.221970,151.257843 142.670898,141.587509 143.569992,131.414780 
	C144.178741,124.526962 143.165817,117.339302 141.873596,110.474861 
	C139.661865,98.725792 137.268005,86.940269 133.784714,75.525856 
	C131.409622,67.742996 126.373276,60.793850 123.764679,53.054699 
	C121.069023,45.057262 121.322746,36.778095 126.939217,29.545475 
	C135.161972,18.956614 147.462738,22.107162 153.874908,30.673273 
	C158.446823,36.780991 160.191208,44.051395 160.999420,51.997147 
z"/>
<path fill="#000000" opacity="1.000000" stroke="none" 
	d="
M240.799347,382.999817 
	C221.671143,382.999817 203.010803,383.344849 184.369415,382.898682 
	C167.173660,382.487122 149.641815,368.114471 145.669678,352.678223 
	C151.422028,351.948456 157.619095,352.251740 162.963181,350.262939 
	C174.980499,345.790771 180.796844,335.920074 181.912292,323.527740 
	C183.141739,309.868835 179.259293,297.711975 169.070282,287.354584 
	C170.585205,287.217438 171.784195,287.067444 172.987686,287.006775 
	C179.910156,286.657684 186.839386,285.988892 193.755005,286.104584 
	C199.104752,286.194092 204.447556,287.853790 209.775955,287.765106 
	C216.093338,287.659943 222.701843,287.384125 228.626801,285.463135 
	C237.740555,282.508331 246.561325,283.886658 255.562637,284.796692 
	C260.455322,285.291351 265.452759,285.170166 270.243744,286.125427 
	C274.579803,286.989990 278.664185,289.052704 282.923645,290.381653 
	C288.283966,292.054077 293.709442,293.517639 298.759338,294.971283 
	C294.314728,308.212067 289.545746,322.383881 284.802307,336.564240 
	C282.145386,344.507050 280.577515,353.026489 276.672211,360.293732 
	C269.270416,374.067444 257.084900,381.678589 240.799347,382.999817 
z"/>
<path fill="#000000" opacity="1.000000" stroke="none" 
	d="
M146.442230,267.787994 
	C144.042007,264.900238 141.889374,262.246826 139.927719,259.459015 
	C137.222046,255.613815 139.927551,253.711838 143.019669,253.128326 
	C156.591492,250.567154 170.261154,248.519760 183.818802,245.891235 
	C188.001343,245.080307 192.204041,243.495544 195.942566,241.438354 
	C206.752960,235.489685 217.558304,233.687698 228.807648,239.977478 
	C236.873215,244.487137 245.883087,244.990784 254.732666,245.924667 
	C261.452972,246.633850 268.270142,247.181213 274.997040,246.848114 
	C281.116821,246.545105 287.354889,245.567001 293.220490,243.814529 
	C306.581207,239.822708 316.756622,249.417679 317.892426,260.508820 
	C319.256317,273.827637 304.366486,284.732025 292.378906,278.420441 
	C280.605469,272.221619 268.249023,271.406647 255.654922,269.850189 
	C243.710022,268.373962 232.388077,269.404785 220.774002,272.632538 
	C215.055862,274.221741 208.362808,272.094574 202.106125,272.011627 
	C195.461639,271.923584 188.791504,271.992432 182.168121,272.477936 
	C170.031326,273.367615 158.049942,273.587555 146.442230,267.787994 
z"/>
<path fill="#000000" opacity="1.000000" stroke="none" 
	d="
M113.993103,269.938019 
	C109.496735,258.965454 103.775223,249.380249 95.718788,240.897522 
	C88.347664,233.136383 86.520950,222.526962 87.289894,212.206711 
	C87.788933,205.508926 92.968086,201.321320 99.800858,199.593369 
	C105.376434,198.183334 109.736320,199.956375 113.406891,203.929596 
	C118.840164,209.810837 124.400993,215.749619 126.261871,223.827774 
	C127.712135,230.123413 128.442001,236.586472 129.425400,242.985382 
	C129.504547,243.500351 129.216431,244.235062 128.846024,244.631104 
	C123.867073,249.954956 123.632812,256.757385 125.570526,262.697876 
	C128.205750,270.776703 133.249969,277.644928 141.364822,281.836090 
	C153.860123,288.289642 161.745987,298.929504 166.393814,311.914917 
	C170.343185,322.948944 166.033173,331.820099 161.173096,335.006561 
	C154.221909,339.564087 146.003174,338.733002 139.665710,333.251923 
	C131.470444,326.164062 128.415054,316.917114 126.905571,306.636139 
	C125.996284,300.443115 124.661118,294.199707 122.549423,288.326996 
	C120.314056,282.110382 116.931061,276.306427 113.993103,269.938019 
z"/>
</svg>