<svg version="1.1" id="Layer_1" xmlns="http://www.w3.org/2000/svg" xmlns:xlink="http://www.w3.org/1999/xlink" x="0px" y="0px"
	 width="100%" viewBox="0 0 200 200" enable-background="new 0 0 200 200" xml:space="preserve">
<path fill="#000000" opacity="1.000000" stroke="none" 
	d="
M113.000000,201.000000 
	C75.356575,201.000000 38.213150,201.000000 1.034861,201.000000 
	C1.034861,134.398285 1.034861,67.796532 1.034861,1.097392 
	C67.559921,1.097392 134.120041,1.097392 200.840073,1.097392 
	C200.840073,67.666359 200.840073,134.333145 200.840073,201.000000 
	C171.796814,201.000000 142.648407,201.000000 113.000000,201.000000 
M138.286728,145.987503 
	C142.473419,145.308167 146.640457,144.315445 150.853195,144.051147 
	C154.080002,143.848679 157.604843,143.916046 160.572067,145.013092 
	C166.308426,147.133957 172.722641,146.370911 175.214920,140.894409 
	C177.399506,136.094025 181.114380,134.476669 185.058655,132.441467 
	C186.643051,131.623932 188.209274,130.732040 189.658951,129.698853 
	C199.127762,122.950409 201.317734,113.714783 194.601639,105.537857 
	C191.699142,102.004028 187.430115,99.214027 183.251266,97.171906 
	C164.020660,87.774246 143.168228,84.201538 122.160149,83.245895 
	C94.180511,81.973106 66.095650,82.187363 38.761665,90.021027 
	C29.042780,92.806351 19.549768,96.113701 11.298682,102.272163 
	C3.993749,107.724434 2.295180,119.367043 8.541515,125.795296 
	C11.427650,128.765488 15.258588,131.007294 18.995302,132.929901 
	C40.107128,143.792358 63.167034,146.817169 86.339012,147.737595 
	C103.303368,148.411423 120.363838,146.665588 138.286728,145.987503 
M138.542114,151.089645 
	C137.669586,150.728989 136.730896,149.963028 135.938354,150.092392 
	C134.309128,150.358322 131.998215,150.669174 131.372620,151.764145 
	C130.637314,153.051117 130.768524,155.708527 131.682739,156.808716 
	C132.543381,157.844421 134.992676,158.125229 136.599609,157.862091 
	C140.351685,157.247742 138.618423,154.066437 138.542114,151.089645 
M159.651245,79.104492 
	C158.790512,80.407600 157.929779,81.710709 157.069061,83.013824 
	C158.472015,83.808624 159.874985,84.603424 161.277939,85.398224 
	C161.671814,84.969292 162.065674,84.540352 162.459549,84.111412 
	C161.790421,82.448349 161.121292,80.785286 159.651245,79.104492 
M85.911530,153.298981 
	C86.200554,150.081558 84.113152,149.589691 81.812012,150.218689 
	C81.019073,150.435440 80.652542,152.212082 80.091225,153.276169 
	C81.885582,153.509583 83.679939,153.743011 85.911530,153.298981 
z"/>
<path fill="#FF0054" opacity="1.000000" stroke="none" 
	d="
M137.834106,145.992859 
	C120.363838,146.665588 103.303368,148.411423 86.339012,147.737595 
	C63.167034,146.817169 40.107128,143.792358 18.995302,132.929901 
	C15.258588,131.007294 11.427650,128.765488 8.541515,125.795296 
	C2.295180,119.367043 3.993749,107.724434 11.298682,102.272163 
	C19.549768,96.113701 29.042780,92.806351 38.761665,90.021027 
	C66.095650,82.187363 94.180511,81.973106 122.160149,83.245895 
	C143.168228,84.201538 164.020660,87.774246 183.251266,97.171906 
	C187.430115,99.214027 191.699142,102.004028 194.601639,105.537857 
	C201.317734,113.714783 199.127762,122.950409 189.658951,129.698853 
	C188.209274,130.732040 186.643051,131.623932 185.058655,132.441467 
	C181.114380,134.476669 177.399506,136.094025 175.214920,140.894409 
	C172.722641,146.370911 166.308426,147.133957 160.572067,145.013092 
	C157.604843,143.916046 154.080002,143.848679 150.853195,144.051147 
	C146.640457,144.315445 142.473419,145.308167 137.834106,145.992859 
M155.261154,131.292557 
	C160.647232,120.993187 170.058350,121.250343 177.014923,132.149933 
	C180.830933,130.047440 185.023071,128.386307 188.432526,125.723175 
	C195.371689,120.302971 198.318359,113.938667 190.190643,106.965660 
	C185.446899,102.895859 179.772369,99.411316 173.933762,97.207741 
	C153.548019,89.513824 132.065720,87.154053 110.483582,86.123802 
	C101.756020,85.707176 92.906113,86.152588 84.212334,87.114067 
	C69.939888,88.692520 55.567493,90.188629 41.581799,93.278847 
	C30.373142,95.755470 19.149010,99.468445 10.914895,108.577774 
	C6.823411,113.104156 6.923186,117.951050 11.016585,122.561722 
	C17.533388,129.902039 26.443249,133.018448 35.235733,135.835510 
	C57.620647,143.007446 80.900963,144.317307 104.199120,144.930450 
	C109.451782,145.068695 114.750084,144.536926 119.987572,143.955170 
	C129.412231,142.908325 138.778702,141.179947 148.224045,140.533691 
	C154.258255,140.120834 155.824722,137.377945 155.261154,131.292557 
z"/>
<path fill="#FF0055" opacity="1.000000" stroke="none" 
	d="
M138.733124,151.472687 
	C138.618423,154.066437 140.351685,157.247742 136.599609,157.862091 
	C134.992676,158.125229 132.543381,157.844421 131.682739,156.808716 
	C130.768524,155.708527 130.637314,153.051117 131.372620,151.764145 
	C131.998215,150.669174 134.309128,150.358322 135.938354,150.092392 
	C136.730896,149.963028 137.669586,150.728989 138.733124,151.472687 
z"/>
<path fill="#FF0055" opacity="1.000000" stroke="none" 
	d="
M160.051697,79.113358 
	C161.121292,80.785286 161.790421,82.448349 162.459549,84.111412 
	C162.065674,84.540352 161.671814,84.969292 161.277939,85.398224 
	C159.874985,84.603424 158.472015,83.808624 157.069061,83.013824 
	C157.929779,81.710709 158.790512,80.407600 160.051697,79.113358 
z"/>
<path fill="#FF0054" opacity="1.000000" stroke="none" 
	d="
M85.692917,153.637711 
	C83.679939,153.743011 81.885582,153.509583 80.091217,153.276154 
	C80.652542,152.212082 81.019073,150.435440 81.812012,150.218689 
	C84.113152,149.589691 86.200554,150.081558 85.692917,153.637711 
z"/>
<path fill="#000000" opacity="1.000000" stroke="none" 
	d="
M155.153534,131.694275 
	C155.824722,137.377945 154.258255,140.120834 148.224045,140.533691 
	C138.778702,141.179947 129.412231,142.908325 119.987572,143.955170 
	C114.750084,144.536926 109.451782,145.068695 104.199120,144.930450 
	C80.900963,144.317307 57.620647,143.007446 35.235733,135.835510 
	C26.443249,133.018448 17.533388,129.902039 11.016585,122.561722 
	C6.923186,117.951050 6.823411,113.104156 10.914895,108.577774 
	C19.149010,99.468445 30.373142,95.755470 41.581799,93.278847 
	C55.567493,90.188629 69.939888,88.692520 84.212334,87.114067 
	C92.906113,86.152588 101.756020,85.707176 110.483582,86.123802 
	C132.065720,87.154053 153.548019,89.513824 173.933762,97.207741 
	C179.772369,99.411316 185.446899,102.895859 190.190643,106.965660 
	C198.318359,113.938667 195.371689,120.302971 188.432526,125.723175 
	C185.023071,128.386307 180.830933,130.047440 177.014923,132.149933 
	C170.058350,121.250343 160.647232,120.993187 155.153534,131.694275 
M91.584557,91.999634 
	C81.978401,93.029259 72.196022,93.260681 62.819576,95.330765 
	C54.724499,97.117958 46.886932,100.564461 39.339378,104.131851 
	C35.536598,105.929245 32.397007,109.405731 29.442934,112.575356 
	C28.387613,113.707680 28.058992,116.461540 28.671631,117.952042 
	C29.353378,119.610664 31.279797,121.228920 33.030495,121.879448 
	C36.744476,123.259483 40.898239,123.529892 44.514923,125.084984 
	C59.512974,131.533783 75.438705,133.750458 91.392120,133.718887 
	C106.421738,133.689148 121.537895,131.935547 136.437668,129.733673 
	C144.658447,128.518829 152.884995,125.656517 159.176529,119.341843 
	C162.392792,116.113754 163.492218,112.092171 160.695312,108.729492 
	C157.437500,104.812660 153.003189,101.874359 148.683487,98.172089 
	C148.666183,98.377907 148.754272,97.330086 148.847702,96.218674 
	C146.536697,96.850494 144.308975,98.284515 142.706360,97.770317 
	C126.347702,92.521637 109.503212,91.935913 91.584557,91.999634 
z"/>
<path fill="#FF0054" opacity="1.000000" stroke="none" 
	d="
M92.074341,91.999664 
	C109.503212,91.935913 126.347702,92.521637 142.706360,97.770317 
	C144.308975,98.284515 146.536697,96.850494 148.847702,96.218674 
	C148.754272,97.330086 148.666183,98.377907 148.683487,98.172089 
	C153.003189,101.874359 157.437500,104.812660 160.695312,108.729492 
	C163.492218,112.092171 162.392792,116.113754 159.176529,119.341843 
	C152.884995,125.656517 144.658447,128.518829 136.437668,129.733673 
	C121.537895,131.935547 106.421738,133.689148 91.392120,133.718887 
	C75.438705,133.750458 59.512974,131.533783 44.514923,125.084984 
	C40.898239,123.529892 36.744476,123.259483 33.030495,121.879448 
	C31.279797,121.228920 29.353378,119.610664 28.671631,117.952042 
	C28.058992,116.461540 28.387613,113.707680 29.442934,112.575356 
	C32.397007,109.405731 35.536598,105.929245 39.339378,104.131851 
	C46.886932,100.564461 54.724499,97.117958 62.819576,95.330765 
	C72.196022,93.260681 81.978401,93.029259 92.074341,91.999664 
M41.404751,118.925446 
	C53.928772,127.031044 68.285469,128.961258 82.554893,129.766815 
	C95.912895,130.520935 109.420914,129.858383 122.787209,128.832733 
	C133.493195,128.011230 144.025940,125.383926 153.437820,119.790337 
	C160.387222,115.660233 160.301544,111.417290 153.575287,106.905037 
	C141.428024,98.756157 127.328178,97.059044 113.455696,96.251793 
	C96.356468,95.256767 79.056183,94.959793 62.169533,99.062820 
	C53.351994,101.205261 44.278824,103.128014 38.245121,110.323784 
	C39.220280,113.282867 40.054173,115.813271 41.404751,118.925446 
z"/>
<path fill="#000000" opacity="1.000000" stroke="none" 
	d="
M41.146408,118.634567 
	C40.054173,115.813271 39.220280,113.282867 38.245121,110.323784 
	C44.278824,103.128014 53.351994,101.205261 62.169533,99.062820 
	C79.056183,94.959793 96.356468,95.256767 113.455696,96.251793 
	C127.328178,97.059044 141.428024,98.756157 153.575287,106.905037 
	C160.301544,111.417290 160.387222,115.660233 153.437820,119.790337 
	C144.025940,125.383926 133.493195,128.011230 122.787209,128.832733 
	C109.420914,129.858383 95.912895,130.520935 82.554893,129.766815 
	C68.285469,128.961258 53.928772,127.031044 41.146408,118.634567 
M125.004692,113.587677 
	C122.166153,111.731873 119.548576,109.244026 116.441048,108.157661 
	C110.748123,106.167458 104.497429,106.552551 98.971489,102.949745 
	C96.714142,101.478004 92.217758,103.017822 88.870422,103.768822 
	C85.979141,104.417496 83.328041,106.068459 80.470879,106.954079 
	C76.622749,108.146873 72.559410,108.726395 68.831985,110.189552 
	C67.238983,110.814865 65.146873,113.108459 65.271347,114.460869 
	C65.445740,116.355751 67.131340,119.183067 68.771866,119.698906 
	C80.055779,123.247002 91.572319,125.024551 103.504601,123.324432 
	C109.677567,122.444893 115.976631,122.477272 122.205841,121.946388 
	C123.721718,121.817192 126.471832,121.052856 126.459587,120.646751 
	C126.396172,118.543930 125.620796,116.462585 125.004692,113.587677 
z"/>
<path fill="#FF0055" opacity="1.000000" stroke="none" 
	d="
M125.049149,113.980713 
	C125.620796,116.462585 126.396172,118.543930 126.459587,120.646751 
	C126.471832,121.052856 123.721718,121.817192 122.205841,121.946388 
	C115.976631,122.477272 109.677567,122.444893 103.504601,123.324432 
	C91.572319,125.024551 80.055779,123.247002 68.771866,119.698906 
	C67.131340,119.183067 65.445740,116.355751 65.271347,114.460869 
	C65.146873,113.108459 67.238983,110.814865 68.831985,110.189552 
	C72.559410,108.726395 76.622749,108.146873 80.470879,106.954079 
	C83.328041,106.068459 85.979141,104.417496 88.870422,103.768822 
	C92.217758,103.017822 96.714142,101.478004 98.971489,102.949745 
	C104.497429,106.552551 110.748123,106.167458 116.441048,108.157661 
	C119.548576,109.244026 122.166153,111.731873 125.049149,113.980713 
M86.302025,117.783142 
	C85.673805,115.311958 85.045586,112.840775 84.176201,109.420929 
	C78.877197,110.866875 73.525146,112.327293 68.173096,113.787712 
	C68.167297,114.556503 68.161499,115.325302 68.155701,116.094101 
	C74.502251,117.337189 80.848793,118.580284 87.195335,119.823372 
	C87.083862,119.324448 86.972382,118.825516 86.302025,117.783142 
M115.475273,111.884949 
	C112.116180,111.116592 108.757088,110.348228 106.018471,109.721802 
	C104.754646,113.827507 103.826958,116.841217 102.863831,119.970078 
	C108.600746,118.067085 115.714722,119.913483 121.028488,113.901855 
	C119.225258,113.177399 117.746086,112.583130 115.475273,111.884949 
z"/>
<path fill="#000000" opacity="1.000000" stroke="none" 
	d="
M86.581467,118.054863 
	C86.972382,118.825516 87.083862,119.324448 87.195343,119.823372 
	C80.848793,118.580284 74.502251,117.337189 68.155701,116.094101 
	C68.161499,115.325302 68.167297,114.556503 68.173096,113.787712 
	C73.525146,112.327293 78.877197,110.866875 84.176201,109.420929 
	C85.045586,112.840775 85.673805,115.311958 86.581467,118.054863 
z"/>
<path fill="#000000" opacity="1.000000" stroke="none" 
	d="
M115.871094,111.936905 
	C117.746086,112.583130 119.225258,113.177399 121.028488,113.901855 
	C115.714722,119.913483 108.600746,118.067085 102.863831,119.970078 
	C103.826958,116.841217 104.754646,113.827507 106.018471,109.721802 
	C108.757088,110.348228 112.116180,111.116592 115.871094,111.936905 
z"/>
</svg>