<svg version="1.1" id="Layer_1" xmlns="http://www.w3.org/2000/svg" xmlns:xlink="http://www.w3.org/1999/xlink" x="0px" y="0px"
	 width="100%" viewBox="0 0 400 400" enable-background="new 0 0 400 400" xml:space="preserve">
<path fill="#000000" opacity="1.000000" stroke="none" 
	d="
	M0.999999,181.000000 
	C1.000000,121.064064 1.000000,61.128132 1.000000,1.000000 
	C77.354118,1.000000 153.708405,1.000000 230.853638,1.294755 
	C230.837646,2.923188 230.030685,4.256866 229.223724,5.590544 
	C231.011368,6.170370 232.799011,6.750195 235.424606,7.601812 
	C234.769669,4.566741 234.384827,2.783371 234.000000,1.000000 
	C289.635437,1.000000 345.270844,1.000000 400.953125,1.000000 
	C400.953125,134.227249 400.953125,267.454529 400.953125,401.000000 
	C330.312744,401.000000 259.625031,401.000000 188.474060,400.589111 
	C187.224228,398.508270 186.437668,396.838348 185.651093,395.168396 
	C184.615173,395.777802 183.022476,396.172363 182.683609,397.050690 
	C182.255188,398.161133 182.847778,399.665527 183.000000,401.000000 
	C122.400574,401.000000 61.801155,401.000000 1.000000,401.000000 
	C1.000000,330.312561 1.000000,259.624939 1.276326,188.129013 
	C3.733875,186.681229 5.915096,186.041748 8.150813,185.386292 
	C6.989171,183.032272 6.290644,181.616745 5.598380,180.213913 
	C4.028719,180.482239 2.514359,180.741119 0.999999,181.000000 
	M185.021271,257.326141 
	C185.276733,258.976837 185.352509,260.691040 185.899612,262.238647 
	C186.059036,262.689667 188.157333,263.067780 188.347031,262.787933 
	C189.107620,261.665955 190.232681,259.539673 189.829803,259.119049 
	C188.698273,257.937592 186.876083,257.417664 184.755722,256.259857 
	C181.899765,253.016129 179.043823,249.772385 176.187881,246.528656 
	C175.863449,246.831100 175.539001,247.133560 175.214569,247.436005 
	C176.208878,249.162170 176.856140,251.291046 178.280319,252.518387 
	C180.322327,254.278183 181.412338,258.170135 185.021271,257.326141 
	M216.671097,179.160156 
	C212.480164,178.773544 208.288986,178.389496 204.098434,177.998734 
	C202.830292,177.880478 200.777023,178.182770 200.421463,177.545685 
	C197.641205,172.563766 196.368317,176.546097 194.950821,177.566879 
	C192.181808,176.044617 189.380356,174.577347 186.660049,172.972519 
	C185.599808,172.347015 183.971298,171.475266 183.897797,170.606079 
	C183.644226,167.607910 182.182800,166.926971 179.461487,166.935211 
	C175.635376,166.946793 174.127991,169.628937 174.263077,172.384262 
	C174.352402,174.205978 176.538361,176.478043 178.367599,177.429016 
	C179.288834,177.907928 181.505875,175.894257 183.367783,174.882248 
	C186.643204,175.822266 190.751175,177.001205 195.000534,178.829254 
	C195.692200,179.380051 196.358612,180.369919 197.079590,180.411423 
	C202.343307,180.714401 207.618439,180.944580 212.888947,180.924957 
	C214.392303,180.919373 215.892288,180.013992 217.130569,180.239151 
	C223.456833,187.237061 229.783081,194.234985 236.109344,201.232910 
	C236.531281,200.905167 236.953232,200.577423 237.375168,200.249695 
	C235.383530,197.465820 233.441833,194.644485 231.387939,191.907333 
	C228.657669,188.268784 225.171295,185.018677 223.235657,181.009781 
	C221.011673,176.403656 221.009262,175.977600 216.671097,179.160156 
	M257.470947,168.999725 
	C257.633087,169.039139 257.795197,169.078537 258.008759,169.871201 
	C258.699860,175.205566 265.346649,179.257629 261.304626,185.440369 
	C262.307587,186.037415 263.177734,186.555389 263.254700,187.027420 
	C259.982758,191.094208 257.642944,203.063751 260.331299,206.629044 
	C261.618683,199.533722 262.762024,193.232254 264.555878,186.990875 
	C265.328125,186.676544 266.100372,186.362198 267.054840,186.553925 
	C267.363495,186.648468 267.672119,186.743011 268.647156,187.131653 
	C269.974396,187.456604 272.056183,188.448730 272.477295,187.972458 
	C273.460175,186.860886 273.644928,185.043564 274.579803,182.225342 
	C276.150726,182.225342 280.112030,181.101166 281.275177,182.428680 
	C285.339630,187.067459 287.463257,184.349045 290.007019,181.311905 
	C288.968262,179.800018 287.999908,178.390640 287.053802,177.013626 
	C284.591797,178.044678 282.337738,179.399353 279.908722,179.893188 
	C277.355530,180.412292 274.634766,180.107422 271.287201,180.010681 
	C270.487274,180.325546 269.687317,180.640396 268.119049,180.977386 
	C264.443451,179.208267 263.306366,175.595352 261.652832,172.295532 
	C260.689667,170.373489 259.267365,168.681534 258.040283,166.456467 
	C258.040283,166.456467 258.126221,166.035599 258.879944,165.990845 
	C258.928192,164.984177 259.431549,163.531357 258.951935,163.042099 
	C255.427277,159.446381 257.499969,155.057343 257.017426,151.055756 
	C256.898834,150.072235 256.824036,149.024338 257.030792,148.071487 
	C257.739471,144.805359 258.582214,141.568344 259.373871,138.320221 
	C259.853149,138.426682 260.332428,138.533142 260.811707,138.639587 
	C259.819824,137.179520 258.827972,135.719437 257.895447,134.346756 
	C254.257828,135.006454 253.086212,137.529770 253.340210,140.643219 
	C253.518997,142.834625 255.016510,145.002502 254.890106,147.119080 
	C254.498779,153.671509 253.612289,160.194382 252.916199,166.746109 
	C253.950836,167.276016 255.474289,168.056290 257.470947,168.999725 
	M319.004059,225.710068 
	C319.931366,227.476303 320.858673,229.242538 321.673615,230.794815 
	C323.512543,230.794815 325.121216,230.794815 326.645660,230.794815 
	C327.149994,228.584244 327.602295,226.601822 328.035614,224.702423 
	C326.310852,223.868134 324.815887,223.145004 323.613312,222.563293 
	C321.947327,223.446289 320.416656,224.257553 318.968506,224.264374 
	C316.236847,222.056213 314.793060,217.983154 310.193481,218.291779 
	C310.058105,219.401749 309.921021,220.526093 309.816071,221.386703 
	C308.466309,221.303467 307.279541,221.230270 305.340210,221.110672 
	C305.981354,225.425446 306.545135,229.219528 307.108917,233.013596 
	C307.733002,232.531906 308.357056,232.050201 308.981140,231.568497 
	C310.885590,232.155930 312.790009,232.743378 314.438141,233.251740 
	C315.897186,230.605728 317.463379,227.765305 319.004059,225.710068 
	M168.308258,233.179199 
	C166.876770,234.959381 164.293533,236.722153 164.266342,238.523529 
	C164.217697,241.744385 165.709930,244.988480 166.591522,248.350693 
	C170.992920,246.638870 174.336670,245.338379 177.354263,244.164764 
	C176.276718,239.956467 175.278259,236.057053 174.279816,232.157623 
	C173.935989,232.674545 173.592178,233.191483 173.248367,233.708405 
	C171.807907,233.454453 170.367447,233.200516 169.759277,232.984070 
	C173.993896,227.320221 171.289047,221.130280 171.300827,215.138367 
	C167.703979,220.805267 169.425766,227.063644 168.308258,233.179199 
	M280.989868,230.863190 
	C281.630920,231.988983 282.271973,233.114777 282.861176,234.149536 
	C279.910492,237.555222 276.697327,240.776031 277.830017,245.973755 
	C279.919067,243.385391 281.241760,240.369034 283.054047,237.683014 
	C284.686615,235.263306 286.452667,232.161163 288.879425,231.224625 
	C292.860779,229.688110 297.437866,229.731827 301.731567,228.935806 
	C302.551392,228.783813 303.222656,227.830429 303.962463,227.246765 
	C303.060486,226.837875 302.093201,225.978607 301.267914,226.098312 
	C297.759369,226.607269 294.287964,227.382492 290.812469,228.106232 
	C287.448822,228.806702 284.096802,229.563141 280.981445,229.489334 
	C280.226715,225.205475 275.925720,225.365860 273.320160,224.360062 
	C266.237579,221.626053 262.563904,217.026871 261.672516,209.644272 
	C261.553680,208.660110 259.726196,207.388947 258.500610,207.122772 
	C254.572998,206.269821 250.512894,206.025726 246.586670,205.167969 
	C242.817368,204.344513 239.151230,203.048904 234.652008,201.729828 
	C237.205780,208.898209 239.473923,215.264862 241.742081,221.631516 
	C241.192123,221.580093 240.642166,221.528671 240.092209,221.477249 
	C239.648117,223.725723 238.761002,226.017715 238.975571,228.201462 
	C239.062729,229.088577 241.546616,229.740189 243.717941,230.922607 
	C246.205780,238.163773 249.135300,246.761063 252.187454,255.314606 
	C252.308792,255.654617 253.596268,255.578522 253.982986,256.422058 
	C253.503433,257.293396 252.388672,258.605743 252.640884,258.969025 
	C255.743622,263.438019 255.882828,268.075806 254.050705,273.018311 
	C253.754761,273.816711 254.099243,274.852478 254.146255,275.751038 
	C255.968994,275.751038 257.380219,275.751038 259.474457,275.751038 
	C258.890106,273.723480 258.257141,272.125122 257.988983,270.467743 
	C257.486755,267.363770 256.102631,263.833527 257.052094,261.185913 
	C258.849945,256.172516 259.427307,256.379578 254.013931,255.038345 
	C251.918304,248.130142 250.100296,241.121490 247.647583,234.342484 
	C245.277435,227.791687 245.191940,227.539825 251.941727,225.987411 
	C255.032089,225.276627 258.090454,224.426651 261.163361,223.639786 
	C261.008728,222.992004 260.854095,222.344238 260.699463,221.696457 
	C256.266907,222.586731 251.834366,223.477005 247.226135,224.402573 
	C245.714996,222.034027 243.580368,219.497208 242.370789,216.577194 
	C241.014709,213.303543 240.495499,209.683243 239.514984,205.832108 
	C246.309418,208.064224 252.904892,210.230988 259.931946,212.539536 
	C260.560364,215.252594 261.142120,218.423950 262.088531,221.482513 
	C262.407562,222.513672 263.490234,223.666245 264.500061,224.066254 
	C269.916504,226.211868 275.420044,228.137451 280.989868,230.863190 
	M294.004120,349.347290 
	C294.534088,350.602112 295.064087,351.856934 296.046051,354.181885 
	C299.116547,348.351807 302.541016,344.679047 309.077576,349.553894 
	C308.212769,343.463623 302.222412,339.248413 305.953400,333.970642 
	C302.624634,333.016541 299.784973,332.474579 297.176422,331.381317 
	C294.358063,330.200012 291.755646,328.503510 288.515381,326.735046 
	C288.821381,332.532837 292.641876,336.980682 287.501190,340.124756 
	C289.814758,343.122559 291.907318,345.834015 294.004120,349.347290 
	M276.972565,262.460052 
	C271.796722,261.243469 266.620880,260.026855 260.546478,258.599060 
	C267.474396,256.096222 273.586212,253.888214 279.557190,251.731094 
	C279.215790,250.031998 278.916443,248.542191 278.232697,245.139389 
	C275.842224,247.509323 274.431763,248.918335 273.008148,250.313919 
	C272.420380,250.890121 271.897919,251.664658 271.184875,251.958481 
	C268.209625,253.184357 265.088593,254.087494 262.205109,255.488068 
	C261.193573,255.979370 260.114807,257.580383 260.153137,258.635193 
	C260.191681,259.696167 261.393890,261.314484 262.413940,261.630432 
	C265.794434,262.677521 269.493774,262.814789 272.753540,264.103577 
	C277.479950,265.972198 284.179474,263.231323 286.649567,270.018555 
	C289.358185,269.238220 292.016510,267.592072 294.327637,267.985474 
	C299.514587,268.868408 304.516663,270.810089 309.627960,272.195526 
	C310.338867,272.388245 311.477051,272.119385 311.998077,271.623535 
	C312.693298,270.961884 313.453125,269.779388 313.303589,268.986938 
	C313.158417,268.217529 311.958252,267.192200 311.119202,267.085907 
	C307.076111,266.573792 302.928131,266.683685 298.956360,265.883179 
	C295.985199,265.284363 291.367798,266.546234 291.632568,260.965302 
	C289.620422,261.611145 287.995270,262.132782 287.303009,262.354950 
	C284.437012,258.875183 281.837921,255.719482 279.238831,252.563782 
	C278.718506,252.961304 278.198181,253.358841 277.677826,253.756363 
	C280.125488,257.271057 282.573151,260.785736 285.030884,264.314911 
	C282.299530,263.805206 279.981201,263.372589 276.972565,262.460052 
	M70.491371,300.083221 
	C69.907616,300.313568 68.983604,300.385986 68.792213,300.798401 
	C66.644188,305.427155 63.673306,306.460999 58.951931,302.118622 
	C60.039455,308.378052 60.945522,313.593048 61.616703,317.456146 
	C64.452888,318.598175 66.722664,319.485016 68.970428,320.424500 
	C71.449524,321.460663 73.908424,322.545135 77.553207,324.115845 
	C76.596672,319.586639 76.011414,316.815430 75.437820,314.099457 
	C76.761879,313.068695 77.981056,312.119598 78.065384,312.053955 
	C75.462593,307.898071 73.207542,304.297394 70.491371,300.083221 
	M348.468597,390.033966 
	C348.827606,390.648926 349.290894,391.837708 349.530182,391.794189 
	C354.415558,390.905975 357.499481,393.743866 360.596100,396.793152 
	C361.296753,397.483093 362.575623,397.585846 364.009094,398.113922 
	C364.009094,394.564178 364.009094,391.460297 364.009094,389.592133 
	C366.861877,387.566620 368.922913,386.103241 370.983948,384.639862 
	C368.550140,383.735962 366.116302,382.832062 363.046478,381.691925 
	C363.046478,380.309113 363.046478,377.865936 363.046478,375.422729 
	C362.671387,375.112946 362.296295,374.803162 361.921234,374.493408 
	C360.647888,375.592773 358.521423,376.529205 358.274048,377.824554 
	C357.712524,380.764648 356.097656,381.024078 353.721954,381.045685 
	C351.470642,381.066162 349.222809,381.468201 347.567932,381.640564 
	C348.147064,384.926422 348.545837,387.189178 348.468597,390.033966 
	M353.633270,343.139587 
	C354.605743,343.459442 355.578217,343.779266 357.195190,344.311066 
	C356.454895,338.987793 355.815430,334.389496 355.017609,328.652496 
	C352.928955,327.766449 349.832428,326.110809 346.531769,325.175354 
	C344.403381,324.572113 341.975342,324.995911 339.682129,325.017883 
	C338.563232,325.028595 337.445618,325.173065 336.327423,325.257019 
	C336.660004,326.423737 336.628693,328.223358 337.382751,328.656921 
	C343.333435,332.078339 346.062347,336.174774 339.877563,342.812286 
	C340.521515,343.081970 341.165466,343.351624 341.809418,343.621277 
	C344.337646,342.111145 346.865875,340.601013 349.394104,339.090881 
	C349.043457,339.431091 348.692841,339.771332 348.342224,340.111572 
	C349.844513,341.070221 351.346802,342.028870 353.633270,343.139587 
	M28.963671,325.973877 
	C30.306486,325.870575 31.649300,325.767273 34.576809,325.542053 
	C30.747868,321.885986 28.007177,319.269043 25.385036,316.765289 
	C26.740986,314.366150 28.063591,312.026031 29.386196,309.685883 
	C28.939314,309.252960 28.492430,308.820038 28.045547,308.387115 
	C25.754438,309.762573 23.463329,311.138000 20.815641,312.727539 
	C20.149590,311.955811 19.437069,310.725220 18.376961,310.009277 
	C17.176651,309.198608 15.664618,308.849579 14.288126,308.299835 
	C14.182398,309.869507 13.884212,311.455231 14.013421,313.005310 
	C14.240334,315.727539 14.728898,318.427979 15.249889,322.152893 
	C17.771309,322.511505 20.132254,328.469025 25.380356,324.486908 
	C25.779974,324.183655 27.245062,325.284607 28.963671,325.973877 
	M35.592899,234.048782 
	C36.332695,234.686813 37.499752,236.013596 37.748158,235.859528 
	C41.438595,233.570206 42.939209,236.687851 45.061573,238.528061 
	C46.325455,239.623917 47.900990,240.360336 49.583290,241.412781 
	C50.689697,237.273026 48.302063,232.749832 52.857468,230.299591 
	C52.938690,230.255905 52.219772,227.580917 51.384861,227.196472 
	C49.069824,226.130524 48.566135,225.032074 49.583950,222.620346 
	C49.937149,221.783386 48.766056,220.165619 48.001823,219.114929 
	C47.855492,218.913742 45.637970,219.613571 45.587883,220.040039 
	C44.977726,225.235214 41.420223,225.214569 37.493111,225.104050 
	C36.295799,225.070358 35.067753,226.128937 33.684986,226.764923 
	C36.061768,228.982697 38.523605,230.749649 35.592899,234.048782 
	M307.495941,386.040833 
	C305.936127,382.942902 303.324280,379.908478 308.259186,375.873840 
	C303.071350,375.590454 299.168457,375.377258 297.091095,375.263794 
	C293.166382,379.203339 290.317596,382.062897 287.088287,385.304413 
	C290.044159,386.001892 291.990814,386.461212 293.827240,386.894562 
	C293.104614,389.187531 292.558990,390.918854 292.013367,392.650177 
	C292.272614,393.046661 292.531860,393.443146 292.791077,393.839661 
	C297.214874,390.152405 302.391632,388.715118 307.689362,387.620361 
	C307.814972,387.594421 307.829407,387.030640 307.495941,386.040833 
	M4.584190,271.041290 
	C10.250952,271.606903 6.568861,277.061188 9.585880,280.110229 
	C11.191566,277.971466 12.279943,275.158417 14.248669,274.247101 
	C16.668587,273.126862 19.823277,273.593964 23.247480,273.329590 
	C21.309282,270.177307 19.390657,267.783447 21.945257,265.003815 
	C19.366394,264.226227 16.746759,263.557037 14.231331,262.610809 
	C13.379650,262.290405 12.862578,261.172363 12.067118,260.590363 
	C10.683414,259.577911 9.202194,258.698761 8.158746,258.021362 
	C6.701285,262.428772 5.382381,266.417206 4.584190,271.041290 
	M25.225538,176.744095 
	C27.477781,178.591583 29.730024,180.439087 31.610922,181.981979 
	C30.338028,184.755432 29.233725,187.161545 27.720335,190.459000 
	C29.833399,189.818802 31.628517,189.831360 32.346947,188.958115 
	C35.037632,185.687622 36.942272,185.977295 39.156185,189.448120 
	C39.681965,190.272415 41.632946,190.187592 42.928368,190.520935 
	C43.036827,189.232117 43.367931,187.915161 43.209362,186.660065 
	C42.829689,183.654877 42.219666,180.678802 41.702625,177.690964 
	C38.413494,172.082520 31.959167,174.313705 26.435505,173.147858 
	C26.173491,173.092560 25.499905,174.987274 25.225538,176.744095 
	M77.861290,269.390991 
	C75.955231,269.156433 74.049171,268.921875 72.038963,268.674530 
	C72.596680,266.723053 73.093353,264.985138 73.590034,263.247223 
	C73.279465,262.882751 72.968903,262.518250 72.658333,262.153778 
	C71.038773,263.288971 69.499062,264.571899 67.770836,265.506073 
	C66.666756,266.102875 65.293098,266.230408 64.023239,266.482452 
	C62.864258,266.712524 61.139214,266.426147 60.646915,267.093109 
	C60.020481,267.941833 60.251728,269.531738 60.350063,270.783478 
	C60.522419,272.977295 60.875004,275.156952 61.307808,278.570862 
	C63.521721,278.687042 67.004898,278.869812 69.015160,278.975311 
	C71.623543,276.578613 73.318657,275.083588 74.938301,273.510834 
	C76.011131,272.469086 76.975777,271.315887 77.861290,269.390991 
	M377.011292,370.327606 
	C381.365448,374.970978 383.910797,374.782959 386.128998,369.779694 
	C386.567688,368.790131 387.662323,368.107056 388.378387,367.221130 
	C389.480469,365.857697 390.516754,364.441040 391.580933,363.046967 
	C390.952606,363.042023 390.324249,363.037048 389.695892,363.032074 
	C388.179901,360.286041 386.663879,357.539978 384.385651,353.413269 
	C382.734009,361.023621 377.708038,360.158783 372.966705,359.977722 
	C374.446259,363.440857 375.738892,366.466461 377.011292,370.327606 
	M328.460022,74.972954 
	C325.754852,73.140083 323.049713,71.307220 320.344543,69.474358 
	C320.029968,68.624168 319.715363,67.773979 319.400787,66.923790 
	C318.783752,68.249771 318.314026,70.628174 317.526825,70.738365 
	C309.965759,71.796684 311.179596,75.653656 313.956238,80.446815 
	C314.722961,81.770340 314.699036,83.551880 315.037933,85.123260 
	C315.326202,85.476074 315.614471,85.828888 315.902771,86.181709 
	C318.732605,79.748207 321.668640,86.086739 323.372559,85.352135 
	C325.577118,81.478996 327.263031,78.517097 328.460022,74.972954 
	M66.022987,204.815399 
	C63.778175,205.171768 61.533360,205.528122 59.061146,205.920593 
	C60.267986,209.200211 61.607800,212.841171 63.151260,217.035538 
	C64.896812,217.149231 69.423470,217.883331 69.563393,217.385208 
	C70.953720,212.435623 75.594063,211.225098 78.976593,208.740753 
	C78.145142,207.376907 77.480774,206.287125 76.717911,205.035782 
	C70.855064,209.363205 71.552193,203.711731 70.492775,200.693115 
	C69.882866,200.280289 69.272957,199.867462 68.663048,199.454620 
	C67.902367,201.003998 67.141693,202.553360 66.022987,204.815399 
	M123.153091,177.710953 
	C123.598007,179.387604 124.042923,181.064255 124.471710,182.680115 
	C127.160088,182.353149 129.850677,182.025925 132.405609,181.715195 
	C133.216949,178.947479 134.011322,176.237564 134.791153,173.577316 
	C132.278961,172.231430 129.766403,170.885330 127.183037,169.501297 
	C125.427330,171.142120 123.374794,173.060349 121.054008,175.229248 
	C121.420815,175.661545 122.031639,176.381409 123.153091,177.710953 
	M369.731171,66.942513 
	C372.076965,66.501556 374.422729,66.060600 376.356445,65.697098 
	C380.334595,59.587040 376.272552,57.696224 373.393494,57.745037 
	C371.468109,58.908817 369.542725,60.072598 367.536346,61.285332 
	C367.916656,62.547764 368.499268,64.481781 369.731171,66.942513 
	M176.000961,193.295929 
	C176.657135,189.817276 177.415604,186.352676 177.897308,182.850021 
	C178.017212,181.978149 177.243118,180.983292 176.879929,180.044983 
	C176.268158,180.402069 175.213638,180.661758 175.110489,181.130722 
	C173.352966,189.120224 171.671646,197.127701 170.140656,205.163071 
	C170.037476,205.704590 171.265274,206.499710 172.435303,207.801224 
	C173.736969,202.771118 174.850342,198.468643 176.000961,193.295929 
	M72.951485,382.133301 
	C73.090141,380.069275 73.228790,378.005219 73.372459,375.866425 
	C71.452682,374.914825 69.505867,373.949799 67.640747,373.025299 
	C63.726231,376.609344 63.726231,376.609344 65.483078,382.851318 
	C67.988174,382.851318 70.289902,382.851318 72.951485,382.133301 
	M139.280746,362.220032 
	C139.247009,360.382416 139.247009,360.382416 134.635696,357.637848 
	C132.855942,359.341461 131.274597,360.855164 129.461044,362.591125 
	C129.954910,363.524170 130.885208,365.281769 131.654816,366.735779 
	C134.247925,366.735779 136.521347,366.735779 139.030609,366.735779 
	C139.030609,365.321625 139.030609,364.173828 139.280746,362.220032 
	M86.035538,74.467957 
	C87.023582,73.707794 88.011635,72.947632 88.725075,72.398743 
	C87.741722,70.270638 87.311089,67.379074 85.907448,66.784492 
	C84.046921,65.996368 81.426086,67.003098 79.318230,67.219398 
	C78.937050,69.605652 78.614059,71.627602 78.313988,73.506119 
	C79.849174,74.461632 81.255318,75.612259 82.866684,76.204430 
	C83.512573,76.441780 84.609947,75.450577 86.035538,74.467957 
	M123.258011,261.221527 
	C123.370781,261.101349 123.507996,260.995270 123.588173,260.856323 
	C123.646492,260.755219 123.681755,260.524017 123.638496,260.497894 
	C121.628006,259.284058 119.607758,258.086395 117.962990,257.109253 
	C116.136925,258.558258 114.622780,259.759766 112.923218,261.108398 
	C113.792862,263.174713 114.741508,265.428741 115.542473,267.331879 
	C117.725418,267.130096 119.783600,266.939850 121.491058,266.782043 
	C122.060005,264.969055 122.532974,263.461884 123.258011,261.221527 
	M77.031891,143.556885 
	C77.566353,144.676987 78.100815,145.797089 78.571945,146.784470 
	C80.677048,146.391861 82.689644,146.016510 84.669525,145.647247 
	C85.143845,143.590347 85.601112,141.607376 85.998642,139.883484 
	C83.903069,138.583710 82.085197,137.456161 79.699768,135.976608 
	C78.629395,138.312088 77.558289,140.649170 77.031891,143.556885 
	M344.032867,90.459961 
	C347.079102,89.868835 347.034271,86.637756 345.822998,85.967445 
	C342.220673,83.973877 339.140747,79.787392 333.118042,81.780777 
	C336.908600,85.129875 340.195618,88.034058 344.032867,90.459961 
	M338.270477,31.049862 
	C336.705719,30.402189 335.140991,29.754515 333.629272,29.128782 
	C332.097839,30.357132 330.604279,31.555124 328.872253,32.944370 
	C329.397675,33.601803 330.108795,34.260681 330.523254,35.071243 
	C330.995361,35.994648 331.202789,37.053349 331.610474,38.317482 
	C332.810486,37.831314 333.651398,37.373371 334.550446,37.156849 
	C335.611755,36.901237 336.723328,36.854374 337.123199,36.803967 
	C337.838654,34.655613 338.369141,33.062695 338.270477,31.049862 
	M237.486969,20.091162 
	C235.894897,19.459528 234.302811,18.827892 232.681213,18.184547 
	C227.902649,24.859394 228.335388,25.826702 236.678131,26.812773 
	C237.099472,24.791605 237.521408,22.767630 237.486969,20.091162 
	M368.889343,131.590652 
	C366.369934,126.720612 363.304932,127.699265 359.719757,131.071655 
	C360.592804,132.909470 361.524963,134.871658 362.286469,136.474701 
	C364.401093,136.166611 366.106079,135.918198 367.757080,135.677658 
	C367.963531,134.395081 368.142883,133.280792 368.889343,131.590652 
	M373.079529,213.519989 
	C373.971619,214.959778 374.863708,216.399567 375.767212,217.857758 
	C377.334869,217.857758 378.945892,217.857758 380.576935,217.857758 
	C381.098816,215.749985 381.585876,213.782944 382.077881,211.795837 
	C380.358734,210.942215 378.773712,210.155228 377.356232,209.451401 
	C375.819855,210.624359 374.431519,211.684280 373.079529,213.519989 
	M38.624138,121.941383 
	C40.141033,120.721451 41.657928,119.501511 44.550137,117.175491 
	C40.987648,115.523537 38.435768,114.340210 35.318817,112.894852 
	C35.656380,120.057449 35.656380,120.057449 38.624138,121.941383 
	M73.784042,32.016953 
	C73.909225,30.021976 74.034401,28.027000 74.165787,25.933121 
	C71.772339,26.241558 70.391968,26.338060 69.047379,26.610918 
	C66.769791,27.073109 66.300171,31.770643 68.601929,32.801819 
	C69.798859,33.338043 71.580688,32.568672 73.784042,32.016953 
	M213.957321,61.244835 
	C212.699585,59.667843 211.441864,58.090851 210.184143,56.513859 
	C210.376343,57.110111 210.568527,57.706364 210.760727,58.302616 
	C209.460510,59.401836 208.160309,60.501057 206.086578,62.254223 
	C208.046249,63.239586 210.609070,64.528221 213.954315,66.210274 
	C213.740891,63.671677 213.668076,62.805454 213.957321,61.244835 
	M349.001923,119.342873 
	C349.994476,114.463852 345.293793,116.767662 343.887970,114.914528 
	C343.347290,115.112106 342.806580,115.309677 342.265900,115.507256 
	C342.925232,117.899246 343.584564,120.291237 344.243866,122.683220 
	C345.828705,121.850945 347.413574,121.018661 349.001923,119.342873 
	M207.047073,221.434753 
	C207.472641,223.333069 207.898193,225.231384 208.308151,227.060074 
	C210.541321,226.429169 212.196732,225.961487 215.089783,225.144150 
	C213.724838,223.106918 212.877670,221.171234 211.420242,219.985992 
	C210.806747,219.487061 208.904510,220.572845 207.047073,221.434753 
	M100.999809,57.406166 
	C101.186554,58.900612 101.279472,61.664558 101.575058,61.686401 
	C103.721626,61.845047 105.909035,61.450954 108.015198,61.238571 
	C107.215645,55.934364 105.403839,53.829071 100.999809,57.406166 
	M154.382523,349.097443 
	C153.383560,347.561920 152.384598,346.026367 151.637665,344.878235 
	C146.036392,347.102966 146.102905,349.769867 150.137817,353.481659 
	C151.421646,352.272827 152.728699,351.042084 154.382523,349.097443 
	M149.982880,34.537659 
	C145.959061,36.714085 146.676544,39.199539 150.188751,42.634365 
	C152.012390,40.747089 153.759171,38.939373 155.727921,36.901924 
	C153.338928,35.580738 151.967636,34.822376 149.982880,34.537659 
	M327.377686,31.112652 
	C326.696747,29.394127 326.015778,27.675600 325.230469,25.693729 
	C322.778168,27.674685 321.343231,28.833826 319.925293,29.979219 
	C323.624420,35.000996 325.092529,35.354591 327.377686,31.112652 
	M158.568497,360.893860 
	C160.025696,360.400940 161.482880,359.907990 164.190247,358.992157 
	C162.430634,356.570221 160.966537,354.555054 159.455246,352.474915 
	C157.584198,354.255310 156.380280,355.400909 155.353012,356.378418 
	C156.193115,357.963715 156.982361,359.453033 158.568497,360.893860 
	M188.062027,162.520859 
	C191.065918,158.054214 185.796997,158.860397 185.001740,156.915146 
	C183.513809,158.309036 182.331314,159.416809 181.212921,160.464523 
	C182.079025,162.155914 182.808640,163.580734 183.644455,165.212952 
	C185.160904,164.542328 186.582108,163.913803 188.062027,162.520859 
	M136.631439,148.172791 
	C134.978027,148.856354 132.688843,145.174927 131.534790,148.835236 
	C131.036987,150.414078 130.984818,152.133423 130.744751,153.694458 
	C133.362122,153.694458 135.102615,153.694458 136.967911,153.694458 
	C136.967911,151.908813 136.967911,150.427826 136.631439,148.172791 
	M169.498932,75.980637 
	C171.361069,77.246025 173.223206,78.511406 175.085358,79.776787 
	C175.665421,79.240868 176.245499,78.704948 176.825577,78.169037 
	C175.756363,76.177170 174.687164,74.185295 173.617966,72.193428 
	C172.100845,73.247269 170.583710,74.301109 169.498932,75.980637 
	M296.974579,83.997810 
	C299.643585,83.236877 303.343872,85.840492 305.586884,80.517891 
	C302.044495,80.337044 298.997253,79.739281 296.132111,80.222099 
	C294.703430,80.462852 292.858459,82.686127 296.974579,83.997810 
	M332.462860,64.022858 
	C333.481415,62.262119 334.499969,60.501381 335.518494,58.740643 
	C334.885345,58.241100 334.252228,57.741558 333.619080,57.242016 
	C331.152588,59.700115 328.686066,62.158211 326.219574,64.616310 
	C326.614105,65.179916 327.008636,65.743523 327.403137,66.307137 
	C328.913239,65.741119 330.423309,65.175102 332.462860,64.022858 
	M373.353271,34.954144 
	C373.488403,36.082832 373.211975,37.728119 373.844696,38.232151 
	C375.143372,39.266663 376.929108,39.689724 378.514374,40.364487 
	C378.862427,39.963886 379.210480,39.563286 379.558563,39.162685 
	C378.903839,37.394608 378.456512,35.491409 377.452698,33.950798 
	C377.192688,33.551781 375.189575,34.288517 373.353271,34.954144 
	M213.698349,298.011566 
	C212.387238,298.839966 211.076141,299.668365 209.607269,300.596466 
	C210.757492,302.387207 211.616455,303.724487 212.446838,305.017303 
	C214.053833,304.484375 215.391632,304.040710 217.992767,303.178101 
	C216.683807,301.264771 215.589645,299.665405 213.698349,298.011566 
	M307.039246,63.329956 
	C308.103455,63.930267 309.167664,64.530579 311.677734,65.946465 
	C310.864563,62.919415 310.765137,60.985008 309.843414,59.596436 
	C309.058807,58.414467 307.382690,57.732498 305.973541,57.124985 
	C305.644104,56.982960 304.209076,58.354187 304.282593,58.490646 
	C305.049194,59.913918 306.019989,61.227222 307.039246,63.329956 
	M275.984894,39.477058 
	C279.829254,40.259029 280.342743,38.307140 279.742767,34.976036 
	C278.333344,34.976036 277.179718,34.884628 276.047119,34.999779 
	C274.710144,35.135708 273.391296,35.450253 272.064606,35.687359 
	C273.148163,36.808521 274.231720,37.929684 275.984894,39.477058 
	M316.001343,99.400215 
	C316.915894,100.235001 317.830444,101.069794 319.648865,102.729630 
	C319.648865,98.160507 319.648865,95.178566 319.648865,91.805878 
	C315.166504,92.546822 316.749725,96.233192 316.001343,99.400215 
	M362.965698,301.826660 
	C363.390503,302.530365 363.815338,303.234100 364.240143,303.937805 
	C366.016632,302.424927 367.793121,300.912018 370.159729,298.896576 
	C363.457581,296.812805 363.005096,297.007385 362.965698,301.826660 
	M156.025940,135.500656 
	C153.057251,134.107101 151.270828,136.063828 151.359116,138.293625 
	C151.407074,139.504623 154.316696,140.602310 155.935547,141.751114 
	C156.402008,141.367630 156.868469,140.984146 157.334930,140.600662 
	C157.116104,139.051605 156.897278,137.502548 156.025940,135.500656 
	M185.265350,242.042816 
	C183.241486,241.717178 181.217606,241.391556 179.193726,241.065933 
	C179.054642,241.662552 178.915543,242.259171 178.776459,242.855789 
	C182.375107,244.008621 185.973770,245.161453 189.572418,246.314301 
	C189.795197,245.752411 190.017960,245.190536 190.240723,244.628662 
	C188.814896,243.901764 187.389069,243.174866 185.265350,242.042816 
	M124.665596,98.002975 
	C123.748787,99.214401 122.831970,100.425827 121.810776,101.775185 
	C123.680359,102.780350 124.940193,103.457687 126.138145,104.101753 
	C129.756866,100.591019 129.590942,99.405121 124.665596,98.002975 
	M165.658157,142.048111 
	C165.805542,140.395096 165.952911,138.742081 166.100296,137.089050 
	C165.643585,136.912796 165.186890,136.736526 164.730194,136.560257 
	C163.102188,138.023453 161.474167,139.486649 159.846161,140.949844 
	C160.046356,141.480072 160.246552,142.010284 160.446747,142.540512 
	C161.988144,142.540512 163.529541,142.540512 165.658157,142.048111 
	M119.932404,143.399750 
	C115.574394,144.471329 115.285034,145.249069 117.604118,150.087708 
	C120.412552,148.862061 124.286995,148.302673 119.932404,143.399750 
	M128.038193,331.688721 
	C127.733612,330.464264 127.361717,328.170288 127.135124,328.184570 
	C125.326134,328.298431 123.544662,328.849457 121.516487,329.322083 
	C123.421051,332.537659 124.853523,334.675690 128.038193,331.688721 
	M56.075359,323.508087 
	C57.651241,324.602417 59.227119,325.696777 60.803001,326.791107 
	C61.449039,326.225922 62.095074,325.660736 62.741112,325.095551 
	C61.709133,323.217010 60.677155,321.338470 59.596550,319.371429 
	C57.785934,321.082428 56.923935,321.897003 56.075359,323.508087 
	M127.506676,17.062841 
	C125.616760,17.400934 123.726845,17.739025 121.356857,18.163000 
	C122.806183,20.223555 123.633751,21.400135 124.465195,22.582230 
	C126.637337,21.636900 130.341095,21.764250 127.506676,17.062841 
	M240.137344,166.652130 
	C241.765839,166.320221 243.394333,165.988312 245.037399,165.653427 
	C244.459534,163.908096 244.010391,162.551544 243.567993,161.215378 
	C238.869843,161.306396 237.886520,162.541412 240.137344,166.652130 
	M145.688156,397.995514 
	C146.856140,396.963043 148.024109,395.930573 149.673386,394.472656 
	C147.325912,393.277527 145.966003,392.585205 144.836151,392.009979 
	C143.695709,393.261383 142.808777,394.234619 141.756424,395.389374 
	C142.914307,396.339325 143.906158,397.153076 145.688156,397.995514 
	M304.162506,142.392654 
	C304.402466,144.294693 304.642426,146.196732 304.967041,148.769974 
	C307.368225,147.293671 308.569885,146.554855 311.381744,144.826065 
	C308.408844,143.549103 306.651672,142.794342 304.162506,142.392654 
	M148.744659,83.717461 
	C147.442657,82.693192 146.140671,81.668930 145.028244,80.793800 
	C143.703903,82.250481 142.817276,83.225700 141.942673,84.187698 
	C145.695847,88.090683 146.940689,88.076195 148.744659,83.717461 
	M14.300805,92.917480 
	C14.590778,91.442589 15.136787,89.950623 15.040167,88.501511 
	C15.003372,87.949669 12.908249,86.923378 12.744981,87.089577 
	C11.565167,88.290543 10.640075,89.741753 9.445571,91.371109 
	C11.164244,92.057549 12.328902,92.522705 14.300805,92.917480 
	M134.796494,341.037628 
	C135.529556,340.300446 137.007736,339.275055 136.855103,338.880402 
	C136.408295,337.725098 135.397125,336.114624 134.447998,336.000000 
	C133.298523,335.861206 131.986252,337.070465 129.765289,338.189880 
	C131.707092,339.642914 132.888428,340.526886 134.796494,341.037628 
	M59.525326,10.005201 
	C58.308872,10.553753 57.092419,11.102304 54.281082,12.370059 
	C57.462452,13.849323 59.293526,14.700729 61.124596,15.552135 
	C61.645073,15.117947 62.165550,14.683759 62.686028,14.249570 
	C61.898342,12.834448 61.110657,11.419325 59.525326,10.005201 
	M140.846054,165.391663 
	C139.344208,165.995544 137.764465,166.473618 136.408524,167.313156 
	C136.148193,167.474365 136.475769,169.402985 137.057114,169.891464 
	C137.731339,170.458008 139.753616,170.686127 139.859650,170.453751 
	C140.465790,169.125458 140.675842,167.616425 140.846054,165.391663 
	M102.658966,256.989960 
	C103.765778,255.756668 104.930679,254.563705 105.868492,253.213074 
	C105.943024,253.105713 104.425400,251.327850 103.682571,251.353058 
	C102.621124,251.389084 100.817863,252.266174 100.719482,252.976364 
	C100.546112,254.227936 101.421745,255.624832 102.658966,256.989960 
	M328.100494,128.631485 
	C327.072784,129.676102 326.045074,130.720718 325.017365,131.765335 
	C325.918427,132.508301 326.729736,133.609283 327.752747,133.865631 
	C328.410736,134.030487 330.085907,132.928665 330.068665,132.438004 
	C330.027588,131.268158 329.253326,130.124069 328.100494,128.631485 
	M352.480072,21.982790 
	C353.429871,20.586706 354.379669,19.190622 355.329468,17.794538 
	C355.018372,17.293873 354.707275,16.793207 354.396149,16.292542 
	C352.815857,16.810755 351.235565,17.328970 349.655273,17.847181 
	C350.330750,19.229000 351.006226,20.610817 352.480072,21.982790 
	M306.943085,35.565739 
	C307.854980,33.992908 308.766876,32.420082 309.678772,30.847254 
	C309.145782,30.412968 308.612793,29.978682 308.079803,29.544395 
	C306.738556,30.229975 304.316040,30.873428 304.287354,31.610142 
	C304.232208,33.025440 305.534027,34.493603 306.943085,35.565739 
	M73.289795,60.958008 
	C75.949471,57.359150 75.228256,55.971584 70.384369,55.371319 
	C69.934464,56.696804 69.484558,58.022293 68.972298,59.531483 
	C70.183838,60.033066 71.343941,60.513351 73.289795,60.958008 
	M69.331772,329.053009 
	C67.960655,329.914886 66.589539,330.776764 65.218422,331.638641 
	C66.821274,332.659088 68.424126,333.679535 70.026978,334.700012 
	C70.422897,334.285858 70.818817,333.871735 71.214737,333.457581 
	C70.812393,332.148560 70.410049,330.839508 69.331772,329.053009 
	M289.029358,140.209442 
	C290.070618,140.938934 291.510712,142.501373 292.073700,142.231842 
	C293.421234,141.586655 294.356018,140.079437 295.528931,138.844910 
	C292.508453,137.013718 290.421234,136.439072 289.029358,140.209442 
	M134.007614,245.442352 
	C134.987015,246.483917 135.966400,247.525482 136.945786,248.567047 
	C138.135559,247.399567 139.325333,246.232071 140.515106,245.064575 
	C140.225281,244.495102 139.935471,243.925629 139.645645,243.356155 
	C137.780746,243.791840 135.915863,244.227539 134.007614,245.442352 
	M44.584007,128.028564 
	C45.970963,128.376434 47.357918,128.724289 48.744869,129.072144 
	C49.055077,128.676666 49.365280,128.281189 49.675484,127.885704 
	C48.675636,126.103287 47.675789,124.320869 46.675941,122.538452 
	C46.223732,122.672318 45.771523,122.806175 45.319313,122.940041 
	C44.904251,124.423317 44.489185,125.906601 44.584007,128.028564 
	M377.051697,130.412476 
	C377.051697,131.934418 377.051697,133.456360 377.051697,134.978302 
	C377.543701,135.161423 378.035706,135.344559 378.527710,135.527679 
	C379.681091,134.142105 380.834473,132.756531 381.987885,131.370972 
	C380.529083,130.886292 379.070251,130.401611 377.051697,130.412476 
	M111.953590,131.802399 
	C110.451294,130.894318 108.795158,128.547882 107.396751,131.485901 
	C106.905182,132.518661 108.040787,134.325928 108.433418,135.779541 
	C109.620354,134.721466 110.807289,133.663376 111.953590,131.802399 
	M368.946899,82.543732 
	C371.433044,84.094330 372.010315,83.763832 373.928223,79.691803 
	C369.713440,77.436043 368.486053,77.940155 368.946899,82.543732 
	M346.048279,137.563400 
	C345.038269,138.135834 343.360474,138.554459 343.184387,139.318970 
	C342.955353,140.313141 343.657166,141.867783 344.474915,142.618652 
	C344.918488,143.025955 347.287476,142.342606 347.316589,142.018921 
	C347.435516,140.696594 346.987183,139.323288 346.048279,137.563400 
	M191.871826,287.032898 
	C192.572479,286.088501 193.273148,285.144073 193.973801,284.199707 
	C192.848068,283.513275 191.747101,282.380493 190.586853,282.316040 
	C189.941513,282.280212 188.568497,284.100830 188.670456,284.946472 
	C188.777237,285.832001 190.257782,286.551819 191.871826,287.032898 
	z"/>
<path fill="#FEF462" opacity="1.000000" stroke="none" 
	d="
M0.999999,181.437500 
	C2.514359,180.741119 4.028719,180.482239 5.598380,180.213913 
	C6.290644,181.616745 6.989171,183.032272 8.150813,185.386292 
	C5.915096,186.041748 3.733875,186.681229 1.276326,187.660355 
	C1.000000,185.958328 1.000000,183.916672 0.999999,181.437500 
z"/>
<path fill="#FEF361" opacity="1.000000" stroke="none" 
	d="
M233.625000,1.000000 
	C234.384827,2.783371 234.769669,4.566741 235.424606,7.601812 
	C232.799011,6.750195 231.011368,6.170370 229.223724,5.590544 
	C230.030685,4.256866 230.837646,2.923188 231.322296,1.294755 
	C231.750000,1.000000 232.500000,1.000000 233.625000,1.000000 
z"/>
<path fill="#FEF161" opacity="1.000000" stroke="none" 
	d="
M183.416656,401.000000 
	C182.847778,399.665527 182.255188,398.161133 182.683609,397.050690 
	C183.022476,396.172363 184.615173,395.777802 185.651093,395.168396 
	C186.437668,396.838348 187.224228,398.508270 188.005402,400.589111 
	C186.611115,401.000000 185.222214,401.000000 183.416656,401.000000 
z"/>
<path fill="#FEF461" opacity="1.000000" stroke="none" 
	d="
M254.340408,255.696304 
	C253.596268,255.578522 252.308792,255.654617 252.187454,255.314606 
	C249.135300,246.761063 246.205780,238.163773 243.717941,230.922607 
	C241.546616,229.740189 239.062729,229.088577 238.975571,228.201462 
	C238.761002,226.017715 239.648117,223.725723 240.092209,221.477249 
	C240.642166,221.528671 241.192123,221.580093 241.742081,221.631516 
	C239.473923,215.264862 237.205780,208.898209 234.652008,201.729828 
	C239.151230,203.048904 242.817368,204.344513 246.586670,205.167969 
	C250.512894,206.025726 254.572998,206.269821 258.500610,207.122772 
	C259.726196,207.388947 261.553680,208.660110 261.672516,209.644272 
	C262.563904,217.026871 266.237579,221.626053 273.320160,224.360062 
	C275.925720,225.365860 280.226715,225.205475 280.897095,229.851257 
	C280.812714,230.213165 280.893524,230.139008 280.893524,230.139008 
	C275.420044,228.137451 269.916504,226.211868 264.500061,224.066254 
	C263.490234,223.666245 262.407562,222.513672 262.088531,221.482513 
	C261.142120,218.423950 260.560364,215.252594 259.931946,212.539536 
	C252.904892,210.230988 246.309418,208.064224 239.514984,205.832108 
	C240.495499,209.683243 241.014709,213.303543 242.370789,216.577194 
	C243.580368,219.497208 245.714996,222.034027 247.226135,224.402573 
	C251.834366,223.477005 256.266907,222.586731 260.699463,221.696457 
	C260.854095,222.344238 261.008728,222.992004 261.163361,223.639786 
	C258.090454,224.426651 255.032089,225.276627 251.941727,225.987411 
	C245.191940,227.539825 245.277435,227.791687 247.647583,234.342484 
	C250.100296,241.121490 251.918304,248.130142 254.135574,255.403778 
	C254.257217,255.769226 254.340408,255.696304 254.340408,255.696304 
z"/>
<path fill="#FEF462" opacity="1.000000" stroke="none" 
	d="
M294.002014,348.946381 
	C291.907318,345.834015 289.814758,343.122559 287.501190,340.124756 
	C292.641876,336.980682 288.821381,332.532837 288.515381,326.735046 
	C291.755646,328.503510 294.358063,330.200012 297.176422,331.381317 
	C299.784973,332.474579 302.624634,333.016541 305.953400,333.970642 
	C302.222412,339.248413 308.212769,343.463623 309.077576,349.553894 
	C302.541016,344.679047 299.116547,348.351807 296.046051,354.181885 
	C295.064087,351.856934 294.534088,350.602112 294.002014,348.946381 
z"/>
<path fill="#FEF461" opacity="1.000000" stroke="none" 
	d="
M277.317749,262.700012 
	C279.981201,263.372589 282.299530,263.805206 285.030884,264.314911 
	C282.573151,260.785736 280.125488,257.271057 277.677826,253.756363 
	C278.198181,253.358841 278.718506,252.961304 279.238831,252.563782 
	C281.837921,255.719482 284.437012,258.875183 287.303009,262.354950 
	C287.995270,262.132782 289.620422,261.611145 291.632568,260.965302 
	C291.367798,266.546234 295.985199,265.284363 298.956360,265.883179 
	C302.928131,266.683685 307.076111,266.573792 311.119202,267.085907 
	C311.958252,267.192200 313.158417,268.217529 313.303589,268.986938 
	C313.453125,269.779388 312.693298,270.961884 311.998077,271.623535 
	C311.477051,272.119385 310.338867,272.388245 309.627960,272.195526 
	C304.516663,270.810089 299.514587,268.868408 294.327637,267.985474 
	C292.016510,267.592072 289.358185,269.238220 286.649567,270.018555 
	C284.179474,263.231323 277.479950,265.972198 272.753540,264.103577 
	C269.493774,262.814789 265.794434,262.677521 262.413940,261.630432 
	C261.393890,261.314484 260.191681,259.696167 260.153137,258.635193 
	C260.114807,257.580383 261.193573,255.979370 262.205109,255.488068 
	C265.088593,254.087494 268.209625,253.184357 271.184875,251.958481 
	C271.897919,251.664658 272.420380,250.890121 273.008148,250.313919 
	C274.431763,248.918335 275.842224,247.509323 278.232697,245.139389 
	C278.916443,248.542191 279.215790,250.031998 279.557190,251.731094 
	C273.586212,253.888214 267.474396,256.096222 260.546478,258.599060 
	C266.620880,260.026855 271.796722,261.243469 277.317749,262.700012 
z"/>
<path fill="#FEF462" opacity="1.000000" stroke="none" 
	d="
M70.721931,300.389984 
	C73.207542,304.297394 75.462593,307.898071 78.065384,312.053955 
	C77.981056,312.119598 76.761879,313.068695 75.437820,314.099457 
	C76.011414,316.815430 76.596672,319.586639 77.553207,324.115845 
	C73.908424,322.545135 71.449524,321.460663 68.970428,320.424500 
	C66.722664,319.485016 64.452888,318.598175 61.616703,317.456146 
	C60.945522,313.593048 60.039455,308.378052 58.951931,302.118622 
	C63.673306,306.460999 66.644188,305.427155 68.792213,300.798401 
	C68.983604,300.385986 69.907616,300.313568 70.721931,300.389984 
z"/>
<path fill="#FEF463" opacity="1.000000" stroke="none" 
	d="
M348.706604,389.742950 
	C348.545837,387.189178 348.147064,384.926422 347.567932,381.640564 
	C349.222809,381.468201 351.470642,381.066162 353.721954,381.045685 
	C356.097656,381.024078 357.712524,380.764648 358.274048,377.824554 
	C358.521423,376.529205 360.647888,375.592773 361.921234,374.493408 
	C362.296295,374.803162 362.671387,375.112946 363.046478,375.422729 
	C363.046478,377.865936 363.046478,380.309113 363.046478,381.691925 
	C366.116302,382.832062 368.550140,383.735962 370.983948,384.639893 
	C368.922913,386.103241 366.861877,387.566620 364.009094,389.592133 
	C364.009094,391.460297 364.009094,394.564178 364.009094,398.113922 
	C362.575623,397.585846 361.296753,397.483093 360.596100,396.793152 
	C357.499481,393.743866 354.415558,390.905975 349.530182,391.794189 
	C349.290894,391.837708 348.827606,390.648926 348.706604,389.742950 
z"/>
<path fill="#FEF462" opacity="1.000000" stroke="none" 
	d="
M353.241211,343.063538 
	C351.346802,342.028870 349.844513,341.070221 348.342224,340.111572 
	C348.692841,339.771332 349.043457,339.431091 349.394104,339.090881 
	C346.865875,340.601013 344.337646,342.111145 341.809418,343.621277 
	C341.165466,343.351624 340.521515,343.081970 339.877563,342.812286 
	C346.062347,336.174774 343.333435,332.078339 337.382751,328.656921 
	C336.628693,328.223358 336.660004,326.423737 336.327423,325.257019 
	C337.445618,325.173065 338.563232,325.028595 339.682129,325.017883 
	C341.975342,324.995911 344.403381,324.572113 346.531769,325.175354 
	C349.832428,326.110809 352.928955,327.766449 355.017609,328.652496 
	C355.815430,334.389496 356.454895,338.987793 357.195190,344.311066 
	C355.578217,343.779266 354.605743,343.459442 353.241211,343.063538 
z"/>
<path fill="#FEF462" opacity="1.000000" stroke="none" 
	d="
M28.589279,325.853363 
	C27.245062,325.284607 25.779974,324.183655 25.380356,324.486908 
	C20.132254,328.469025 17.771309,322.511505 15.249889,322.152893 
	C14.728898,318.427979 14.240334,315.727539 14.013421,313.005310 
	C13.884212,311.455231 14.182398,309.869507 14.288128,308.299835 
	C15.664618,308.849579 17.176651,309.198608 18.376961,310.009277 
	C19.437069,310.725220 20.149590,311.955811 20.815641,312.727539 
	C23.463329,311.138000 25.754438,309.762573 28.045547,308.387115 
	C28.492430,308.820038 28.939314,309.252960 29.386196,309.685883 
	C28.063591,312.026031 26.740986,314.366150 25.385036,316.765289 
	C28.007177,319.269043 30.747868,321.885986 34.576809,325.542053 
	C31.649300,325.767273 30.306486,325.870575 28.589279,325.853363 
z"/>
<path fill="#FEF462" opacity="1.000000" stroke="none" 
	d="
M35.359875,233.764709 
	C38.523605,230.749649 36.061768,228.982697 33.684986,226.764923 
	C35.067753,226.128937 36.295799,225.070358 37.493111,225.104050 
	C41.420223,225.214569 44.977726,225.235214 45.587883,220.040039 
	C45.637970,219.613571 47.855492,218.913742 48.001823,219.114929 
	C48.766056,220.165619 49.937149,221.783386 49.583950,222.620346 
	C48.566135,225.032074 49.069824,226.130524 51.384861,227.196472 
	C52.219772,227.580917 52.938690,230.255905 52.857468,230.299591 
	C48.302063,232.749832 50.689697,237.273026 49.583290,241.412781 
	C47.900990,240.360336 46.325455,239.623917 45.061573,238.528061 
	C42.939209,236.687851 41.438595,233.570206 37.748158,235.859528 
	C37.499752,236.013596 36.332695,234.686813 35.359875,233.764709 
z"/>
<path fill="#FEF462" opacity="1.000000" stroke="none" 
	d="
M307.695801,386.379272 
	C307.829407,387.030640 307.814972,387.594421 307.689362,387.620361 
	C302.391632,388.715118 297.214874,390.152405 292.791077,393.839661 
	C292.531860,393.443146 292.272614,393.046661 292.013367,392.650177 
	C292.558990,390.918854 293.104614,389.187531 293.827240,386.894562 
	C291.990814,386.461212 290.044159,386.001892 287.088287,385.304413 
	C290.317596,382.062897 293.166382,379.203339 297.091095,375.263794 
	C299.168457,375.377258 303.071350,375.590454 308.259186,375.873840 
	C303.324280,379.908478 305.936127,382.942902 307.695801,386.379272 
z"/>
<path fill="#FEF462" opacity="1.000000" stroke="none" 
	d="
M4.323833,270.723450 
	C5.382381,266.417206 6.701285,262.428772 8.158746,258.021362 
	C9.202194,258.698761 10.683414,259.577911 12.067118,260.590363 
	C12.862578,261.172363 13.379650,262.290405 14.231331,262.610809 
	C16.746759,263.557037 19.366394,264.226227 21.945259,265.003815 
	C19.390657,267.783447 21.309282,270.177307 23.247480,273.329590 
	C19.823277,273.593964 16.668587,273.126862 14.248669,274.247101 
	C12.279943,275.158417 11.191566,277.971466 9.585880,280.110229 
	C6.568861,277.061188 10.250952,271.606903 4.323833,270.723450 
z"/>
<path fill="#FEF462" opacity="1.000000" stroke="none" 
	d="
M25.121763,176.358978 
	C25.499905,174.987274 26.173491,173.092560 26.435505,173.147858 
	C31.959167,174.313705 38.413494,172.082520 41.702625,177.690964 
	C42.219666,180.678802 42.829689,183.654877 43.209362,186.660065 
	C43.367931,187.915161 43.036827,189.232117 42.928368,190.520935 
	C41.632946,190.187592 39.681965,190.272415 39.156185,189.448120 
	C36.942272,185.977295 35.037632,185.687622 32.346947,188.958115 
	C31.628517,189.831360 29.833399,189.818802 27.720335,190.459000 
	C29.233725,187.161545 30.338028,184.755432 31.610922,181.981979 
	C29.730024,180.439087 27.477781,178.591583 25.121763,176.358978 
z"/>
<path fill="#FEF463" opacity="1.000000" stroke="none" 
	d="
M77.925079,269.801788 
	C76.975777,271.315887 76.011131,272.469086 74.938301,273.510834 
	C73.318657,275.083588 71.623543,276.578613 69.015160,278.975311 
	C67.004898,278.869812 63.521721,278.687042 61.307808,278.570862 
	C60.875004,275.156952 60.522419,272.977295 60.350063,270.783478 
	C60.251728,269.531738 60.020481,267.941833 60.646915,267.093109 
	C61.139214,266.426147 62.864258,266.712524 64.023239,266.482452 
	C65.293098,266.230408 66.666756,266.102875 67.770836,265.506073 
	C69.499062,264.571899 71.038773,263.288971 72.658333,262.153778 
	C72.968903,262.518250 73.279465,262.882751 73.590034,263.247223 
	C73.093353,264.985138 72.596680,266.723053 72.038963,268.674530 
	C74.049171,268.921875 75.955231,269.156433 77.925079,269.801788 
z"/>
<path fill="#FEF462" opacity="1.000000" stroke="none" 
	d="
M377.021423,369.909851 
	C375.738892,366.466461 374.446259,363.440857 372.966705,359.977722 
	C377.708038,360.158783 382.734009,361.023621 384.385651,353.413269 
	C386.663879,357.539978 388.179901,360.286041 389.695892,363.032074 
	C390.324249,363.037048 390.952606,363.042023 391.580933,363.046967 
	C390.516754,364.441040 389.480469,365.857697 388.378387,367.221130 
	C387.662323,368.107056 386.567688,368.790131 386.128998,369.779694 
	C383.910797,374.782959 381.365448,374.970978 377.021423,369.909851 
z"/>
<path fill="#FEF462" opacity="1.000000" stroke="none" 
	d="
M328.704468,75.264076 
	C327.263031,78.517097 325.577118,81.478996 323.372559,85.352135 
	C321.668640,86.086739 318.732605,79.748207 315.902771,86.181709 
	C315.614471,85.828888 315.326202,85.476074 315.037933,85.123260 
	C314.699036,83.551880 314.722961,81.770340 313.956238,80.446815 
	C311.179596,75.653656 309.965759,71.796684 317.526825,70.738365 
	C318.314026,70.628174 318.783752,68.249771 319.400787,66.923790 
	C319.715363,67.773979 320.029968,68.624168 320.344543,69.474358 
	C323.049713,71.307220 325.754852,73.140083 328.704468,75.264076 
z"/>
<path fill="#FEF362" opacity="1.000000" stroke="none" 
	d="
M271.987244,180.162598 
	C274.634766,180.107422 277.355530,180.412292 279.908722,179.893188 
	C282.337738,179.399353 284.591797,178.044678 287.053802,177.013626 
	C287.999908,178.390640 288.968262,179.800018 290.007019,181.311905 
	C287.463257,184.349045 285.339630,187.067459 281.275177,182.428680 
	C280.112030,181.101166 276.150726,182.225342 274.579803,182.225342 
	C273.644928,185.043564 273.460175,186.860886 272.477295,187.972458 
	C272.056183,188.448730 269.974396,187.456604 268.162689,186.809875 
	C267.443695,186.279083 267.175171,186.132355 266.872620,186.047852 
	C266.100372,186.362198 265.328125,186.676544 264.264923,186.997803 
	C263.973969,187.004730 264.047913,187.073380 264.047913,187.073380 
	C263.177734,186.555389 262.307587,186.037415 261.304626,185.440369 
	C265.346649,179.257629 258.699860,175.205566 257.998383,169.122513 
	C258.009216,167.877899 258.030457,167.381973 258.051636,166.886047 
	C259.267365,168.681534 260.689667,170.373489 261.652832,172.295532 
	C263.306366,175.595352 264.443451,179.208267 268.835754,180.973083 
	C270.364044,180.700043 271.175659,180.431320 271.987244,180.162598 
z"/>
<path fill="#FEF462" opacity="1.000000" stroke="none" 
	d="
M66.202003,204.459076 
	C67.141693,202.553360 67.902367,201.003998 68.663048,199.454620 
	C69.272957,199.867462 69.882866,200.280289 70.492775,200.693115 
	C71.552193,203.711731 70.855064,209.363205 76.717911,205.035782 
	C77.480774,206.287125 78.145142,207.376907 78.976593,208.740753 
	C75.594063,211.225098 70.953720,212.435623 69.563393,217.385208 
	C69.423470,217.883331 64.896812,217.149231 63.151260,217.035538 
	C61.607800,212.841171 60.267986,209.200211 59.061146,205.920593 
	C61.533360,205.528122 63.778175,205.171768 66.202003,204.459076 
z"/>
<path fill="#FEF462" opacity="1.000000" stroke="none" 
	d="
M168.926987,232.946564 
	C170.367447,233.200516 171.807907,233.454453 173.248367,233.708405 
	C173.592178,233.191483 173.935989,232.674545 174.279816,232.157623 
	C175.278259,236.057053 176.276718,239.956467 177.354263,244.164764 
	C174.336670,245.338379 170.992920,246.638870 166.591522,248.350693 
	C165.709930,244.988480 164.217697,241.744385 164.266342,238.523529 
	C164.293533,236.722153 166.876770,234.959381 168.653290,233.096237 
	C168.998322,233.013275 168.926987,232.946564 168.926987,232.946564 
z"/>
<path fill="#FEF262" opacity="1.000000" stroke="none" 
	d="
M319.029602,224.924866 
	C317.463379,227.765305 315.897186,230.605728 314.438141,233.251740 
	C312.790009,232.743378 310.885590,232.155930 308.981140,231.568497 
	C308.357056,232.050201 307.733002,232.531906 307.108917,233.013596 
	C306.545135,229.219528 305.981354,225.425446 305.340210,221.110672 
	C307.279541,221.230270 308.466309,221.303467 309.816071,221.386703 
	C309.921021,220.526093 310.058105,219.401749 310.193481,218.291779 
	C314.793060,217.983154 316.236847,222.056213 318.963989,224.631470 
	C318.959503,224.998550 319.029602,224.924866 319.029602,224.924866 
z"/>
<path fill="#FEF561" opacity="1.000000" stroke="none" 
	d="
M256.997742,168.836563 
	C255.474289,168.056290 253.950836,167.276016 252.916199,166.746109 
	C253.612289,160.194382 254.498779,153.671509 254.890106,147.119080 
	C255.016510,145.002502 253.518997,142.834625 253.340210,140.643219 
	C253.086212,137.529770 254.257828,135.006454 257.895447,134.346756 
	C258.827972,135.719437 259.819824,137.179520 260.811707,138.639587 
	C260.332428,138.533142 259.853149,138.426682 259.373871,138.320221 
	C258.582214,141.568344 257.739471,144.805359 257.030792,148.071487 
	C256.824036,149.024338 256.898834,150.072235 257.017426,151.055756 
	C257.499969,155.057343 255.427277,159.446381 258.951935,163.042099 
	C259.431549,163.531357 258.928192,164.984177 258.251831,166.207336 
	C257.415070,167.228073 257.206421,168.032318 256.997742,168.836563 
z"/>
<path fill="#FEF463" opacity="1.000000" stroke="none" 
	d="
M122.897781,177.406113 
	C122.031639,176.381409 121.420815,175.661545 121.054008,175.229248 
	C123.374794,173.060349 125.427330,171.142120 127.183037,169.501297 
	C129.766403,170.885330 132.278961,172.231430 134.791153,173.577316 
	C134.011322,176.237564 133.216949,178.947479 132.405609,181.715195 
	C129.850677,182.025925 127.160088,182.353149 124.471710,182.680115 
	C124.042923,181.064255 123.598007,179.387604 122.897781,177.406113 
z"/>
<path fill="#FEF462" opacity="1.000000" stroke="none" 
	d="
M194.859146,178.180161 
	C190.751175,177.001205 186.643204,175.822266 183.367783,174.882248 
	C181.505875,175.894257 179.288834,177.907928 178.367599,177.429016 
	C176.538361,176.478043 174.352402,174.205978 174.263077,172.384262 
	C174.127991,169.628937 175.635376,166.946793 179.461487,166.935211 
	C182.182800,166.926971 183.644226,167.607910 183.897797,170.606079 
	C183.971298,171.475266 185.599808,172.347015 186.660049,172.972519 
	C189.380356,174.577347 192.181808,176.044617 194.864075,177.910660 
	C194.777344,178.254440 194.859146,178.180161 194.859146,178.180161 
z"/>
<path fill="#FEF362" opacity="1.000000" stroke="none" 
	d="
M280.776184,230.254074 
	C284.096802,229.563141 287.448822,228.806702 290.812469,228.106232 
	C294.287964,227.382492 297.759369,226.607269 301.267914,226.098312 
	C302.093201,225.978607 303.060486,226.837875 303.962463,227.246765 
	C303.222656,227.830429 302.551392,228.783813 301.731567,228.935806 
	C297.437866,229.731827 292.860779,229.688110 288.879425,231.224625 
	C286.452667,232.161163 284.686615,235.263306 283.054047,237.683014 
	C281.241760,240.369034 279.919067,243.385391 277.830017,245.973755 
	C276.697327,240.776031 279.910492,237.555222 282.861176,234.149536 
	C282.271973,233.114777 281.630920,231.988983 280.941711,230.501099 
	C280.893524,230.139008 280.812714,230.213165 280.776184,230.254074 
z"/>
<path fill="#FEF561" opacity="1.000000" stroke="none" 
	d="
M217.275833,179.658859 
	C221.009262,175.977600 221.011673,176.403656 223.235657,181.009781 
	C225.171295,185.018677 228.657669,188.268784 231.387939,191.907333 
	C233.441833,194.644485 235.383530,197.465820 237.375168,200.249695 
	C236.953232,200.577423 236.531281,200.905167 236.109344,201.232910 
	C229.783081,194.234985 223.456833,187.237061 217.227783,179.919067 
	C217.324997,179.598984 217.275833,179.658859 217.275833,179.658859 
z"/>
<path fill="#FEF462" opacity="1.000000" stroke="none" 
	d="
M369.406525,66.679153 
	C368.499268,64.481781 367.916656,62.547764 367.536346,61.285332 
	C369.542725,60.072598 371.468109,58.908817 373.393494,57.745037 
	C376.272552,57.696224 380.334595,59.587040 376.356445,65.697098 
	C374.422729,66.060600 372.076965,66.501556 369.406525,66.679153 
z"/>
<path fill="#FEF561" opacity="1.000000" stroke="none" 
	d="
M175.982330,193.731049 
	C174.850342,198.468643 173.736969,202.771118 172.435303,207.801224 
	C171.265274,206.499710 170.037476,205.704590 170.140656,205.163071 
	C171.671646,197.127701 173.352966,189.120224 175.110489,181.130722 
	C175.213638,180.661758 176.268158,180.402069 176.879929,180.044983 
	C177.243118,180.983292 178.017212,181.978149 177.897308,182.850021 
	C177.415604,186.352676 176.657135,189.817276 175.982330,193.731049 
z"/>
<path fill="#FEF560" opacity="1.000000" stroke="none" 
	d="
M254.220581,255.810669 
	C259.427307,256.379578 258.849945,256.172516 257.052094,261.185913 
	C256.102631,263.833527 257.486755,267.363770 257.988983,270.467743 
	C258.257141,272.125122 258.890106,273.723480 259.474457,275.751038 
	C257.380219,275.751038 255.968994,275.751038 254.146255,275.751038 
	C254.099243,274.852478 253.754761,273.816711 254.050705,273.018311 
	C255.882828,268.075806 255.743622,263.438019 252.640884,258.969025 
	C252.388672,258.605743 253.503433,257.293396 254.161697,256.059174 
	C254.340408,255.696304 254.257217,255.769226 254.220581,255.810669 
z"/>
<path fill="#FEF462" opacity="1.000000" stroke="none" 
	d="
M72.771561,382.492310 
	C70.289902,382.851318 67.988174,382.851318 65.483078,382.851318 
	C63.726231,376.609344 63.726231,376.609344 67.640747,373.025299 
	C69.505867,373.949799 71.452682,374.914825 73.372459,375.866425 
	C73.228790,378.005219 73.090141,380.069275 72.771561,382.492310 
z"/>
<path fill="#FEF462" opacity="1.000000" stroke="none" 
	d="
M139.155670,362.623016 
	C139.030609,364.173828 139.030609,365.321625 139.030609,366.735779 
	C136.521347,366.735779 134.247925,366.735779 131.654816,366.735779 
	C130.885208,365.281769 129.954910,363.524170 129.461044,362.591125 
	C131.274597,360.855164 132.855942,359.341461 134.635696,357.637848 
	C139.247009,360.382416 139.247009,360.382416 139.155670,362.623016 
z"/>
<path fill="#FEF361" opacity="1.000000" stroke="none" 
	d="
M85.768677,74.743263 
	C84.609947,75.450577 83.512573,76.441780 82.866684,76.204430 
	C81.255318,75.612259 79.849174,74.461632 78.313988,73.506119 
	C78.614059,71.627602 78.937050,69.605652 79.318230,67.219398 
	C81.426086,67.003098 84.046921,65.996368 85.907448,66.784492 
	C87.311089,67.379074 87.741722,70.270638 88.725075,72.398743 
	C88.011635,72.947632 87.023582,73.707794 85.768677,74.743263 
z"/>
<path fill="#FEF561" opacity="1.000000" stroke="none" 
	d="
M123.131981,261.588135 
	C122.532974,263.461884 122.060005,264.969055 121.491058,266.782043 
	C119.783600,266.939850 117.725418,267.130096 115.542473,267.331879 
	C114.741508,265.428741 113.792862,263.174713 112.923218,261.108398 
	C114.622780,259.759766 116.136925,258.558258 117.962990,257.109253 
	C119.607758,258.086395 121.628006,259.284058 123.638496,260.497894 
	C123.681755,260.524017 123.646492,260.755219 123.588173,260.856323 
	C123.507996,260.995270 123.370781,261.101349 123.131981,261.588135 
z"/>
<path fill="#FEF462" opacity="1.000000" stroke="none" 
	d="
M76.759537,143.271576 
	C77.558289,140.649170 78.629395,138.312088 79.699768,135.976608 
	C82.085197,137.456161 83.903069,138.583710 85.998642,139.883484 
	C85.601112,141.607376 85.143845,143.590347 84.669525,145.647247 
	C82.689644,146.016510 80.677048,146.391861 78.571945,146.784470 
	C78.100815,145.797089 77.566353,144.676987 76.759537,143.271576 
z"/>
<path fill="#FEF462" opacity="1.000000" stroke="none" 
	d="
M194.740967,178.296021 
	C196.368317,176.546097 197.641205,172.563766 200.421463,177.545685 
	C200.777023,178.182770 202.830292,177.880478 204.098434,177.998734 
	C208.288986,178.389496 212.480164,178.773544 216.973465,179.409515 
	C217.275833,179.658859 217.324997,179.598984 217.359406,179.560104 
	C215.892288,180.013992 214.392303,180.919373 212.888947,180.924957 
	C207.618439,180.944580 202.343307,180.714401 197.079590,180.411423 
	C196.358612,180.369919 195.692200,179.380051 194.929840,178.504700 
	C194.859146,178.180161 194.777344,178.254440 194.740967,178.296021 
z"/>
<path fill="#FEF560" opacity="1.000000" stroke="none" 
	d="
M343.757751,90.699097 
	C340.195618,88.034058 336.908600,85.129875 333.118042,81.780777 
	C339.140747,79.787392 342.220673,83.973877 345.822998,85.967445 
	C347.034271,86.637756 347.079102,89.868835 343.757751,90.699097 
z"/>
<path fill="#FEF562" opacity="1.000000" stroke="none" 
	d="
M338.585052,31.259819 
	C338.369141,33.062695 337.838654,34.655613 337.123199,36.803967 
	C336.723328,36.854374 335.611755,36.901237 334.550446,37.156849 
	C333.651398,37.373371 332.810486,37.831314 331.610474,38.317482 
	C331.202789,37.053349 330.995361,35.994648 330.523254,35.071243 
	C330.108795,34.260681 329.397675,33.601803 328.872253,32.944370 
	C330.604279,31.555124 332.097839,30.357132 333.629272,29.128782 
	C335.140991,29.754515 336.705719,30.402189 338.585052,31.259819 
z"/>
<path fill="#FEF462" opacity="1.000000" stroke="none" 
	d="
M237.715149,20.417408 
	C237.521408,22.767630 237.099472,24.791605 236.678131,26.812773 
	C228.335388,25.826702 227.902649,24.859394 232.681213,18.184547 
	C234.302811,18.827892 235.894897,19.459528 237.715149,20.417408 
z"/>
<path fill="#FEF462" opacity="1.000000" stroke="none" 
	d="
M368.605804,131.878586 
	C368.142883,133.280792 367.963531,134.395081 367.757080,135.677658 
	C366.106079,135.918198 364.401093,136.166611 362.286469,136.474701 
	C361.524963,134.871658 360.592804,132.909470 359.719757,131.071655 
	C363.304932,127.699265 366.369934,126.720612 368.605804,131.878586 
z"/>
<path fill="#FEF562" opacity="1.000000" stroke="none" 
	d="
M318.922729,225.033691 
	C320.416656,224.257553 321.947327,223.446289 323.613312,222.563293 
	C324.815887,223.145004 326.310852,223.868134 328.035614,224.702423 
	C327.602295,226.601822 327.149994,228.584244 326.645660,230.794815 
	C325.121216,230.794815 323.512543,230.794815 321.673615,230.794815 
	C320.858673,229.242538 319.931366,227.476303 319.016846,225.317474 
	C319.029602,224.924866 318.959503,224.998550 318.922729,225.033691 
z"/>
<path fill="#FEF562" opacity="1.000000" stroke="none" 
	d="
M373.061371,213.132095 
	C374.431519,211.684280 375.819855,210.624359 377.356232,209.451401 
	C378.773712,210.155228 380.358734,210.942215 382.077881,211.795837 
	C381.585876,213.782944 381.098816,215.749985 380.576935,217.857758 
	C378.945892,217.857758 377.334869,217.857758 375.767212,217.857758 
	C374.863708,216.399567 373.971619,214.959778 373.061371,213.132095 
z"/>
<path fill="#FEF561" opacity="1.000000" stroke="none" 
	d="
M169.031738,233.048889 
	C169.425766,227.063644 167.703979,220.805267 171.300827,215.138367 
	C171.289047,221.130280 173.993896,227.320221 169.343140,232.965317 
	C168.926987,232.946564 168.998322,233.013275 169.031738,233.048889 
z"/>
<path fill="#FEF361" opacity="1.000000" stroke="none" 
	d="
M38.313004,121.721657 
	C35.656380,120.057449 35.656380,120.057449 35.318817,112.894852 
	C38.435768,114.340210 40.987648,115.523537 44.550137,117.175491 
	C41.657928,119.501511 40.141033,120.721451 38.313004,121.721657 
z"/>
<path fill="#FEF15E" opacity="1.000000" stroke="none" 
	d="
M263.939667,186.967758 
	C262.762024,193.232254 261.618683,199.533722 260.331299,206.629044 
	C257.642944,203.063751 259.982758,191.094208 263.651306,187.050400 
	C264.047913,187.073380 263.973969,187.004730 263.939667,186.967758 
z"/>
<path fill="#FEF461" opacity="1.000000" stroke="none" 
	d="
M73.441177,32.203007 
	C71.580688,32.568672 69.798859,33.338043 68.601929,32.801819 
	C66.300171,31.770643 66.769791,27.073109 69.047379,26.610918 
	C70.391968,26.338060 71.772339,26.241558 74.165787,25.933121 
	C74.034401,28.027000 73.909225,30.021976 73.441177,32.203007 
z"/>
<path fill="#FEF562" opacity="1.000000" stroke="none" 
	d="
M213.776276,61.592033 
	C213.668076,62.805454 213.740891,63.671677 213.954315,66.210274 
	C210.609070,64.528221 208.046249,63.239586 206.086578,62.254223 
	C208.160309,60.501057 209.460510,59.401836 210.760727,58.302616 
	C210.568527,57.706364 210.376343,57.110111 210.184143,56.513859 
	C211.441864,58.090851 212.699585,59.667843 213.776276,61.592033 
z"/>
<path fill="#FEF362" opacity="1.000000" stroke="none" 
	d="
M349.000183,119.764626 
	C347.413574,121.018661 345.828705,121.850945 344.243866,122.683228 
	C343.584564,120.291237 342.925232,117.899246 342.265900,115.507256 
	C342.806580,115.309677 343.347290,115.112106 343.887970,114.914528 
	C345.293793,116.767662 349.994476,114.463852 349.000183,119.764626 
z"/>
<path fill="#FEF560" opacity="1.000000" stroke="none" 
	d="
M207.317596,221.186493 
	C208.904510,220.572845 210.806747,219.487061 211.420242,219.985992 
	C212.877670,221.171234 213.724838,223.106918 215.089783,225.144150 
	C212.196732,225.961487 210.541321,226.429169 208.308151,227.060074 
	C207.898193,225.231384 207.472641,223.333069 207.317596,221.186493 
z"/>
<path fill="#FEF161" opacity="1.000000" stroke="none" 
	d="
M101.033279,57.009811 
	C105.403839,53.829071 107.215645,55.934364 108.015198,61.238571 
	C105.909035,61.450954 103.721626,61.845047 101.575058,61.686401 
	C101.279472,61.664558 101.186554,58.900612 101.033279,57.009811 
z"/>
<path fill="#FEF463" opacity="1.000000" stroke="none" 
	d="
M154.209137,349.454407 
	C152.728699,351.042084 151.421646,352.272827 150.137817,353.481659 
	C146.102905,349.769867 146.036392,347.102966 151.637665,344.878235 
	C152.384598,346.026367 153.383560,347.561920 154.209137,349.454407 
z"/>
<path fill="#FEF461" opacity="1.000000" stroke="none" 
	d="
M150.289612,34.300835 
	C151.967636,34.822376 153.338928,35.580738 155.727921,36.901924 
	C153.759171,38.939373 152.012390,40.747089 150.188751,42.634365 
	C146.676544,39.199539 145.959061,36.714085 150.289612,34.300835 
z"/>
<path fill="#FEF161" opacity="1.000000" stroke="none" 
	d="
M327.208557,31.480930 
	C325.092529,35.354591 323.624420,35.000996 319.925293,29.979219 
	C321.343231,28.833826 322.778168,27.674685 325.230469,25.693729 
	C326.015778,27.675600 326.696747,29.394127 327.208557,31.480930 
z"/>
<path fill="#FEF262" opacity="1.000000" stroke="none" 
	d="
M158.170044,360.918091 
	C156.982361,359.453033 156.193115,357.963715 155.353012,356.378418 
	C156.380280,355.400909 157.584198,354.255310 159.455246,352.474915 
	C160.966537,354.555054 162.430634,356.570221 164.190247,358.992157 
	C161.482880,359.907990 160.025696,360.400940 158.170044,360.918091 
z"/>
<path fill="#FEF561" opacity="1.000000" stroke="none" 
	d="
M188.032654,162.903076 
	C186.582108,163.913803 185.160904,164.542328 183.644455,165.212952 
	C182.808640,163.580734 182.079025,162.155914 181.212921,160.464523 
	C182.331314,159.416809 183.513809,158.309036 185.001740,156.915146 
	C185.796997,158.860397 191.065918,158.054214 188.032654,162.903076 
z"/>
<path fill="#FEF461" opacity="1.000000" stroke="none" 
	d="
M136.799683,148.559814 
	C136.967911,150.427826 136.967911,151.908813 136.967911,153.694458 
	C135.102615,153.694458 133.362122,153.694458 130.744751,153.694458 
	C130.984818,152.133423 131.036987,150.414078 131.534790,148.835236 
	C132.688843,145.174927 134.978027,148.856354 136.799683,148.559814 
z"/>
<path fill="#FEF562" opacity="1.000000" stroke="none" 
	d="
M169.282761,75.667793 
	C170.583710,74.301109 172.100845,73.247269 173.617966,72.193428 
	C174.687164,74.185295 175.756363,76.177170 176.825577,78.169037 
	C176.245499,78.704948 175.665421,79.240868 175.085358,79.776787 
	C173.223206,78.511406 171.361069,77.246025 169.282761,75.667793 
z"/>
<path fill="#FEF462" opacity="1.000000" stroke="none" 
	d="
M296.550629,83.988792 
	C292.858459,82.686127 294.703430,80.462852 296.132111,80.222099 
	C298.997253,79.739281 302.044495,80.337044 305.586884,80.517891 
	C303.343872,85.840492 299.643585,83.236877 296.550629,83.988792 
z"/>
<path fill="#FEF462" opacity="1.000000" stroke="none" 
	d="
M332.198120,64.315971 
	C330.423309,65.175102 328.913239,65.741119 327.403137,66.307137 
	C327.008636,65.743523 326.614105,65.179916 326.219574,64.616310 
	C328.686066,62.158211 331.152588,59.700115 333.619080,57.242016 
	C334.252228,57.741558 334.885345,58.241100 335.518494,58.740643 
	C334.499969,60.501381 333.481415,62.262119 332.198120,64.315971 
z"/>
<path fill="#FEF561" opacity="1.000000" stroke="none" 
	d="
M373.670227,34.728851 
	C375.189575,34.288517 377.192688,33.551781 377.452698,33.950798 
	C378.456512,35.491409 378.903839,37.394608 379.558563,39.162685 
	C379.210480,39.563286 378.862427,39.963886 378.514374,40.364487 
	C376.929108,39.689724 375.143372,39.266663 373.844696,38.232151 
	C373.211975,37.728119 373.488403,36.082832 373.670227,34.728851 
z"/>
<path fill="#FEF161" opacity="1.000000" stroke="none" 
	d="
M214.096924,298.038818 
	C215.589645,299.665405 216.683807,301.264771 217.992767,303.178101 
	C215.391632,304.040710 214.053833,304.484375 212.446838,305.017303 
	C211.616455,303.724487 210.757492,302.387207 209.607269,300.596466 
	C211.076141,299.668365 212.387238,298.839966 214.096924,298.038818 
z"/>
<path fill="#FEF463" opacity="1.000000" stroke="none" 
	d="
M306.986694,62.950489 
	C306.019989,61.227222 305.049194,59.913918 304.282593,58.490646 
	C304.209076,58.354187 305.644104,56.982960 305.973541,57.124985 
	C307.382690,57.732498 309.058807,58.414467 309.843414,59.596436 
	C310.765137,60.985008 310.864563,62.919415 311.677734,65.946465 
	C309.167664,64.530579 308.103455,63.930267 306.986694,62.950489 
z"/>
<path fill="#FEF560" opacity="1.000000" stroke="none" 
	d="
M275.650085,39.263954 
	C274.231720,37.929684 273.148163,36.808521 272.064606,35.687363 
	C273.391296,35.450253 274.710144,35.135708 276.047119,34.999779 
	C277.179718,34.884628 278.333344,34.976036 279.742767,34.976036 
	C280.342743,38.307140 279.829254,40.259029 275.650085,39.263954 
z"/>
<path fill="#FEF65F" opacity="1.000000" stroke="none" 
	d="
M316.002625,99.013100 
	C316.749725,96.233192 315.166504,92.546822 319.648865,91.805878 
	C319.648865,95.178566 319.648865,98.160507 319.648865,102.729630 
	C317.830444,101.069794 316.915894,100.235001 316.002625,99.013100 
z"/>
<path fill="#FEF562" opacity="1.000000" stroke="none" 
	d="
M362.797058,301.467804 
	C363.005096,297.007385 363.457581,296.812805 370.159729,298.896576 
	C367.793121,300.912018 366.016632,302.424927 364.240143,303.937805 
	C363.815338,303.234100 363.390503,302.530365 362.797058,301.467804 
z"/>
<path fill="#FEF463" opacity="1.000000" stroke="none" 
	d="
M156.352203,135.727081 
	C156.897278,137.502548 157.116104,139.051605 157.334930,140.600662 
	C156.868469,140.984146 156.402008,141.367630 155.935547,141.751114 
	C154.316696,140.602310 151.407074,139.504623 151.359116,138.293625 
	C151.270828,136.063828 153.057251,134.107101 156.352203,135.727081 
z"/>
<path fill="#FEF161" opacity="1.000000" stroke="none" 
	d="
M185.416885,256.544800 
	C181.412338,258.170135 180.322327,254.278183 178.280319,252.518387 
	C176.856140,251.291046 176.208878,249.162170 175.214569,247.436005 
	C175.539001,247.133560 175.863449,246.831100 176.187881,246.528656 
	C179.043823,249.772385 181.899765,253.016129 185.060928,256.422668 
	C185.366135,256.585449 185.416885,256.544800 185.416885,256.544800 
z"/>
<path fill="#FEF562" opacity="1.000000" stroke="none" 
	d="
M185.614288,242.245392 
	C187.389069,243.174866 188.814896,243.901764 190.240723,244.628662 
	C190.017960,245.190536 189.795197,245.752411 189.572418,246.314301 
	C185.973770,245.161453 182.375107,244.008621 178.776459,242.855789 
	C178.915543,242.259171 179.054642,241.662552 179.193726,241.065933 
	C181.217606,241.391556 183.241486,241.717178 185.614288,242.245392 
z"/>
<path fill="#FEF463" opacity="1.000000" stroke="none" 
	d="
M125.067993,98.001602 
	C129.590942,99.405121 129.756866,100.591019 126.138145,104.101753 
	C124.940193,103.457687 123.680359,102.780350 121.810776,101.775185 
	C122.831970,100.425827 123.748787,99.214401 125.067993,98.001602 
z"/>
<path fill="#FEF65F" opacity="1.000000" stroke="none" 
	d="
M165.364548,142.294312 
	C163.529541,142.540512 161.988144,142.540512 160.446747,142.540512 
	C160.246552,142.010284 160.046356,141.480072 159.846161,140.949844 
	C161.474167,139.486649 163.102188,138.023453 164.730194,136.560257 
	C165.186890,136.736526 165.643585,136.912796 166.100296,137.089050 
	C165.952911,138.742081 165.805542,140.395096 165.364548,142.294312 
z"/>
<path fill="#FEF562" opacity="1.000000" stroke="none" 
	d="
M120.180626,143.676453 
	C124.286995,148.302673 120.412552,148.862061 117.604118,150.087708 
	C115.285034,145.249069 115.574394,144.471329 120.180626,143.676453 
z"/>
<path fill="#FEF65F" opacity="1.000000" stroke="none" 
	d="
M127.988625,332.059570 
	C124.853523,334.675690 123.421051,332.537659 121.516487,329.322083 
	C123.544662,328.849457 125.326134,328.298431 127.135124,328.184570 
	C127.361717,328.170288 127.733612,330.464264 127.988625,332.059570 
z"/>
<path fill="#FEF560" opacity="1.000000" stroke="none" 
	d="
M56.068649,323.109833 
	C56.923935,321.897003 57.785934,321.082428 59.596550,319.371429 
	C60.677155,321.338470 61.709133,323.217010 62.741112,325.095551 
	C62.095074,325.660736 61.449039,326.225922 60.803001,326.791107 
	C59.227119,325.696777 57.651241,324.602417 56.068649,323.109833 
z"/>
<path fill="#FEF65F" opacity="1.000000" stroke="none" 
	d="
M127.775803,17.321131 
	C130.341095,21.764250 126.637337,21.636900 124.465195,22.582230 
	C123.633751,21.400135 122.806183,20.223555 121.356857,18.163000 
	C123.726845,17.739025 125.616760,17.400934 127.775803,17.321131 
z"/>
<path fill="#FEF361" opacity="1.000000" stroke="none" 
	d="
M239.879486,166.370605 
	C237.886520,162.541412 238.869843,161.306396 243.567993,161.215378 
	C244.010391,162.551544 244.459534,163.908096 245.037399,165.653427 
	C243.394333,165.988312 241.765839,166.320221 239.879486,166.370605 
z"/>
<path fill="#FEF65F" opacity="1.000000" stroke="none" 
	d="
M145.293091,397.981140 
	C143.906158,397.153076 142.914307,396.339325 141.756424,395.389374 
	C142.808777,394.234619 143.695709,393.261383 144.836151,392.009979 
	C145.966003,392.585205 147.325912,393.277527 149.673386,394.472656 
	C148.024109,395.930573 146.856140,396.963043 145.293091,397.981140 
z"/>
<path fill="#FEF562" opacity="1.000000" stroke="none" 
	d="
M304.528503,142.216125 
	C306.651672,142.794342 308.408844,143.549103 311.381744,144.826065 
	C308.569885,146.554855 307.368225,147.293671 304.967041,148.769974 
	C304.642426,146.196732 304.402466,144.294693 304.528503,142.216125 
z"/>
<path fill="#FEF560" opacity="1.000000" stroke="none" 
	d="
M148.482239,83.989243 
	C146.940689,88.076195 145.695847,88.090683 141.942673,84.187698 
	C142.817276,83.225700 143.703903,82.250481 145.028244,80.793800 
	C146.140671,81.668930 147.442657,82.693192 148.482239,83.989243 
z"/>
<path fill="#FEF463" opacity="1.000000" stroke="none" 
	d="
M13.897182,92.952675 
	C12.328902,92.522705 11.164244,92.057549 9.445571,91.371109 
	C10.640075,89.741753 11.565167,88.290543 12.744981,87.089577 
	C12.908249,86.923378 15.003372,87.949669 15.040167,88.501511 
	C15.136787,89.950623 14.590778,91.442589 13.897182,92.952675 
z"/>
<path fill="#FEF561" opacity="1.000000" stroke="none" 
	d="
M134.433136,341.224243 
	C132.888428,340.526886 131.707092,339.642914 129.765289,338.189880 
	C131.986252,337.070465 133.298523,335.861206 134.447998,336.000000 
	C135.397125,336.114624 136.408295,337.725098 136.855103,338.880402 
	C137.007736,339.275055 135.529556,340.300446 134.433136,341.224243 
z"/>
<path fill="#FEF562" opacity="1.000000" stroke="none" 
	d="
M185.346207,256.611145 
	C186.876083,257.417664 188.698273,257.937592 189.829803,259.119049 
	C190.232681,259.539673 189.107620,261.665955 188.347031,262.787933 
	C188.157333,263.067780 186.059036,262.689667 185.899612,262.238647 
	C185.352509,260.691040 185.276733,258.976837 185.219086,256.935486 
	C185.416885,256.544800 185.366135,256.585449 185.346207,256.611145 
z"/>
<path fill="#FEF65F" opacity="1.000000" stroke="none" 
	d="
M59.924149,10.004702 
	C61.110657,11.419325 61.898342,12.834448 62.686028,14.249570 
	C62.165550,14.683759 61.645073,15.117947 61.124596,15.552135 
	C59.293526,14.700729 57.462452,13.849323 54.281082,12.370059 
	C57.092419,11.102304 58.308872,10.553753 59.924149,10.004702 
z"/>
<path fill="#FEF462" opacity="1.000000" stroke="none" 
	d="
M140.933228,165.780212 
	C140.675842,167.616425 140.465790,169.125458 139.859650,170.453751 
	C139.753616,170.686127 137.731339,170.458008 137.057114,169.891464 
	C136.475769,169.402985 136.148193,167.474365 136.408524,167.313156 
	C137.764465,166.473618 139.344208,165.995544 140.933228,165.780212 
z"/>
<path fill="#FEF361" opacity="1.000000" stroke="none" 
	d="
M102.258575,256.975403 
	C101.421745,255.624832 100.546112,254.227936 100.719482,252.976364 
	C100.817863,252.266174 102.621124,251.389084 103.682571,251.353058 
	C104.425400,251.327850 105.943024,253.105713 105.868492,253.213074 
	C104.930679,254.563705 103.765778,255.756668 102.258575,256.975403 
z"/>
<path fill="#FEF562" opacity="1.000000" stroke="none" 
	d="
M328.437866,128.800537 
	C329.253326,130.124069 330.027588,131.268158 330.068665,132.438004 
	C330.085907,132.928665 328.410736,134.030487 327.752747,133.865631 
	C326.729736,133.609283 325.918427,132.508301 325.017365,131.765335 
	C326.045074,130.720718 327.072784,129.676102 328.437866,128.800537 
z"/>
<path fill="#FEF560" opacity="1.000000" stroke="none" 
	d="
M352.080902,21.987713 
	C351.006226,20.610817 350.330750,19.229000 349.655273,17.847183 
	C351.235565,17.328970 352.815857,16.810755 354.396149,16.292542 
	C354.707275,16.793207 355.018372,17.293873 355.329468,17.794538 
	C354.379669,19.190622 353.429871,20.586706 352.080902,21.987713 
z"/>
<path fill="#FEF362" opacity="1.000000" stroke="none" 
	d="
M306.608032,35.752789 
	C305.534027,34.493603 304.232208,33.025440 304.287354,31.610142 
	C304.316040,30.873428 306.738556,30.229975 308.079803,29.544395 
	C308.612793,29.978682 309.145782,30.412968 309.678772,30.847254 
	C308.766876,32.420082 307.854980,33.992908 306.608032,35.752789 
z"/>
<path fill="#FEF262" opacity="1.000000" stroke="none" 
	d="
M72.896919,60.975822 
	C71.343941,60.513351 70.183838,60.033066 68.972298,59.531483 
	C69.484558,58.022293 69.934464,56.696804 70.384811,55.370567 
	C75.228256,55.971584 75.949471,57.359150 72.896919,60.975822 
z"/>
<path fill="#FEF461" opacity="1.000000" stroke="none" 
	d="
M69.669739,329.291748 
	C70.410049,330.839508 70.812393,332.148560 71.214737,333.457581 
	C70.818817,333.871735 70.422897,334.285858 70.026978,334.700012 
	C68.424126,333.679535 66.821274,332.659088 65.218430,331.638641 
	C66.589539,330.776764 67.960655,329.914886 69.669739,329.291748 
z"/>
<path fill="#FEF462" opacity="1.000000" stroke="none" 
	d="
M289.019714,139.829407 
	C290.421234,136.439072 292.508453,137.013718 295.528931,138.844910 
	C294.356018,140.079437 293.421234,141.586655 292.073700,142.231842 
	C291.510712,142.501373 290.070618,140.938934 289.019714,139.829407 
z"/>
<path fill="#FEF262" opacity="1.000000" stroke="none" 
	d="
M134.029297,245.052795 
	C135.915863,244.227539 137.780746,243.791840 139.645645,243.356155 
	C139.935471,243.925629 140.225281,244.495102 140.515106,245.064575 
	C139.325333,246.232071 138.135559,247.399567 136.945786,248.567047 
	C135.966400,247.525482 134.987015,246.483917 134.029297,245.052795 
z"/>
<path fill="#FEF562" opacity="1.000000" stroke="none" 
	d="
M44.329063,127.709221 
	C44.489185,125.906601 44.904251,124.423317 45.319313,122.940041 
	C45.771523,122.806175 46.223732,122.672318 46.675941,122.538452 
	C47.675789,124.320869 48.675636,126.103287 49.675484,127.885704 
	C49.365280,128.281189 49.055077,128.676666 48.744869,129.072144 
	C47.357918,128.724289 45.970963,128.376434 44.329063,127.709221 
z"/>
<path fill="#FEF361" opacity="1.000000" stroke="none" 
	d="
M377.331573,130.164703 
	C379.070251,130.401611 380.529083,130.886292 381.987885,131.370972 
	C380.834473,132.756531 379.681091,134.142105 378.527710,135.527679 
	C378.035706,135.344559 377.543701,135.161423 377.051697,134.978302 
	C377.051697,133.456360 377.051697,131.934418 377.331573,130.164703 
z"/>
<path fill="#FEF463" opacity="1.000000" stroke="none" 
	d="
M111.973907,132.203842 
	C110.807289,133.663376 109.620354,134.721466 108.433411,135.779541 
	C108.040787,134.325928 106.905182,132.518661 107.396751,131.485901 
	C108.795158,128.547882 110.451294,130.894318 111.973907,132.203842 
z"/>
<path fill="#FEF65F" opacity="1.000000" stroke="none" 
	d="
M368.698181,82.242882 
	C368.486053,77.940155 369.713440,77.436043 373.928223,79.691803 
	C372.010315,83.763832 371.433044,84.094330 368.698181,82.242882 
z"/>
<path fill="#FEF361" opacity="1.000000" stroke="none" 
	d="
M346.398041,137.766083 
	C346.987183,139.323288 347.435516,140.696594 347.316589,142.018921 
	C347.287476,142.342606 344.918488,143.025955 344.474915,142.618652 
	C343.657166,141.867783 342.955353,140.313141 343.184387,139.318970 
	C343.360474,138.554459 345.038269,138.135834 346.398041,137.766083 
z"/>
<path fill="#FEF361" opacity="1.000000" stroke="none" 
	d="
M191.504852,287.188477 
	C190.257782,286.551819 188.777237,285.832001 188.670456,284.946472 
	C188.568497,284.100830 189.941513,282.280212 190.586853,282.316040 
	C191.747101,282.380493 192.848068,283.513275 193.973816,284.199707 
	C193.273148,285.144073 192.572479,286.088501 191.504852,287.188477 
z"/>
<path fill="#FEF65F" opacity="1.000000" stroke="none" 
	d="
M257.234375,168.918152 
	C257.206421,168.032318 257.415070,167.228073 257.875000,166.229706 
	C258.126221,166.035599 258.040283,166.456467 258.045959,166.671265 
	C258.030457,167.381973 258.009216,167.877899 257.972656,168.745880 
	C257.795197,169.078537 257.633087,169.039139 257.234375,168.918152 
z"/>
<path fill="#FEF561" opacity="1.000000" stroke="none" 
	d="
M271.637207,180.086639 
	C271.175659,180.431320 270.364044,180.700043 269.219910,180.962006 
	C269.687317,180.640396 270.487274,180.325546 271.637207,180.086639 
z"/>
<path fill="#FEF561" opacity="1.000000" stroke="none" 
	d="
M266.963745,186.300903 
	C267.175171,186.132355 267.443695,186.279083 267.829498,186.662811 
	C267.672119,186.743011 267.363495,186.648468 266.963745,186.300903 
z"/>
</svg>