<svg version="1.1" id="Layer_1" xmlns="http://www.w3.org/2000/svg" xmlns:xlink="http://www.w3.org/1999/xlink" x="0px" y="0px"
	 width="100%" viewBox="0 0 400 400" enable-background="new 0 0 400 400" xml:space="preserve">
<path fill="#000000" opacity="1.000000" stroke="none" 
	d="
M276.000000,0.999999 
	C317.654968,1.000000 359.309967,1.000000 400.982483,1.000000 
	C400.982483,134.284225 400.982483,267.568451 400.982483,400.926331 
	C267.753235,400.926331 134.506393,400.926331 1.129786,400.926331 
	C1.129786,267.790710 1.129786,134.581268 1.129786,1.000000 
	C77.021027,1.000000 153.042664,1.000000 229.871704,1.323539 
	C226.180496,2.763689 221.702103,3.970832 217.179947,4.982205 
	C187.930222,11.523855 163.048248,25.243155 144.343063,49.158421 
	C131.469498,65.617767 123.126381,84.174858 118.641823,104.699593 
	C110.844017,98.210022 102.153160,96.721817 93.204803,101.455986 
	C84.703346,105.953728 81.216446,113.592354 81.956230,123.199997 
	C82.078110,124.782753 82.167198,126.799759 81.343529,127.953819 
	C75.832306,135.675720 74.398628,143.894623 77.607292,152.430801 
	C74.817955,155.737106 72.347939,158.821869 69.714386,161.760056 
	C56.661366,176.322952 46.688610,192.725693 39.895275,211.078842 
	C39.468491,212.231842 38.305691,213.435043 37.180340,213.955536 
	C28.494488,217.972900 26.464703,224.358292 28.810104,233.337616 
	C29.420387,235.674072 31.087923,238.041946 30.847343,240.239685 
	C29.820902,249.616379 27.556410,258.898987 27.080730,268.283722 
	C26.526747,279.213440 27.022282,290.236267 27.732676,301.175171 
	C28.160454,307.762238 30.256138,314.230713 30.857542,320.820435 
	C31.255323,325.179016 30.089651,329.655823 30.045923,334.083832 
	C29.917582,347.079712 30.095541,360.078705 29.954542,373.074341 
	C29.895645,378.502838 29.150898,383.923279 29.072451,389.352509 
	C29.027586,392.457367 29.908764,395.094269 34.113174,395.051544 
	C47.775436,394.912659 61.440327,394.946930 75.103455,395.033081 
	C78.967834,395.057434 79.990738,392.610718 79.804123,389.654236 
	C79.434189,383.793640 78.437691,377.973480 78.040543,372.113556 
	C77.237396,360.263153 76.766579,348.390076 75.946236,336.541077 
	C75.551064,330.833252 74.445625,325.171661 74.122749,319.463074 
	C73.986435,317.052979 74.199814,313.341705 75.687569,312.330322 
	C84.962685,306.025055 88.571259,296.745728 87.703789,286.560883 
	C86.790634,275.839722 83.868057,265.230133 81.134155,254.751648 
	C79.964241,250.267593 81.263664,248.089645 84.983482,246.534821 
	C86.205208,246.024170 87.560135,245.832169 88.556831,245.572052 
	C89.030678,249.148102 89.108231,252.469543 89.948792,255.585129 
	C92.968323,266.777130 108.025032,269.968842 116.266083,267.221954 
	C124.743050,264.396423 131.469925,257.009094 129.908127,243.504959 
	C128.927780,235.028381 123.169228,228.027664 112.895386,225.872696 
	C109.770950,225.217316 106.958702,223.041016 104.023796,221.522034 
	C99.206696,219.028900 94.630051,215.211914 89.540161,214.329941 
	C83.624870,213.304962 77.265808,214.840912 71.119301,215.264008 
	C71.075089,215.603806 70.985527,214.882126 71.264702,214.356186 
	C76.190689,205.075790 80.395302,195.291077 86.320610,186.693848 
	C93.417221,176.397141 98.898270,163.943924 113.437805,160.848846 
	C113.924782,165.367294 114.498375,170.338684 114.990128,175.318176 
	C116.441841,190.018295 121.000778,203.873978 127.574394,216.922745 
	C139.567780,240.729874 158.210205,258.660370 179.488373,274.250031 
	C193.045242,284.182617 205.109055,295.465790 211.213394,312.000031 
	C213.294006,317.635529 217.814545,322.344147 220.980469,327.620148 
	C221.999832,329.318878 223.140549,331.715820 222.694595,333.384125 
	C221.096329,339.363312 218.074051,344.681091 211.848892,346.973907 
	C202.329620,350.480103 192.500061,353.212189 183.167557,357.140778 
	C169.920273,362.717346 159.317535,371.127899 156.228760,386.373413 
	C154.934402,392.762085 156.468048,394.998352 162.966049,394.998627 
	C222.952896,395.001129 282.939758,395.000092 342.926605,395.000000 
	C343.759766,395.000000 344.873901,395.343689 345.374634,394.935455 
	C347.035126,393.581573 349.657166,392.055298 349.793549,390.418793 
	C350.371033,383.487732 347.567657,377.280182 343.378998,371.995178 
	C336.580933,363.417725 327.409363,358.268250 317.052643,354.909698 
	C308.790771,352.230530 300.555511,349.373322 292.556183,346.006592 
	C284.085144,342.441284 280.462646,329.626312 287.670410,323.479736 
	C290.667694,320.923737 292.545929,316.545807 293.873840,312.636597 
	C298.013702,300.449524 305.424133,290.460144 315.155640,282.604614 
	C329.216309,271.254456 343.665192,260.470612 356.276337,247.379578 
	C368.843628,234.334183 377.736450,219.119781 383.890167,202.369431 
	C391.993042,180.313614 393.340973,157.434006 391.143463,134.091980 
	C389.516998,116.815720 386.295502,100.105049 380.113495,83.837212 
	C370.653076,58.942432 355.302795,38.855564 333.371643,23.762568 
	C316.736938,12.314582 297.912354,6.717144 278.376373,2.935181 
	C277.492523,2.764073 276.788025,1.666209 276.000000,0.999999 
M18.847483,137.648560 
	C19.558289,135.586411 21.169552,133.362427 20.832737,131.488586 
	C18.756092,119.935280 19.116320,108.519478 22.022379,97.208122 
	C27.345037,76.490578 38.938725,60.369434 57.159340,48.892056 
	C65.368584,43.720963 74.272797,40.676502 83.393700,37.827812 
	C84.940056,37.344849 85.786140,34.619751 86.955757,32.930538 
	C84.880440,31.641302 82.465996,28.920053 80.789993,29.316965 
	C74.393204,30.831844 67.989754,32.825405 62.033138,35.595631 
	C45.225159,43.412460 31.559465,55.144291 22.403679,71.331772 
	C11.493045,90.621834 7.101073,111.215141 11.826889,133.395096 
	C12.728122,137.624924 14.491429,138.466385 18.847483,137.648560 
M45.496861,78.990288 
	C34.519894,94.164085 31.774433,111.009178 34.851448,129.227859 
	C35.436207,132.690155 37.384895,134.234741 39.903400,133.754044 
	C42.686115,133.222916 44.175705,130.732239 44.060520,127.351524 
	C43.816860,120.199936 43.176441,112.919044 44.165932,105.897957 
	C46.235100,91.215858 54.379036,79.927917 66.010582,70.977325 
	C72.696991,65.832062 80.424446,63.209938 88.363136,60.821983 
	C89.752701,60.403999 91.667099,57.000019 91.197243,56.124348 
	C90.243813,54.347439 87.476120,51.918320 86.064438,52.261292 
	C69.688057,56.239956 55.558842,63.929375 45.496861,78.990288 
M68.455765,103.039169 
	C71.469177,98.978043 73.876709,94.183052 77.662506,91.057457 
	C81.629730,87.782059 86.892052,86.051491 91.642044,83.756897 
	C94.523705,82.364838 97.115387,80.533913 95.841927,77.061493 
	C94.739403,74.055191 92.315552,74.045975 89.012817,74.799370 
	C73.657593,78.302071 63.904629,88.027290 58.571548,102.152145 
	C55.836075,109.397148 54.714222,117.255539 56.938896,125.170731 
	C57.773270,128.139374 59.595547,129.756744 62.197861,128.802216 
	C63.819679,128.207321 64.959579,125.852531 65.914558,124.072334 
	C66.398178,123.170799 65.877090,121.778893 66.007759,120.631172 
	C66.649719,114.992516 67.357971,109.361397 68.455765,103.039169 
z"/>
<path fill="#66FFB2" opacity="1.000000" stroke="none" 
	d="
M275.531342,0.999999 
	C276.788025,1.666209 277.492523,2.764073 278.376373,2.935181 
	C297.912354,6.717144 316.736938,12.314582 333.371643,23.762568 
	C355.302795,38.855564 370.653076,58.942432 380.113495,83.837212 
	C386.295502,100.105049 389.516998,116.815720 391.143463,134.091980 
	C393.340973,157.434006 391.993042,180.313614 383.890167,202.369431 
	C377.736450,219.119781 368.843628,234.334183 356.276337,247.379578 
	C343.665192,260.470612 329.216309,271.254456 315.155640,282.604614 
	C305.424133,290.460144 298.013702,300.449524 293.873840,312.636597 
	C292.545929,316.545807 290.667694,320.923737 287.670410,323.479736 
	C280.462646,329.626312 284.085144,342.441284 292.556183,346.006592 
	C300.555511,349.373322 308.790771,352.230530 317.052643,354.909698 
	C327.409363,358.268250 336.580933,363.417725 343.378998,371.995178 
	C347.567657,377.280182 350.371033,383.487732 349.793549,390.418793 
	C349.657166,392.055298 347.035126,393.581573 345.374634,394.935455 
	C344.873901,395.343689 343.759766,395.000000 342.926605,395.000000 
	C282.939758,395.000092 222.952896,395.001129 162.966049,394.998627 
	C156.468048,394.998352 154.934402,392.762085 156.228760,386.373413 
	C159.317535,371.127899 169.920273,362.717346 183.167557,357.140778 
	C192.500061,353.212189 202.329620,350.480103 211.848892,346.973907 
	C218.074051,344.681091 221.096329,339.363312 222.694595,333.384125 
	C223.140549,331.715820 221.999832,329.318878 220.980469,327.620148 
	C217.814545,322.344147 213.294006,317.635529 211.213394,312.000031 
	C205.109055,295.465790 193.045242,284.182617 179.488373,274.250031 
	C158.210205,258.660370 139.567780,240.729874 127.574394,216.922745 
	C121.000778,203.873978 116.441841,190.018295 114.990128,175.318176 
	C114.498375,170.338684 113.924782,165.367294 113.437805,160.848846 
	C98.898270,163.943924 93.417221,176.397141 86.320610,186.693848 
	C80.395302,195.291077 76.190689,205.075790 71.264702,214.356186 
	C70.985527,214.882126 71.075089,215.603806 71.119301,215.264008 
	C77.265808,214.840912 83.624870,213.304962 89.540161,214.329941 
	C94.630051,215.211914 99.206696,219.028900 104.023796,221.522034 
	C106.958702,223.041016 109.770950,225.217316 112.895386,225.872696 
	C123.169228,228.027664 128.927780,235.028381 129.908127,243.504959 
	C131.469925,257.009094 124.743050,264.396423 116.266083,267.221954 
	C108.025032,269.968842 92.968323,266.777130 89.948792,255.585129 
	C89.108231,252.469543 89.030678,249.148102 88.556831,245.572052 
	C87.560135,245.832169 86.205208,246.024170 84.983482,246.534821 
	C81.263664,248.089645 79.964241,250.267593 81.134155,254.751648 
	C83.868057,265.230133 86.790634,275.839722 87.703789,286.560883 
	C88.571259,296.745728 84.962685,306.025055 75.687569,312.330322 
	C74.199814,313.341705 73.986435,317.052979 74.122749,319.463074 
	C74.445625,325.171661 75.551064,330.833252 75.946236,336.541077 
	C76.766579,348.390076 77.237396,360.263153 78.040543,372.113556 
	C78.437691,377.973480 79.434189,383.793640 79.804123,389.654236 
	C79.990738,392.610718 78.967834,395.057434 75.103455,395.033081 
	C61.440327,394.946930 47.775436,394.912659 34.113174,395.051544 
	C29.908764,395.094269 29.027586,392.457367 29.072451,389.352509 
	C29.150898,383.923279 29.895645,378.502838 29.954542,373.074341 
	C30.095541,360.078705 29.917582,347.079712 30.045923,334.083832 
	C30.089651,329.655823 31.255323,325.179016 30.857542,320.820435 
	C30.256138,314.230713 28.160454,307.762238 27.732676,301.175171 
	C27.022282,290.236267 26.526747,279.213440 27.080730,268.283722 
	C27.556410,258.898987 29.820902,249.616379 30.847343,240.239685 
	C31.087923,238.041946 29.420387,235.674072 28.810104,233.337616 
	C26.464703,224.358292 28.494488,217.972900 37.180340,213.955536 
	C38.305691,213.435043 39.468491,212.231842 39.895275,211.078842 
	C46.688610,192.725693 56.661366,176.322952 69.714386,161.760056 
	C72.347939,158.821869 74.817955,155.737106 77.607292,152.430801 
	C74.398628,143.894623 75.832306,135.675720 81.343529,127.953819 
	C82.167198,126.799759 82.078110,124.782753 81.956230,123.199997 
	C81.216446,113.592354 84.703346,105.953728 93.204803,101.455986 
	C102.153160,96.721817 110.844017,98.210022 118.641823,104.699593 
	C123.126381,84.174858 131.469498,65.617767 144.343063,49.158421 
	C163.048248,25.243155 187.930222,11.523855 217.179947,4.982205 
	C221.702103,3.970832 226.180496,2.763689 230.339569,1.323539 
	C245.020889,1.000000 260.041779,1.000000 275.531342,0.999999 
M381.993500,130.800446 
	C381.302460,125.791595 380.908539,120.719986 379.866150,115.785362 
	C376.379333,99.279289 371.404205,83.247887 362.852631,68.583145 
	C354.916748,54.974190 344.608154,43.392307 331.919067,33.992180 
	C319.777802,24.997892 306.094482,19.175545 291.617615,15.378020 
	C279.468384,12.191069 267.170166,9.897427 254.421051,9.855578 
	C238.872665,9.804543 224.013626,12.647843 209.112595,16.816689 
	C179.229538,25.177036 157.113342,43.085571 141.815567,69.677261 
	C130.099762,90.042534 124.767189,112.456573 123.208038,135.623581 
	C122.375900,147.988144 123.330727,160.515533 124.084885,172.932632 
	C124.879196,186.010910 129.081116,198.298950 134.596588,210.102509 
	C145.590561,233.630508 163.588409,250.940582 184.144272,266.088837 
	C195.393265,274.378601 206.261200,283.256378 213.269409,295.744537 
	C217.364929,303.042511 220.534470,310.917084 225.133224,317.861664 
	C231.167892,326.974579 239.930527,332.171814 251.205032,333.067902 
	C266.503479,334.283783 281.377380,320.605804 285.997589,307.551208 
	C289.244751,298.376282 293.976440,289.968475 301.195587,283.469696 
	C311.540680,274.156952 322.318024,265.314270 333.082520,256.480133 
	C347.186371,244.905502 359.138489,231.562546 367.869080,215.462753 
	C378.602509,195.669724 382.623016,174.246796 382.933716,152.005646 
	C383.028015,145.254242 382.332794,138.491806 381.993500,130.800446 
M38.005932,305.385437 
	C38.670647,309.203186 39.924015,313.024536 39.900749,316.838074 
	C39.784325,335.919067 39.322002,354.997833 39.009201,374.077820 
	C38.944977,377.995453 38.999893,381.915100 38.999893,385.657349 
	C49.753994,385.657349 59.824745,385.657349 69.971878,385.657349 
	C68.240845,362.377258 66.535706,339.445312 64.832504,316.539490 
	C59.194386,314.478271 57.459118,311.318237 60.458595,308.265320 
	C61.603531,307.100006 63.519093,306.351318 65.186882,306.100494 
	C71.616005,305.133636 75.846626,301.439301 76.848709,295.298920 
	C77.845871,289.188690 78.979881,282.513611 77.536842,276.712341 
	C74.356178,263.925415 70.297493,251.241699 65.280556,239.057983 
	C59.873627,225.927200 59.215355,213.662430 66.924889,201.415146 
	C74.164856,189.913818 81.040916,178.161835 88.768959,166.999115 
	C92.250443,161.970322 95.907455,156.716110 103.089340,155.159546 
	C108.719910,153.939224 112.049126,146.079376 110.456139,140.928040 
	C108.288025,133.916885 101.876205,129.023026 96.177223,130.029572 
	C90.106453,131.101776 83.118309,138.584732 85.340553,143.851059 
	C89.148354,152.874908 86.170891,158.785782 79.885513,164.472290 
	C79.396111,164.915054 79.007576,165.467499 78.554260,165.952225 
	C64.363258,181.126846 54.277893,198.770645 46.933842,218.111954 
	C46.348660,219.653076 44.689415,221.484940 43.196236,221.861740 
	C36.756996,223.486618 35.027443,227.379639 38.496845,233.056396 
	C39.560406,234.796646 41.047333,236.922440 40.836765,238.692841 
	C39.434490,250.482727 37.918320,262.275848 35.859364,273.965820 
	C34.018459,284.417725 35.590092,294.460022 38.005932,305.385437 
M218.443192,354.038208 
	C215.381729,355.467285 212.402115,357.118164 209.243362,358.283539 
	C200.024796,361.684662 190.508408,364.378937 181.542770,368.334076 
	C174.106781,371.614471 168.517807,377.357880 166.047806,385.675415 
	C224.143463,385.675415 281.966858,385.675415 340.104950,385.675415 
	C337.453796,377.065948 331.599426,371.493408 324.250214,368.232788 
	C315.005920,364.131317 305.133545,361.465118 295.607819,357.973236 
	C285.182709,354.151703 277.434601,347.571594 274.454407,336.302643 
	C260.310944,343.876434 245.962952,344.105865 231.535660,336.846527 
	C229.358566,344.220795 225.245209,349.697296 218.443192,354.038208 
M76.134018,224.358536 
	C74.406647,225.477356 72.679268,226.596176 70.816383,227.802750 
	C72.686462,232.044907 74.474426,236.100784 75.802002,239.112305 
	C81.933647,237.975708 87.227242,236.595108 92.601143,236.116806 
	C97.441666,235.685989 99.342422,238.622055 98.193382,243.522522 
	C96.728851,249.768509 98.917603,255.618927 103.538292,257.809235 
	C108.722107,260.266479 114.815720,259.370056 117.919006,255.528961 
	C120.863724,251.884171 122.061882,247.630447 120.554581,243.149338 
	C118.931267,238.323318 115.349945,235.895126 110.188499,234.820618 
	C106.431580,234.038483 102.301819,232.371506 99.587265,229.787125 
	C92.896713,223.417358 85.807289,220.577209 76.134018,224.358536 
M107.873291,123.363083 
	C110.027527,124.937080 112.181755,126.511078 114.892876,128.491959 
	C114.720345,121.434120 118.285347,114.409515 110.252113,110.006577 
	C105.734039,107.530266 101.140717,106.962105 96.938042,109.778191 
	C92.906136,112.479851 90.768372,116.632095 91.112556,120.412086 
	C96.919159,121.357613 102.036842,122.190956 107.873291,123.363083 
z"/>
<path fill="#66FFB2" opacity="1.000000" stroke="none" 
	d="
M18.453995,137.802902 
	C14.491429,138.466385 12.728122,137.624924 11.826889,133.395096 
	C7.101073,111.215141 11.493045,90.621834 22.403679,71.331772 
	C31.559465,55.144291 45.225159,43.412460 62.033138,35.595631 
	C67.989754,32.825405 74.393204,30.831844 80.789993,29.316965 
	C82.465996,28.920053 84.880440,31.641302 86.955750,32.930534 
	C85.786140,34.619751 84.940056,37.344849 83.393700,37.827812 
	C74.272797,40.676502 65.368584,43.720963 57.159340,48.892056 
	C38.938725,60.369434 27.345037,76.490578 22.022379,97.208122 
	C19.116320,108.519478 18.756092,119.935280 20.832737,131.488586 
	C21.169552,133.362427 19.558289,135.586411 18.453995,137.802902 
z"/>
<path fill="#66FFB2" opacity="1.000000" stroke="none" 
	d="
M45.719994,78.695801 
	C55.558842,63.929375 69.688057,56.239956 86.064438,52.261292 
	C87.476120,51.918320 90.243813,54.347439 91.197243,56.124348 
	C91.667099,57.000019 89.752701,60.403999 88.363136,60.821983 
	C80.424446,63.209938 72.696991,65.832062 66.010582,70.977325 
	C54.379036,79.927917 46.235100,91.215858 44.165932,105.897957 
	C43.176441,112.919044 43.816860,120.199936 44.060520,127.351524 
	C44.175705,130.732239 42.686115,133.222916 39.903400,133.754044 
	C37.384895,134.234741 35.436207,132.690155 34.851448,129.227859 
	C31.774433,111.009178 34.519894,94.164085 45.719994,78.695801 
z"/>
<path fill="#66FFB2" opacity="1.000000" stroke="none" 
	d="
M68.249283,103.383392 
	C67.357971,109.361397 66.649719,114.992516 66.007759,120.631172 
	C65.877090,121.778893 66.398178,123.170799 65.914558,124.072334 
	C64.959579,125.852531 63.819679,128.207321 62.197861,128.802216 
	C59.595547,129.756744 57.773270,128.139374 56.938896,125.170731 
	C54.714222,117.255539 55.836075,109.397148 58.571548,102.152145 
	C63.904629,88.027290 73.657593,78.302071 89.012817,74.799370 
	C92.315552,74.045975 94.739403,74.055191 95.841927,77.061493 
	C97.115387,80.533913 94.523705,82.364838 91.642044,83.756897 
	C86.892052,86.051491 81.629730,87.782059 77.662506,91.057457 
	C73.876709,94.183052 71.469177,98.978043 68.249283,103.383392 
z"/>
<path fill="#000000" opacity="1.000000" stroke="none" 
	d="
M381.996338,131.267426 
	C382.332794,138.491806 383.028015,145.254242 382.933716,152.005646 
	C382.623016,174.246796 378.602509,195.669724 367.869080,215.462753 
	C359.138489,231.562546 347.186371,244.905502 333.082520,256.480133 
	C322.318024,265.314270 311.540680,274.156952 301.195587,283.469696 
	C293.976440,289.968475 289.244751,298.376282 285.997589,307.551208 
	C281.377380,320.605804 266.503479,334.283783 251.205032,333.067902 
	C239.930527,332.171814 231.167892,326.974579 225.133224,317.861664 
	C220.534470,310.917084 217.364929,303.042511 213.269409,295.744537 
	C206.261200,283.256378 195.393265,274.378601 184.144272,266.088837 
	C163.588409,250.940582 145.590561,233.630508 134.596588,210.102509 
	C129.081116,198.298950 124.879196,186.010910 124.084885,172.932632 
	C123.330727,160.515533 122.375900,147.988144 123.208038,135.623581 
	C124.767189,112.456573 130.099762,90.042534 141.815567,69.677261 
	C157.113342,43.085571 179.229538,25.177036 209.112595,16.816689 
	C224.013626,12.647843 238.872665,9.804543 254.421051,9.855578 
	C267.170166,9.897427 279.468384,12.191069 291.617615,15.378020 
	C306.094482,19.175545 319.777802,24.997892 331.919067,33.992180 
	C344.608154,43.392307 354.916748,54.974190 362.852631,68.583145 
	C371.404205,83.247887 376.379333,99.279289 379.866150,115.785362 
	C380.908539,120.719986 381.302460,125.791595 381.996338,131.267426 
M369.959106,183.057053 
	C370.111420,181.427078 370.159760,179.779465 370.432892,178.169998 
	C372.254272,167.437531 369.957886,157.656082 362.829193,149.464828 
	C355.694824,141.266998 346.315582,137.341797 335.510712,135.853729 
	C325.091339,134.418762 314.811829,134.195267 304.919556,137.669846 
	C282.524017,145.536179 268.797821,161.359955 264.345428,184.690460 
	C263.582520,188.687958 261.731598,194.057053 265.988129,197.298004 
	C285.648010,212.267227 307.582062,219.203705 332.411346,215.015335 
	C350.899780,211.896591 364.239380,202.610901 369.959106,183.057053 
M209.481003,140.922226 
	C196.688248,134.582062 183.255142,133.808304 169.361694,135.932800 
	C160.783356,137.244507 152.956070,140.230942 146.621613,146.049911 
	C140.102295,152.038696 136.075394,159.215378 135.720261,168.737152 
	C135.410294,177.048065 136.330978,184.927490 139.859299,192.159454 
	C147.359131,207.531845 161.280746,214.121521 177.238342,215.810684 
	C197.831131,217.990524 217.000977,213.110580 234.424881,201.383087 
	C239.982590,197.642365 243.810364,194.598328 242.194901,186.765747 
	C239.191437,172.203369 233.933182,159.194244 222.094330,149.625519 
	C218.305191,146.562958 214.200592,143.890671 209.481003,140.922226 
M242.788986,282.002686 
	C239.361923,283.391327 235.702072,284.403198 232.600906,286.319305 
	C230.919693,287.358063 229.481476,289.873627 229.303818,291.846375 
	C229.201096,292.986847 231.663467,295.086639 233.264282,295.444550 
	C234.820877,295.792542 236.871918,294.697693 238.497940,293.841553 
	C249.027710,288.297272 259.403961,288.492157 269.347626,294.981720 
	C272.603943,297.106873 274.693634,295.717133 275.821442,293.362122 
	C276.531433,291.879517 275.989319,288.376770 274.830200,287.643585 
	C265.279510,281.602112 254.924301,279.011658 242.788986,282.002686 
M263.553406,236.029556 
	C264.279083,236.350983 264.976379,236.787460 265.735168,236.974701 
	C269.931610,238.010208 271.875366,235.137970 271.645813,232.024750 
	C271.490540,229.919357 268.990173,226.652313 267.088165,226.293564 
	C263.353302,225.589127 261.797455,228.655746 262.039398,232.258224 
	C262.111633,233.334061 262.642975,234.379044 263.553406,236.029556 
M236.308960,234.805206 
	C238.214401,237.193268 241.025055,238.308487 243.043823,236.095078 
	C244.443405,234.560577 244.890717,231.232712 244.291428,229.124573 
	C243.890839,227.715439 240.783875,226.043915 239.103271,226.249496 
	C235.806168,226.652802 235.807663,229.776932 235.998215,232.517670 
	C236.032684,233.013458 236.024979,233.512207 236.308960,234.805206 
z"/>
<path fill="#000000" opacity="1.000000" stroke="none" 
	d="
M37.999176,304.956024 
	C35.590092,294.460022 34.018459,284.417725 35.859364,273.965820 
	C37.918320,262.275848 39.434490,250.482727 40.836765,238.692841 
	C41.047333,236.922440 39.560406,234.796646 38.496845,233.056396 
	C35.027443,227.379639 36.756996,223.486618 43.196236,221.861740 
	C44.689415,221.484940 46.348660,219.653076 46.933842,218.111954 
	C54.277893,198.770645 64.363258,181.126846 78.554260,165.952225 
	C79.007576,165.467499 79.396111,164.915054 79.885513,164.472290 
	C86.170891,158.785782 89.148354,152.874908 85.340553,143.851059 
	C83.118309,138.584732 90.106453,131.101776 96.177223,130.029572 
	C101.876205,129.023026 108.288025,133.916885 110.456139,140.928040 
	C112.049126,146.079376 108.719910,153.939224 103.089340,155.159546 
	C95.907455,156.716110 92.250443,161.970322 88.768959,166.999115 
	C81.040916,178.161835 74.164856,189.913818 66.924889,201.415146 
	C59.215355,213.662430 59.873627,225.927200 65.280556,239.057983 
	C70.297493,251.241699 74.356178,263.925415 77.536842,276.712341 
	C78.979881,282.513611 77.845871,289.188690 76.848709,295.298920 
	C75.846626,301.439301 71.616005,305.133636 65.186882,306.100494 
	C63.519093,306.351318 61.603531,307.100006 60.458595,308.265320 
	C57.459118,311.318237 59.194386,314.478271 64.832504,316.539490 
	C66.535706,339.445312 68.240845,362.377258 69.971878,385.657349 
	C59.824745,385.657349 49.753994,385.657349 38.999893,385.657349 
	C38.999893,381.915100 38.944977,377.995453 39.009201,374.077820 
	C39.322002,354.997833 39.784325,335.919067 39.900749,316.838074 
	C39.924015,313.024536 38.670647,309.203186 37.999176,304.956024 
z"/>
<path fill="#000000" opacity="1.000000" stroke="none" 
	d="
M218.715546,353.785889 
	C225.245209,349.697296 229.358566,344.220795 231.535660,336.846527 
	C245.962952,344.105865 260.310944,343.876434 274.454407,336.302643 
	C277.434601,347.571594 285.182709,354.151703 295.607819,357.973236 
	C305.133545,361.465118 315.005920,364.131317 324.250214,368.232788 
	C331.599426,371.493408 337.453796,377.065948 340.104950,385.675415 
	C281.966858,385.675415 224.143463,385.675415 166.047806,385.675415 
	C168.517807,377.357880 174.106781,371.614471 181.542770,368.334076 
	C190.508408,364.378937 200.024796,361.684662 209.243362,358.283539 
	C212.402115,357.118164 215.381729,355.467285 218.715546,353.785889 
z"/>
<path fill="#000000" opacity="1.000000" stroke="none" 
	d="
M76.498322,224.199982 
	C85.807289,220.577209 92.896713,223.417358 99.587265,229.787125 
	C102.301819,232.371506 106.431580,234.038483 110.188499,234.820618 
	C115.349945,235.895126 118.931267,238.323318 120.554581,243.149338 
	C122.061882,247.630447 120.863724,251.884171 117.919006,255.528961 
	C114.815720,259.370056 108.722107,260.266479 103.538292,257.809235 
	C98.917603,255.618927 96.728851,249.768509 98.193382,243.522522 
	C99.342422,238.622055 97.441666,235.685989 92.601143,236.116806 
	C87.227242,236.595108 81.933647,237.975708 75.802002,239.112305 
	C74.474426,236.100784 72.686462,232.044907 70.816383,227.802750 
	C72.679268,226.596176 74.406647,225.477356 76.498322,224.199982 
z"/>
<path fill="#000000" opacity="1.000000" stroke="none" 
	d="
M107.513916,123.193695 
	C102.036842,122.190956 96.919159,121.357613 91.112556,120.412086 
	C90.768372,116.632095 92.906136,112.479851 96.938042,109.778191 
	C101.140717,106.962105 105.734039,107.530266 110.252113,110.006577 
	C118.285347,114.409515 114.720345,121.434120 114.892876,128.491959 
	C112.181755,126.511078 110.027527,124.937080 107.513916,123.193695 
z"/>
<path fill="#66FFB2" opacity="1.000000" stroke="none" 
	d="
M369.804016,183.456253 
	C364.239380,202.610901 350.899780,211.896591 332.411346,215.015335 
	C307.582062,219.203705 285.648010,212.267227 265.988129,197.298004 
	C261.731598,194.057053 263.582520,188.687958 264.345428,184.690460 
	C268.797821,161.359955 282.524017,145.536179 304.919556,137.669846 
	C314.811829,134.195267 325.091339,134.418762 335.510712,135.853729 
	C346.315582,137.341797 355.694824,141.266998 362.829193,149.464828 
	C369.957886,157.656082 372.254272,167.437531 370.432892,178.169998 
	C370.159760,179.779465 370.111420,181.427078 369.804016,183.456253 
M352.955597,152.436356 
	C341.187347,144.144104 328.159210,142.392822 314.294159,144.992050 
	C293.290527,148.929535 279.201508,163.385498 273.929993,183.285645 
	C272.505890,188.661636 273.209564,192.467300 278.485809,194.828903 
	C285.544495,197.988327 292.374695,201.923492 299.723572,204.115784 
	C316.738983,209.191742 333.502045,209.062729 348.930328,198.584366 
	C363.403076,188.754944 365.742035,165.225922 352.955597,152.436356 
z"/>
<path fill="#66FFB2" opacity="1.000000" stroke="none" 
	d="
M209.860672,140.981018 
	C214.200592,143.890671 218.305191,146.562958 222.094330,149.625519 
	C233.933182,159.194244 239.191437,172.203369 242.194901,186.765747 
	C243.810364,194.598328 239.982590,197.642365 234.424881,201.383087 
	C217.000977,213.110580 197.831131,217.990524 177.238342,215.810684 
	C161.280746,214.121521 147.359131,207.531845 139.859299,192.159454 
	C136.330978,184.927490 135.410294,177.048065 135.720261,168.737152 
	C136.075394,159.215378 140.102295,152.038696 146.621613,146.049911 
	C152.956070,140.230942 160.783356,137.244507 169.361694,135.932800 
	C183.255142,133.808304 196.688248,134.582062 209.860672,140.981018 
M170.623032,205.004272 
	C173.615601,205.669006 176.577927,206.672806 179.605698,206.942902 
	C197.889664,208.574005 214.464386,203.390427 229.638931,193.534592 
	C231.420807,192.377274 233.133743,189.020447 232.798492,187.034424 
	C230.515839,173.512924 224.214523,162.136292 212.897232,154.012985 
	C198.439713,143.635712 182.349091,141.413986 165.508560,146.104340 
	C142.178162,152.602249 140.448196,174.952530 150.142654,191.551193 
	C154.498337,199.008911 162.006744,202.287521 170.623032,205.004272 
z"/>
<path fill="#66FFB2" opacity="1.000000" stroke="none" 
	d="
M243.221436,281.995605 
	C254.924301,279.011658 265.279510,281.602112 274.830200,287.643585 
	C275.989319,288.376770 276.531433,291.879517 275.821442,293.362122 
	C274.693634,295.717133 272.603943,297.106873 269.347626,294.981720 
	C259.403961,288.492157 249.027710,288.297272 238.497940,293.841553 
	C236.871918,294.697693 234.820877,295.792542 233.264282,295.444550 
	C231.663467,295.086639 229.201096,292.986847 229.303818,291.846375 
	C229.481476,289.873627 230.919693,287.358063 232.600906,286.319305 
	C235.702072,284.403198 239.361923,283.391327 243.221436,281.995605 
z"/>
<path fill="#66FFB2" opacity="1.000000" stroke="none" 
	d="
M263.258667,235.733856 
	C262.642975,234.379044 262.111633,233.334061 262.039398,232.258224 
	C261.797455,228.655746 263.353302,225.589127 267.088165,226.293564 
	C268.990173,226.652313 271.490540,229.919357 271.645813,232.024750 
	C271.875366,235.137970 269.931610,238.010208 265.735168,236.974701 
	C264.976379,236.787460 264.279083,236.350983 263.258667,235.733856 
z"/>
<path fill="#66FFB2" opacity="1.000000" stroke="none" 
	d="
M236.172852,234.407394 
	C236.024979,233.512207 236.032684,233.013458 235.998215,232.517670 
	C235.807663,229.776932 235.806168,226.652802 239.103271,226.249496 
	C240.783875,226.043915 243.890839,227.715439 244.291428,229.124573 
	C244.890717,231.232712 244.443405,234.560577 243.043823,236.095078 
	C241.025055,238.308487 238.214401,237.193268 236.172852,234.407394 
z"/>
<path fill="#000000" opacity="1.000000" stroke="none" 
	d="
M353.207520,152.704514 
	C365.742035,165.225922 363.403076,188.754944 348.930328,198.584366 
	C333.502045,209.062729 316.738983,209.191742 299.723572,204.115784 
	C292.374695,201.923492 285.544495,197.988327 278.485809,194.828903 
	C273.209564,192.467300 272.505890,188.661636 273.929993,183.285645 
	C279.201508,163.385498 293.290527,148.929535 314.294159,144.992050 
	C328.159210,142.392822 341.187347,144.144104 353.207520,152.704514 
z"/>
<path fill="#000000" opacity="1.000000" stroke="none" 
	d="
M170.206573,204.977158 
	C162.006744,202.287521 154.498337,199.008911 150.142654,191.551193 
	C140.448196,174.952530 142.178162,152.602249 165.508560,146.104340 
	C182.349091,141.413986 198.439713,143.635712 212.897232,154.012985 
	C224.214523,162.136292 230.515839,173.512924 232.798492,187.034424 
	C233.133743,189.020447 231.420807,192.377274 229.638931,193.534592 
	C214.464386,203.390427 197.889664,208.574005 179.605698,206.942902 
	C176.577927,206.672806 173.615601,205.669006 170.206573,204.977158 
z"/>
</svg>