<?xml version="1.0" encoding="utf-8"?>
<!-- Generator: Adobe Illustrator 16.0.0, SVG Export Plug-In . SVG Version: 6.00 Build 0)  -->
<!DOCTYPE svg PUBLIC "-//W3C//DTD SVG 1.1//EN" "http://www.w3.org/Graphics/SVG/1.1/DTD/svg11.dtd">
<svg version="1.1" id="Layer_1" xmlns="http://www.w3.org/2000/svg" xmlns:xlink="http://www.w3.org/1999/xlink" x="0px" y="0px"
	 width="512px" height="512px" viewBox="0 0 512 512" enable-background="new 0 0 512 512" xml:space="preserve">
<g>
	<g>
		<g>
			<g>
				<path fill="#13B3CA" d="M7.9,256C7.9,119,119,7.9,256,7.9C393,7.9,504.1,119,504.1,256c0,137-111.1,248.1-248.1,248.1
					C119,504.1,7.9,393,7.9,256z"/>
			</g>
		</g>
	</g>
	<g>
		<g>
			<g>
				<path fill="#10ABB6" d="M431.4,80.6c96.9,96.9,96.9,253.9,0,350.8c-96.9,96.9-254,96.9-350.8,0L431.4,80.6z"/>
			</g>
		</g>
		<g>
			<path fill="#0EA2A4" d="M488.1,343.6L350.8,206.2L326.1,231L217.6,122.5l-51,51l46.3,46.3l-37,37l62.2,62.2l-49.3,49.3L317,496.5
				C395.9,476.5,459.7,418.8,488.1,343.6z"/>
		</g>
	</g>
	<path id="Twitter_2_" fill="#FFFFFF" d="M332.2,325h-70.8c-9.8,0-18.2-3.4-25.1-10.4c-6.9-6.9-10.3-15.3-10.3-25.2v-25.2h100.8
		c9.1,0,16.9-3.3,23.4-9.8c6.5-6.5,9.8-14.4,9.8-23.5c0-9.1-3.3-16.9-9.8-23.5c-6.5-6.5-14.4-9.8-23.5-9.8H226.1v-52
		c0-9.8-3.5-18.3-10.5-25.3c-6.9-7-15.3-10.6-25.1-10.6c-10,0-18.6,3.5-25.5,10.4c-7,6.9-10.4,15.4-10.4,25.5v143.6
		c0,29.5,10.4,54.8,31.3,75.7c20.9,21,46.1,31.5,75.6,31.5h70.7c9.8,0,18.2-3.5,25.3-10.6c7-7,10.5-15.4,10.5-25.3
		c0-9.8-3.5-18.3-10.5-25.3C350.5,328.6,342,325,332.2,325z"/>
</g>
</svg>
