<svg version="1.1" id="Layer_1" xmlns="http://www.w3.org/2000/svg" xmlns:xlink="http://www.w3.org/1999/xlink" x="0px" y="0px"
	 width="100%" viewBox="0 0 200 200" enable-background="new 0 0 200 200" xml:space="preserve">
<path fill="#000000" opacity="1.000000" stroke="none" 
	d="
M1.000000,84.000000 
	C1.000000,56.000008 1.000000,28.500013 1.000000,1.000010 
	C66.333313,1.000000 131.666687,1.034227 196.999741,0.903363 
	C200.424316,0.896503 201.103775,1.575251 201.096710,5.000131 
	C200.965057,68.999847 200.965103,132.999985 201.096710,196.999695 
	C201.103775,200.424179 200.424896,201.103760 196.999924,201.096710 
	C133.000214,200.965057 69.000076,200.965073 5.000360,201.096680 
	C1.575975,201.103729 0.886834,200.426407 0.901233,196.999756 
	C1.058805,159.500351 1.000000,122.000053 1.000000,84.000000 
z"/>
<path fill="#DA70D6" opacity="1.000000" stroke="none" 
	d="
M156.986359,185.504166 
	C153.949707,192.462082 148.672684,194.233704 141.761597,194.102524 
	C125.109245,193.786453 108.446823,194.007278 91.788483,193.997604 
	C82.148705,193.992004 77.676895,189.892929 78.120529,180.475662 
	C78.384583,174.870438 77.189514,170.752838 72.666862,166.958817 
	C62.250271,158.220413 58.092487,146.025742 56.067760,133.079636 
	C54.480312,122.929504 50.026829,114.313370 43.283817,106.796288 
	C40.175270,103.330902 36.660660,100.233002 33.402981,96.897369 
	C28.951431,92.339302 27.726742,86.336731 30.302237,82.189041 
	C33.401958,77.197113 41.577473,73.762085 46.824245,75.349709 
	C54.870750,77.784538 60.633560,83.439789 65.736259,89.660622 
	C67.517685,91.832405 69.603439,93.525597 72.128227,95.420921 
	C71.320114,88.732445 70.572044,82.036018 69.689095,75.357437 
	C68.514397,66.472145 67.213730,57.603577 66.009659,48.722065 
	C65.480286,44.817238 64.855988,40.947182 64.938461,36.949032 
	C65.131317,27.600760 69.559845,23.071035 78.871246,22.957451 
	C81.012299,22.931334 83.284874,24.046963 84.504425,20.246437 
	C86.655029,13.544435 92.956909,10.287030 99.923790,11.002657 
	C105.304092,11.555313 110.835770,16.838392 111.917534,23.047781 
	C114.400528,37.300358 116.642548,51.594814 119.017677,65.866402 
	C119.381851,68.054649 119.933708,70.211678 120.559631,73.134277 
	C122.682022,67.473251 122.762619,62.069782 124.007477,56.936302 
	C126.598763,46.250553 126.665947,34.964134 131.133194,24.755356 
	C134.237305,17.661737 141.710510,15.249789 149.832779,18.021698 
	C156.139252,20.173927 158.671463,25.940996 157.124771,33.926521 
	C156.763962,35.789341 156.771057,37.753502 155.841766,39.988544 
	C161.995163,39.865810 167.833130,39.533337 172.146133,44.577316 
	C173.940247,46.675491 175.164871,48.720577 175.029724,51.587650 
	C174.628525,60.099739 173.050247,68.472229 172.193680,76.916924 
	C171.499527,83.760483 170.843475,90.610458 169.994308,97.438576 
	C167.999466,113.479195 166.827820,129.536469 166.756012,145.741760 
	C166.720078,153.850220 165.460114,162.407242 158.857773,168.636673 
	C157.822998,169.613022 158.021057,170.726181 158.006210,171.848755 
	C157.947479,176.284744 158.273712,180.747299 156.986359,185.504166 
z"/>
<path fill="#000000" opacity="1.000000" stroke="none" 
	d="
M88.967079,55.221321 
	C90.514153,64.478638 92.437706,73.250481 93.403214,82.126534 
	C93.957794,87.224808 97.591377,92.334648 93.296486,97.820824 
	C91.182541,100.521118 93.679031,103.700394 97.194618,102.838898 
	C99.984924,102.155121 103.301529,104.748207 105.359924,101.923500 
	C107.639542,98.795189 103.894478,96.727592 103.284111,94.155357 
	C101.411850,86.265190 100.373184,78.177383 99.006187,70.167145 
	C96.654808,56.388699 94.388985,42.594776 91.906487,28.839972 
	C90.801331,22.716679 91.925148,19.822519 96.379639,19.016779 
	C100.636139,18.246851 104.100990,21.137484 104.964043,26.407061 
	C108.013733,45.027618 110.974625,63.662735 114.040207,82.280640 
	C114.486794,84.992882 115.820679,87.636421 115.847862,90.320824 
	C115.882256,93.716545 118.242111,97.220772 114.393990,100.672577 
	C112.008278,102.812592 114.487328,106.315025 118.030502,105.901100 
	C119.774391,105.697372 121.392349,105.780617 123.083801,105.971390 
	C124.400963,106.119942 125.917534,106.227852 126.594254,104.756828 
	C127.300774,103.220978 127.700768,100.987579 126.405556,100.110222 
	C122.719879,97.613548 124.755478,94.307396 125.206909,91.726456 
	C128.252777,74.312431 131.675995,56.964188 135.011719,39.601303 
	C135.589890,36.591877 136.332611,33.614052 136.999619,30.621702 
	C137.919647,26.494295 140.251709,24.698919 144.703018,24.878176 
	C149.334122,25.064671 150.527313,27.494656 149.956528,31.331402 
	C148.927872,38.246075 147.638794,45.121910 146.466370,52.015308 
	C144.640778,62.748871 142.793518,73.478867 141.010590,84.219528 
	C139.944611,90.641243 138.983383,97.080338 137.977692,103.512039 
	C137.952087,103.675835 138.023636,103.934692 137.938187,103.997627 
	C135.550415,105.756500 133.525970,108.113152 135.623840,110.826935 
	C137.702957,113.516449 141.250687,111.593468 144.121338,111.965775 
	C148.267609,112.503517 149.186432,108.931602 147.745728,106.965439 
	C143.916016,101.738953 146.445404,96.539268 147.329575,91.760483 
	C149.398804,80.576645 151.140076,69.346474 153.014771,58.134819 
	C153.615479,54.542316 154.840836,51.259129 157.705429,48.729908 
	C160.065872,46.645805 162.697571,47.061611 164.771591,48.485962 
	C166.567108,49.719070 167.847916,51.380821 167.361679,54.548309 
	C165.797379,64.738693 165.380936,75.101997 163.916855,85.311867 
	C162.061798,98.248146 161.157578,111.286179 159.228470,124.221581 
	C158.183014,131.231766 158.899353,138.524261 159.039230,145.685150 
	C159.140961,150.893326 157.953491,155.655334 155.418900,160.190872 
	C153.804413,163.079926 152.111832,165.454453 148.263855,165.036545 
	C145.923019,164.782303 144.516830,166.235458 144.064575,168.380051 
	C143.568649,170.731857 145.092438,172.793320 147.004364,172.799591 
	C150.573990,172.811325 150.068832,174.924057 149.983688,177.002060 
	C149.847702,180.321060 150.951309,184.148499 146.724319,185.967758 
	C144.749985,186.817474 142.681534,187.045502 140.505341,187.035782 
	C125.177544,186.967255 109.849274,187.010010 94.521179,186.995087 
	C86.397560,186.987183 82.927757,182.317688 84.976128,174.511108 
	C85.608025,172.102905 87.297997,173.060181 88.527992,173.062210 
	C91.548180,173.067184 94.013428,172.340393 93.923775,168.845169 
	C93.842667,165.682983 91.475853,164.528946 88.707924,165.055145 
	C80.835342,166.551758 76.967468,161.099655 73.069221,156.068665 
	C66.735336,147.894318 64.673630,138.152756 62.833111,128.159958 
	C61.020519,118.318794 56.253899,109.530228 49.485825,102.034897 
	C46.364014,98.577652 42.931175,95.399300 39.605255,92.129181 
	C38.057373,90.607262 36.047821,89.087204 37.193787,86.687828 
	C38.302082,84.367317 40.540092,83.267807 43.194553,82.973045 
	C48.166325,82.420944 51.151028,86.006081 54.057346,88.769684 
	C61.662373,96.001282 68.018112,104.406746 74.152008,112.898483 
	C75.837814,115.232285 75.506310,118.786499 77.146591,121.453194 
	C79.569199,125.391762 82.931046,127.384789 87.657883,127.035286 
	C89.315987,126.912689 90.590935,126.605133 90.959846,124.774689 
	C91.292725,123.122948 90.792686,121.353256 89.350029,120.955116 
	C81.060799,118.667442 81.899597,111.471733 81.087975,105.467575 
	C79.448265,93.337517 78.010796,81.184280 76.108978,69.085022 
	C74.486649,58.763859 73.319153,48.370079 72.023819,37.999256 
	C71.572357,34.384769 74.829811,30.047077 78.397598,30.131445 
	C81.730850,30.210272 84.523720,31.402338 85.133194,35.716473 
	C86.038162,42.122337 87.637917,48.430046 88.967079,55.221321 
z"/>
</svg>