<svg version="1.1" id="Layer_1" xmlns="http://www.w3.org/2000/svg" xmlns:xlink="http://www.w3.org/1999/xlink" x="0px" y="0px"
	 width="100%" viewBox="0 0 200 200" enable-background="new 0 0 200 200" xml:space="preserve">
<path fill="#000000" opacity="1.000000" stroke="none" 
	d="
M128.000000,201.000000 
	C85.333336,201.000000 43.166672,201.000000 1.000006,201.000000 
	C1.000004,134.333344 1.000004,67.666679 1.000002,1.000015 
	C67.666656,1.000010 134.333313,1.000010 200.999969,1.000005 
	C200.999985,67.666649 200.999985,134.333298 201.000000,200.999969 
	C176.833328,201.000000 152.666672,201.000000 128.000000,201.000000 
M90.722153,177.958984 
	C99.980309,182.302185 109.278595,182.421997 118.435600,177.831711 
	C130.640274,171.713684 138.565994,161.385117 144.999405,149.801941 
	C152.523132,136.255737 157.964294,121.982140 160.261246,106.508537 
	C162.978058,88.206520 159.717896,71.573128 147.060379,57.696655 
	C130.225708,39.240753 109.129524,34.340748 85.866341,41.824368 
	C57.507889,50.947102 43.048149,80.350746 49.381432,109.785049 
	C52.632771,124.895859 57.612541,139.345642 65.883034,152.542191 
	C72.186829,162.600662 79.178757,171.944992 90.722153,177.958984 
z"/>
<path fill="#65FFB1" opacity="1.000000" stroke="none" 
	d="
M90.388718,177.760864 
	C79.178757,171.944992 72.186829,162.600662 65.883034,152.542191 
	C57.612541,139.345642 52.632771,124.895859 49.381432,109.785049 
	C43.048149,80.350746 57.507889,50.947102 85.866341,41.824368 
	C109.129524,34.340748 130.225708,39.240753 147.060379,57.696655 
	C159.717896,71.573128 162.978058,88.206520 160.261246,106.508537 
	C157.964294,121.982140 152.523132,136.255737 144.999405,149.801941 
	C138.565994,161.385117 130.640274,171.713684 118.435600,177.831711 
	C109.278595,182.421997 99.980309,182.302185 90.388718,177.760864 
M57.839985,78.380806 
	C52.589806,92.152748 54.502411,105.782509 58.641071,119.372963 
	C64.262772,137.833359 72.187660,154.958740 87.306511,167.752792 
	C92.777748,172.382721 99.181168,175.797882 106.466064,174.829453 
	C115.336922,173.650146 123.060822,168.892944 128.243729,161.902481 
	C134.873779,152.960159 141.312576,143.469696 145.544250,133.265945 
	C150.081100,122.326309 153.515121,110.431450 154.626343,98.688126 
	C156.210663,81.945213 149.519318,67.635201 136.217545,56.615017 
	C127.446701,49.348598 117.387589,45.617390 106.322601,45.105747 
	C85.372337,44.137005 65.070877,57.784863 57.839985,78.380806 
z"/>
<path fill="#000000" opacity="1.000000" stroke="none" 
	d="
M57.910637,77.986572 
	C65.070877,57.784863 85.372337,44.137005 106.322601,45.105747 
	C117.387589,45.617390 127.446701,49.348598 136.217545,56.615017 
	C149.519318,67.635201 156.210663,81.945213 154.626343,98.688126 
	C153.515121,110.431450 150.081100,122.326309 145.544250,133.265945 
	C141.312576,143.469696 134.873779,152.960159 128.243729,161.902481 
	C123.060822,168.892944 115.336922,173.650146 106.466064,174.829453 
	C99.181168,175.797882 92.777748,172.382721 87.306511,167.752792 
	C72.187660,154.958740 64.262772,137.833359 58.641071,119.372963 
	C54.502411,105.782509 52.589806,92.152748 57.910637,77.986572 
M69.992737,129.488113 
	C71.484604,135.836319 75.161858,138.825089 81.190521,139.034790 
	C87.995087,139.271469 93.740089,136.918503 99.485741,133.381653 
	C104.255112,130.445755 104.212738,122.777626 99.737450,119.817917 
	C93.626572,115.776527 87.330544,113.794479 80.019516,113.891563 
	C74.681084,113.962463 67.812134,121.047829 69.992737,129.488113 
M117.960945,128.555801 
	C117.486954,129.020340 117.016243,129.488297 116.538368,129.948807 
	C114.630196,131.787689 113.317993,134.090149 115.816483,135.952194 
	C116.696121,136.607758 119.358711,135.404312 120.883278,134.502213 
	C122.245583,133.696106 123.161705,132.135971 124.559448,130.594543 
	C126.250587,132.447754 127.456566,134.472519 129.237885,135.493103 
	C130.599442,136.273178 132.688965,135.782700 134.454666,135.857391 
	C134.280991,134.052048 134.652191,131.904053 133.789368,130.532120 
	C132.812378,128.978683 130.728729,128.121231 129.441650,127.189476 
	C131.443924,122.740051 137.047913,121.294395 133.803207,115.045982 
	C130.663376,117.014091 127.689476,118.878189 124.492203,120.882294 
	C123.879509,120.298637 123.002754,119.560951 122.241280,118.719009 
	C120.275787,116.545776 117.781105,114.280563 115.230423,116.772881 
	C112.555977,119.386147 115.325752,121.695999 117.208977,123.686676 
	C117.892586,124.409294 118.865021,124.999588 119.209465,125.850983 
	C119.427101,126.388992 118.726616,127.298416 117.960945,128.555801 
M112.904388,156.997238 
	C114.253822,155.666870 115.603256,154.336517 116.952675,153.006149 
	C115.281319,152.004074 113.657669,150.247040 111.929893,150.137863 
	C106.164795,149.773575 100.362038,150.036758 94.574432,149.982391 
	C92.080688,149.958954 89.896950,149.981689 89.964592,153.460449 
	C90.029625,156.805450 92.339859,156.942535 94.645210,156.973938 
	C100.432251,157.052765 106.221085,157.000549 112.904388,156.997238 
z"/>
<path fill="#66FFB2" opacity="1.000000" stroke="none" 
	d="
M69.966431,129.087936 
	C67.812134,121.047829 74.681084,113.962463 80.019516,113.891563 
	C87.330544,113.794479 93.626572,115.776527 99.737450,119.817917 
	C104.212738,122.777626 104.255112,130.445755 99.485741,133.381653 
	C93.740089,136.918503 87.995087,139.271469 81.190521,139.034790 
	C75.161858,138.825089 71.484604,135.836319 69.966431,129.087936 
z"/>
<path fill="#64FFB1" opacity="1.000000" stroke="none" 
	d="
M118.199448,128.298523 
	C118.726616,127.298416 119.427101,126.388992 119.209465,125.850983 
	C118.865021,124.999588 117.892586,124.409294 117.208977,123.686676 
	C115.325752,121.695999 112.555977,119.386147 115.230423,116.772881 
	C117.781105,114.280563 120.275787,116.545776 122.241280,118.719009 
	C123.002754,119.560951 123.879509,120.298637 124.492203,120.882294 
	C127.689476,118.878189 130.663376,117.014091 133.803207,115.045982 
	C137.047913,121.294395 131.443924,122.740051 129.441650,127.189476 
	C130.728729,128.121231 132.812378,128.978683 133.789368,130.532120 
	C134.652191,131.904053 134.280991,134.052048 134.454666,135.857391 
	C132.688965,135.782700 130.599442,136.273178 129.237885,135.493103 
	C127.456566,134.472519 126.250587,132.447754 124.559448,130.594543 
	C123.161705,132.135971 122.245583,133.696106 120.883278,134.502213 
	C119.358711,135.404312 116.696121,136.607758 115.816483,135.952194 
	C113.317993,134.090149 114.630196,131.787689 116.538368,129.948807 
	C117.016243,129.488297 117.486954,129.020340 118.199448,128.298523 
z"/>
<path fill="#64FFB1" opacity="1.000000" stroke="none" 
	d="
M112.456787,156.999054 
	C106.221085,157.000549 100.432251,157.052765 94.645210,156.973938 
	C92.339859,156.942535 90.029625,156.805450 89.964592,153.460449 
	C89.896950,149.981689 92.080688,149.958954 94.574432,149.982391 
	C100.362038,150.036758 106.164795,149.773575 111.929893,150.137863 
	C113.657669,150.247040 115.281319,152.004074 116.952682,153.006149 
	C115.603256,154.336517 114.253822,155.666870 112.456787,156.999054 
z"/>
</svg>